<?xml version="1.0" encoding="UTF-8" standalone="no"?>
<!DOCTYPE svg PUBLIC "-//W3C//DTD SVG 1.1//EN"
 "http://www.w3.org/Graphics/SVG/1.1/DTD/svg11.dtd">
<!-- Generated by graphviz version 2.43.0 (0)
 -->
<!-- Title: g Pages: 1 -->
<svg width="2075pt" height="476pt"
 viewBox="0.00 0.00 2074.50 476.00" xmlns="http://www.w3.org/2000/svg" xmlns:xlink="http://www.w3.org/1999/xlink">
<g id="graph0" class="graph" transform="scale(1 1) rotate(0) translate(4 472)">
<title>g</title>
<polygon fill="white" stroke="transparent" points="-4,4 -4,-472 2070.5,-472 2070.5,4 -4,4"/>
<!-- n99380012 -->
<g id="node1" class="node">
<title>n99380012</title>
<polygon fill="none" stroke="black" stroke-width="2" points="761.5,-468 669.5,-468 669.5,-432 761.5,-432 761.5,-468"/>
<text text-anchor="start" x="677.5" y="-447.3" font-family="Times,serif" font-size="14.00">friendly(</text>
<text text-anchor="start" x="725.5" y="-447.3" font-family="Times,serif" font-style="italic" font-size="14.00">Kim</text>
<text text-anchor="start" x="748.5" y="-447.3" font-family="Times,serif" font-size="14.00">)</text>
</g>
<!-- SUBSn11351946n99380012 -->
<g id="node2" class="node">
<title>SUBSn11351946n99380012</title>
<text text-anchor="start" x="391.5" y="-374.3" font-family="Times,serif" font-size="14.00">{x2: Kim}</text>
</g>
<!-- n99380012&#45;&gt;SUBSn11351946n99380012 -->
<g id="edge1" class="edge">
<title>n99380012&#45;&gt;SUBSn11351946n99380012</title>
<path fill="none" stroke="black" d="M669.24,-437.99C611.35,-424.2 513.29,-400.86 459.54,-388.06"/>
</g>
<!-- SUBSn90706636n99380012 -->
<g id="node16" class="node">
<title>SUBSn90706636n99380012</title>
<text text-anchor="start" x="1062.5" y="-230.3" font-family="Times,serif" font-size="14.00">{x1: Kim}</text>
</g>
<!-- n99380012&#45;&gt;SUBSn90706636n99380012 -->
<g id="edge7" class="edge">
<title>n99380012&#45;&gt;SUBSn90706636n99380012</title>
<path fill="none" stroke="black" d="M735.24,-431.89C780.77,-392.52 890.79,-298.15 910.5,-288 965.71,-259.58 986.25,-270.58 1045.5,-252 1048.4,-251.09 1051.38,-250.11 1054.37,-249.1"/>
</g>
<!-- SUBSn48451657n99380012 -->
<g id="node37" class="node">
<title>SUBSn48451657n99380012</title>
<text text-anchor="start" x="699.5" y="-374.3" font-family="Times,serif" font-size="14.00">{x1: Kim}</text>
</g>
<!-- n99380012&#45;&gt;SUBSn48451657n99380012 -->
<g id="edge23" class="edge">
<title>n99380012&#45;&gt;SUBSn48451657n99380012</title>
<path fill="none" stroke="black" d="M718.96,-431.7C721.13,-420.85 723.92,-406.92 726.08,-396.1"/>
</g>
<!-- n36100080 -->
<g id="node19" class="node">
<title>n36100080</title>
<polygon fill="none" stroke="black" points="529,-324 314,-324 314,-288 529,-288 529,-324"/>
<text text-anchor="start" x="322" y="-303.3" font-family="Times,serif" font-size="14.00">loves(</text>
<text text-anchor="start" x="356" y="-303.3" font-family="Times,serif" font-style="italic" font-size="14.00">SKF0</text>
<text text-anchor="start" x="387" y="-303.3" font-family="Times,serif" font-size="14.00">(</text>
<text text-anchor="start" x="392" y="-303.3" font-family="Times,serif" font-style="italic" font-size="14.00">Kim</text>
<text text-anchor="start" x="415" y="-303.3" font-family="Times,serif" font-size="14.00">), </text>
<text text-anchor="start" x="428" y="-303.3" font-family="Times,serif" font-style="italic" font-size="14.00">Kim</text>
<text text-anchor="start" x="451" y="-303.3" font-family="Times,serif" font-size="14.00">), !dog(</text>
<text text-anchor="start" x="493" y="-303.3" font-family="Times,serif" font-style="italic" font-size="14.00">Kim</text>
<text text-anchor="start" x="516" y="-303.3" font-family="Times,serif" font-size="14.00">)</text>
</g>
<!-- SUBSn11351946n99380012&#45;&gt;n36100080 -->
<g id="edge27" class="edge">
<title>SUBSn11351946n99380012&#45;&gt;n36100080</title>
<path fill="none" stroke="black" d="M421.5,-359.7C421.5,-351.98 421.5,-342.71 421.5,-334.11"/>
<polygon fill="black" stroke="black" points="425,-334.1 421.5,-324.1 418,-334.1 425,-334.1"/>
</g>
<!-- SUBSn86312543n07831241 -->
<g id="node3" class="node">
<title>SUBSn86312543n07831241</title>
<text text-anchor="start" x="1261.5" y="-374.3" font-family="Times,serif" font-size="14.00">{x4: H227, x3: H227}</text>
</g>
<!-- n10600359 -->
<g id="node42" class="node">
<title>n10600359</title>
<polygon fill="none" stroke="black" points="1402.5,-324 1228.5,-324 1228.5,-288 1402.5,-288 1402.5,-324"/>
<text text-anchor="start" x="1236.5" y="-303.3" font-family="Times,serif" font-size="14.00">animal(</text>
<text text-anchor="start" x="1279.5" y="-303.3" font-family="Times,serif" font-weight="bold" font-size="14.00">H227</text>
<text text-anchor="start" x="1311.5" y="-303.3" font-family="Times,serif" font-size="14.00">), !man(</text>
<text text-anchor="start" x="1357.5" y="-303.3" font-family="Times,serif" font-weight="bold" font-size="14.00">H227</text>
<text text-anchor="start" x="1389.5" y="-303.3" font-family="Times,serif" font-size="14.00">)</text>
</g>
<!-- SUBSn86312543n07831241&#45;&gt;n10600359 -->
<g id="edge38" class="edge">
<title>SUBSn86312543n07831241&#45;&gt;n10600359</title>
<path fill="none" stroke="black" d="M1321.52,-359.7C1320.64,-351.98 1319.58,-342.71 1318.6,-334.11"/>
<polygon fill="black" stroke="black" points="1322.07,-333.64 1317.45,-324.1 1315.11,-334.44 1322.07,-333.64"/>
</g>
<!-- n62120066 -->
<g id="node4" class="node">
<title>n62120066</title>
<polygon fill="none" stroke="black" stroke-width="2" points="1934.5,-468 1854.5,-468 1854.5,-432 1934.5,-432 1934.5,-468"/>
<text text-anchor="start" x="1862.5" y="-447.3" font-family="Times,serif" font-size="14.00">angry(</text>
<text text-anchor="start" x="1898.5" y="-447.3" font-family="Times,serif" font-style="italic" font-size="14.00">SK0</text>
<text text-anchor="start" x="1921.5" y="-447.3" font-family="Times,serif" font-size="14.00">)</text>
</g>
<!-- SUBSn76773112n36100080 -->
<g id="node5" class="node">
<title>SUBSn76773112n36100080</title>
<text text-anchor="start" x="428.5" y="-230.3" font-family="Times,serif" font-size="14.00">{}</text>
</g>
<!-- n41490673 -->
<g id="node6" class="node">
<title>n41490673</title>
<polygon fill="none" stroke="black" points="510.5,-180 360.5,-180 360.5,-144 510.5,-144 510.5,-180"/>
<text text-anchor="start" x="368.5" y="-159.3" font-family="Times,serif" font-size="14.00">loves(</text>
<text text-anchor="start" x="402.5" y="-159.3" font-family="Times,serif" font-style="italic" font-size="14.00">SKF0</text>
<text text-anchor="start" x="433.5" y="-159.3" font-family="Times,serif" font-size="14.00">(</text>
<text text-anchor="start" x="438.5" y="-159.3" font-family="Times,serif" font-style="italic" font-size="14.00">Kim</text>
<text text-anchor="start" x="461.5" y="-159.3" font-family="Times,serif" font-size="14.00">), </text>
<text text-anchor="start" x="474.5" y="-159.3" font-family="Times,serif" font-style="italic" font-size="14.00">Kim</text>
<text text-anchor="start" x="497.5" y="-159.3" font-family="Times,serif" font-size="14.00">)</text>
</g>
<!-- SUBSn76773112n36100080&#45;&gt;n41490673 -->
<g id="edge2" class="edge">
<title>SUBSn76773112n36100080&#45;&gt;n41490673</title>
<path fill="none" stroke="black" d="M435.5,-215.7C435.5,-207.98 435.5,-198.71 435.5,-190.11"/>
<polygon fill="black" stroke="black" points="439,-190.1 435.5,-180.1 432,-190.1 439,-190.1"/>
</g>
<!-- n11351946 -->
<g id="node7" class="node">
<title>n11351946</title>
<polygon fill="none" stroke="black" stroke-width="2" points="410.5,-468 144.5,-468 144.5,-432 410.5,-432 410.5,-468"/>
<text text-anchor="start" x="152.5" y="-447.3" font-family="Times,serif" font-size="14.00">!friendly(</text>
<text text-anchor="start" x="204.5" y="-447.3" font-family="Times,serif" font-weight="bold" font-size="14.00">x2</text>
<text text-anchor="start" x="218.5" y="-447.3" font-family="Times,serif" font-size="14.00">), !dog(</text>
<text text-anchor="start" x="260.5" y="-447.3" font-family="Times,serif" font-weight="bold" font-size="14.00">x2</text>
<text text-anchor="start" x="274.5" y="-447.3" font-family="Times,serif" font-size="14.00">), loves(</text>
<text text-anchor="start" x="320.5" y="-447.3" font-family="Times,serif" font-style="italic" font-size="14.00">SKF0</text>
<text text-anchor="start" x="351.5" y="-447.3" font-family="Times,serif" font-size="14.00">(</text>
<text text-anchor="start" x="356.5" y="-447.3" font-family="Times,serif" font-weight="bold" font-size="14.00">x2</text>
<text text-anchor="start" x="370.5" y="-447.3" font-family="Times,serif" font-size="14.00">), </text>
<text text-anchor="start" x="383.5" y="-447.3" font-family="Times,serif" font-weight="bold" font-size="14.00">x2</text>
<text text-anchor="start" x="397.5" y="-447.3" font-family="Times,serif" font-size="14.00">)</text>
</g>
<!-- n11351946&#45;&gt;SUBSn11351946n99380012 -->
<g id="edge3" class="edge">
<title>n11351946&#45;&gt;SUBSn11351946n99380012</title>
<path fill="none" stroke="black" d="M312.73,-431.88C335.04,-421.03 363.8,-407.05 386.14,-396.19"/>
</g>
<!-- SUBSn76773112n11351946 -->
<g id="node14" class="node">
<title>SUBSn76773112n11351946</title>
<text text-anchor="start" x="103.5" y="-230.3" font-family="Times,serif" font-size="14.00">{x2: Kim}</text>
</g>
<!-- n11351946&#45;&gt;SUBSn76773112n11351946 -->
<g id="edge39" class="edge">
<title>n11351946&#45;&gt;SUBSn76773112n11351946</title>
<path fill="none" stroke="black" d="M253.35,-431.87C224.64,-410.16 177.49,-369.97 152.5,-324 140.05,-301.1 135.76,-270.74 134.28,-252.06"/>
</g>
<!-- n14653799 -->
<g id="node8" class="node">
<title>n14653799</title>
<polygon fill="none" stroke="black" stroke-width="2" points="1498.5,-468 1420.5,-468 1420.5,-432 1498.5,-432 1498.5,-468"/>
<text text-anchor="start" x="1428.5" y="-447.3" font-family="Times,serif" font-size="14.00">man(</text>
<text text-anchor="start" x="1457.5" y="-447.3" font-family="Times,serif" font-style="italic" font-size="14.00">Mike</text>
<text text-anchor="start" x="1485.5" y="-447.3" font-family="Times,serif" font-size="14.00">)</text>
</g>
<!-- SUBSn07831241n14653799 -->
<g id="node9" class="node">
<title>SUBSn07831241n14653799</title>
<text text-anchor="start" x="1587.5" y="-374.3" font-family="Times,serif" font-size="14.00">{x3: Mike}</text>
</g>
<!-- n14653799&#45;&gt;SUBSn07831241n14653799 -->
<g id="edge4" class="edge">
<title>n14653799&#45;&gt;SUBSn07831241n14653799</title>
<path fill="none" stroke="black" d="M1498.64,-431.88C1523.53,-420.99 1555.62,-406.95 1580.49,-396.07"/>
</g>
<!-- SUBSn14653799n31729710 -->
<g id="node29" class="node">
<title>SUBSn14653799n31729710</title>
<text text-anchor="start" x="1429" y="-230.3" font-family="Times,serif" font-size="14.00">{H226: Mike}</text>
</g>
<!-- n14653799&#45;&gt;SUBSn14653799n31729710 -->
<g id="edge42" class="edge">
<title>n14653799&#45;&gt;SUBSn14653799n31729710</title>
<path fill="none" stroke="black" d="M1420.44,-435.77C1416.09,-434.44 1411.71,-433.15 1407.5,-432 1335.93,-412.45 1299.93,-445.31 1244.5,-396 1207.69,-363.25 1188.48,-326.28 1219.5,-288 1244.36,-257.32 1355.51,-243.68 1420.94,-238.22"/>
</g>
<!-- n82788966 -->
<g id="node18" class="node">
<title>n82788966</title>
<polygon fill="none" stroke="black" points="1702.5,-324 1612.5,-324 1612.5,-288 1702.5,-288 1702.5,-324"/>
<text text-anchor="start" x="1620.5" y="-303.3" font-family="Times,serif" font-size="14.00">person(</text>
<text text-anchor="start" x="1661.5" y="-303.3" font-family="Times,serif" font-style="italic" font-size="14.00">Mike</text>
<text text-anchor="start" x="1689.5" y="-303.3" font-family="Times,serif" font-size="14.00">)</text>
</g>
<!-- SUBSn07831241n14653799&#45;&gt;n82788966 -->
<g id="edge9" class="edge">
<title>SUBSn07831241n14653799&#45;&gt;n82788966</title>
<path fill="none" stroke="black" d="M1628.89,-359.7C1633.26,-351.64 1638.56,-341.89 1643.4,-332.98"/>
<polygon fill="black" stroke="black" points="1646.52,-334.56 1648.21,-324.1 1640.37,-331.22 1646.52,-334.56"/>
</g>
<!-- SUBSn76773112n29273322 -->
<g id="node10" class="node">
<title>SUBSn76773112n29273322</title>
<text text-anchor="start" x="268.5" y="-230.3" font-family="Times,serif" font-size="14.00">{x0: Kim}</text>
</g>
<!-- n62855439 -->
<g id="node36" class="node">
<title>n62855439</title>
<polygon fill="none" stroke="black" points="342,-180 255,-180 255,-144 342,-144 342,-180"/>
<text text-anchor="start" x="263" y="-159.3" font-family="Times,serif" font-size="14.00">animal(</text>
<text text-anchor="start" x="306" y="-159.3" font-family="Times,serif" font-style="italic" font-size="14.00">Kim</text>
<text text-anchor="start" x="329" y="-159.3" font-family="Times,serif" font-size="14.00">)</text>
</g>
<!-- SUBSn76773112n29273322&#45;&gt;n62855439 -->
<g id="edge40" class="edge">
<title>SUBSn76773112n29273322&#45;&gt;n62855439</title>
<path fill="none" stroke="black" d="M298.5,-215.7C298.5,-207.98 298.5,-198.71 298.5,-190.11"/>
<polygon fill="black" stroke="black" points="302,-190.1 298.5,-180.1 295,-190.1 302,-190.1"/>
</g>
<!-- n86312543 -->
<g id="node11" class="node">
<title>n86312543</title>
<polygon fill="none" stroke="black" stroke-width="2" points="1398.5,-468 1248.5,-468 1248.5,-432 1398.5,-432 1398.5,-468"/>
<text text-anchor="start" x="1256.5" y="-447.3" font-family="Times,serif" font-size="14.00">!person(</text>
<text text-anchor="start" x="1302.5" y="-447.3" font-family="Times,serif" font-weight="bold" font-size="14.00">x4</text>
<text text-anchor="start" x="1316.5" y="-447.3" font-family="Times,serif" font-size="14.00">), animal(</text>
<text text-anchor="start" x="1371.5" y="-447.3" font-family="Times,serif" font-weight="bold" font-size="14.00">x4</text>
<text text-anchor="start" x="1385.5" y="-447.3" font-family="Times,serif" font-size="14.00">)</text>
</g>
<!-- n86312543&#45;&gt;SUBSn86312543n07831241 -->
<g id="edge32" class="edge">
<title>n86312543&#45;&gt;SUBSn86312543n07831241</title>
<path fill="none" stroke="black" d="M1323.5,-431.7C1323.5,-420.85 1323.5,-406.92 1323.5,-396.1"/>
</g>
<!-- SUBSn48451657n86312543 -->
<g id="node24" class="node">
<title>SUBSn48451657n86312543</title>
<text text-anchor="start" x="1001" y="-374.3" font-family="Times,serif" font-size="14.00">{x4: SKF0(x1)}</text>
</g>
<!-- n86312543&#45;&gt;SUBSn48451657n86312543 -->
<g id="edge35" class="edge">
<title>n86312543&#45;&gt;SUBSn48451657n86312543</title>
<path fill="none" stroke="black" d="M1255.85,-431.97C1207.31,-419.74 1142.85,-403.51 1098.14,-392.25"/>
</g>
<!-- SUBSn07831241n86312543 -->
<g id="node31" class="node">
<title>SUBSn07831241n86312543</title>
<text text-anchor="start" x="1429.5" y="-374.3" font-family="Times,serif" font-size="14.00">{x3: H226, x4: H226}</text>
</g>
<!-- n86312543&#45;&gt;SUBSn07831241n86312543 -->
<g id="edge29" class="edge">
<title>n86312543&#45;&gt;SUBSn07831241n86312543</title>
<path fill="none" stroke="black" d="M1364.6,-431.88C1390.73,-420.99 1424.43,-406.95 1450.54,-396.07"/>
</g>
<!-- n76773112 -->
<g id="node12" class="node">
<title>n76773112</title>
<polygon fill="none" stroke="black" stroke-width="2" points="616,-324 547,-324 547,-288 616,-288 616,-324"/>
<text text-anchor="start" x="555" y="-303.3" font-family="Times,serif" font-size="14.00">dog(</text>
<text text-anchor="start" x="580" y="-303.3" font-family="Times,serif" font-style="italic" font-size="14.00">Kim</text>
<text text-anchor="start" x="603" y="-303.3" font-family="Times,serif" font-size="14.00">)</text>
</g>
<!-- n76773112&#45;&gt;SUBSn76773112n36100080 -->
<g id="edge48" class="edge">
<title>n76773112&#45;&gt;SUBSn76773112n36100080</title>
<path fill="none" stroke="black" d="M546.9,-288.41C521.1,-276.04 486.35,-259.38 462.56,-247.97"/>
</g>
<!-- n76773112&#45;&gt;SUBSn76773112n29273322 -->
<g id="edge47" class="edge">
<title>n76773112&#45;&gt;SUBSn76773112n29273322</title>
<path fill="none" stroke="black" d="M546.6,-290.97C543.54,-289.91 540.48,-288.9 537.5,-288 467.73,-266.92 384.18,-250.29 336.62,-241.62"/>
</g>
<!-- n76773112&#45;&gt;SUBSn76773112n11351946 -->
<g id="edge33" class="edge">
<title>n76773112&#45;&gt;SUBSn76773112n11351946</title>
<path fill="none" stroke="black" d="M546.69,-290.67C543.61,-289.67 540.52,-288.76 537.5,-288 413.27,-256.68 378.46,-269.13 251.5,-252 224.83,-248.4 194.82,-244.07 171.74,-240.69"/>
</g>
<!-- SUBSn76773112n48451657 -->
<g id="node22" class="node">
<title>SUBSn76773112n48451657</title>
<text text-anchor="start" x="787.5" y="-230.3" font-family="Times,serif" font-size="14.00">{x1: Kim}</text>
</g>
<!-- n76773112&#45;&gt;SUBSn76773112n48451657 -->
<g id="edge44" class="edge">
<title>n76773112&#45;&gt;SUBSn76773112n48451657</title>
<path fill="none" stroke="black" d="M616.45,-291.14C619.5,-290.04 622.55,-288.98 625.5,-288 678.2,-270.59 740.29,-254.18 779.28,-244.36"/>
</g>
<!-- SUBSn76773112n42161858 -->
<g id="node26" class="node">
<title>SUBSn76773112n42161858</title>
<text text-anchor="start" x="897.5" y="-86.3" font-family="Times,serif" font-size="14.00">{}</text>
</g>
<!-- n76773112&#45;&gt;SUBSn76773112n42161858 -->
<g id="edge13" class="edge">
<title>n76773112&#45;&gt;SUBSn76773112n42161858</title>
<path fill="none" stroke="black" d="M571.12,-287.56C553.32,-255.14 522.15,-185.16 557.5,-144 598.89,-95.8 803.04,-90.96 877.37,-90.82"/>
</g>
<!-- SUBSn76773112n68376634 -->
<g id="node27" class="node">
<title>SUBSn76773112n68376634</title>
<text text-anchor="start" x="622.5" y="-230.3" font-family="Times,serif" font-size="14.00">{}</text>
</g>
<!-- n76773112&#45;&gt;SUBSn76773112n68376634 -->
<g id="edge22" class="edge">
<title>n76773112&#45;&gt;SUBSn76773112n68376634</title>
<path fill="none" stroke="black" d="M593.37,-287.7C600.81,-276.85 610.36,-262.92 617.77,-252.1"/>
</g>
<!-- SUBSn76773112n90706636 -->
<g id="node43" class="node">
<title>SUBSn76773112n90706636</title>
<text text-anchor="start" x="968.5" y="-230.3" font-family="Times,serif" font-size="14.00">{x1: Kim}</text>
</g>
<!-- n76773112&#45;&gt;SUBSn76773112n90706636 -->
<g id="edge45" class="edge">
<title>n76773112&#45;&gt;SUBSn76773112n90706636</title>
<path fill="none" stroke="black" d="M616.33,-290.72C619.4,-289.71 622.49,-288.78 625.5,-288 657.5,-279.66 871.75,-251.42 960.31,-239.93"/>
</g>
<!-- n07831241 -->
<g id="node13" class="node">
<title>n07831241</title>
<polygon fill="none" stroke="black" stroke-width="2" points="1683.5,-468 1547.5,-468 1547.5,-432 1683.5,-432 1683.5,-468"/>
<text text-anchor="start" x="1555.5" y="-447.3" font-family="Times,serif" font-size="14.00">!man(</text>
<text text-anchor="start" x="1589.5" y="-447.3" font-family="Times,serif" font-weight="bold" font-size="14.00">x3</text>
<text text-anchor="start" x="1603.5" y="-447.3" font-family="Times,serif" font-size="14.00">), person(</text>
<text text-anchor="start" x="1656.5" y="-447.3" font-family="Times,serif" font-weight="bold" font-size="14.00">x3</text>
<text text-anchor="start" x="1670.5" y="-447.3" font-family="Times,serif" font-size="14.00">)</text>
</g>
<!-- n07831241&#45;&gt;SUBSn86312543n07831241 -->
<g id="edge5" class="edge">
<title>n07831241&#45;&gt;SUBSn86312543n07831241</title>
<path fill="none" stroke="black" d="M1547.41,-432.68C1501.23,-421.61 1440.35,-407.01 1393.73,-395.84"/>
</g>
<!-- n07831241&#45;&gt;SUBSn07831241n14653799 -->
<g id="edge17" class="edge">
<title>n07831241&#45;&gt;SUBSn07831241n14653799</title>
<path fill="none" stroke="black" d="M1616.49,-431.7C1617.11,-420.85 1617.9,-406.92 1618.52,-396.1"/>
</g>
<!-- SUBSn07831241n50984707 -->
<g id="node17" class="node">
<title>SUBSn07831241n50984707</title>
<text text-anchor="start" x="1734" y="-374.3" font-family="Times,serif" font-size="14.00">{x3: SK0}</text>
</g>
<!-- n07831241&#45;&gt;SUBSn07831241n50984707 -->
<g id="edge8" class="edge">
<title>n07831241&#45;&gt;SUBSn07831241n50984707</title>
<path fill="none" stroke="black" d="M1651.7,-431.88C1674.72,-420.99 1704.42,-406.95 1727.41,-396.07"/>
</g>
<!-- n07831241&#45;&gt;SUBSn07831241n86312543 -->
<g id="edge19" class="edge">
<title>n07831241&#45;&gt;SUBSn07831241n86312543</title>
<path fill="none" stroke="black" d="M1585.17,-431.88C1565.95,-421.03 1541.19,-407.05 1521.95,-396.19"/>
</g>
<!-- n58706980 -->
<g id="node15" class="node">
<title>n58706980</title>
<polygon fill="none" stroke="black" points="237,-180 0,-180 0,-144 237,-144 237,-180"/>
<text text-anchor="start" x="8" y="-159.3" font-family="Times,serif" font-size="14.00">!friendly(</text>
<text text-anchor="start" x="60" y="-159.3" font-family="Times,serif" font-style="italic" font-size="14.00">Kim</text>
<text text-anchor="start" x="83" y="-159.3" font-family="Times,serif" font-size="14.00">), loves(</text>
<text text-anchor="start" x="129" y="-159.3" font-family="Times,serif" font-style="italic" font-size="14.00">SKF0</text>
<text text-anchor="start" x="160" y="-159.3" font-family="Times,serif" font-size="14.00">(</text>
<text text-anchor="start" x="165" y="-159.3" font-family="Times,serif" font-style="italic" font-size="14.00">Kim</text>
<text text-anchor="start" x="188" y="-159.3" font-family="Times,serif" font-size="14.00">), </text>
<text text-anchor="start" x="201" y="-159.3" font-family="Times,serif" font-style="italic" font-size="14.00">Kim</text>
<text text-anchor="start" x="224" y="-159.3" font-family="Times,serif" font-size="14.00">)</text>
</g>
<!-- SUBSn76773112n11351946&#45;&gt;n58706980 -->
<g id="edge6" class="edge">
<title>SUBSn76773112n11351946&#45;&gt;n58706980</title>
<path fill="none" stroke="black" d="M129.79,-215.7C128.14,-207.98 126.15,-198.71 124.31,-190.11"/>
<polygon fill="black" stroke="black" points="127.68,-189.15 122.17,-180.1 120.84,-190.62 127.68,-189.15"/>
</g>
<!-- n42161858 -->
<g id="node21" class="node">
<title>n42161858</title>
<polygon fill="none" stroke="black" points="1367.5,-180 1175.5,-180 1175.5,-144 1367.5,-144 1367.5,-180"/>
<text text-anchor="start" x="1183.5" y="-159.3" font-family="Times,serif" font-size="14.00">animal(</text>
<text text-anchor="start" x="1226.5" y="-159.3" font-family="Times,serif" font-style="italic" font-size="14.00">SKF0</text>
<text text-anchor="start" x="1257.5" y="-159.3" font-family="Times,serif" font-size="14.00">(</text>
<text text-anchor="start" x="1262.5" y="-159.3" font-family="Times,serif" font-style="italic" font-size="14.00">Kim</text>
<text text-anchor="start" x="1285.5" y="-159.3" font-family="Times,serif" font-size="14.00">)), !dog(</text>
<text text-anchor="start" x="1331.5" y="-159.3" font-family="Times,serif" font-style="italic" font-size="14.00">Kim</text>
<text text-anchor="start" x="1354.5" y="-159.3" font-family="Times,serif" font-size="14.00">)</text>
</g>
<!-- SUBSn90706636n99380012&#45;&gt;n42161858 -->
<g id="edge30" class="edge">
<title>SUBSn90706636n99380012&#45;&gt;n42161858</title>
<path fill="none" stroke="black" d="M1130.9,-217.98C1156.35,-208.03 1190.1,-194.83 1218.15,-183.86"/>
<polygon fill="black" stroke="black" points="1219.78,-186.99 1227.81,-180.08 1217.23,-180.47 1219.78,-186.99"/>
</g>
<!-- n32813825 -->
<g id="node20" class="node">
<title>n32813825</title>
<polygon fill="none" stroke="black" points="1806,-324 1721,-324 1721,-288 1806,-288 1806,-324"/>
<text text-anchor="start" x="1729" y="-303.3" font-family="Times,serif" font-size="14.00">person(</text>
<text text-anchor="start" x="1770" y="-303.3" font-family="Times,serif" font-style="italic" font-size="14.00">SK0</text>
<text text-anchor="start" x="1793" y="-303.3" font-family="Times,serif" font-size="14.00">)</text>
</g>
<!-- SUBSn07831241n50984707&#45;&gt;n32813825 -->
<g id="edge10" class="edge">
<title>SUBSn07831241n50984707&#45;&gt;n32813825</title>
<path fill="none" stroke="black" d="M1763.5,-359.7C1763.5,-351.98 1763.5,-342.71 1763.5,-334.11"/>
<polygon fill="black" stroke="black" points="1767,-334.1 1763.5,-324.1 1760,-334.1 1767,-334.1"/>
</g>
<!-- n36100080&#45;&gt;SUBSn76773112n36100080 -->
<g id="edge37" class="edge">
<title>n36100080&#45;&gt;SUBSn76773112n36100080</title>
<path fill="none" stroke="black" d="M424.96,-287.7C427.13,-276.85 429.92,-262.92 432.08,-252.1"/>
</g>
<!-- n42161858&#45;&gt;SUBSn76773112n42161858 -->
<g id="edge34" class="edge">
<title>n42161858&#45;&gt;SUBSn76773112n42161858</title>
<path fill="none" stroke="black" d="M1182.19,-143.97C1100.29,-128.34 984.05,-106.17 931.8,-96.21"/>
</g>
<!-- n90983534 -->
<g id="node23" class="node">
<title>n90983534</title>
<polygon fill="none" stroke="black" points="924,-180 711,-180 711,-144 924,-144 924,-180"/>
<text text-anchor="start" x="719" y="-159.3" font-family="Times,serif" font-size="14.00">!friendly(</text>
<text text-anchor="start" x="771" y="-159.3" font-family="Times,serif" font-style="italic" font-size="14.00">Kim</text>
<text text-anchor="start" x="794" y="-159.3" font-family="Times,serif" font-size="14.00">), person(</text>
<text text-anchor="start" x="847" y="-159.3" font-family="Times,serif" font-style="italic" font-size="14.00">SKF0</text>
<text text-anchor="start" x="878" y="-159.3" font-family="Times,serif" font-size="14.00">(</text>
<text text-anchor="start" x="883" y="-159.3" font-family="Times,serif" font-style="italic" font-size="14.00">Kim</text>
<text text-anchor="start" x="906" y="-159.3" font-family="Times,serif" font-size="14.00">))</text>
</g>
<!-- SUBSn76773112n48451657&#45;&gt;n90983534 -->
<g id="edge11" class="edge">
<title>SUBSn76773112n48451657&#45;&gt;n90983534</title>
<path fill="none" stroke="black" d="M817.5,-215.7C817.5,-207.98 817.5,-198.71 817.5,-190.11"/>
<polygon fill="black" stroke="black" points="821,-190.1 817.5,-180.1 814,-190.1 821,-190.1"/>
</g>
<!-- n90706636 -->
<g id="node25" class="node">
<title>n90706636</title>
<polygon fill="none" stroke="black" points="1172,-324 919,-324 919,-288 1172,-288 1172,-324"/>
<text text-anchor="start" x="927" y="-303.3" font-family="Times,serif" font-size="14.00">!friendly(</text>
<text text-anchor="start" x="979" y="-303.3" font-family="Times,serif" font-weight="bold" font-size="14.00">x1</text>
<text text-anchor="start" x="993" y="-303.3" font-family="Times,serif" font-size="14.00">), !dog(</text>
<text text-anchor="start" x="1035" y="-303.3" font-family="Times,serif" font-weight="bold" font-size="14.00">x1</text>
<text text-anchor="start" x="1049" y="-303.3" font-family="Times,serif" font-size="14.00">), animal(</text>
<text text-anchor="start" x="1104" y="-303.3" font-family="Times,serif" font-style="italic" font-size="14.00">SKF0</text>
<text text-anchor="start" x="1135" y="-303.3" font-family="Times,serif" font-size="14.00">(</text>
<text text-anchor="start" x="1140" y="-303.3" font-family="Times,serif" font-weight="bold" font-size="14.00">x1</text>
<text text-anchor="start" x="1154" y="-303.3" font-family="Times,serif" font-size="14.00">))</text>
</g>
<!-- SUBSn48451657n86312543&#45;&gt;n90706636 -->
<g id="edge12" class="edge">
<title>SUBSn48451657n86312543&#45;&gt;n90706636</title>
<path fill="none" stroke="black" d="M1045.5,-359.7C1045.5,-351.98 1045.5,-342.71 1045.5,-334.11"/>
<polygon fill="black" stroke="black" points="1049,-334.1 1045.5,-324.1 1042,-334.1 1049,-334.1"/>
</g>
<!-- n90706636&#45;&gt;SUBSn90706636n99380012 -->
<g id="edge51" class="edge">
<title>n90706636&#45;&gt;SUBSn90706636n99380012</title>
<path fill="none" stroke="black" d="M1057.12,-287.7C1064.4,-276.85 1073.76,-262.92 1081.02,-252.1"/>
</g>
<!-- n90706636&#45;&gt;SUBSn76773112n90706636 -->
<g id="edge50" class="edge">
<title>n90706636&#45;&gt;SUBSn76773112n90706636</title>
<path fill="none" stroke="black" d="M1033.88,-287.7C1026.6,-276.85 1017.24,-262.92 1009.98,-252.1"/>
</g>
<!-- n34611255 -->
<g id="node44" class="node">
<title>n34611255</title>
<polygon fill="none" stroke="black" points="968.5,-36 840.5,-36 840.5,0 968.5,0 968.5,-36"/>
<text text-anchor="start" x="848.5" y="-15.3" font-family="Times,serif" font-size="14.00">animal(</text>
<text text-anchor="start" x="891.5" y="-15.3" font-family="Times,serif" font-style="italic" font-size="14.00">SKF0</text>
<text text-anchor="start" x="922.5" y="-15.3" font-family="Times,serif" font-size="14.00">(</text>
<text text-anchor="start" x="927.5" y="-15.3" font-family="Times,serif" font-style="italic" font-size="14.00">Kim</text>
<text text-anchor="start" x="950.5" y="-15.3" font-family="Times,serif" font-size="14.00">))</text>
</g>
<!-- SUBSn76773112n42161858&#45;&gt;n34611255 -->
<g id="edge43" class="edge">
<title>SUBSn76773112n42161858&#45;&gt;n34611255</title>
<path fill="none" stroke="black" d="M904.5,-71.7C904.5,-63.98 904.5,-54.71 904.5,-46.11"/>
<polygon fill="black" stroke="black" points="908,-46.1 904.5,-36.1 901,-46.1 908,-46.1"/>
</g>
<!-- n08396479 -->
<g id="node28" class="node">
<title>n08396479</title>
<polygon fill="none" stroke="black" points="692.5,-180 566.5,-180 566.5,-144 692.5,-144 692.5,-180"/>
<text text-anchor="start" x="574.5" y="-159.3" font-family="Times,serif" font-size="14.00">person(</text>
<text text-anchor="start" x="615.5" y="-159.3" font-family="Times,serif" font-style="italic" font-size="14.00">SKF0</text>
<text text-anchor="start" x="646.5" y="-159.3" font-family="Times,serif" font-size="14.00">(</text>
<text text-anchor="start" x="651.5" y="-159.3" font-family="Times,serif" font-style="italic" font-size="14.00">Kim</text>
<text text-anchor="start" x="674.5" y="-159.3" font-family="Times,serif" font-size="14.00">))</text>
</g>
<!-- SUBSn76773112n68376634&#45;&gt;n08396479 -->
<g id="edge14" class="edge">
<title>SUBSn76773112n68376634&#45;&gt;n08396479</title>
<path fill="none" stroke="black" d="M629.5,-215.7C629.5,-207.98 629.5,-198.71 629.5,-190.11"/>
<polygon fill="black" stroke="black" points="633,-190.1 629.5,-180.1 626,-190.1 633,-190.1"/>
</g>
<!-- n43425810 -->
<g id="node30" class="node">
<title>n43425810</title>
<polygon fill="none" stroke="black" points="1515.5,-180 1423.5,-180 1423.5,-144 1515.5,-144 1515.5,-180"/>
<text text-anchor="start" x="1431.5" y="-159.3" font-family="Times,serif" font-size="14.00">animal(</text>
<text text-anchor="start" x="1474.5" y="-159.3" font-family="Times,serif" font-style="italic" font-size="14.00">Mike</text>
<text text-anchor="start" x="1502.5" y="-159.3" font-family="Times,serif" font-size="14.00">)</text>
</g>
<!-- SUBSn14653799n31729710&#45;&gt;n43425810 -->
<g id="edge15" class="edge">
<title>SUBSn14653799n31729710&#45;&gt;n43425810</title>
<path fill="none" stroke="black" d="M1469.5,-215.7C1469.5,-207.98 1469.5,-198.71 1469.5,-190.11"/>
<polygon fill="black" stroke="black" points="1473,-190.1 1469.5,-180.1 1466,-190.1 1473,-190.1"/>
</g>
<!-- n31729710 -->
<g id="node38" class="node">
<title>n31729710</title>
<polygon fill="none" stroke="black" points="1594.5,-324 1420.5,-324 1420.5,-288 1594.5,-288 1594.5,-324"/>
<text text-anchor="start" x="1428.5" y="-303.3" font-family="Times,serif" font-size="14.00">!man(</text>
<text text-anchor="start" x="1462.5" y="-303.3" font-family="Times,serif" font-weight="bold" font-size="14.00">H226</text>
<text text-anchor="start" x="1494.5" y="-303.3" font-family="Times,serif" font-size="14.00">), animal(</text>
<text text-anchor="start" x="1549.5" y="-303.3" font-family="Times,serif" font-weight="bold" font-size="14.00">H226</text>
<text text-anchor="start" x="1581.5" y="-303.3" font-family="Times,serif" font-size="14.00">)</text>
</g>
<!-- SUBSn07831241n86312543&#45;&gt;n31729710 -->
<g id="edge21" class="edge">
<title>SUBSn07831241n86312543&#45;&gt;n31729710</title>
<path fill="none" stroke="black" d="M1495.46,-359.7C1497.22,-351.98 1499.34,-342.71 1501.3,-334.11"/>
<polygon fill="black" stroke="black" points="1504.77,-334.63 1503.59,-324.1 1497.95,-333.07 1504.77,-334.63"/>
</g>
<!-- SUBSn31729710n50984707 -->
<g id="node32" class="node">
<title>SUBSn31729710n50984707</title>
<text text-anchor="start" x="1670.5" y="-230.3" font-family="Times,serif" font-size="14.00">{H226: SK0}</text>
</g>
<!-- n06599049 -->
<g id="node33" class="node">
<title>n06599049</title>
<polygon fill="none" stroke="black" points="1752,-180 1665,-180 1665,-144 1752,-144 1752,-180"/>
<text text-anchor="start" x="1673" y="-159.3" font-family="Times,serif" font-size="14.00">animal(</text>
<text text-anchor="start" x="1716" y="-159.3" font-family="Times,serif" font-style="italic" font-size="14.00">SK0</text>
<text text-anchor="start" x="1739" y="-159.3" font-family="Times,serif" font-size="14.00">)</text>
</g>
<!-- SUBSn31729710n50984707&#45;&gt;n06599049 -->
<g id="edge16" class="edge">
<title>SUBSn31729710n50984707&#45;&gt;n06599049</title>
<path fill="none" stroke="black" d="M1708.5,-215.7C1708.5,-207.98 1708.5,-198.71 1708.5,-190.11"/>
<polygon fill="black" stroke="black" points="1712,-190.1 1708.5,-180.1 1705,-190.1 1712,-190.1"/>
</g>
<!-- n64768758 -->
<g id="node34" class="node">
<title>n64768758</title>
<polygon fill="none" stroke="black" points="1157,-180 942,-180 942,-144 1157,-144 1157,-180"/>
<text text-anchor="start" x="950" y="-159.3" font-family="Times,serif" font-size="14.00">!friendly(</text>
<text text-anchor="start" x="1002" y="-159.3" font-family="Times,serif" font-style="italic" font-size="14.00">Kim</text>
<text text-anchor="start" x="1025" y="-159.3" font-family="Times,serif" font-size="14.00">), animal(</text>
<text text-anchor="start" x="1080" y="-159.3" font-family="Times,serif" font-style="italic" font-size="14.00">SKF0</text>
<text text-anchor="start" x="1111" y="-159.3" font-family="Times,serif" font-size="14.00">(</text>
<text text-anchor="start" x="1116" y="-159.3" font-family="Times,serif" font-style="italic" font-size="14.00">Kim</text>
<text text-anchor="start" x="1139" y="-159.3" font-family="Times,serif" font-size="14.00">))</text>
</g>
<!-- n29273322 -->
<g id="node35" class="node">
<title>n29273322</title>
<polygon fill="none" stroke="black" stroke-width="2" points="295.5,-324 161.5,-324 161.5,-288 295.5,-288 295.5,-324"/>
<text text-anchor="start" x="169.5" y="-303.3" font-family="Times,serif" font-size="14.00">!dog(</text>
<text text-anchor="start" x="199.5" y="-303.3" font-family="Times,serif" font-weight="bold" font-size="14.00">x0</text>
<text text-anchor="start" x="213.5" y="-303.3" font-family="Times,serif" font-size="14.00">), animal(</text>
<text text-anchor="start" x="268.5" y="-303.3" font-family="Times,serif" font-weight="bold" font-size="14.00">x0</text>
<text text-anchor="start" x="282.5" y="-303.3" font-family="Times,serif" font-size="14.00">)</text>
</g>
<!-- n29273322&#45;&gt;SUBSn76773112n29273322 -->
<g id="edge36" class="edge">
<title>n29273322&#45;&gt;SUBSn76773112n29273322</title>
<path fill="none" stroke="black" d="M245.8,-287.7C256.65,-276.85 270.58,-262.92 281.4,-252.1"/>
</g>
<!-- n68376634 -->
<g id="node39" class="node">
<title>n68376634</title>
<polygon fill="none" stroke="black" points="824.5,-324 634.5,-324 634.5,-288 824.5,-288 824.5,-324"/>
<text text-anchor="start" x="642.5" y="-303.3" font-family="Times,serif" font-size="14.00">person(</text>
<text text-anchor="start" x="683.5" y="-303.3" font-family="Times,serif" font-style="italic" font-size="14.00">SKF0</text>
<text text-anchor="start" x="714.5" y="-303.3" font-family="Times,serif" font-size="14.00">(</text>
<text text-anchor="start" x="719.5" y="-303.3" font-family="Times,serif" font-style="italic" font-size="14.00">Kim</text>
<text text-anchor="start" x="742.5" y="-303.3" font-family="Times,serif" font-size="14.00">)), !dog(</text>
<text text-anchor="start" x="788.5" y="-303.3" font-family="Times,serif" font-style="italic" font-size="14.00">Kim</text>
<text text-anchor="start" x="811.5" y="-303.3" font-family="Times,serif" font-size="14.00">)</text>
</g>
<!-- SUBSn48451657n99380012&#45;&gt;n68376634 -->
<g id="edge20" class="edge">
<title>SUBSn48451657n99380012&#45;&gt;n68376634</title>
<path fill="none" stroke="black" d="M729.5,-359.7C729.5,-351.98 729.5,-342.71 729.5,-334.11"/>
<polygon fill="black" stroke="black" points="733,-334.1 729.5,-324.1 726,-334.1 733,-334.1"/>
</g>
<!-- n31729710&#45;&gt;SUBSn14653799n31729710 -->
<g id="edge18" class="edge">
<title>n31729710&#45;&gt;SUBSn14653799n31729710</title>
<path fill="none" stroke="black" d="M1498.11,-287.7C1492.22,-276.85 1484.65,-262.92 1478.79,-252.1"/>
</g>
<!-- n31729710&#45;&gt;SUBSn31729710n50984707 -->
<g id="edge28" class="edge">
<title>n31729710&#45;&gt;SUBSn31729710n50984707</title>
<path fill="none" stroke="black" d="M1556.41,-287.97C1588.72,-276.72 1630.78,-262.07 1662.48,-251.03"/>
</g>
<!-- n68376634&#45;&gt;SUBSn76773112n68376634 -->
<g id="edge46" class="edge">
<title>n68376634&#45;&gt;SUBSn76773112n68376634</title>
<path fill="none" stroke="black" d="M705.04,-287.88C689.54,-277.03 669.57,-263.05 654.06,-252.19"/>
</g>
<!-- n50984707 -->
<g id="node40" class="node">
<title>n50984707</title>
<polygon fill="none" stroke="black" stroke-width="2" points="1836,-468 1763,-468 1763,-432 1836,-432 1836,-468"/>
<text text-anchor="start" x="1771" y="-447.3" font-family="Times,serif" font-size="14.00">man(</text>
<text text-anchor="start" x="1800" y="-447.3" font-family="Times,serif" font-style="italic" font-size="14.00">SK0</text>
<text text-anchor="start" x="1823" y="-447.3" font-family="Times,serif" font-size="14.00">)</text>
</g>
<!-- n50984707&#45;&gt;SUBSn07831241n50984707 -->
<g id="edge24" class="edge">
<title>n50984707&#45;&gt;SUBSn07831241n50984707</title>
<path fill="none" stroke="black" d="M1790.6,-431.7C1785.02,-420.85 1777.86,-406.92 1772.3,-396.1"/>
</g>
<!-- n50984707&#45;&gt;SUBSn31729710n50984707 -->
<g id="edge41" class="edge">
<title>n50984707&#45;&gt;SUBSn31729710n50984707</title>
<path fill="none" stroke="black" d="M1807.54,-431.95C1820.96,-400.77 1843.79,-333.58 1815.5,-288 1802.11,-266.42 1777.03,-253.36 1754.52,-245.6"/>
</g>
<!-- n48451657 -->
<g id="node41" class="node">
<title>n48451657</title>
<polygon fill="none" stroke="black" stroke-width="2" points="1031,-468 780,-468 780,-432 1031,-432 1031,-468"/>
<text text-anchor="start" x="788" y="-447.3" font-family="Times,serif" font-size="14.00">!friendly(</text>
<text text-anchor="start" x="840" y="-447.3" font-family="Times,serif" font-weight="bold" font-size="14.00">x1</text>
<text text-anchor="start" x="854" y="-447.3" font-family="Times,serif" font-size="14.00">), !dog(</text>
<text text-anchor="start" x="896" y="-447.3" font-family="Times,serif" font-weight="bold" font-size="14.00">x1</text>
<text text-anchor="start" x="910" y="-447.3" font-family="Times,serif" font-size="14.00">), person(</text>
<text text-anchor="start" x="963" y="-447.3" font-family="Times,serif" font-style="italic" font-size="14.00">SKF0</text>
<text text-anchor="start" x="994" y="-447.3" font-family="Times,serif" font-size="14.00">(</text>
<text text-anchor="start" x="999" y="-447.3" font-family="Times,serif" font-weight="bold" font-size="14.00">x1</text>
<text text-anchor="start" x="1013" y="-447.3" font-family="Times,serif" font-size="14.00">))</text>
</g>
<!-- n48451657&#45;&gt;SUBSn76773112n48451657 -->
<g id="edge31" class="edge">
<title>n48451657&#45;&gt;SUBSn76773112n48451657</title>
<path fill="none" stroke="black" d="M898.45,-431.85C881.97,-391.78 841.1,-292.38 824.59,-252.23"/>
</g>
<!-- n48451657&#45;&gt;SUBSn48451657n86312543 -->
<g id="edge49" class="edge">
<title>n48451657&#45;&gt;SUBSn48451657n86312543</title>
<path fill="none" stroke="black" d="M939.75,-431.88C961.44,-421.03 989.4,-407.05 1011.12,-396.19"/>
</g>
<!-- n48451657&#45;&gt;SUBSn48451657n99380012 -->
<g id="edge25" class="edge">
<title>n48451657&#45;&gt;SUBSn48451657n99380012</title>
<path fill="none" stroke="black" d="M862.45,-431.88C833.44,-420.34 795.53,-405.26 767.62,-394.16"/>
</g>
<!-- SUBSn76773112n90706636&#45;&gt;n64768758 -->
<g id="edge26" class="edge">
<title>SUBSn76773112n90706636&#45;&gt;n64768758</title>
<path fill="none" stroke="black" d="M1011.11,-215.7C1017.1,-207.47 1024.38,-197.48 1030.98,-188.42"/>
<polygon fill="black" stroke="black" points="1033.98,-190.25 1037.04,-180.1 1028.32,-186.13 1033.98,-190.25"/>
</g>
<!-- n32676118 -->
<g id="node45" class="node">
<title>n32676118</title>
<polygon fill="none" stroke="black" stroke-width="2" points="2066.5,-468 1952.5,-468 1952.5,-432 2066.5,-432 2066.5,-468"/>
<text text-anchor="start" x="1960.5" y="-447.3" font-family="Times,serif" font-size="14.00">loves(</text>
<text text-anchor="start" x="1994.5" y="-447.3" font-family="Times,serif" font-style="italic" font-size="14.00">Mike</text>
<text text-anchor="start" x="2022.5" y="-447.3" font-family="Times,serif" font-size="14.00">, </text>
<text text-anchor="start" x="2030.5" y="-447.3" font-family="Times,serif" font-style="italic" font-size="14.00">Kim</text>
<text text-anchor="start" x="2053.5" y="-447.3" font-family="Times,serif" font-size="14.00">)</text>
</g>
</g>
</svg>
