<?xml version="1.0" encoding="UTF-8" standalone="no"?>
<!DOCTYPE svg PUBLIC "-//W3C//DTD SVG 1.1//EN"
 "http://www.w3.org/Graphics/SVG/1.1/DTD/svg11.dtd">
<!-- Generated by graphviz version 2.43.0 (0)
 -->
<!-- Title: g Pages: 1 -->
<svg width="377pt" height="476pt"
 viewBox="0.00 0.00 376.50 476.00" xmlns="http://www.w3.org/2000/svg" xmlns:xlink="http://www.w3.org/1999/xlink">
<g id="graph0" class="graph" transform="scale(1 1) rotate(0) translate(4 472)">
<title>g</title>
<polygon fill="white" stroke="transparent" points="-4,4 -4,-472 372.5,-472 372.5,4 -4,4"/>
<!-- n51335164 -->
<g id="node1" class="node">
<title>n51335164</title>
<polygon fill="none" stroke="black" stroke-width="2" points="155.5,-180 63.5,-180 63.5,-144 155.5,-144 155.5,-180"/>
<text text-anchor="start" x="71.5" y="-159.3" font-family="Times,serif" font-size="14.00">friendly(</text>
<text text-anchor="start" x="119.5" y="-159.3" font-family="Times,serif" font-style="italic" font-size="14.00">Kim</text>
<text text-anchor="start" x="142.5" y="-159.3" font-family="Times,serif" font-size="14.00">)</text>
</g>
<!-- SUBSn51335164n51335165 -->
<g id="node2" class="node">
<title>SUBSn51335164n51335165</title>
<text text-anchor="start" x="158.5" y="-86.3" font-family="Times,serif" font-size="14.00">{}</text>
</g>
<!-- n51335164&#45;&gt;SUBSn51335164n51335165 -->
<g id="edge1" class="edge">
<title>n51335164&#45;&gt;SUBSn51335164n51335165</title>
<path fill="none" stroke="black" d="M123.34,-143.7C132.02,-132.85 143.17,-118.92 151.82,-108.1"/>
</g>
<!-- n00000000 -->
<g id="node5" class="node">
<title>n00000000</title>
<polygon fill="none" stroke="black" points="194.5,-36 136.5,-36 136.5,0 194.5,0 194.5,-36"/>
<text text-anchor="start" x="144.5" y="-14.3" font-family="Times,serif" font-size="14.00">FALSE</text>
</g>
<!-- SUBSn51335164n51335165&#45;&gt;n00000000 -->
<g id="edge3" class="edge">
<title>SUBSn51335164n51335165&#45;&gt;n00000000</title>
<path fill="none" stroke="black" d="M165.5,-71.7C165.5,-63.98 165.5,-54.71 165.5,-46.11"/>
<polygon fill="black" stroke="black" points="169,-46.1 165.5,-36.1 162,-46.1 169,-46.1"/>
</g>
<!-- SUBSn02385354n87863714 -->
<g id="node3" class="node">
<title>SUBSn02385354n87863714</title>
<text text-anchor="start" x="97.5" y="-374.3" font-family="Times,serif" font-size="14.00">{x2: Kim}</text>
</g>
<!-- n04357421 -->
<g id="node4" class="node">
<title>n04357421</title>
<polygon fill="none" stroke="black" points="246,-324 9,-324 9,-288 246,-288 246,-324"/>
<text text-anchor="start" x="17" y="-303.3" font-family="Times,serif" font-size="14.00">!friendly(</text>
<text text-anchor="start" x="69" y="-303.3" font-family="Times,serif" font-style="italic" font-size="14.00">Kim</text>
<text text-anchor="start" x="92" y="-303.3" font-family="Times,serif" font-size="14.00">), loves(</text>
<text text-anchor="start" x="138" y="-303.3" font-family="Times,serif" font-style="italic" font-size="14.00">SKF0</text>
<text text-anchor="start" x="169" y="-303.3" font-family="Times,serif" font-size="14.00">(</text>
<text text-anchor="start" x="174" y="-303.3" font-family="Times,serif" font-style="italic" font-size="14.00">Kim</text>
<text text-anchor="start" x="197" y="-303.3" font-family="Times,serif" font-size="14.00">), </text>
<text text-anchor="start" x="210" y="-303.3" font-family="Times,serif" font-style="italic" font-size="14.00">Kim</text>
<text text-anchor="start" x="233" y="-303.3" font-family="Times,serif" font-size="14.00">)</text>
</g>
<!-- SUBSn02385354n87863714&#45;&gt;n04357421 -->
<g id="edge2" class="edge">
<title>SUBSn02385354n87863714&#45;&gt;n04357421</title>
<path fill="none" stroke="black" d="M127.5,-359.7C127.5,-351.98 127.5,-342.71 127.5,-334.11"/>
<polygon fill="black" stroke="black" points="131,-334.1 127.5,-324.1 124,-334.1 131,-334.1"/>
</g>
<!-- SUBSn04357421n52632551 -->
<g id="node7" class="node">
<title>SUBSn04357421n52632551</title>
<text text-anchor="start" x="171.5" y="-230.3" font-family="Times,serif" font-size="14.00">{x5: SKF0(Kim)}</text>
</g>
<!-- n04357421&#45;&gt;SUBSn04357421n52632551 -->
<g id="edge5" class="edge">
<title>n04357421&#45;&gt;SUBSn04357421n52632551</title>
<path fill="none" stroke="black" d="M150.74,-287.7C165.31,-276.85 184.01,-262.92 198.53,-252.1"/>
</g>
<!-- n87863714 -->
<g id="node6" class="node">
<title>n87863714</title>
<polygon fill="none" stroke="black" stroke-width="2" points="69,-468 0,-468 0,-432 69,-432 69,-468"/>
<text text-anchor="start" x="8" y="-447.3" font-family="Times,serif" font-size="14.00">dog(</text>
<text text-anchor="start" x="33" y="-447.3" font-family="Times,serif" font-style="italic" font-size="14.00">Kim</text>
<text text-anchor="start" x="56" y="-447.3" font-family="Times,serif" font-size="14.00">)</text>
</g>
<!-- n87863714&#45;&gt;SUBSn02385354n87863714 -->
<g id="edge4" class="edge">
<title>n87863714&#45;&gt;SUBSn02385354n87863714</title>
<path fill="none" stroke="black" d="M57.49,-431.7C71.9,-420.85 90.41,-406.92 104.78,-396.1"/>
</g>
<!-- n51335165 -->
<g id="node9" class="node">
<title>n51335165</title>
<polygon fill="none" stroke="black" points="269.5,-180 173.5,-180 173.5,-144 269.5,-144 269.5,-180"/>
<text text-anchor="start" x="181.5" y="-159.3" font-family="Times,serif" font-size="14.00">!friendly(</text>
<text text-anchor="start" x="233.5" y="-159.3" font-family="Times,serif" font-style="italic" font-size="14.00">Kim</text>
<text text-anchor="start" x="256.5" y="-159.3" font-family="Times,serif" font-size="14.00">)</text>
</g>
<!-- SUBSn04357421n52632551&#45;&gt;n51335165 -->
<g id="edge7" class="edge">
<title>SUBSn04357421n52632551&#45;&gt;n51335165</title>
<path fill="none" stroke="black" d="M221.5,-215.7C221.5,-207.98 221.5,-198.71 221.5,-190.11"/>
<polygon fill="black" stroke="black" points="225,-190.1 221.5,-180.1 218,-190.1 225,-190.1"/>
</g>
<!-- n02385354 -->
<g id="node8" class="node">
<title>n02385354</title>
<polygon fill="none" stroke="black" stroke-width="2" points="353.5,-468 87.5,-468 87.5,-432 353.5,-432 353.5,-468"/>
<text text-anchor="start" x="95.5" y="-447.3" font-family="Times,serif" font-size="14.00">loves(</text>
<text text-anchor="start" x="129.5" y="-447.3" font-family="Times,serif" font-style="italic" font-size="14.00">SKF0</text>
<text text-anchor="start" x="160.5" y="-447.3" font-family="Times,serif" font-size="14.00">(</text>
<text text-anchor="start" x="165.5" y="-447.3" font-family="Times,serif" font-weight="bold" font-size="14.00">x2</text>
<text text-anchor="start" x="179.5" y="-447.3" font-family="Times,serif" font-size="14.00">), </text>
<text text-anchor="start" x="192.5" y="-447.3" font-family="Times,serif" font-weight="bold" font-size="14.00">x2</text>
<text text-anchor="start" x="206.5" y="-447.3" font-family="Times,serif" font-size="14.00">), !dog(</text>
<text text-anchor="start" x="248.5" y="-447.3" font-family="Times,serif" font-weight="bold" font-size="14.00">x2</text>
<text text-anchor="start" x="262.5" y="-447.3" font-family="Times,serif" font-size="14.00">), !friendly(</text>
<text text-anchor="start" x="326.5" y="-447.3" font-family="Times,serif" font-weight="bold" font-size="14.00">x2</text>
<text text-anchor="start" x="340.5" y="-447.3" font-family="Times,serif" font-size="14.00">)</text>
</g>
<!-- n02385354&#45;&gt;SUBSn02385354n87863714 -->
<g id="edge6" class="edge">
<title>n02385354&#45;&gt;SUBSn02385354n87863714</title>
<path fill="none" stroke="black" d="M197.51,-431.7C183.1,-420.85 164.59,-406.92 150.22,-396.1"/>
</g>
<!-- n51335165&#45;&gt;SUBSn51335164n51335165 -->
<g id="edge8" class="edge">
<title>n51335165&#45;&gt;SUBSn51335164n51335165</title>
<path fill="none" stroke="black" d="M207.66,-143.7C198.98,-132.85 187.83,-118.92 179.18,-108.1"/>
</g>
<!-- n52632551 -->
<g id="node10" class="node">
<title>n52632551</title>
<polygon fill="none" stroke="black" stroke-width="2" points="368.5,-324 264.5,-324 264.5,-288 368.5,-288 368.5,-324"/>
<text text-anchor="start" x="272.5" y="-303.3" font-family="Times,serif" font-size="14.00">!loves(</text>
<text text-anchor="start" x="310.5" y="-303.3" font-family="Times,serif" font-weight="bold" font-size="14.00">x5</text>
<text text-anchor="start" x="324.5" y="-303.3" font-family="Times,serif" font-size="14.00">, </text>
<text text-anchor="start" x="332.5" y="-303.3" font-family="Times,serif" font-style="italic" font-size="14.00">Kim</text>
<text text-anchor="start" x="355.5" y="-303.3" font-family="Times,serif" font-size="14.00">)</text>
</g>
<!-- n52632551&#45;&gt;SUBSn04357421n52632551 -->
<g id="edge9" class="edge">
<title>n52632551&#45;&gt;SUBSn04357421n52632551</title>
<path fill="none" stroke="black" d="M293.02,-287.7C278.29,-276.85 259.39,-262.92 244.71,-252.1"/>
</g>
</g>
</svg>
