<?xml version="1.0" encoding="UTF-8" standalone="no"?>
<!DOCTYPE svg PUBLIC "-//W3C//DTD SVG 1.1//EN"
 "http://www.w3.org/Graphics/SVG/1.1/DTD/svg11.dtd">
<!-- Generated by graphviz version 2.43.0 (0)
 -->
<!-- Title: g Pages: 1 -->
<svg width="2592pt" height="476pt"
 viewBox="0.00 0.00 2592.00 476.00" xmlns="http://www.w3.org/2000/svg" xmlns:xlink="http://www.w3.org/1999/xlink">
<g id="graph0" class="graph" transform="scale(1 1) rotate(0) translate(4 472)">
<title>g</title>
<polygon fill="white" stroke="transparent" points="-4,4 -4,-472 2588,-472 2588,4 -4,4"/>
<!-- n74775948 -->
<g id="node1" class="node">
<title>n74775948</title>
<polygon fill="none" stroke="black" stroke-width="2" points="111,-468 0,-468 0,-432 111,-432 111,-468"/>
<text text-anchor="start" x="8" y="-447.3" font-family="Times,serif" font-size="14.00">!partOf(</text>
<text text-anchor="start" x="53" y="-447.3" font-family="Times,serif" font-weight="bold" font-size="14.00">x7</text>
<text text-anchor="start" x="67" y="-447.3" font-family="Times,serif" font-size="14.00">, </text>
<text text-anchor="start" x="75" y="-447.3" font-family="Times,serif" font-style="italic" font-size="14.00">Kim</text>
<text text-anchor="start" x="98" y="-447.3" font-family="Times,serif" font-size="14.00">)</text>
</g>
<!-- n86481837 -->
<g id="node2" class="node">
<title>n86481837</title>
<polygon fill="none" stroke="black" stroke-width="2" points="263.5,-468 129.5,-468 129.5,-432 263.5,-432 263.5,-468"/>
<text text-anchor="start" x="137.5" y="-447.3" font-family="Times,serif" font-size="14.00">!dog(</text>
<text text-anchor="start" x="167.5" y="-447.3" font-family="Times,serif" font-weight="bold" font-size="14.00">x0</text>
<text text-anchor="start" x="181.5" y="-447.3" font-family="Times,serif" font-size="14.00">), animal(</text>
<text text-anchor="start" x="236.5" y="-447.3" font-family="Times,serif" font-weight="bold" font-size="14.00">x0</text>
<text text-anchor="start" x="250.5" y="-447.3" font-family="Times,serif" font-size="14.00">)</text>
</g>
<!-- SUBSn86481837n38873789 -->
<g id="node3" class="node">
<title>SUBSn86481837n38873789</title>
<text text-anchor="start" x="187.5" y="-374.3" font-family="Times,serif" font-size="14.00">{x0: Kim}</text>
</g>
<!-- n86481837&#45;&gt;SUBSn86481837n38873789 -->
<g id="edge1" class="edge">
<title>n86481837&#45;&gt;SUBSn86481837n38873789</title>
<path fill="none" stroke="black" d="M201.69,-431.7C204.95,-420.85 209.12,-406.92 212.37,-396.1"/>
</g>
<!-- n27034227 -->
<g id="node35" class="node">
<title>n27034227</title>
<polygon fill="none" stroke="black" points="261,-324 174,-324 174,-288 261,-288 261,-324"/>
<text text-anchor="start" x="182" y="-303.3" font-family="Times,serif" font-size="14.00">animal(</text>
<text text-anchor="start" x="225" y="-303.3" font-family="Times,serif" font-style="italic" font-size="14.00">Kim</text>
<text text-anchor="start" x="248" y="-303.3" font-family="Times,serif" font-size="14.00">)</text>
</g>
<!-- SUBSn86481837n38873789&#45;&gt;n27034227 -->
<g id="edge20" class="edge">
<title>SUBSn86481837n38873789&#45;&gt;n27034227</title>
<path fill="none" stroke="black" d="M217.5,-359.7C217.5,-351.98 217.5,-342.71 217.5,-334.11"/>
<polygon fill="black" stroke="black" points="221,-334.1 217.5,-324.1 214,-334.1 221,-334.1"/>
</g>
<!-- n37532184 -->
<g id="node4" class="node">
<title>n37532184</title>
<polygon fill="none" stroke="black" points="2342.5,-180 2168.5,-180 2168.5,-144 2342.5,-144 2342.5,-180"/>
<text text-anchor="start" x="2176.5" y="-159.3" font-family="Times,serif" font-size="14.00">!man(</text>
<text text-anchor="start" x="2210.5" y="-159.3" font-family="Times,serif" font-weight="bold" font-size="14.00">Q856</text>
<text text-anchor="start" x="2242.5" y="-159.3" font-family="Times,serif" font-size="14.00">), animal(</text>
<text text-anchor="start" x="2297.5" y="-159.3" font-family="Times,serif" font-weight="bold" font-size="14.00">Q856</text>
<text text-anchor="start" x="2329.5" y="-159.3" font-family="Times,serif" font-size="14.00">)</text>
</g>
<!-- SUBSn52210893n37532184 -->
<g id="node24" class="node">
<title>SUBSn52210893n37532184</title>
<text text-anchor="start" x="2158" y="-86.3" font-family="Times,serif" font-size="14.00">{Q856: Mike}</text>
</g>
<!-- n37532184&#45;&gt;SUBSn52210893n37532184 -->
<g id="edge25" class="edge">
<title>n37532184&#45;&gt;SUBSn52210893n37532184</title>
<path fill="none" stroke="black" d="M2241.41,-143.7C2232.57,-132.85 2221.23,-118.92 2212.43,-108.1"/>
</g>
<!-- SUBSn67283446n37532184 -->
<g id="node27" class="node">
<title>SUBSn67283446n37532184</title>
<text text-anchor="start" x="2274.5" y="-86.3" font-family="Times,serif" font-size="14.00">{Q856: SK0}</text>
</g>
<!-- n37532184&#45;&gt;SUBSn67283446n37532184 -->
<g id="edge54" class="edge">
<title>n37532184&#45;&gt;SUBSn67283446n37532184</title>
<path fill="none" stroke="black" d="M2269.59,-143.7C2278.43,-132.85 2289.77,-118.92 2298.57,-108.1"/>
</g>
<!-- n56232511 -->
<g id="node5" class="node">
<title>n56232511</title>
<polygon fill="none" stroke="black" points="963,-324 726,-324 726,-288 963,-288 963,-324"/>
<text text-anchor="start" x="734" y="-303.3" font-family="Times,serif" font-size="14.00">loves(</text>
<text text-anchor="start" x="768" y="-303.3" font-family="Times,serif" font-style="italic" font-size="14.00">SKF0</text>
<text text-anchor="start" x="799" y="-303.3" font-family="Times,serif" font-size="14.00">(</text>
<text text-anchor="start" x="804" y="-303.3" font-family="Times,serif" font-style="italic" font-size="14.00">Kim</text>
<text text-anchor="start" x="827" y="-303.3" font-family="Times,serif" font-size="14.00">), </text>
<text text-anchor="start" x="840" y="-303.3" font-family="Times,serif" font-style="italic" font-size="14.00">Kim</text>
<text text-anchor="start" x="863" y="-303.3" font-family="Times,serif" font-size="14.00">), !friendly(</text>
<text text-anchor="start" x="927" y="-303.3" font-family="Times,serif" font-style="italic" font-size="14.00">Kim</text>
<text text-anchor="start" x="950" y="-303.3" font-family="Times,serif" font-size="14.00">)</text>
</g>
<!-- SUBSn00279318n30249038 -->
<g id="node6" class="node">
<title>SUBSn00279318n30249038</title>
<text text-anchor="start" x="1529.5" y="-230.3" font-family="Times,serif" font-size="14.00">{x6: SKF0(Kim)}</text>
</g>
<!-- n86756449 -->
<g id="node7" class="node">
<title>n86756449</title>
<polygon fill="none" stroke="black" points="1649,-180 1456,-180 1456,-144 1649,-144 1649,-180"/>
<text text-anchor="start" x="1464" y="-159.3" font-family="Times,serif" font-size="14.00">!dog(</text>
<text text-anchor="start" x="1494" y="-159.3" font-family="Times,serif" font-style="italic" font-size="14.00">Kim</text>
<text text-anchor="start" x="1517" y="-159.3" font-family="Times,serif" font-size="14.00">), animal(</text>
<text text-anchor="start" x="1572" y="-159.3" font-family="Times,serif" font-style="italic" font-size="14.00">SKF0</text>
<text text-anchor="start" x="1603" y="-159.3" font-family="Times,serif" font-size="14.00">(</text>
<text text-anchor="start" x="1608" y="-159.3" font-family="Times,serif" font-style="italic" font-size="14.00">Kim</text>
<text text-anchor="start" x="1631" y="-159.3" font-family="Times,serif" font-size="14.00">))</text>
</g>
<!-- SUBSn00279318n30249038&#45;&gt;n86756449 -->
<g id="edge2" class="edge">
<title>SUBSn00279318n30249038&#45;&gt;n86756449</title>
<path fill="none" stroke="black" d="M1572.83,-215.7C1569.79,-207.81 1566.12,-198.3 1562.74,-189.55"/>
<polygon fill="black" stroke="black" points="1565.96,-188.17 1559.1,-180.1 1559.43,-190.69 1565.96,-188.17"/>
</g>
<!-- SUBSn38873789n86756449 -->
<g id="node26" class="node">
<title>SUBSn38873789n86756449</title>
<text text-anchor="start" x="1112.5" y="-86.3" font-family="Times,serif" font-size="14.00">{}</text>
</g>
<!-- n86756449&#45;&gt;SUBSn38873789n86756449 -->
<g id="edge13" class="edge">
<title>n86756449&#45;&gt;SUBSn38873789n86756449</title>
<path fill="none" stroke="black" d="M1455.81,-145.34C1453.01,-144.89 1450.23,-144.44 1447.5,-144 1335.89,-125.95 1202.92,-104.47 1146.71,-95.39"/>
</g>
<!-- n92431021 -->
<g id="node8" class="node">
<title>n92431021</title>
<polygon fill="none" stroke="black" stroke-width="2" points="1641.5,-468 1391.5,-468 1391.5,-432 1641.5,-432 1641.5,-468"/>
<text text-anchor="start" x="1399.5" y="-447.3" font-family="Times,serif" font-size="14.00">person(</text>
<text text-anchor="start" x="1440.5" y="-447.3" font-family="Times,serif" font-style="italic" font-size="14.00">SKF0</text>
<text text-anchor="start" x="1471.5" y="-447.3" font-family="Times,serif" font-size="14.00">(</text>
<text text-anchor="start" x="1476.5" y="-447.3" font-family="Times,serif" font-weight="bold" font-size="14.00">x1</text>
<text text-anchor="start" x="1490.5" y="-447.3" font-family="Times,serif" font-size="14.00">)), !dog(</text>
<text text-anchor="start" x="1536.5" y="-447.3" font-family="Times,serif" font-weight="bold" font-size="14.00">x1</text>
<text text-anchor="start" x="1550.5" y="-447.3" font-family="Times,serif" font-size="14.00">), !friendly(</text>
<text text-anchor="start" x="1614.5" y="-447.3" font-family="Times,serif" font-weight="bold" font-size="14.00">x1</text>
<text text-anchor="start" x="1628.5" y="-447.3" font-family="Times,serif" font-size="14.00">)</text>
</g>
<!-- SUBSn30249038n92431021 -->
<g id="node9" class="node">
<title>SUBSn30249038n92431021</title>
<text text-anchor="start" x="1749" y="-230.3" font-family="Times,serif" font-size="14.00">{x6: SKF0(x1)}</text>
</g>
<!-- n92431021&#45;&gt;SUBSn30249038n92431021 -->
<g id="edge3" class="edge">
<title>n92431021&#45;&gt;SUBSn30249038n92431021</title>
<path fill="none" stroke="black" d="M1590.04,-431.91C1679.07,-409.57 1820.92,-368.05 1851.5,-324 1860.62,-310.86 1857.95,-302.64 1851.5,-288 1845.12,-273.52 1832.61,-261.28 1820.84,-252.23"/>
</g>
<!-- SUBSn92431021n38873789 -->
<g id="node10" class="node">
<title>SUBSn92431021n38873789</title>
<text text-anchor="start" x="1329.5" y="-374.3" font-family="Times,serif" font-size="14.00">{x1: Kim}</text>
</g>
<!-- n92431021&#45;&gt;SUBSn92431021n38873789 -->
<g id="edge26" class="edge">
<title>n92431021&#45;&gt;SUBSn92431021n38873789</title>
<path fill="none" stroke="black" d="M1478.09,-431.88C1453.58,-420.95 1421.94,-406.84 1397.51,-395.95"/>
</g>
<!-- SUBSn92431021n03108541 -->
<g id="node21" class="node">
<title>SUBSn92431021n03108541</title>
<text text-anchor="start" x="1486.5" y="-374.3" font-family="Times,serif" font-size="14.00">{x1: Kim}</text>
</g>
<!-- n92431021&#45;&gt;SUBSn92431021n03108541 -->
<g id="edge10" class="edge">
<title>n92431021&#45;&gt;SUBSn92431021n03108541</title>
<path fill="none" stroke="black" d="M1516.5,-431.7C1516.5,-420.85 1516.5,-406.92 1516.5,-396.1"/>
</g>
<!-- n78908152 -->
<g id="node22" class="node">
<title>n78908152</title>
<polygon fill="none" stroke="black" points="1920,-180 1667,-180 1667,-144 1920,-144 1920,-180"/>
<text text-anchor="start" x="1675" y="-159.3" font-family="Times,serif" font-size="14.00">animal(</text>
<text text-anchor="start" x="1718" y="-159.3" font-family="Times,serif" font-style="italic" font-size="14.00">SKF0</text>
<text text-anchor="start" x="1749" y="-159.3" font-family="Times,serif" font-size="14.00">(</text>
<text text-anchor="start" x="1754" y="-159.3" font-family="Times,serif" font-weight="bold" font-size="14.00">x1</text>
<text text-anchor="start" x="1768" y="-159.3" font-family="Times,serif" font-size="14.00">)), !friendly(</text>
<text text-anchor="start" x="1837" y="-159.3" font-family="Times,serif" font-weight="bold" font-size="14.00">x1</text>
<text text-anchor="start" x="1851" y="-159.3" font-family="Times,serif" font-size="14.00">), !dog(</text>
<text text-anchor="start" x="1893" y="-159.3" font-family="Times,serif" font-weight="bold" font-size="14.00">x1</text>
<text text-anchor="start" x="1907" y="-159.3" font-family="Times,serif" font-size="14.00">)</text>
</g>
<!-- SUBSn30249038n92431021&#45;&gt;n78908152 -->
<g id="edge11" class="edge">
<title>SUBSn30249038n92431021&#45;&gt;n78908152</title>
<path fill="none" stroke="black" d="M1793.5,-215.7C1793.5,-207.98 1793.5,-198.71 1793.5,-190.11"/>
<polygon fill="black" stroke="black" points="1797,-190.1 1793.5,-180.1 1790,-190.1 1797,-190.1"/>
</g>
<!-- n64514070 -->
<g id="node31" class="node">
<title>n64514070</title>
<polygon fill="none" stroke="black" points="1466,-324 1253,-324 1253,-288 1466,-288 1466,-324"/>
<text text-anchor="start" x="1261" y="-303.3" font-family="Times,serif" font-size="14.00">person(</text>
<text text-anchor="start" x="1302" y="-303.3" font-family="Times,serif" font-style="italic" font-size="14.00">SKF0</text>
<text text-anchor="start" x="1333" y="-303.3" font-family="Times,serif" font-size="14.00">(</text>
<text text-anchor="start" x="1338" y="-303.3" font-family="Times,serif" font-style="italic" font-size="14.00">Kim</text>
<text text-anchor="start" x="1361" y="-303.3" font-family="Times,serif" font-size="14.00">)), !friendly(</text>
<text text-anchor="start" x="1430" y="-303.3" font-family="Times,serif" font-style="italic" font-size="14.00">Kim</text>
<text text-anchor="start" x="1453" y="-303.3" font-family="Times,serif" font-size="14.00">)</text>
</g>
<!-- SUBSn92431021n38873789&#45;&gt;n64514070 -->
<g id="edge51" class="edge">
<title>SUBSn92431021n38873789&#45;&gt;n64514070</title>
<path fill="none" stroke="black" d="M1359.5,-359.7C1359.5,-351.98 1359.5,-342.71 1359.5,-334.11"/>
<polygon fill="black" stroke="black" points="1363,-334.1 1359.5,-324.1 1356,-334.1 1363,-334.1"/>
</g>
<!-- n30249038 -->
<g id="node11" class="node">
<title>n30249038</title>
<polygon fill="none" stroke="black" stroke-width="2" points="1842.5,-324 1692.5,-324 1692.5,-288 1842.5,-288 1842.5,-324"/>
<text text-anchor="start" x="1700.5" y="-303.3" font-family="Times,serif" font-size="14.00">animal(</text>
<text text-anchor="start" x="1743.5" y="-303.3" font-family="Times,serif" font-weight="bold" font-size="14.00">x6</text>
<text text-anchor="start" x="1757.5" y="-303.3" font-family="Times,serif" font-size="14.00">), !person(</text>
<text text-anchor="start" x="1815.5" y="-303.3" font-family="Times,serif" font-weight="bold" font-size="14.00">x6</text>
<text text-anchor="start" x="1829.5" y="-303.3" font-family="Times,serif" font-size="14.00">)</text>
</g>
<!-- n30249038&#45;&gt;SUBSn00279318n30249038 -->
<g id="edge49" class="edge">
<title>n30249038&#45;&gt;SUBSn00279318n30249038</title>
<path fill="none" stroke="black" d="M1721.51,-287.88C1692.27,-276.99 1654.55,-262.95 1625.34,-252.07"/>
</g>
<!-- n30249038&#45;&gt;SUBSn30249038n92431021 -->
<g id="edge34" class="edge">
<title>n30249038&#45;&gt;SUBSn30249038n92431021</title>
<path fill="none" stroke="black" d="M1773.93,-287.7C1777.96,-276.85 1783.13,-262.92 1787.15,-252.1"/>
</g>
<!-- SUBSn30249038n15615807 -->
<g id="node12" class="node">
<title>SUBSn30249038n15615807</title>
<text text-anchor="start" x="1963.5" y="-230.3" font-family="Times,serif" font-size="14.00">{x6: Q857, x5: Q857}</text>
</g>
<!-- n30249038&#45;&gt;SUBSn30249038n15615807 -->
<g id="edge4" class="edge">
<title>n30249038&#45;&gt;SUBSn30249038n15615807</title>
<path fill="none" stroke="black" d="M1830.28,-287.97C1870.41,-277.08 1922.26,-263.01 1962.43,-252.11"/>
</g>
<!-- SUBSn64514070n30249038 -->
<g id="node13" class="node">
<title>SUBSn64514070n30249038</title>
<text text-anchor="start" x="1309.5" y="-230.3" font-family="Times,serif" font-size="14.00">{x6: SKF0(Kim)}</text>
</g>
<!-- n30249038&#45;&gt;SUBSn64514070n30249038 -->
<g id="edge33" class="edge">
<title>n30249038&#45;&gt;SUBSn64514070n30249038</title>
<path fill="none" stroke="black" d="M1692.42,-289.66C1689.41,-289.09 1686.43,-288.54 1683.5,-288 1590.71,-271.03 1482.48,-253.85 1417.56,-243.82"/>
</g>
<!-- SUBSn15615807n30249038 -->
<g id="node33" class="node">
<title>SUBSn15615807n30249038</title>
<text text-anchor="start" x="2185.5" y="-230.3" font-family="Times,serif" font-size="14.00">{x5: Q856, x6: Q856}</text>
</g>
<!-- n30249038&#45;&gt;SUBSn15615807n30249038 -->
<g id="edge36" class="edge">
<title>n30249038&#45;&gt;SUBSn15615807n30249038</title>
<path fill="none" stroke="black" d="M1842.5,-294.06C1934.13,-280.7 2087.94,-258.27 2177.32,-245.23"/>
</g>
<!-- n89929225 -->
<g id="node29" class="node">
<title>n89929225</title>
<polygon fill="none" stroke="black" points="2112.5,-180 1938.5,-180 1938.5,-144 2112.5,-144 2112.5,-180"/>
<text text-anchor="start" x="1946.5" y="-159.3" font-family="Times,serif" font-size="14.00">animal(</text>
<text text-anchor="start" x="1989.5" y="-159.3" font-family="Times,serif" font-weight="bold" font-size="14.00">Q857</text>
<text text-anchor="start" x="2021.5" y="-159.3" font-family="Times,serif" font-size="14.00">), !man(</text>
<text text-anchor="start" x="2067.5" y="-159.3" font-family="Times,serif" font-weight="bold" font-size="14.00">Q857</text>
<text text-anchor="start" x="2099.5" y="-159.3" font-family="Times,serif" font-size="14.00">)</text>
</g>
<!-- SUBSn30249038n15615807&#45;&gt;n89929225 -->
<g id="edge16" class="edge">
<title>SUBSn30249038n15615807&#45;&gt;n89929225</title>
<path fill="none" stroke="black" d="M2025.5,-215.7C2025.5,-207.98 2025.5,-198.71 2025.5,-190.11"/>
<polygon fill="black" stroke="black" points="2029,-190.1 2025.5,-180.1 2022,-190.1 2029,-190.1"/>
</g>
<!-- n50991201 -->
<g id="node14" class="node">
<title>n50991201</title>
<polygon fill="none" stroke="black" points="1438,-180 1223,-180 1223,-144 1438,-144 1438,-180"/>
<text text-anchor="start" x="1231" y="-159.3" font-family="Times,serif" font-size="14.00">!friendly(</text>
<text text-anchor="start" x="1283" y="-159.3" font-family="Times,serif" font-style="italic" font-size="14.00">Kim</text>
<text text-anchor="start" x="1306" y="-159.3" font-family="Times,serif" font-size="14.00">), animal(</text>
<text text-anchor="start" x="1361" y="-159.3" font-family="Times,serif" font-style="italic" font-size="14.00">SKF0</text>
<text text-anchor="start" x="1392" y="-159.3" font-family="Times,serif" font-size="14.00">(</text>
<text text-anchor="start" x="1397" y="-159.3" font-family="Times,serif" font-style="italic" font-size="14.00">Kim</text>
<text text-anchor="start" x="1420" y="-159.3" font-family="Times,serif" font-size="14.00">))</text>
</g>
<!-- SUBSn64514070n30249038&#45;&gt;n50991201 -->
<g id="edge5" class="edge">
<title>SUBSn64514070n30249038&#45;&gt;n50991201</title>
<path fill="none" stroke="black" d="M1352.33,-215.7C1349.07,-207.81 1345.13,-198.3 1341.5,-189.55"/>
<polygon fill="black" stroke="black" points="1344.65,-188 1337.59,-180.1 1338.18,-190.68 1344.65,-188"/>
</g>
<!-- n00279318 -->
<g id="node15" class="node">
<title>n00279318</title>
<polygon fill="none" stroke="black" points="1674.5,-324 1484.5,-324 1484.5,-288 1674.5,-288 1674.5,-324"/>
<text text-anchor="start" x="1492.5" y="-303.3" font-family="Times,serif" font-size="14.00">person(</text>
<text text-anchor="start" x="1533.5" y="-303.3" font-family="Times,serif" font-style="italic" font-size="14.00">SKF0</text>
<text text-anchor="start" x="1564.5" y="-303.3" font-family="Times,serif" font-size="14.00">(</text>
<text text-anchor="start" x="1569.5" y="-303.3" font-family="Times,serif" font-style="italic" font-size="14.00">Kim</text>
<text text-anchor="start" x="1592.5" y="-303.3" font-family="Times,serif" font-size="14.00">)), !dog(</text>
<text text-anchor="start" x="1638.5" y="-303.3" font-family="Times,serif" font-style="italic" font-size="14.00">Kim</text>
<text text-anchor="start" x="1661.5" y="-303.3" font-family="Times,serif" font-size="14.00">)</text>
</g>
<!-- n00279318&#45;&gt;SUBSn00279318n30249038 -->
<g id="edge6" class="edge">
<title>n00279318&#45;&gt;SUBSn00279318n30249038</title>
<path fill="none" stroke="black" d="M1579.5,-287.7C1579.5,-276.85 1579.5,-262.92 1579.5,-252.1"/>
</g>
<!-- SUBSn67222910n38873789 -->
<g id="node16" class="node">
<title>SUBSn67222910n38873789</title>
<text text-anchor="start" x="370.5" y="-374.3" font-family="Times,serif" font-size="14.00">{x3: Kim}</text>
</g>
<!-- n61138135 -->
<g id="node17" class="node">
<title>n61138135</title>
<polygon fill="none" stroke="black" points="478.5,-324 322.5,-324 322.5,-288 478.5,-288 478.5,-324"/>
<text text-anchor="start" x="330.5" y="-303.3" font-family="Times,serif" font-size="14.00">partOf(</text>
<text text-anchor="start" x="370.5" y="-303.3" font-family="Times,serif" font-style="italic" font-size="14.00">Kim</text>
<text text-anchor="start" x="393.5" y="-303.3" font-family="Times,serif" font-size="14.00">, </text>
<text text-anchor="start" x="401.5" y="-303.3" font-family="Times,serif" font-style="italic" font-size="14.00">SKF1</text>
<text text-anchor="start" x="432.5" y="-303.3" font-family="Times,serif" font-size="14.00">(</text>
<text text-anchor="start" x="437.5" y="-303.3" font-family="Times,serif" font-style="italic" font-size="14.00">Kim</text>
<text text-anchor="start" x="460.5" y="-303.3" font-family="Times,serif" font-size="14.00">))</text>
</g>
<!-- SUBSn67222910n38873789&#45;&gt;n61138135 -->
<g id="edge7" class="edge">
<title>SUBSn67222910n38873789&#45;&gt;n61138135</title>
<path fill="none" stroke="black" d="M400.5,-359.7C400.5,-351.98 400.5,-342.71 400.5,-334.11"/>
<polygon fill="black" stroke="black" points="404,-334.1 400.5,-324.1 397,-334.1 404,-334.1"/>
</g>
<!-- n38873789 -->
<g id="node18" class="node">
<title>n38873789</title>
<polygon fill="none" stroke="black" stroke-width="2" points="735,-468 666,-468 666,-432 735,-432 735,-468"/>
<text text-anchor="start" x="674" y="-447.3" font-family="Times,serif" font-size="14.00">dog(</text>
<text text-anchor="start" x="699" y="-447.3" font-family="Times,serif" font-style="italic" font-size="14.00">Kim</text>
<text text-anchor="start" x="722" y="-447.3" font-family="Times,serif" font-size="14.00">)</text>
</g>
<!-- n38873789&#45;&gt;SUBSn86481837n38873789 -->
<g id="edge45" class="edge">
<title>n38873789&#45;&gt;SUBSn86481837n38873789</title>
<path fill="none" stroke="black" d="M665.69,-434.64C662.61,-433.65 659.52,-432.75 656.5,-432 524.89,-399.31 488.12,-412.41 353.5,-396 320.43,-391.97 282.86,-387.26 255.6,-383.83"/>
</g>
<!-- n38873789&#45;&gt;SUBSn92431021n38873789 -->
<g id="edge35" class="edge">
<title>n38873789&#45;&gt;SUBSn92431021n38873789</title>
<path fill="none" stroke="black" d="M735.21,-443.47C758.23,-439.91 789.12,-435.34 816.5,-432 1005.48,-408.94 1232.45,-389.42 1321.25,-382.1"/>
</g>
<!-- n38873789&#45;&gt;SUBSn67222910n38873789 -->
<g id="edge8" class="edge">
<title>n38873789&#45;&gt;SUBSn67222910n38873789</title>
<path fill="none" stroke="black" d="M665.61,-434.93C662.55,-433.87 659.49,-432.88 656.5,-432 580.53,-409.62 489.18,-393.13 438.72,-384.89"/>
</g>
<!-- n38873789&#45;&gt;SUBSn38873789n86756449 -->
<g id="edge18" class="edge">
<title>n38873789&#45;&gt;SUBSn38873789n86756449</title>
<path fill="none" stroke="black" d="M692.2,-431.97C680.22,-405.77 659.5,-353.7 659.5,-307 659.5,-307 659.5,-307 659.5,-233 659.5,-167.67 716.37,-169.55 776.5,-144 886.86,-97.11 1032.91,-91.09 1092.47,-90.74"/>
</g>
<!-- SUBSn39117394n38873789 -->
<g id="node37" class="node">
<title>SUBSn39117394n38873789</title>
<text text-anchor="start" x="542.5" y="-374.3" font-family="Times,serif" font-size="14.00">{x4: Kim}</text>
</g>
<!-- n38873789&#45;&gt;SUBSn39117394n38873789 -->
<g id="edge23" class="edge">
<title>n38873789&#45;&gt;SUBSn39117394n38873789</title>
<path fill="none" stroke="black" d="M669.19,-431.88C649.35,-421.03 623.79,-407.05 603.93,-396.19"/>
</g>
<!-- SUBSn68082823n38873789 -->
<g id="node39" class="node">
<title>SUBSn68082823n38873789</title>
<text text-anchor="start" x="814.5" y="-374.3" font-family="Times,serif" font-size="14.00">{x2: Kim}</text>
</g>
<!-- n38873789&#45;&gt;SUBSn68082823n38873789 -->
<g id="edge24" class="edge">
<title>n38873789&#45;&gt;SUBSn68082823n38873789</title>
<path fill="none" stroke="black" d="M735.36,-432.05C757.83,-421.13 786.95,-406.97 809.46,-396.03"/>
</g>
<!-- SUBSn38873789n91997759 -->
<g id="node42" class="node">
<title>SUBSn38873789n91997759</title>
<text text-anchor="start" x="853.5" y="-230.3" font-family="Times,serif" font-size="14.00">{}</text>
</g>
<!-- n38873789&#45;&gt;SUBSn38873789n91997759 -->
<g id="edge30" class="edge">
<title>n38873789&#45;&gt;SUBSn38873789n91997759</title>
<path fill="none" stroke="black" d="M696.95,-431.83C691.38,-399.87 684.39,-330.61 717.5,-288 745.44,-252.04 800.39,-240.48 833.44,-236.76"/>
</g>
<!-- SUBSn15615807n52210893 -->
<g id="node19" class="node">
<title>SUBSn15615807n52210893</title>
<text text-anchor="start" x="2343.5" y="-230.3" font-family="Times,serif" font-size="14.00">{x5: Mike}</text>
</g>
<!-- n37384893 -->
<g id="node51" class="node">
<title>n37384893</title>
<polygon fill="none" stroke="black" points="2450.5,-180 2360.5,-180 2360.5,-144 2450.5,-144 2450.5,-180"/>
<text text-anchor="start" x="2368.5" y="-159.3" font-family="Times,serif" font-size="14.00">person(</text>
<text text-anchor="start" x="2409.5" y="-159.3" font-family="Times,serif" font-style="italic" font-size="14.00">Mike</text>
<text text-anchor="start" x="2437.5" y="-159.3" font-family="Times,serif" font-size="14.00">)</text>
</g>
<!-- SUBSn15615807n52210893&#45;&gt;n37384893 -->
<g id="edge53" class="edge">
<title>SUBSn15615807n52210893&#45;&gt;n37384893</title>
<path fill="none" stroke="black" d="M2382.92,-215.7C2386.29,-207.81 2390.37,-198.3 2394.12,-189.55"/>
<polygon fill="black" stroke="black" points="2397.45,-190.67 2398.17,-180.1 2391.01,-187.92 2397.45,-190.67"/>
</g>
<!-- n15615807 -->
<g id="node20" class="node">
<title>n15615807</title>
<polygon fill="none" stroke="black" stroke-width="2" points="2416.5,-324 2280.5,-324 2280.5,-288 2416.5,-288 2416.5,-324"/>
<text text-anchor="start" x="2288.5" y="-303.3" font-family="Times,serif" font-size="14.00">!man(</text>
<text text-anchor="start" x="2322.5" y="-303.3" font-family="Times,serif" font-weight="bold" font-size="14.00">x5</text>
<text text-anchor="start" x="2336.5" y="-303.3" font-family="Times,serif" font-size="14.00">), person(</text>
<text text-anchor="start" x="2389.5" y="-303.3" font-family="Times,serif" font-weight="bold" font-size="14.00">x5</text>
<text text-anchor="start" x="2403.5" y="-303.3" font-family="Times,serif" font-size="14.00">)</text>
</g>
<!-- n15615807&#45;&gt;SUBSn30249038n15615807 -->
<g id="edge9" class="edge">
<title>n15615807&#45;&gt;SUBSn30249038n15615807</title>
<path fill="none" stroke="black" d="M2280.39,-290.24C2226.16,-278.49 2150.53,-262.1 2095.74,-250.22"/>
</g>
<!-- n15615807&#45;&gt;SUBSn15615807n52210893 -->
<g id="edge55" class="edge">
<title>n15615807&#45;&gt;SUBSn15615807n52210893</title>
<path fill="none" stroke="black" d="M2355.17,-287.7C2359.36,-276.85 2364.73,-262.92 2368.9,-252.1"/>
</g>
<!-- n15615807&#45;&gt;SUBSn15615807n30249038 -->
<g id="edge47" class="edge">
<title>n15615807&#45;&gt;SUBSn15615807n30249038</title>
<path fill="none" stroke="black" d="M2323.79,-287.88C2308.14,-277.03 2287.97,-263.05 2272.3,-252.19"/>
</g>
<!-- SUBSn15615807n67283446 -->
<g id="node36" class="node">
<title>SUBSn15615807n67283446</title>
<text text-anchor="start" x="2482" y="-230.3" font-family="Times,serif" font-size="14.00">{x5: SK0}</text>
</g>
<!-- n15615807&#45;&gt;SUBSn15615807n67283446 -->
<g id="edge40" class="edge">
<title>n15615807&#45;&gt;SUBSn15615807n67283446</title>
<path fill="none" stroke="black" d="M2388.37,-287.88C2414.48,-276.66 2448.38,-262.11 2474,-251.11"/>
</g>
<!-- SUBSn92431021n03108541&#45;&gt;n00279318 -->
<g id="edge17" class="edge">
<title>SUBSn92431021n03108541&#45;&gt;n00279318</title>
<path fill="none" stroke="black" d="M1532.07,-359.7C1539.7,-351.22 1549.02,-340.86 1557.38,-331.58"/>
<polygon fill="black" stroke="black" points="1560.02,-333.88 1564.11,-324.1 1554.81,-329.2 1560.02,-333.88"/>
</g>
<!-- n52210893 -->
<g id="node23" class="node">
<title>n52210893</title>
<polygon fill="none" stroke="black" stroke-width="2" points="2207.5,-324 2129.5,-324 2129.5,-288 2207.5,-288 2207.5,-324"/>
<text text-anchor="start" x="2137.5" y="-303.3" font-family="Times,serif" font-size="14.00">man(</text>
<text text-anchor="start" x="2166.5" y="-303.3" font-family="Times,serif" font-style="italic" font-size="14.00">Mike</text>
<text text-anchor="start" x="2194.5" y="-303.3" font-family="Times,serif" font-size="14.00">)</text>
</g>
<!-- n52210893&#45;&gt;SUBSn15615807n52210893 -->
<g id="edge57" class="edge">
<title>n52210893&#45;&gt;SUBSn15615807n52210893</title>
<path fill="none" stroke="black" d="M2207.82,-291.93C2239.81,-281.28 2286.11,-265.78 2326.5,-252 2329.4,-251.01 2332.39,-249.99 2335.4,-248.95"/>
</g>
<!-- n52210893&#45;&gt;SUBSn52210893n37532184 -->
<g id="edge12" class="edge">
<title>n52210893&#45;&gt;SUBSn52210893n37532184</title>
<path fill="none" stroke="black" d="M2163.46,-287.54C2155.63,-257.39 2143.08,-194.01 2159.5,-144 2163.92,-130.54 2173.21,-117.69 2181.61,-108.01"/>
</g>
<!-- n23862024 -->
<g id="node40" class="node">
<title>n23862024</title>
<polygon fill="none" stroke="black" points="2244.5,-36 2152.5,-36 2152.5,0 2244.5,0 2244.5,-36"/>
<text text-anchor="start" x="2160.5" y="-15.3" font-family="Times,serif" font-size="14.00">animal(</text>
<text text-anchor="start" x="2203.5" y="-15.3" font-family="Times,serif" font-style="italic" font-size="14.00">Mike</text>
<text text-anchor="start" x="2231.5" y="-15.3" font-family="Times,serif" font-size="14.00">)</text>
</g>
<!-- SUBSn52210893n37532184&#45;&gt;n23862024 -->
<g id="edge28" class="edge">
<title>SUBSn52210893n37532184&#45;&gt;n23862024</title>
<path fill="none" stroke="black" d="M2198.5,-71.7C2198.5,-63.98 2198.5,-54.71 2198.5,-46.11"/>
<polygon fill="black" stroke="black" points="2202,-46.1 2198.5,-36.1 2195,-46.1 2202,-46.1"/>
</g>
<!-- n67283446 -->
<g id="node25" class="node">
<title>n67283446</title>
<polygon fill="none" stroke="black" stroke-width="2" points="2584,-324 2511,-324 2511,-288 2584,-288 2584,-324"/>
<text text-anchor="start" x="2519" y="-303.3" font-family="Times,serif" font-size="14.00">man(</text>
<text text-anchor="start" x="2548" y="-303.3" font-family="Times,serif" font-style="italic" font-size="14.00">SK0</text>
<text text-anchor="start" x="2571" y="-303.3" font-family="Times,serif" font-size="14.00">)</text>
</g>
<!-- n67283446&#45;&gt;SUBSn67283446n37532184 -->
<g id="edge14" class="edge">
<title>n67283446&#45;&gt;SUBSn67283446n37532184</title>
<path fill="none" stroke="black" d="M2556.37,-287.7C2571.48,-255.51 2597.47,-185.89 2563.5,-144 2538.18,-112.78 2423.79,-99.24 2358.51,-93.96"/>
</g>
<!-- n67283446&#45;&gt;SUBSn15615807n67283446 -->
<g id="edge21" class="edge">
<title>n67283446&#45;&gt;SUBSn15615807n67283446</title>
<path fill="none" stroke="black" d="M2538.6,-287.7C2533.02,-276.85 2525.86,-262.92 2520.3,-252.1"/>
</g>
<!-- n47882661 -->
<g id="node34" class="node">
<title>n47882661</title>
<polygon fill="none" stroke="black" points="1183.5,-36 1055.5,-36 1055.5,0 1183.5,0 1183.5,-36"/>
<text text-anchor="start" x="1063.5" y="-15.3" font-family="Times,serif" font-size="14.00">animal(</text>
<text text-anchor="start" x="1106.5" y="-15.3" font-family="Times,serif" font-style="italic" font-size="14.00">SKF0</text>
<text text-anchor="start" x="1137.5" y="-15.3" font-family="Times,serif" font-size="14.00">(</text>
<text text-anchor="start" x="1142.5" y="-15.3" font-family="Times,serif" font-style="italic" font-size="14.00">Kim</text>
<text text-anchor="start" x="1165.5" y="-15.3" font-family="Times,serif" font-size="14.00">))</text>
</g>
<!-- SUBSn38873789n86756449&#45;&gt;n47882661 -->
<g id="edge42" class="edge">
<title>SUBSn38873789n86756449&#45;&gt;n47882661</title>
<path fill="none" stroke="black" d="M1119.5,-71.7C1119.5,-63.98 1119.5,-54.71 1119.5,-46.11"/>
<polygon fill="black" stroke="black" points="1123,-46.1 1119.5,-36.1 1116,-46.1 1123,-46.1"/>
</g>
<!-- n08789471 -->
<g id="node46" class="node">
<title>n08789471</title>
<polygon fill="none" stroke="black" points="2356,-36 2269,-36 2269,0 2356,0 2356,-36"/>
<text text-anchor="start" x="2277" y="-15.3" font-family="Times,serif" font-size="14.00">animal(</text>
<text text-anchor="start" x="2320" y="-15.3" font-family="Times,serif" font-style="italic" font-size="14.00">SK0</text>
<text text-anchor="start" x="2343" y="-15.3" font-family="Times,serif" font-size="14.00">)</text>
</g>
<!-- SUBSn67283446n37532184&#45;&gt;n08789471 -->
<g id="edge46" class="edge">
<title>SUBSn67283446n37532184&#45;&gt;n08789471</title>
<path fill="none" stroke="black" d="M2312.5,-71.7C2312.5,-63.98 2312.5,-54.71 2312.5,-46.11"/>
<polygon fill="black" stroke="black" points="2316,-46.1 2312.5,-36.1 2309,-46.1 2316,-46.1"/>
</g>
<!-- n03108541 -->
<g id="node28" class="node">
<title>n03108541</title>
<polygon fill="none" stroke="black" stroke-width="2" points="1270.5,-468 1178.5,-468 1178.5,-432 1270.5,-432 1270.5,-468"/>
<text text-anchor="start" x="1186.5" y="-447.3" font-family="Times,serif" font-size="14.00">friendly(</text>
<text text-anchor="start" x="1234.5" y="-447.3" font-family="Times,serif" font-style="italic" font-size="14.00">Kim</text>
<text text-anchor="start" x="1257.5" y="-447.3" font-family="Times,serif" font-size="14.00">)</text>
</g>
<!-- n03108541&#45;&gt;SUBSn92431021n03108541 -->
<g id="edge15" class="edge">
<title>n03108541&#45;&gt;SUBSn92431021n03108541</title>
<path fill="none" stroke="black" d="M1270.77,-437.91C1328.18,-424.15 1425,-400.94 1478.36,-388.14"/>
</g>
<!-- SUBSn64514070n03108541 -->
<g id="node32" class="node">
<title>SUBSn64514070n03108541</title>
<text text-anchor="start" x="1217.5" y="-230.3" font-family="Times,serif" font-size="14.00">{}</text>
</g>
<!-- n03108541&#45;&gt;SUBSn64514070n03108541 -->
<g id="edge22" class="edge">
<title>n03108541&#45;&gt;SUBSn64514070n03108541</title>
<path fill="none" stroke="black" d="M1224.5,-431.85C1224.5,-391.78 1224.5,-292.38 1224.5,-252.23"/>
</g>
<!-- SUBSn68082823n03108541 -->
<g id="node38" class="node">
<title>SUBSn68082823n03108541</title>
<text text-anchor="start" x="1058.5" y="-374.3" font-family="Times,serif" font-size="14.00">{x2: Kim}</text>
</g>
<!-- n03108541&#45;&gt;SUBSn68082823n03108541 -->
<g id="edge39" class="edge">
<title>n03108541&#45;&gt;SUBSn68082823n03108541</title>
<path fill="none" stroke="black" d="M1191.23,-431.88C1170.16,-421.03 1143,-407.05 1121.9,-396.19"/>
</g>
<!-- n61405530 -->
<g id="node30" class="node">
<title>n61405530</title>
<polygon fill="none" stroke="black" points="1204.5,-180 1078.5,-180 1078.5,-144 1204.5,-144 1204.5,-180"/>
<text text-anchor="start" x="1086.5" y="-159.3" font-family="Times,serif" font-size="14.00">person(</text>
<text text-anchor="start" x="1127.5" y="-159.3" font-family="Times,serif" font-style="italic" font-size="14.00">SKF0</text>
<text text-anchor="start" x="1158.5" y="-159.3" font-family="Times,serif" font-size="14.00">(</text>
<text text-anchor="start" x="1163.5" y="-159.3" font-family="Times,serif" font-style="italic" font-size="14.00">Kim</text>
<text text-anchor="start" x="1186.5" y="-159.3" font-family="Times,serif" font-size="14.00">))</text>
</g>
<!-- n64514070&#45;&gt;SUBSn64514070n30249038 -->
<g id="edge37" class="edge">
<title>n64514070&#45;&gt;SUBSn64514070n30249038</title>
<path fill="none" stroke="black" d="M1359.5,-287.7C1359.5,-276.85 1359.5,-262.92 1359.5,-252.1"/>
</g>
<!-- n64514070&#45;&gt;SUBSn64514070n03108541 -->
<g id="edge19" class="edge">
<title>n64514070&#45;&gt;SUBSn64514070n03108541</title>
<path fill="none" stroke="black" d="M1326.48,-287.88C1303.53,-275.98 1273.31,-260.31 1251.74,-249.12"/>
</g>
<!-- SUBSn64514070n03108541&#45;&gt;n61405530 -->
<g id="edge31" class="edge">
<title>SUBSn64514070n03108541&#45;&gt;n61405530</title>
<path fill="none" stroke="black" d="M1203.98,-215.7C1193.63,-206.97 1180.91,-196.24 1169.66,-186.75"/>
<polygon fill="black" stroke="black" points="1171.68,-183.88 1161.78,-180.1 1167.17,-189.23 1171.68,-183.88"/>
</g>
<!-- SUBSn15615807n30249038&#45;&gt;n37532184 -->
<g id="edge32" class="edge">
<title>SUBSn15615807n30249038&#45;&gt;n37532184</title>
<path fill="none" stroke="black" d="M2249.48,-215.7C2250.36,-207.98 2251.42,-198.71 2252.4,-190.11"/>
<polygon fill="black" stroke="black" points="2255.89,-190.44 2253.55,-180.1 2248.93,-189.64 2255.89,-190.44"/>
</g>
<!-- n22312340 -->
<g id="node45" class="node">
<title>n22312340</title>
<polygon fill="none" stroke="black" points="2554,-180 2469,-180 2469,-144 2554,-144 2554,-180"/>
<text text-anchor="start" x="2477" y="-159.3" font-family="Times,serif" font-size="14.00">person(</text>
<text text-anchor="start" x="2518" y="-159.3" font-family="Times,serif" font-style="italic" font-size="14.00">SK0</text>
<text text-anchor="start" x="2541" y="-159.3" font-family="Times,serif" font-size="14.00">)</text>
</g>
<!-- SUBSn15615807n67283446&#45;&gt;n22312340 -->
<g id="edge38" class="edge">
<title>SUBSn15615807n67283446&#45;&gt;n22312340</title>
<path fill="none" stroke="black" d="M2511.5,-215.7C2511.5,-207.98 2511.5,-198.71 2511.5,-190.11"/>
<polygon fill="black" stroke="black" points="2515,-190.1 2511.5,-180.1 2508,-190.1 2515,-190.1"/>
</g>
<!-- n92405208 -->
<g id="node44" class="node">
<title>n92405208</title>
<polygon fill="none" stroke="black" points="626,-324 519,-324 519,-288 626,-288 626,-324"/>
<text text-anchor="start" x="527" y="-303.3" font-family="Times,serif" font-size="14.00">tail(</text>
<text text-anchor="start" x="549" y="-303.3" font-family="Times,serif" font-style="italic" font-size="14.00">SKF1</text>
<text text-anchor="start" x="580" y="-303.3" font-family="Times,serif" font-size="14.00">(</text>
<text text-anchor="start" x="585" y="-303.3" font-family="Times,serif" font-style="italic" font-size="14.00">Kim</text>
<text text-anchor="start" x="608" y="-303.3" font-family="Times,serif" font-size="14.00">))</text>
</g>
<!-- SUBSn39117394n38873789&#45;&gt;n92405208 -->
<g id="edge50" class="edge">
<title>SUBSn39117394n38873789&#45;&gt;n92405208</title>
<path fill="none" stroke="black" d="M572.5,-359.7C572.5,-351.98 572.5,-342.71 572.5,-334.11"/>
<polygon fill="black" stroke="black" points="576,-334.1 572.5,-324.1 569,-334.1 576,-334.1"/>
</g>
<!-- n91997759 -->
<g id="node41" class="node">
<title>n91997759</title>
<polygon fill="none" stroke="black" points="1196,-324 981,-324 981,-288 1196,-288 1196,-324"/>
<text text-anchor="start" x="989" y="-303.3" font-family="Times,serif" font-size="14.00">loves(</text>
<text text-anchor="start" x="1023" y="-303.3" font-family="Times,serif" font-style="italic" font-size="14.00">SKF0</text>
<text text-anchor="start" x="1054" y="-303.3" font-family="Times,serif" font-size="14.00">(</text>
<text text-anchor="start" x="1059" y="-303.3" font-family="Times,serif" font-style="italic" font-size="14.00">Kim</text>
<text text-anchor="start" x="1082" y="-303.3" font-family="Times,serif" font-size="14.00">), </text>
<text text-anchor="start" x="1095" y="-303.3" font-family="Times,serif" font-style="italic" font-size="14.00">Kim</text>
<text text-anchor="start" x="1118" y="-303.3" font-family="Times,serif" font-size="14.00">), !dog(</text>
<text text-anchor="start" x="1160" y="-303.3" font-family="Times,serif" font-style="italic" font-size="14.00">Kim</text>
<text text-anchor="start" x="1183" y="-303.3" font-family="Times,serif" font-size="14.00">)</text>
</g>
<!-- SUBSn68082823n03108541&#45;&gt;n91997759 -->
<g id="edge29" class="edge">
<title>SUBSn68082823n03108541&#45;&gt;n91997759</title>
<path fill="none" stroke="black" d="M1088.5,-359.7C1088.5,-351.98 1088.5,-342.71 1088.5,-334.11"/>
<polygon fill="black" stroke="black" points="1092,-334.1 1088.5,-324.1 1085,-334.1 1092,-334.1"/>
</g>
<!-- SUBSn68082823n38873789&#45;&gt;n56232511 -->
<g id="edge43" class="edge">
<title>SUBSn68082823n38873789&#45;&gt;n56232511</title>
<path fill="none" stroke="black" d="M844.5,-359.7C844.5,-351.98 844.5,-342.71 844.5,-334.11"/>
<polygon fill="black" stroke="black" points="848,-334.1 844.5,-324.1 841,-334.1 848,-334.1"/>
</g>
<!-- n91997759&#45;&gt;SUBSn38873789n91997759 -->
<g id="edge27" class="edge">
<title>n91997759&#45;&gt;SUBSn38873789n91997759</title>
<path fill="none" stroke="black" d="M1033.02,-287.97C986.88,-273.8 923.2,-254.25 887.53,-243.3"/>
</g>
<!-- n53123971 -->
<g id="node47" class="node">
<title>n53123971</title>
<polygon fill="none" stroke="black" points="935.5,-180 785.5,-180 785.5,-144 935.5,-144 935.5,-180"/>
<text text-anchor="start" x="793.5" y="-159.3" font-family="Times,serif" font-size="14.00">loves(</text>
<text text-anchor="start" x="827.5" y="-159.3" font-family="Times,serif" font-style="italic" font-size="14.00">SKF0</text>
<text text-anchor="start" x="858.5" y="-159.3" font-family="Times,serif" font-size="14.00">(</text>
<text text-anchor="start" x="863.5" y="-159.3" font-family="Times,serif" font-style="italic" font-size="14.00">Kim</text>
<text text-anchor="start" x="886.5" y="-159.3" font-family="Times,serif" font-size="14.00">), </text>
<text text-anchor="start" x="899.5" y="-159.3" font-family="Times,serif" font-style="italic" font-size="14.00">Kim</text>
<text text-anchor="start" x="922.5" y="-159.3" font-family="Times,serif" font-size="14.00">)</text>
</g>
<!-- SUBSn38873789n91997759&#45;&gt;n53123971 -->
<g id="edge41" class="edge">
<title>SUBSn38873789n91997759&#45;&gt;n53123971</title>
<path fill="none" stroke="black" d="M860.5,-215.7C860.5,-207.98 860.5,-198.71 860.5,-190.11"/>
<polygon fill="black" stroke="black" points="864,-190.1 860.5,-180.1 857,-190.1 864,-190.1"/>
</g>
<!-- n68082823 -->
<g id="node43" class="node">
<title>n68082823</title>
<polygon fill="none" stroke="black" stroke-width="2" points="1091.5,-468 825.5,-468 825.5,-432 1091.5,-432 1091.5,-468"/>
<text text-anchor="start" x="833.5" y="-447.3" font-family="Times,serif" font-size="14.00">loves(</text>
<text text-anchor="start" x="867.5" y="-447.3" font-family="Times,serif" font-style="italic" font-size="14.00">SKF0</text>
<text text-anchor="start" x="898.5" y="-447.3" font-family="Times,serif" font-size="14.00">(</text>
<text text-anchor="start" x="903.5" y="-447.3" font-family="Times,serif" font-weight="bold" font-size="14.00">x2</text>
<text text-anchor="start" x="917.5" y="-447.3" font-family="Times,serif" font-size="14.00">), </text>
<text text-anchor="start" x="930.5" y="-447.3" font-family="Times,serif" font-weight="bold" font-size="14.00">x2</text>
<text text-anchor="start" x="944.5" y="-447.3" font-family="Times,serif" font-size="14.00">), !friendly(</text>
<text text-anchor="start" x="1008.5" y="-447.3" font-family="Times,serif" font-weight="bold" font-size="14.00">x2</text>
<text text-anchor="start" x="1022.5" y="-447.3" font-family="Times,serif" font-size="14.00">), !dog(</text>
<text text-anchor="start" x="1064.5" y="-447.3" font-family="Times,serif" font-weight="bold" font-size="14.00">x2</text>
<text text-anchor="start" x="1078.5" y="-447.3" font-family="Times,serif" font-size="14.00">)</text>
</g>
<!-- n68082823&#45;&gt;SUBSn68082823n03108541 -->
<g id="edge44" class="edge">
<title>n68082823&#45;&gt;SUBSn68082823n03108541</title>
<path fill="none" stroke="black" d="M990.3,-431.88C1010.45,-421.03 1036.41,-407.05 1056.58,-396.19"/>
</g>
<!-- n68082823&#45;&gt;SUBSn68082823n38873789 -->
<g id="edge56" class="edge">
<title>n68082823&#45;&gt;SUBSn68082823n38873789</title>
<path fill="none" stroke="black" d="M930.61,-431.88C912.95,-421.03 890.18,-407.05 872.49,-396.19"/>
</g>
<!-- n39117394 -->
<g id="node48" class="node">
<title>n39117394</title>
<polygon fill="none" stroke="black" stroke-width="2" points="647.5,-468 493.5,-468 493.5,-432 647.5,-432 647.5,-468"/>
<text text-anchor="start" x="501.5" y="-447.3" font-family="Times,serif" font-size="14.00">!dog(</text>
<text text-anchor="start" x="531.5" y="-447.3" font-family="Times,serif" font-weight="bold" font-size="14.00">x4</text>
<text text-anchor="start" x="545.5" y="-447.3" font-family="Times,serif" font-size="14.00">), tail(</text>
<text text-anchor="start" x="579.5" y="-447.3" font-family="Times,serif" font-style="italic" font-size="14.00">SKF1</text>
<text text-anchor="start" x="610.5" y="-447.3" font-family="Times,serif" font-size="14.00">(</text>
<text text-anchor="start" x="615.5" y="-447.3" font-family="Times,serif" font-weight="bold" font-size="14.00">x4</text>
<text text-anchor="start" x="629.5" y="-447.3" font-family="Times,serif" font-size="14.00">))</text>
</g>
<!-- n39117394&#45;&gt;SUBSn39117394n38873789 -->
<g id="edge48" class="edge">
<title>n39117394&#45;&gt;SUBSn39117394n38873789</title>
<path fill="none" stroke="black" d="M570.99,-431.7C571.3,-420.85 571.7,-406.92 572.01,-396.1"/>
</g>
<!-- n79673893 -->
<g id="node49" class="node">
<title>n79673893</title>
<polygon fill="none" stroke="black" stroke-width="2" points="1739.5,-468 1659.5,-468 1659.5,-432 1739.5,-432 1739.5,-468"/>
<text text-anchor="start" x="1667.5" y="-447.3" font-family="Times,serif" font-size="14.00">angry(</text>
<text text-anchor="start" x="1703.5" y="-447.3" font-family="Times,serif" font-style="italic" font-size="14.00">SK0</text>
<text text-anchor="start" x="1726.5" y="-447.3" font-family="Times,serif" font-size="14.00">)</text>
</g>
<!-- n67222910 -->
<g id="node50" class="node">
<title>n67222910</title>
<polygon fill="none" stroke="black" stroke-width="2" points="475.5,-468 281.5,-468 281.5,-432 475.5,-432 475.5,-468"/>
<text text-anchor="start" x="289.5" y="-447.3" font-family="Times,serif" font-size="14.00">!dog(</text>
<text text-anchor="start" x="319.5" y="-447.3" font-family="Times,serif" font-weight="bold" font-size="14.00">x3</text>
<text text-anchor="start" x="333.5" y="-447.3" font-family="Times,serif" font-size="14.00">), partOf(</text>
<text text-anchor="start" x="385.5" y="-447.3" font-family="Times,serif" font-weight="bold" font-size="14.00">x3</text>
<text text-anchor="start" x="399.5" y="-447.3" font-family="Times,serif" font-size="14.00">, </text>
<text text-anchor="start" x="407.5" y="-447.3" font-family="Times,serif" font-style="italic" font-size="14.00">SKF1</text>
<text text-anchor="start" x="438.5" y="-447.3" font-family="Times,serif" font-size="14.00">(</text>
<text text-anchor="start" x="443.5" y="-447.3" font-family="Times,serif" font-weight="bold" font-size="14.00">x3</text>
<text text-anchor="start" x="457.5" y="-447.3" font-family="Times,serif" font-size="14.00">))</text>
</g>
<!-- n67222910&#45;&gt;SUBSn67222910n38873789 -->
<g id="edge52" class="edge">
<title>n67222910&#45;&gt;SUBSn67222910n38873789</title>
<path fill="none" stroke="black" d="M383.94,-431.7C387.35,-420.85 391.73,-406.92 395.12,-396.1"/>
</g>
</g>
</svg>
