<?xml version="1.0" encoding="UTF-8" standalone="no"?>
<!DOCTYPE svg PUBLIC "-//W3C//DTD SVG 1.1//EN"
 "http://www.w3.org/Graphics/SVG/1.1/DTD/svg11.dtd">
<!-- Generated by graphviz version 2.43.0 (0)
 -->
<!-- Title: g Pages: 1 -->
<svg width="248pt" height="332pt"
 viewBox="0.00 0.00 248.00 332.00" xmlns="http://www.w3.org/2000/svg" xmlns:xlink="http://www.w3.org/1999/xlink">
<g id="graph0" class="graph" transform="scale(1 1) rotate(0) translate(4 328)">
<title>g</title>
<polygon fill="white" stroke="transparent" points="-4,4 -4,-328 244,-328 244,4 -4,4"/>
<!-- SUBSn07821414n41836102 -->
<g id="node1" class="node">
<title>SUBSn07821414n41836102</title>
<text text-anchor="start" x="99.5" y="-86.3" font-family="Times,serif" font-size="14.00">{x7: SKF1(Kim)}</text>
</g>
<!-- n00000000 -->
<g id="node2" class="node">
<title>n00000000</title>
<polygon fill="none" stroke="black" points="178.5,-36 120.5,-36 120.5,0 178.5,0 178.5,-36"/>
<text text-anchor="start" x="128.5" y="-14.3" font-family="Times,serif" font-size="14.00">FALSE</text>
</g>
<!-- SUBSn07821414n41836102&#45;&gt;n00000000 -->
<g id="edge1" class="edge">
<title>SUBSn07821414n41836102&#45;&gt;n00000000</title>
<path fill="none" stroke="black" d="M149.5,-71.7C149.5,-63.98 149.5,-54.71 149.5,-46.11"/>
<polygon fill="black" stroke="black" points="153,-46.1 149.5,-36.1 146,-46.1 153,-46.1"/>
</g>
<!-- n41836102 -->
<g id="node3" class="node">
<title>n41836102</title>
<polygon fill="none" stroke="black" points="152,-180 45,-180 45,-144 152,-144 152,-180"/>
<text text-anchor="start" x="53" y="-159.3" font-family="Times,serif" font-size="14.00">tail(</text>
<text text-anchor="start" x="75" y="-159.3" font-family="Times,serif" font-style="italic" font-size="14.00">SKF1</text>
<text text-anchor="start" x="106" y="-159.3" font-family="Times,serif" font-size="14.00">(</text>
<text text-anchor="start" x="111" y="-159.3" font-family="Times,serif" font-style="italic" font-size="14.00">Kim</text>
<text text-anchor="start" x="134" y="-159.3" font-family="Times,serif" font-size="14.00">))</text>
</g>
<!-- n41836102&#45;&gt;SUBSn07821414n41836102 -->
<g id="edge6" class="edge">
<title>n41836102&#45;&gt;SUBSn07821414n41836102</title>
<path fill="none" stroke="black" d="M111.11,-143.7C119.01,-132.85 129.16,-118.92 137.04,-108.1"/>
</g>
<!-- n07821414 -->
<g id="node4" class="node">
<title>n07821414</title>
<polygon fill="none" stroke="black" stroke-width="2" points="232.5,-180 170.5,-180 170.5,-144 232.5,-144 232.5,-180"/>
<text text-anchor="start" x="178.5" y="-159.3" font-family="Times,serif" font-size="14.00">!tail(</text>
<text text-anchor="start" x="205.5" y="-159.3" font-family="Times,serif" font-weight="bold" font-size="14.00">x7</text>
<text text-anchor="start" x="219.5" y="-159.3" font-family="Times,serif" font-size="14.00">)</text>
</g>
<!-- n07821414&#45;&gt;SUBSn07821414n41836102 -->
<g id="edge2" class="edge">
<title>n07821414&#45;&gt;SUBSn07821414n41836102</title>
<path fill="none" stroke="black" d="M188.65,-143.7C180.59,-132.85 170.24,-118.92 162.21,-108.1"/>
</g>
<!-- SUBSn21066840n45347761 -->
<g id="node5" class="node">
<title>SUBSn21066840n45347761</title>
<text text-anchor="start" x="68.5" y="-230.3" font-family="Times,serif" font-size="14.00">{x4: Kim}</text>
</g>
<!-- SUBSn21066840n45347761&#45;&gt;n41836102 -->
<g id="edge3" class="edge">
<title>SUBSn21066840n45347761&#45;&gt;n41836102</title>
<path fill="none" stroke="black" d="M98.5,-215.7C98.5,-207.98 98.5,-198.71 98.5,-190.11"/>
<polygon fill="black" stroke="black" points="102,-190.1 98.5,-180.1 95,-190.1 102,-190.1"/>
</g>
<!-- n45347761 -->
<g id="node6" class="node">
<title>n45347761</title>
<polygon fill="none" stroke="black" stroke-width="2" points="69,-324 0,-324 0,-288 69,-288 69,-324"/>
<text text-anchor="start" x="8" y="-303.3" font-family="Times,serif" font-size="14.00">dog(</text>
<text text-anchor="start" x="33" y="-303.3" font-family="Times,serif" font-style="italic" font-size="14.00">Kim</text>
<text text-anchor="start" x="56" y="-303.3" font-family="Times,serif" font-size="14.00">)</text>
</g>
<!-- n45347761&#45;&gt;SUBSn21066840n45347761 -->
<g id="edge4" class="edge">
<title>n45347761&#45;&gt;SUBSn21066840n45347761</title>
<path fill="none" stroke="black" d="M50.32,-287.7C60.24,-276.85 72.98,-262.92 82.86,-252.1"/>
</g>
<!-- n21066840 -->
<g id="node7" class="node">
<title>n21066840</title>
<polygon fill="none" stroke="black" stroke-width="2" points="240,-324 87,-324 87,-288 240,-288 240,-324"/>
<text text-anchor="start" x="95" y="-303.3" font-family="Times,serif" font-size="14.00">tail(</text>
<text text-anchor="start" x="117" y="-303.3" font-family="Times,serif" font-style="italic" font-size="14.00">SKF1</text>
<text text-anchor="start" x="148" y="-303.3" font-family="Times,serif" font-size="14.00">(</text>
<text text-anchor="start" x="153" y="-303.3" font-family="Times,serif" font-weight="bold" font-size="14.00">x4</text>
<text text-anchor="start" x="167" y="-303.3" font-family="Times,serif" font-size="14.00">)), !dog(</text>
<text text-anchor="start" x="213" y="-303.3" font-family="Times,serif" font-weight="bold" font-size="14.00">x4</text>
<text text-anchor="start" x="227" y="-303.3" font-family="Times,serif" font-size="14.00">)</text>
</g>
<!-- n21066840&#45;&gt;SUBSn21066840n45347761 -->
<g id="edge5" class="edge">
<title>n21066840&#45;&gt;SUBSn21066840n45347761</title>
<path fill="none" stroke="black" d="M147.43,-287.7C137.36,-276.85 124.42,-262.92 114.38,-252.1"/>
</g>
</g>
</svg>
