<?xml version="1.0" encoding="UTF-8" standalone="no"?>
<!DOCTYPE svg PUBLIC "-//W3C//DTD SVG 1.1//EN"
 "http://www.w3.org/Graphics/SVG/1.1/DTD/svg11.dtd">
<!-- Generated by graphviz version 2.43.0 (0)
 -->
<!-- Title: g Pages: 1 -->
<svg width="2392pt" height="476pt"
 viewBox="0.00 0.00 2391.50 476.00" xmlns="http://www.w3.org/2000/svg" xmlns:xlink="http://www.w3.org/1999/xlink">
<g id="graph0" class="graph" transform="scale(1 1) rotate(0) translate(4 472)">
<title>g</title>
<polygon fill="white" stroke="transparent" points="-4,4 -4,-472 2387.5,-472 2387.5,4 -4,4"/>
<!-- n38159213 -->
<g id="node1" class="node">
<title>n38159213</title>
<polygon fill="none" stroke="black" stroke-width="2" points="1382.5,-468 1188.5,-468 1188.5,-432 1382.5,-432 1382.5,-468"/>
<text text-anchor="start" x="1196.5" y="-447.3" font-family="Times,serif" font-size="14.00">!dog(</text>
<text text-anchor="start" x="1226.5" y="-447.3" font-family="Times,serif" font-weight="bold" font-size="14.00">x3</text>
<text text-anchor="start" x="1240.5" y="-447.3" font-family="Times,serif" font-size="14.00">), partOf(</text>
<text text-anchor="start" x="1292.5" y="-447.3" font-family="Times,serif" font-weight="bold" font-size="14.00">x3</text>
<text text-anchor="start" x="1306.5" y="-447.3" font-family="Times,serif" font-size="14.00">, </text>
<text text-anchor="start" x="1314.5" y="-447.3" font-family="Times,serif" font-style="italic" font-size="14.00">SKF1</text>
<text text-anchor="start" x="1345.5" y="-447.3" font-family="Times,serif" font-size="14.00">(</text>
<text text-anchor="start" x="1350.5" y="-447.3" font-family="Times,serif" font-weight="bold" font-size="14.00">x3</text>
<text text-anchor="start" x="1364.5" y="-447.3" font-family="Times,serif" font-size="14.00">))</text>
</g>
<!-- SUBSn38159213n21728260 -->
<g id="node2" class="node">
<title>SUBSn38159213n21728260</title>
<text text-anchor="start" x="1400.5" y="-374.3" font-family="Times,serif" font-size="14.00">{x3: Kim}</text>
</g>
<!-- n38159213&#45;&gt;SUBSn38159213n21728260 -->
<g id="edge1" class="edge">
<title>n38159213&#45;&gt;SUBSn38159213n21728260</title>
<path fill="none" stroke="black" d="M1320.97,-431.88C1343.52,-420.99 1372.61,-406.95 1395.14,-396.07"/>
</g>
<!-- n67096784 -->
<g id="node27" class="node">
<title>n67096784</title>
<polygon fill="none" stroke="black" points="1508.5,-324 1352.5,-324 1352.5,-288 1508.5,-288 1508.5,-324"/>
<text text-anchor="start" x="1360.5" y="-303.3" font-family="Times,serif" font-size="14.00">partOf(</text>
<text text-anchor="start" x="1400.5" y="-303.3" font-family="Times,serif" font-style="italic" font-size="14.00">Kim</text>
<text text-anchor="start" x="1423.5" y="-303.3" font-family="Times,serif" font-size="14.00">, </text>
<text text-anchor="start" x="1431.5" y="-303.3" font-family="Times,serif" font-style="italic" font-size="14.00">SKF1</text>
<text text-anchor="start" x="1462.5" y="-303.3" font-family="Times,serif" font-size="14.00">(</text>
<text text-anchor="start" x="1467.5" y="-303.3" font-family="Times,serif" font-style="italic" font-size="14.00">Kim</text>
<text text-anchor="start" x="1490.5" y="-303.3" font-family="Times,serif" font-size="14.00">))</text>
</g>
<!-- SUBSn38159213n21728260&#45;&gt;n67096784 -->
<g id="edge55" class="edge">
<title>SUBSn38159213n21728260&#45;&gt;n67096784</title>
<path fill="none" stroke="black" d="M1430.5,-359.7C1430.5,-351.98 1430.5,-342.71 1430.5,-334.11"/>
<polygon fill="black" stroke="black" points="1434,-334.1 1430.5,-324.1 1427,-334.1 1434,-334.1"/>
</g>
<!-- SUBSn03799321n43553829 -->
<g id="node3" class="node">
<title>SUBSn03799321n43553829</title>
<text text-anchor="start" x="457.5" y="-374.3" font-family="Times,serif" font-size="14.00">{x6: Q333, x5: Q333}</text>
</g>
<!-- n67338224 -->
<g id="node4" class="node">
<title>n67338224</title>
<polygon fill="none" stroke="black" points="606.5,-324 432.5,-324 432.5,-288 606.5,-288 606.5,-324"/>
<text text-anchor="start" x="440.5" y="-303.3" font-family="Times,serif" font-size="14.00">!man(</text>
<text text-anchor="start" x="474.5" y="-303.3" font-family="Times,serif" font-weight="bold" font-size="14.00">Q333</text>
<text text-anchor="start" x="506.5" y="-303.3" font-family="Times,serif" font-size="14.00">), animal(</text>
<text text-anchor="start" x="561.5" y="-303.3" font-family="Times,serif" font-weight="bold" font-size="14.00">Q333</text>
<text text-anchor="start" x="593.5" y="-303.3" font-family="Times,serif" font-size="14.00">)</text>
</g>
<!-- SUBSn03799321n43553829&#45;&gt;n67338224 -->
<g id="edge2" class="edge">
<title>SUBSn03799321n43553829&#45;&gt;n67338224</title>
<path fill="none" stroke="black" d="M519.5,-359.7C519.5,-351.98 519.5,-342.71 519.5,-334.11"/>
<polygon fill="black" stroke="black" points="523,-334.1 519.5,-324.1 516,-334.1 523,-334.1"/>
</g>
<!-- SUBSn67338224n28815597 -->
<g id="node9" class="node">
<title>SUBSn67338224n28815597</title>
<text text-anchor="start" x="162.5" y="-230.3" font-family="Times,serif" font-size="14.00">{Q333: SK0}</text>
</g>
<!-- n67338224&#45;&gt;SUBSn67338224n28815597 -->
<g id="edge29" class="edge">
<title>n67338224&#45;&gt;SUBSn67338224n28815597</title>
<path fill="none" stroke="black" d="M441.87,-287.97C380.83,-274.57 297.83,-256.36 246.78,-245.16"/>
</g>
<!-- SUBSn81467791n67338224 -->
<g id="node47" class="node">
<title>SUBSn81467791n67338224</title>
<text text-anchor="start" x="479" y="-230.3" font-family="Times,serif" font-size="14.00">{Q333: Mike}</text>
</g>
<!-- n67338224&#45;&gt;SUBSn81467791n67338224 -->
<g id="edge47" class="edge">
<title>n67338224&#45;&gt;SUBSn81467791n67338224</title>
<path fill="none" stroke="black" d="M519.5,-287.7C519.5,-276.85 519.5,-262.92 519.5,-252.1"/>
</g>
<!-- n38291665 -->
<g id="node5" class="node">
<title>n38291665</title>
<polygon fill="none" stroke="black" points="550.5,-180 458.5,-180 458.5,-144 550.5,-144 550.5,-180"/>
<text text-anchor="start" x="466.5" y="-159.3" font-family="Times,serif" font-size="14.00">animal(</text>
<text text-anchor="start" x="509.5" y="-159.3" font-family="Times,serif" font-style="italic" font-size="14.00">Mike</text>
<text text-anchor="start" x="537.5" y="-159.3" font-family="Times,serif" font-size="14.00">)</text>
</g>
<!-- SUBSn43553829n03799321 -->
<g id="node6" class="node">
<title>SUBSn43553829n03799321</title>
<text text-anchor="start" x="282.5" y="-374.3" font-family="Times,serif" font-size="14.00">{x5: Q332, x6: Q332}</text>
</g>
<!-- n47232131 -->
<g id="node30" class="node">
<title>n47232131</title>
<polygon fill="none" stroke="black" points="414.5,-324 240.5,-324 240.5,-288 414.5,-288 414.5,-324"/>
<text text-anchor="start" x="248.5" y="-303.3" font-family="Times,serif" font-size="14.00">animal(</text>
<text text-anchor="start" x="291.5" y="-303.3" font-family="Times,serif" font-weight="bold" font-size="14.00">Q332</text>
<text text-anchor="start" x="323.5" y="-303.3" font-family="Times,serif" font-size="14.00">), !man(</text>
<text text-anchor="start" x="369.5" y="-303.3" font-family="Times,serif" font-weight="bold" font-size="14.00">Q332</text>
<text text-anchor="start" x="401.5" y="-303.3" font-family="Times,serif" font-size="14.00">)</text>
</g>
<!-- SUBSn43553829n03799321&#45;&gt;n47232131 -->
<g id="edge33" class="edge">
<title>SUBSn43553829n03799321&#45;&gt;n47232131</title>
<path fill="none" stroke="black" d="M340.3,-359.7C338.4,-351.9 336.12,-342.51 334.02,-333.83"/>
<polygon fill="black" stroke="black" points="337.42,-333 331.65,-324.1 330.61,-334.65 337.42,-333"/>
</g>
<!-- n79508395 -->
<g id="node7" class="node">
<title>n79508395</title>
<polygon fill="none" stroke="black" points="1203.5,-180 1013.5,-180 1013.5,-144 1203.5,-144 1203.5,-180"/>
<text text-anchor="start" x="1021.5" y="-159.3" font-family="Times,serif" font-size="14.00">person(</text>
<text text-anchor="start" x="1062.5" y="-159.3" font-family="Times,serif" font-style="italic" font-size="14.00">SKF0</text>
<text text-anchor="start" x="1093.5" y="-159.3" font-family="Times,serif" font-size="14.00">(</text>
<text text-anchor="start" x="1098.5" y="-159.3" font-family="Times,serif" font-style="italic" font-size="14.00">Kim</text>
<text text-anchor="start" x="1121.5" y="-159.3" font-family="Times,serif" font-size="14.00">)), !dog(</text>
<text text-anchor="start" x="1167.5" y="-159.3" font-family="Times,serif" font-style="italic" font-size="14.00">Kim</text>
<text text-anchor="start" x="1190.5" y="-159.3" font-family="Times,serif" font-size="14.00">)</text>
</g>
<!-- n28815597 -->
<g id="node8" class="node">
<title>n28815597</title>
<polygon fill="none" stroke="black" stroke-width="2" points="73,-468 0,-468 0,-432 73,-432 73,-468"/>
<text text-anchor="start" x="8" y="-447.3" font-family="Times,serif" font-size="14.00">man(</text>
<text text-anchor="start" x="37" y="-447.3" font-family="Times,serif" font-style="italic" font-size="14.00">SK0</text>
<text text-anchor="start" x="60" y="-447.3" font-family="Times,serif" font-size="14.00">)</text>
</g>
<!-- n28815597&#45;&gt;SUBSn67338224n28815597 -->
<g id="edge3" class="edge">
<title>n28815597&#45;&gt;SUBSn67338224n28815597</title>
<path fill="none" stroke="black" d="M27.78,-431.94C12.88,-400.16 -12.86,-331.19 19.5,-288 35.7,-266.38 106.21,-250.61 154.29,-242.13"/>
</g>
<!-- SUBSn43553829n28815597 -->
<g id="node22" class="node">
<title>SUBSn43553829n28815597</title>
<text text-anchor="start" x="42" y="-374.3" font-family="Times,serif" font-size="14.00">{x5: SK0}</text>
</g>
<!-- n28815597&#45;&gt;SUBSn43553829n28815597 -->
<g id="edge56" class="edge">
<title>n28815597&#45;&gt;SUBSn43553829n28815597</title>
<path fill="none" stroke="black" d="M45.15,-431.7C50.58,-420.85 57.54,-406.92 62.95,-396.1"/>
</g>
<!-- n28008277 -->
<g id="node37" class="node">
<title>n28008277</title>
<polygon fill="none" stroke="black" points="244,-180 157,-180 157,-144 244,-144 244,-180"/>
<text text-anchor="start" x="165" y="-159.3" font-family="Times,serif" font-size="14.00">animal(</text>
<text text-anchor="start" x="208" y="-159.3" font-family="Times,serif" font-style="italic" font-size="14.00">SK0</text>
<text text-anchor="start" x="231" y="-159.3" font-family="Times,serif" font-size="14.00">)</text>
</g>
<!-- SUBSn67338224n28815597&#45;&gt;n28008277 -->
<g id="edge35" class="edge">
<title>SUBSn67338224n28815597&#45;&gt;n28008277</title>
<path fill="none" stroke="black" d="M200.5,-215.7C200.5,-207.98 200.5,-198.71 200.5,-190.11"/>
<polygon fill="black" stroke="black" points="204,-190.1 200.5,-180.1 197,-190.1 204,-190.1"/>
</g>
<!-- SUBSn89067470n54279883 -->
<g id="node10" class="node">
<title>SUBSn89067470n54279883</title>
<text text-anchor="start" x="1018.5" y="-86.3" font-family="Times,serif" font-size="14.00">{}</text>
</g>
<!-- n65212412 -->
<g id="node11" class="node">
<title>n65212412</title>
<polygon fill="none" stroke="black" points="1089.5,-36 961.5,-36 961.5,0 1089.5,0 1089.5,-36"/>
<text text-anchor="start" x="969.5" y="-15.3" font-family="Times,serif" font-size="14.00">animal(</text>
<text text-anchor="start" x="1012.5" y="-15.3" font-family="Times,serif" font-style="italic" font-size="14.00">SKF0</text>
<text text-anchor="start" x="1043.5" y="-15.3" font-family="Times,serif" font-size="14.00">(</text>
<text text-anchor="start" x="1048.5" y="-15.3" font-family="Times,serif" font-style="italic" font-size="14.00">Kim</text>
<text text-anchor="start" x="1071.5" y="-15.3" font-family="Times,serif" font-size="14.00">))</text>
</g>
<!-- SUBSn89067470n54279883&#45;&gt;n65212412 -->
<g id="edge4" class="edge">
<title>SUBSn89067470n54279883&#45;&gt;n65212412</title>
<path fill="none" stroke="black" d="M1025.5,-71.7C1025.5,-63.98 1025.5,-54.71 1025.5,-46.11"/>
<polygon fill="black" stroke="black" points="1029,-46.1 1025.5,-36.1 1022,-46.1 1029,-46.1"/>
</g>
<!-- n03799321 -->
<g id="node12" class="node">
<title>n03799321</title>
<polygon fill="none" stroke="black" stroke-width="2" points="670.5,-468 520.5,-468 520.5,-432 670.5,-432 670.5,-468"/>
<text text-anchor="start" x="528.5" y="-447.3" font-family="Times,serif" font-size="14.00">animal(</text>
<text text-anchor="start" x="571.5" y="-447.3" font-family="Times,serif" font-weight="bold" font-size="14.00">x6</text>
<text text-anchor="start" x="585.5" y="-447.3" font-family="Times,serif" font-size="14.00">), !person(</text>
<text text-anchor="start" x="643.5" y="-447.3" font-family="Times,serif" font-weight="bold" font-size="14.00">x6</text>
<text text-anchor="start" x="657.5" y="-447.3" font-family="Times,serif" font-size="14.00">)</text>
</g>
<!-- n03799321&#45;&gt;SUBSn03799321n43553829 -->
<g id="edge52" class="edge">
<title>n03799321&#45;&gt;SUBSn03799321n43553829</title>
<path fill="none" stroke="black" d="M576.71,-431.7C564.93,-420.85 549.81,-406.92 538.07,-396.1"/>
</g>
<!-- n03799321&#45;&gt;SUBSn43553829n03799321 -->
<g id="edge17" class="edge">
<title>n03799321&#45;&gt;SUBSn43553829n03799321</title>
<path fill="none" stroke="black" d="M534.42,-431.97C495.38,-421.08 444.94,-407.01 405.85,-396.11"/>
</g>
<!-- SUBSn46847605n03799321 -->
<g id="node13" class="node">
<title>SUBSn46847605n03799321</title>
<text text-anchor="start" x="626.5" y="-230.3" font-family="Times,serif" font-size="14.00">{x6: SKF0(Kim)}</text>
</g>
<!-- n03799321&#45;&gt;SUBSn46847605n03799321 -->
<g id="edge44" class="edge">
<title>n03799321&#45;&gt;SUBSn46847605n03799321</title>
<path fill="none" stroke="black" d="M618.12,-431.99C629.01,-422.58 641.25,-409.97 648.5,-396 673.33,-348.16 676.73,-282.65 676.83,-252.05"/>
</g>
<!-- SUBSn62966333n03799321 -->
<g id="node41" class="node">
<title>SUBSn62966333n03799321</title>
<text text-anchor="start" x="783" y="-374.3" font-family="Times,serif" font-size="14.00">{x6: SKF0(x1)}</text>
</g>
<!-- n03799321&#45;&gt;SUBSn62966333n03799321 -->
<g id="edge20" class="edge">
<title>n03799321&#45;&gt;SUBSn62966333n03799321</title>
<path fill="none" stroke="black" d="M651.96,-431.97C689.38,-420.67 738.14,-405.96 774.77,-394.91"/>
</g>
<!-- n54279883 -->
<g id="node14" class="node">
<title>n54279883</title>
<polygon fill="none" stroke="black" points="784,-180 569,-180 569,-144 784,-144 784,-180"/>
<text text-anchor="start" x="577" y="-159.3" font-family="Times,serif" font-size="14.00">!friendly(</text>
<text text-anchor="start" x="629" y="-159.3" font-family="Times,serif" font-style="italic" font-size="14.00">Kim</text>
<text text-anchor="start" x="652" y="-159.3" font-family="Times,serif" font-size="14.00">), animal(</text>
<text text-anchor="start" x="707" y="-159.3" font-family="Times,serif" font-style="italic" font-size="14.00">SKF0</text>
<text text-anchor="start" x="738" y="-159.3" font-family="Times,serif" font-size="14.00">(</text>
<text text-anchor="start" x="743" y="-159.3" font-family="Times,serif" font-style="italic" font-size="14.00">Kim</text>
<text text-anchor="start" x="766" y="-159.3" font-family="Times,serif" font-size="14.00">))</text>
</g>
<!-- SUBSn46847605n03799321&#45;&gt;n54279883 -->
<g id="edge5" class="edge">
<title>SUBSn46847605n03799321&#45;&gt;n54279883</title>
<path fill="none" stroke="black" d="M676.5,-215.7C676.5,-207.98 676.5,-198.71 676.5,-190.11"/>
<polygon fill="black" stroke="black" points="680,-190.1 676.5,-180.1 673,-190.1 680,-190.1"/>
</g>
<!-- n54279883&#45;&gt;SUBSn89067470n54279883 -->
<g id="edge41" class="edge">
<title>n54279883&#45;&gt;SUBSn89067470n54279883</title>
<path fill="none" stroke="black" d="M761.43,-143.97C838.71,-128.47 948.14,-106.52 998.37,-96.44"/>
</g>
<!-- n46847605 -->
<g id="node15" class="node">
<title>n46847605</title>
<polygon fill="none" stroke="black" points="1224,-324 1011,-324 1011,-288 1224,-288 1224,-324"/>
<text text-anchor="start" x="1019" y="-303.3" font-family="Times,serif" font-size="14.00">!friendly(</text>
<text text-anchor="start" x="1071" y="-303.3" font-family="Times,serif" font-style="italic" font-size="14.00">Kim</text>
<text text-anchor="start" x="1094" y="-303.3" font-family="Times,serif" font-size="14.00">), person(</text>
<text text-anchor="start" x="1147" y="-303.3" font-family="Times,serif" font-style="italic" font-size="14.00">SKF0</text>
<text text-anchor="start" x="1178" y="-303.3" font-family="Times,serif" font-size="14.00">(</text>
<text text-anchor="start" x="1183" y="-303.3" font-family="Times,serif" font-style="italic" font-size="14.00">Kim</text>
<text text-anchor="start" x="1206" y="-303.3" font-family="Times,serif" font-size="14.00">))</text>
</g>
<!-- n46847605&#45;&gt;SUBSn46847605n03799321 -->
<g id="edge12" class="edge">
<title>n46847605&#45;&gt;SUBSn46847605n03799321</title>
<path fill="none" stroke="black" d="M1010.75,-288.05C923.95,-274.28 804.77,-255.36 734.67,-244.23"/>
</g>
<!-- SUBSn46847605n89067470 -->
<g id="node49" class="node">
<title>SUBSn46847605n89067470</title>
<text text-anchor="start" x="1277.5" y="-230.3" font-family="Times,serif" font-size="14.00">{}</text>
</g>
<!-- n46847605&#45;&gt;SUBSn46847605n89067470 -->
<g id="edge53" class="edge">
<title>n46847605&#45;&gt;SUBSn46847605n89067470</title>
<path fill="none" stroke="black" d="M1158.35,-287.88C1189.16,-274.96 1230.54,-257.62 1257.37,-246.37"/>
</g>
<!-- n72917875 -->
<g id="node16" class="node">
<title>n72917875</title>
<polygon fill="none" stroke="black" stroke-width="2" points="1554,-468 1401,-468 1401,-432 1554,-432 1554,-468"/>
<text text-anchor="start" x="1409" y="-447.3" font-family="Times,serif" font-size="14.00">tail(</text>
<text text-anchor="start" x="1431" y="-447.3" font-family="Times,serif" font-style="italic" font-size="14.00">SKF1</text>
<text text-anchor="start" x="1462" y="-447.3" font-family="Times,serif" font-size="14.00">(</text>
<text text-anchor="start" x="1467" y="-447.3" font-family="Times,serif" font-weight="bold" font-size="14.00">x4</text>
<text text-anchor="start" x="1481" y="-447.3" font-family="Times,serif" font-size="14.00">)), !dog(</text>
<text text-anchor="start" x="1527" y="-447.3" font-family="Times,serif" font-weight="bold" font-size="14.00">x4</text>
<text text-anchor="start" x="1541" y="-447.3" font-family="Times,serif" font-size="14.00">)</text>
</g>
<!-- SUBSn72917875n21728260 -->
<g id="node23" class="node">
<title>SUBSn72917875n21728260</title>
<text text-anchor="start" x="1550.5" y="-374.3" font-family="Times,serif" font-size="14.00">{x4: Kim}</text>
</g>
<!-- n72917875&#45;&gt;SUBSn72917875n21728260 -->
<g id="edge9" class="edge">
<title>n72917875&#45;&gt;SUBSn72917875n21728260</title>
<path fill="none" stroke="black" d="M1502.7,-431.88C1518.66,-421.03 1539.23,-407.05 1555.21,-396.19"/>
</g>
<!-- n21728260 -->
<g id="node17" class="node">
<title>n21728260</title>
<polygon fill="none" stroke="black" stroke-width="2" points="1641,-468 1572,-468 1572,-432 1641,-432 1641,-468"/>
<text text-anchor="start" x="1580" y="-447.3" font-family="Times,serif" font-size="14.00">dog(</text>
<text text-anchor="start" x="1605" y="-447.3" font-family="Times,serif" font-style="italic" font-size="14.00">Kim</text>
<text text-anchor="start" x="1628" y="-447.3" font-family="Times,serif" font-size="14.00">)</text>
</g>
<!-- n21728260&#45;&gt;SUBSn38159213n21728260 -->
<g id="edge43" class="edge">
<title>n21728260&#45;&gt;SUBSn38159213n21728260</title>
<path fill="none" stroke="black" d="M1571.73,-435.17C1541.97,-423.34 1499.22,-406.33 1468.56,-394.14"/>
</g>
<!-- SUBSn68442522n21728260 -->
<g id="node18" class="node">
<title>SUBSn68442522n21728260</title>
<text text-anchor="start" x="1845.5" y="-374.3" font-family="Times,serif" font-size="14.00">{x2: Kim}</text>
</g>
<!-- n21728260&#45;&gt;SUBSn68442522n21728260 -->
<g id="edge6" class="edge">
<title>n21728260&#45;&gt;SUBSn68442522n21728260</title>
<path fill="none" stroke="black" d="M1641.41,-435.01C1644.47,-433.94 1647.53,-432.92 1650.5,-432 1715.1,-412.02 1792.14,-395.38 1837.25,-386.34"/>
</g>
<!-- n21728260&#45;&gt;SUBSn72917875n21728260 -->
<g id="edge39" class="edge">
<title>n21728260&#45;&gt;SUBSn72917875n21728260</title>
<path fill="none" stroke="black" d="M1600.07,-431.7C1596.04,-420.85 1590.87,-406.92 1586.85,-396.1"/>
</g>
<!-- SUBSn12279568n21728260 -->
<g id="node34" class="node">
<title>SUBSn12279568n21728260</title>
<text text-anchor="start" x="1665.5" y="-374.3" font-family="Times,serif" font-size="14.00">{x0: Kim}</text>
</g>
<!-- n21728260&#45;&gt;SUBSn12279568n21728260 -->
<g id="edge10" class="edge">
<title>n21728260&#45;&gt;SUBSn12279568n21728260</title>
<path fill="none" stroke="black" d="M1628.5,-431.7C1642.3,-420.85 1660.01,-406.92 1673.75,-396.1"/>
</g>
<!-- SUBSn62966333n21728260 -->
<g id="node42" class="node">
<title>SUBSn62966333n21728260</title>
<text text-anchor="start" x="1087.5" y="-374.3" font-family="Times,serif" font-size="14.00">{x1: Kim}</text>
</g>
<!-- n21728260&#45;&gt;SUBSn62966333n21728260 -->
<g id="edge32" class="edge">
<title>n21728260&#45;&gt;SUBSn62966333n21728260</title>
<path fill="none" stroke="black" d="M1571.69,-434.65C1568.61,-433.65 1565.52,-432.75 1562.5,-432 1414.89,-395.31 1233.21,-383.75 1155.58,-380.33"/>
</g>
<!-- n45426821 -->
<g id="node39" class="node">
<title>n45426821</title>
<polygon fill="none" stroke="black" points="1994,-324 1757,-324 1757,-288 1994,-288 1994,-324"/>
<text text-anchor="start" x="1765" y="-303.3" font-family="Times,serif" font-size="14.00">!friendly(</text>
<text text-anchor="start" x="1817" y="-303.3" font-family="Times,serif" font-style="italic" font-size="14.00">Kim</text>
<text text-anchor="start" x="1840" y="-303.3" font-family="Times,serif" font-size="14.00">), loves(</text>
<text text-anchor="start" x="1886" y="-303.3" font-family="Times,serif" font-style="italic" font-size="14.00">SKF0</text>
<text text-anchor="start" x="1917" y="-303.3" font-family="Times,serif" font-size="14.00">(</text>
<text text-anchor="start" x="1922" y="-303.3" font-family="Times,serif" font-style="italic" font-size="14.00">Kim</text>
<text text-anchor="start" x="1945" y="-303.3" font-family="Times,serif" font-size="14.00">), </text>
<text text-anchor="start" x="1958" y="-303.3" font-family="Times,serif" font-style="italic" font-size="14.00">Kim</text>
<text text-anchor="start" x="1981" y="-303.3" font-family="Times,serif" font-size="14.00">)</text>
</g>
<!-- SUBSn68442522n21728260&#45;&gt;n45426821 -->
<g id="edge23" class="edge">
<title>SUBSn68442522n21728260&#45;&gt;n45426821</title>
<path fill="none" stroke="black" d="M1875.5,-359.7C1875.5,-351.98 1875.5,-342.71 1875.5,-334.11"/>
<polygon fill="black" stroke="black" points="1879,-334.1 1875.5,-324.1 1872,-334.1 1879,-334.1"/>
</g>
<!-- SUBSn45426821n89067470 -->
<g id="node19" class="node">
<title>SUBSn45426821n89067470</title>
<text text-anchor="start" x="1644.5" y="-230.3" font-family="Times,serif" font-size="14.00">{}</text>
</g>
<!-- n34494292 -->
<g id="node26" class="node">
<title>n34494292</title>
<polygon fill="none" stroke="black" points="1726.5,-180 1576.5,-180 1576.5,-144 1726.5,-144 1726.5,-180"/>
<text text-anchor="start" x="1584.5" y="-159.3" font-family="Times,serif" font-size="14.00">loves(</text>
<text text-anchor="start" x="1618.5" y="-159.3" font-family="Times,serif" font-style="italic" font-size="14.00">SKF0</text>
<text text-anchor="start" x="1649.5" y="-159.3" font-family="Times,serif" font-size="14.00">(</text>
<text text-anchor="start" x="1654.5" y="-159.3" font-family="Times,serif" font-style="italic" font-size="14.00">Kim</text>
<text text-anchor="start" x="1677.5" y="-159.3" font-family="Times,serif" font-size="14.00">), </text>
<text text-anchor="start" x="1690.5" y="-159.3" font-family="Times,serif" font-style="italic" font-size="14.00">Kim</text>
<text text-anchor="start" x="1713.5" y="-159.3" font-family="Times,serif" font-size="14.00">)</text>
</g>
<!-- SUBSn45426821n89067470&#45;&gt;n34494292 -->
<g id="edge45" class="edge">
<title>SUBSn45426821n89067470&#45;&gt;n34494292</title>
<path fill="none" stroke="black" d="M1651.5,-215.7C1651.5,-207.98 1651.5,-198.71 1651.5,-190.11"/>
<polygon fill="black" stroke="black" points="1655,-190.1 1651.5,-180.1 1648,-190.1 1655,-190.1"/>
</g>
<!-- n43553829 -->
<g id="node20" class="node">
<title>n43553829</title>
<polygon fill="none" stroke="black" stroke-width="2" points="338.5,-468 202.5,-468 202.5,-432 338.5,-432 338.5,-468"/>
<text text-anchor="start" x="210.5" y="-447.3" font-family="Times,serif" font-size="14.00">!man(</text>
<text text-anchor="start" x="244.5" y="-447.3" font-family="Times,serif" font-weight="bold" font-size="14.00">x5</text>
<text text-anchor="start" x="258.5" y="-447.3" font-family="Times,serif" font-size="14.00">), person(</text>
<text text-anchor="start" x="311.5" y="-447.3" font-family="Times,serif" font-weight="bold" font-size="14.00">x5</text>
<text text-anchor="start" x="325.5" y="-447.3" font-family="Times,serif" font-size="14.00">)</text>
</g>
<!-- n43553829&#45;&gt;SUBSn03799321n43553829 -->
<g id="edge49" class="edge">
<title>n43553829&#45;&gt;SUBSn03799321n43553829</title>
<path fill="none" stroke="black" d="M331.09,-431.97C369.82,-421.08 419.86,-407.01 458.63,-396.11"/>
</g>
<!-- n43553829&#45;&gt;SUBSn43553829n03799321 -->
<g id="edge28" class="edge">
<title>n43553829&#45;&gt;SUBSn43553829n03799321</title>
<path fill="none" stroke="black" d="M288.79,-431.7C300.26,-420.85 314.99,-406.92 326.42,-396.1"/>
</g>
<!-- SUBSn43553829n81467791 -->
<g id="node21" class="node">
<title>SUBSn43553829n81467791</title>
<text text-anchor="start" x="184.5" y="-374.3" font-family="Times,serif" font-size="14.00">{x5: Mike}</text>
</g>
<!-- n43553829&#45;&gt;SUBSn43553829n81467791 -->
<g id="edge7" class="edge">
<title>n43553829&#45;&gt;SUBSn43553829n81467791</title>
<path fill="none" stroke="black" d="M257.15,-431.7C248.78,-420.85 238.04,-406.92 229.69,-396.1"/>
</g>
<!-- n43553829&#45;&gt;SUBSn43553829n28815597 -->
<g id="edge8" class="edge">
<title>n43553829&#45;&gt;SUBSn43553829n28815597</title>
<path fill="none" stroke="black" d="M222.07,-431.97C187.33,-419.74 141.19,-403.51 109.18,-392.25"/>
</g>
<!-- n45723943 -->
<g id="node40" class="node">
<title>n45723943</title>
<polygon fill="none" stroke="black" points="222.5,-324 132.5,-324 132.5,-288 222.5,-288 222.5,-324"/>
<text text-anchor="start" x="140.5" y="-303.3" font-family="Times,serif" font-size="14.00">person(</text>
<text text-anchor="start" x="181.5" y="-303.3" font-family="Times,serif" font-style="italic" font-size="14.00">Mike</text>
<text text-anchor="start" x="209.5" y="-303.3" font-family="Times,serif" font-size="14.00">)</text>
</g>
<!-- SUBSn43553829n81467791&#45;&gt;n45723943 -->
<g id="edge54" class="edge">
<title>SUBSn43553829n81467791&#45;&gt;n45723943</title>
<path fill="none" stroke="black" d="M206.86,-359.7C202.37,-351.64 196.94,-341.89 191.98,-332.98"/>
<polygon fill="black" stroke="black" points="194.95,-331.14 187.03,-324.1 188.84,-334.54 194.95,-331.14"/>
</g>
<!-- n35440555 -->
<g id="node50" class="node">
<title>n35440555</title>
<polygon fill="none" stroke="black" points="114,-324 29,-324 29,-288 114,-288 114,-324"/>
<text text-anchor="start" x="37" y="-303.3" font-family="Times,serif" font-size="14.00">person(</text>
<text text-anchor="start" x="78" y="-303.3" font-family="Times,serif" font-style="italic" font-size="14.00">SK0</text>
<text text-anchor="start" x="101" y="-303.3" font-family="Times,serif" font-size="14.00">)</text>
</g>
<!-- SUBSn43553829n28815597&#45;&gt;n35440555 -->
<g id="edge36" class="edge">
<title>SUBSn43553829n28815597&#45;&gt;n35440555</title>
<path fill="none" stroke="black" d="M71.5,-359.7C71.5,-351.98 71.5,-342.71 71.5,-334.11"/>
<polygon fill="black" stroke="black" points="75,-334.1 71.5,-324.1 68,-334.1 75,-334.1"/>
</g>
<!-- n89440438 -->
<g id="node48" class="node">
<title>n89440438</title>
<polygon fill="none" stroke="black" points="1634,-324 1527,-324 1527,-288 1634,-288 1634,-324"/>
<text text-anchor="start" x="1535" y="-303.3" font-family="Times,serif" font-size="14.00">tail(</text>
<text text-anchor="start" x="1557" y="-303.3" font-family="Times,serif" font-style="italic" font-size="14.00">SKF1</text>
<text text-anchor="start" x="1588" y="-303.3" font-family="Times,serif" font-size="14.00">(</text>
<text text-anchor="start" x="1593" y="-303.3" font-family="Times,serif" font-style="italic" font-size="14.00">Kim</text>
<text text-anchor="start" x="1616" y="-303.3" font-family="Times,serif" font-size="14.00">))</text>
</g>
<!-- SUBSn72917875n21728260&#45;&gt;n89440438 -->
<g id="edge34" class="edge">
<title>SUBSn72917875n21728260&#45;&gt;n89440438</title>
<path fill="none" stroke="black" d="M1580.5,-359.7C1580.5,-351.98 1580.5,-342.71 1580.5,-334.11"/>
<polygon fill="black" stroke="black" points="1584,-334.1 1580.5,-324.1 1577,-334.1 1584,-334.1"/>
</g>
<!-- n57780134 -->
<g id="node24" class="node">
<title>n57780134</title>
<polygon fill="none" stroke="black" points="1347.5,-180 1221.5,-180 1221.5,-144 1347.5,-144 1347.5,-180"/>
<text text-anchor="start" x="1229.5" y="-159.3" font-family="Times,serif" font-size="14.00">person(</text>
<text text-anchor="start" x="1270.5" y="-159.3" font-family="Times,serif" font-style="italic" font-size="14.00">SKF0</text>
<text text-anchor="start" x="1301.5" y="-159.3" font-family="Times,serif" font-size="14.00">(</text>
<text text-anchor="start" x="1306.5" y="-159.3" font-family="Times,serif" font-style="italic" font-size="14.00">Kim</text>
<text text-anchor="start" x="1329.5" y="-159.3" font-family="Times,serif" font-size="14.00">))</text>
</g>
<!-- n86940673 -->
<g id="node25" class="node">
<title>n86940673</title>
<polygon fill="none" stroke="black" points="995,-180 802,-180 802,-144 995,-144 995,-180"/>
<text text-anchor="start" x="810" y="-159.3" font-family="Times,serif" font-size="14.00">!dog(</text>
<text text-anchor="start" x="840" y="-159.3" font-family="Times,serif" font-style="italic" font-size="14.00">Kim</text>
<text text-anchor="start" x="863" y="-159.3" font-family="Times,serif" font-size="14.00">), animal(</text>
<text text-anchor="start" x="918" y="-159.3" font-family="Times,serif" font-style="italic" font-size="14.00">SKF0</text>
<text text-anchor="start" x="949" y="-159.3" font-family="Times,serif" font-size="14.00">(</text>
<text text-anchor="start" x="954" y="-159.3" font-family="Times,serif" font-style="italic" font-size="14.00">Kim</text>
<text text-anchor="start" x="977" y="-159.3" font-family="Times,serif" font-size="14.00">))</text>
</g>
<!-- n26818890 -->
<g id="node28" class="node">
<title>n26818890</title>
<polygon fill="none" stroke="black" stroke-width="2" points="2285.5,-468 2147.5,-468 2147.5,-432 2285.5,-432 2285.5,-468"/>
<text text-anchor="start" x="2155.5" y="-447.3" font-family="Times,serif" font-size="14.00">partOf(</text>
<text text-anchor="start" x="2195.5" y="-447.3" font-family="Times,serif" font-weight="bold" font-size="14.00">x7</text>
<text text-anchor="start" x="2209.5" y="-447.3" font-family="Times,serif" font-size="14.00">, </text>
<text text-anchor="start" x="2217.5" y="-447.3" font-family="Times,serif" font-style="italic" font-size="14.00">SKF2</text>
<text text-anchor="start" x="2248.5" y="-447.3" font-family="Times,serif" font-size="14.00">(</text>
<text text-anchor="start" x="2253.5" y="-447.3" font-family="Times,serif" font-weight="bold" font-size="14.00">x7</text>
<text text-anchor="start" x="2267.5" y="-447.3" font-family="Times,serif" font-size="14.00">))</text>
</g>
<!-- n70398611 -->
<g id="node29" class="node">
<title>n70398611</title>
<polygon fill="none" stroke="black" points="954,-324 701,-324 701,-288 954,-288 954,-324"/>
<text text-anchor="start" x="709" y="-303.3" font-family="Times,serif" font-size="14.00">!dog(</text>
<text text-anchor="start" x="739" y="-303.3" font-family="Times,serif" font-weight="bold" font-size="14.00">x1</text>
<text text-anchor="start" x="753" y="-303.3" font-family="Times,serif" font-size="14.00">), animal(</text>
<text text-anchor="start" x="808" y="-303.3" font-family="Times,serif" font-style="italic" font-size="14.00">SKF0</text>
<text text-anchor="start" x="839" y="-303.3" font-family="Times,serif" font-size="14.00">(</text>
<text text-anchor="start" x="844" y="-303.3" font-family="Times,serif" font-weight="bold" font-size="14.00">x1</text>
<text text-anchor="start" x="858" y="-303.3" font-family="Times,serif" font-size="14.00">)), !friendly(</text>
<text text-anchor="start" x="927" y="-303.3" font-family="Times,serif" font-weight="bold" font-size="14.00">x1</text>
<text text-anchor="start" x="941" y="-303.3" font-family="Times,serif" font-size="14.00">)</text>
</g>
<!-- SUBSn89067470n70398611 -->
<g id="node32" class="node">
<title>SUBSn89067470n70398611</title>
<text text-anchor="start" x="868.5" y="-230.3" font-family="Times,serif" font-size="14.00">{x1: Kim}</text>
</g>
<!-- n70398611&#45;&gt;SUBSn89067470n70398611 -->
<g id="edge38" class="edge">
<title>n70398611&#45;&gt;SUBSn89067470n70398611</title>
<path fill="none" stroke="black" d="M845.05,-287.7C856.06,-276.85 870.18,-262.92 881.15,-252.1"/>
</g>
<!-- n12766031 -->
<g id="node31" class="node">
<title>n12766031</title>
<polygon fill="none" stroke="black" points="2047,-180 1832,-180 1832,-144 2047,-144 2047,-180"/>
<text text-anchor="start" x="1840" y="-159.3" font-family="Times,serif" font-size="14.00">!dog(</text>
<text text-anchor="start" x="1870" y="-159.3" font-family="Times,serif" font-style="italic" font-size="14.00">Kim</text>
<text text-anchor="start" x="1893" y="-159.3" font-family="Times,serif" font-size="14.00">), loves(</text>
<text text-anchor="start" x="1939" y="-159.3" font-family="Times,serif" font-style="italic" font-size="14.00">SKF0</text>
<text text-anchor="start" x="1970" y="-159.3" font-family="Times,serif" font-size="14.00">(</text>
<text text-anchor="start" x="1975" y="-159.3" font-family="Times,serif" font-style="italic" font-size="14.00">Kim</text>
<text text-anchor="start" x="1998" y="-159.3" font-family="Times,serif" font-size="14.00">), </text>
<text text-anchor="start" x="2011" y="-159.3" font-family="Times,serif" font-style="italic" font-size="14.00">Kim</text>
<text text-anchor="start" x="2034" y="-159.3" font-family="Times,serif" font-size="14.00">)</text>
</g>
<!-- SUBSn89067470n70398611&#45;&gt;n86940673 -->
<g id="edge37" class="edge">
<title>SUBSn89067470n70398611&#45;&gt;n86940673</title>
<path fill="none" stroke="black" d="M898.5,-215.7C898.5,-207.98 898.5,-198.71 898.5,-190.11"/>
<polygon fill="black" stroke="black" points="902,-190.1 898.5,-180.1 895,-190.1 902,-190.1"/>
</g>
<!-- n78802110 -->
<g id="node33" class="node">
<title>n78802110</title>
<polygon fill="none" stroke="black" points="1739,-324 1652,-324 1652,-288 1739,-288 1739,-324"/>
<text text-anchor="start" x="1660" y="-303.3" font-family="Times,serif" font-size="14.00">animal(</text>
<text text-anchor="start" x="1703" y="-303.3" font-family="Times,serif" font-style="italic" font-size="14.00">Kim</text>
<text text-anchor="start" x="1726" y="-303.3" font-family="Times,serif" font-size="14.00">)</text>
</g>
<!-- SUBSn12279568n21728260&#45;&gt;n78802110 -->
<g id="edge48" class="edge">
<title>SUBSn12279568n21728260&#45;&gt;n78802110</title>
<path fill="none" stroke="black" d="M1695.5,-359.7C1695.5,-351.98 1695.5,-342.71 1695.5,-334.11"/>
<polygon fill="black" stroke="black" points="1699,-334.1 1695.5,-324.1 1692,-334.1 1699,-334.1"/>
</g>
<!-- n62966333 -->
<g id="node35" class="node">
<title>n62966333</title>
<polygon fill="none" stroke="black" stroke-width="2" points="1108,-468 857,-468 857,-432 1108,-432 1108,-468"/>
<text text-anchor="start" x="865" y="-447.3" font-family="Times,serif" font-size="14.00">!dog(</text>
<text text-anchor="start" x="895" y="-447.3" font-family="Times,serif" font-weight="bold" font-size="14.00">x1</text>
<text text-anchor="start" x="909" y="-447.3" font-family="Times,serif" font-size="14.00">), !friendly(</text>
<text text-anchor="start" x="973" y="-447.3" font-family="Times,serif" font-weight="bold" font-size="14.00">x1</text>
<text text-anchor="start" x="987" y="-447.3" font-family="Times,serif" font-size="14.00">), person(</text>
<text text-anchor="start" x="1040" y="-447.3" font-family="Times,serif" font-style="italic" font-size="14.00">SKF0</text>
<text text-anchor="start" x="1071" y="-447.3" font-family="Times,serif" font-size="14.00">(</text>
<text text-anchor="start" x="1076" y="-447.3" font-family="Times,serif" font-weight="bold" font-size="14.00">x1</text>
<text text-anchor="start" x="1090" y="-447.3" font-family="Times,serif" font-size="14.00">))</text>
</g>
<!-- SUBSn62966333n89067470 -->
<g id="node38" class="node">
<title>SUBSn62966333n89067470</title>
<text text-anchor="start" x="1078.5" y="-230.3" font-family="Times,serif" font-size="14.00">{x1: Kim}</text>
</g>
<!-- n62966333&#45;&gt;SUBSn62966333n89067470 -->
<g id="edge14" class="edge">
<title>n62966333&#45;&gt;SUBSn62966333n89067470</title>
<path fill="none" stroke="black" d="M979.6,-431.88C975.22,-400.29 970.44,-332.05 1001.5,-288 1017.69,-265.04 1046.72,-251.54 1070.46,-243.91"/>
</g>
<!-- n62966333&#45;&gt;SUBSn62966333n03799321 -->
<g id="edge15" class="edge">
<title>n62966333&#45;&gt;SUBSn62966333n03799321</title>
<path fill="none" stroke="black" d="M944.58,-431.88C920.47,-420.99 889.38,-406.95 865.29,-396.07"/>
</g>
<!-- n62966333&#45;&gt;SUBSn62966333n21728260 -->
<g id="edge18" class="edge">
<title>n62966333&#45;&gt;SUBSn62966333n21728260</title>
<path fill="none" stroke="black" d="M1015.52,-431.88C1036.44,-421.03 1063.4,-407.05 1084.35,-396.19"/>
</g>
<!-- n12279568 -->
<g id="node36" class="node">
<title>n12279568</title>
<polygon fill="none" stroke="black" stroke-width="2" points="1793.5,-468 1659.5,-468 1659.5,-432 1793.5,-432 1793.5,-468"/>
<text text-anchor="start" x="1667.5" y="-447.3" font-family="Times,serif" font-size="14.00">animal(</text>
<text text-anchor="start" x="1710.5" y="-447.3" font-family="Times,serif" font-weight="bold" font-size="14.00">x0</text>
<text text-anchor="start" x="1724.5" y="-447.3" font-family="Times,serif" font-size="14.00">), !dog(</text>
<text text-anchor="start" x="1766.5" y="-447.3" font-family="Times,serif" font-weight="bold" font-size="14.00">x0</text>
<text text-anchor="start" x="1780.5" y="-447.3" font-family="Times,serif" font-size="14.00">)</text>
</g>
<!-- n12279568&#45;&gt;SUBSn12279568n21728260 -->
<g id="edge11" class="edge">
<title>n12279568&#45;&gt;SUBSn12279568n21728260</title>
<path fill="none" stroke="black" d="M1718.84,-431.7C1714.03,-420.85 1707.86,-406.92 1703.07,-396.1"/>
</g>
<!-- SUBSn62966333n89067470&#45;&gt;n79508395 -->
<g id="edge51" class="edge">
<title>SUBSn62966333n89067470&#45;&gt;n79508395</title>
<path fill="none" stroke="black" d="M1108.5,-215.7C1108.5,-207.98 1108.5,-198.71 1108.5,-190.11"/>
<polygon fill="black" stroke="black" points="1112,-190.1 1108.5,-180.1 1105,-190.1 1112,-190.1"/>
</g>
<!-- n45426821&#45;&gt;SUBSn45426821n89067470 -->
<g id="edge13" class="edge">
<title>n45426821&#45;&gt;SUBSn45426821n89067470</title>
<path fill="none" stroke="black" d="M1820.99,-287.97C1775.92,-273.88 1713.82,-254.47 1678.66,-243.49"/>
</g>
<!-- SUBSn62966333n03799321&#45;&gt;n70398611 -->
<g id="edge16" class="edge">
<title>SUBSn62966333n03799321&#45;&gt;n70398611</title>
<path fill="none" stroke="black" d="M827.5,-359.7C827.5,-351.98 827.5,-342.71 827.5,-334.11"/>
<polygon fill="black" stroke="black" points="831,-334.1 827.5,-324.1 824,-334.1 831,-334.1"/>
</g>
<!-- SUBSn62966333n21728260&#45;&gt;n46847605 -->
<g id="edge30" class="edge">
<title>SUBSn62966333n21728260&#45;&gt;n46847605</title>
<path fill="none" stroke="black" d="M1117.5,-359.7C1117.5,-351.98 1117.5,-342.71 1117.5,-334.11"/>
<polygon fill="black" stroke="black" points="1121,-334.1 1117.5,-324.1 1114,-334.1 1121,-334.1"/>
</g>
<!-- n89067470 -->
<g id="node43" class="node">
<title>n89067470</title>
<polygon fill="none" stroke="black" stroke-width="2" points="1334.5,-324 1242.5,-324 1242.5,-288 1334.5,-288 1334.5,-324"/>
<text text-anchor="start" x="1250.5" y="-303.3" font-family="Times,serif" font-size="14.00">friendly(</text>
<text text-anchor="start" x="1298.5" y="-303.3" font-family="Times,serif" font-style="italic" font-size="14.00">Kim</text>
<text text-anchor="start" x="1321.5" y="-303.3" font-family="Times,serif" font-size="14.00">)</text>
</g>
<!-- n89067470&#45;&gt;SUBSn89067470n54279883 -->
<g id="edge27" class="edge">
<title>n89067470&#45;&gt;SUBSn89067470n54279883</title>
<path fill="none" stroke="black" d="M1306.45,-287.91C1337.45,-256.37 1394.2,-188.22 1356.5,-144 1317.37,-98.11 1124.66,-91.79 1052.68,-91.04"/>
</g>
<!-- n89067470&#45;&gt;SUBSn45426821n89067470 -->
<g id="edge19" class="edge">
<title>n89067470&#45;&gt;SUBSn45426821n89067470</title>
<path fill="none" stroke="black" d="M1334.59,-290.28C1337.6,-289.47 1340.58,-288.7 1343.5,-288 1446.13,-263.42 1570.6,-245.6 1624.48,-238.45"/>
</g>
<!-- n89067470&#45;&gt;SUBSn89067470n70398611 -->
<g id="edge22" class="edge">
<title>n89067470&#45;&gt;SUBSn89067470n70398611</title>
<path fill="none" stroke="black" d="M1242.49,-290.49C1239.12,-289.59 1235.77,-288.75 1232.5,-288 1126.5,-263.62 999.01,-246.77 936.64,-239.32"/>
</g>
<!-- n89067470&#45;&gt;SUBSn62966333n89067470 -->
<g id="edge21" class="edge">
<title>n89067470&#45;&gt;SUBSn62966333n89067470</title>
<path fill="none" stroke="black" d="M1244.47,-287.88C1214.49,-276.22 1175.22,-260.95 1146.59,-249.81"/>
</g>
<!-- SUBSn68442522n89067470 -->
<g id="node45" class="node">
<title>SUBSn68442522n89067470</title>
<text text-anchor="start" x="1909.5" y="-230.3" font-family="Times,serif" font-size="14.00">{x2: Kim}</text>
</g>
<!-- n89067470&#45;&gt;SUBSn68442522n89067470 -->
<g id="edge46" class="edge">
<title>n89067470&#45;&gt;SUBSn68442522n89067470</title>
<path fill="none" stroke="black" d="M1334.53,-290C1337.55,-289.26 1340.56,-288.58 1343.5,-288 1451.16,-266.82 1786.98,-244.51 1901.1,-237.35"/>
</g>
<!-- n89067470&#45;&gt;SUBSn46847605n89067470 -->
<g id="edge40" class="edge">
<title>n89067470&#45;&gt;SUBSn46847605n89067470</title>
<path fill="none" stroke="black" d="M1287.51,-287.7C1286.89,-276.85 1286.1,-262.92 1285.48,-252.1"/>
</g>
<!-- n68442522 -->
<g id="node44" class="node">
<title>n68442522</title>
<polygon fill="none" stroke="black" stroke-width="2" points="2129.5,-468 1863.5,-468 1863.5,-432 2129.5,-432 2129.5,-468"/>
<text text-anchor="start" x="1871.5" y="-447.3" font-family="Times,serif" font-size="14.00">loves(</text>
<text text-anchor="start" x="1905.5" y="-447.3" font-family="Times,serif" font-style="italic" font-size="14.00">SKF0</text>
<text text-anchor="start" x="1936.5" y="-447.3" font-family="Times,serif" font-size="14.00">(</text>
<text text-anchor="start" x="1941.5" y="-447.3" font-family="Times,serif" font-weight="bold" font-size="14.00">x2</text>
<text text-anchor="start" x="1955.5" y="-447.3" font-family="Times,serif" font-size="14.00">), </text>
<text text-anchor="start" x="1968.5" y="-447.3" font-family="Times,serif" font-weight="bold" font-size="14.00">x2</text>
<text text-anchor="start" x="1982.5" y="-447.3" font-family="Times,serif" font-size="14.00">), !friendly(</text>
<text text-anchor="start" x="2046.5" y="-447.3" font-family="Times,serif" font-weight="bold" font-size="14.00">x2</text>
<text text-anchor="start" x="2060.5" y="-447.3" font-family="Times,serif" font-size="14.00">), !dog(</text>
<text text-anchor="start" x="2102.5" y="-447.3" font-family="Times,serif" font-weight="bold" font-size="14.00">x2</text>
<text text-anchor="start" x="2116.5" y="-447.3" font-family="Times,serif" font-size="14.00">)</text>
</g>
<!-- n68442522&#45;&gt;SUBSn68442522n21728260 -->
<g id="edge26" class="edge">
<title>n68442522&#45;&gt;SUBSn68442522n21728260</title>
<path fill="none" stroke="black" d="M1966.9,-431.88C1948.15,-421.03 1923.99,-407.05 1905.21,-396.19"/>
</g>
<!-- n68442522&#45;&gt;SUBSn68442522n89067470 -->
<g id="edge24" class="edge">
<title>n68442522&#45;&gt;SUBSn68442522n89067470</title>
<path fill="none" stroke="black" d="M2002.31,-431.52C2011.46,-400.8 2026,-335.85 2003.5,-288 1996.5,-273.12 1983.04,-260.98 1970.27,-252.09"/>
</g>
<!-- SUBSn68442522n89067470&#45;&gt;n12766031 -->
<g id="edge25" class="edge">
<title>SUBSn68442522n89067470&#45;&gt;n12766031</title>
<path fill="none" stroke="black" d="M1939.5,-215.7C1939.5,-207.98 1939.5,-198.71 1939.5,-190.11"/>
<polygon fill="black" stroke="black" points="1943,-190.1 1939.5,-180.1 1936,-190.1 1943,-190.1"/>
</g>
<!-- n81467791 -->
<g id="node46" class="node">
<title>n81467791</title>
<polygon fill="none" stroke="black" stroke-width="2" points="471.5,-468 393.5,-468 393.5,-432 471.5,-432 471.5,-468"/>
<text text-anchor="start" x="401.5" y="-447.3" font-family="Times,serif" font-size="14.00">man(</text>
<text text-anchor="start" x="430.5" y="-447.3" font-family="Times,serif" font-style="italic" font-size="14.00">Mike</text>
<text text-anchor="start" x="458.5" y="-447.3" font-family="Times,serif" font-size="14.00">)</text>
</g>
<!-- n81467791&#45;&gt;SUBSn43553829n81467791 -->
<g id="edge57" class="edge">
<title>n81467791&#45;&gt;SUBSn43553829n81467791</title>
<path fill="none" stroke="black" d="M393.26,-436.87C359.36,-426.31 309.09,-410.48 265.5,-396 262.59,-395.04 259.6,-394.03 256.58,-393"/>
</g>
<!-- n81467791&#45;&gt;SUBSn81467791n67338224 -->
<g id="edge31" class="edge">
<title>n81467791&#45;&gt;SUBSn81467791n67338224</title>
<path fill="none" stroke="black" d="M471.74,-441.13C515.14,-431.65 581.24,-414.65 598.5,-396 631.51,-360.34 640.2,-329.85 615.5,-288 605.05,-270.29 586.33,-258.09 568.18,-249.91"/>
</g>
<!-- SUBSn81467791n67338224&#45;&gt;n38291665 -->
<g id="edge50" class="edge">
<title>SUBSn81467791n67338224&#45;&gt;n38291665</title>
<path fill="none" stroke="black" d="M515.79,-215.7C514.14,-207.98 512.15,-198.71 510.31,-190.11"/>
<polygon fill="black" stroke="black" points="513.68,-189.15 508.17,-180.1 506.84,-190.62 513.68,-189.15"/>
</g>
<!-- SUBSn46847605n89067470&#45;&gt;n57780134 -->
<g id="edge42" class="edge">
<title>SUBSn46847605n89067470&#45;&gt;n57780134</title>
<path fill="none" stroke="black" d="M1284.5,-215.7C1284.5,-207.98 1284.5,-198.71 1284.5,-190.11"/>
<polygon fill="black" stroke="black" points="1288,-190.1 1284.5,-180.1 1281,-190.1 1288,-190.1"/>
</g>
<!-- n56004733 -->
<g id="node51" class="node">
<title>n56004733</title>
<polygon fill="none" stroke="black" stroke-width="2" points="2383.5,-468 2303.5,-468 2303.5,-432 2383.5,-432 2383.5,-468"/>
<text text-anchor="start" x="2311.5" y="-447.3" font-family="Times,serif" font-size="14.00">angry(</text>
<text text-anchor="start" x="2347.5" y="-447.3" font-family="Times,serif" font-style="italic" font-size="14.00">SK0</text>
<text text-anchor="start" x="2370.5" y="-447.3" font-family="Times,serif" font-size="14.00">)</text>
</g>
</g>
</svg>
