<?xml version="1.0" encoding="UTF-8" standalone="no"?>
<!DOCTYPE svg PUBLIC "-//W3C//DTD SVG 1.1//EN"
 "http://www.w3.org/Graphics/SVG/1.1/DTD/svg11.dtd">
<!-- Generated by graphviz version 2.43.0 (0)
 -->
<!-- Title: g Pages: 1 -->
<svg width="329pt" height="476pt"
 viewBox="0.00 0.00 328.50 476.00" xmlns="http://www.w3.org/2000/svg" xmlns:xlink="http://www.w3.org/1999/xlink">
<g id="graph0" class="graph" transform="scale(1 1) rotate(0) translate(4 472)">
<title>g</title>
<polygon fill="white" stroke="transparent" points="-4,4 -4,-472 324.5,-472 324.5,4 -4,4"/>
<!-- SUBSn60263099n60263098 -->
<g id="node1" class="node">
<title>SUBSn60263099n60263098</title>
<text text-anchor="start" x="191.5" y="-86.3" font-family="Times,serif" font-size="14.00">{}</text>
</g>
<!-- n00000000 -->
<g id="node2" class="node">
<title>n00000000</title>
<polygon fill="none" stroke="black" points="227.5,-36 169.5,-36 169.5,0 227.5,0 227.5,-36"/>
<text text-anchor="start" x="177.5" y="-14.3" font-family="Times,serif" font-size="14.00">FALSE</text>
</g>
<!-- SUBSn60263099n60263098&#45;&gt;n00000000 -->
<g id="edge1" class="edge">
<title>SUBSn60263099n60263098&#45;&gt;n00000000</title>
<path fill="none" stroke="black" d="M198.5,-71.7C198.5,-63.98 198.5,-54.71 198.5,-46.11"/>
<polygon fill="black" stroke="black" points="202,-46.1 198.5,-36.1 195,-46.1 202,-46.1"/>
</g>
<!-- n60263099 -->
<g id="node3" class="node">
<title>n60263099</title>
<polygon fill="none" stroke="black" points="189.5,-180 135.5,-180 135.5,-144 189.5,-144 189.5,-180"/>
<text text-anchor="start" x="149.5" y="-158.3" font-family="Times,serif" font-size="14.00">!rain</text>
</g>
<!-- n60263099&#45;&gt;SUBSn60263099n60263098 -->
<g id="edge11" class="edge">
<title>n60263099&#45;&gt;SUBSn60263099n60263098</title>
<path fill="none" stroke="black" d="M171.4,-143.7C176.98,-132.85 184.14,-118.92 189.7,-108.1"/>
</g>
<!-- SUBSn99536447n69195253 -->
<g id="node4" class="node">
<title>SUBSn99536447n69195253</title>
<text text-anchor="start" x="115.5" y="-374.3" font-family="Times,serif" font-size="14.00">{}</text>
</g>
<!-- n16675258 -->
<g id="node5" class="node">
<title>n16675258</title>
<polygon fill="none" stroke="black" points="158,-324 87,-324 87,-288 158,-288 158,-324"/>
<text text-anchor="start" x="95" y="-302.3" font-family="Times,serif" font-size="14.00">!dry, !rain</text>
</g>
<!-- SUBSn99536447n69195253&#45;&gt;n16675258 -->
<g id="edge2" class="edge">
<title>SUBSn99536447n69195253&#45;&gt;n16675258</title>
<path fill="none" stroke="black" d="M122.5,-359.7C122.5,-351.98 122.5,-342.71 122.5,-334.11"/>
<polygon fill="black" stroke="black" points="126,-334.1 122.5,-324.1 119,-334.1 126,-334.1"/>
</g>
<!-- SUBSn16675258n76938358 -->
<g id="node12" class="node">
<title>SUBSn16675258n76938358</title>
<text text-anchor="start" x="155.5" y="-230.3" font-family="Times,serif" font-size="14.00">{}</text>
</g>
<!-- n16675258&#45;&gt;SUBSn16675258n76938358 -->
<g id="edge8" class="edge">
<title>n16675258&#45;&gt;SUBSn16675258n76938358</title>
<path fill="none" stroke="black" d="M132.39,-287.7C138.59,-276.85 146.55,-262.92 152.73,-252.1"/>
</g>
<!-- n70297743 -->
<g id="node6" class="node">
<title>n70297743</title>
<polygon fill="none" stroke="black" stroke-width="2" points="230.5,-468 176.5,-468 176.5,-432 230.5,-432 230.5,-468"/>
<text text-anchor="start" x="190" y="-446.3" font-family="Times,serif" font-size="14.00">clear</text>
</g>
<!-- SUBSn06640614n70297743 -->
<g id="node7" class="node">
<title>SUBSn06640614n70297743</title>
<text text-anchor="start" x="196.5" y="-374.3" font-family="Times,serif" font-size="14.00">{}</text>
</g>
<!-- n70297743&#45;&gt;SUBSn06640614n70297743 -->
<g id="edge3" class="edge">
<title>n70297743&#45;&gt;SUBSn06640614n70297743</title>
<path fill="none" stroke="black" d="M203.5,-431.7C203.5,-420.85 203.5,-406.92 203.5,-396.1"/>
</g>
<!-- n76938358 -->
<g id="node8" class="node">
<title>n76938358</title>
<polygon fill="none" stroke="black" points="230.5,-324 176.5,-324 176.5,-288 230.5,-288 230.5,-324"/>
<text text-anchor="start" x="194" y="-302.3" font-family="Times,serif" font-size="14.00">dry</text>
</g>
<!-- SUBSn06640614n70297743&#45;&gt;n76938358 -->
<g id="edge4" class="edge">
<title>SUBSn06640614n70297743&#45;&gt;n76938358</title>
<path fill="none" stroke="black" d="M203.5,-359.7C203.5,-351.98 203.5,-342.71 203.5,-334.11"/>
<polygon fill="black" stroke="black" points="207,-334.1 203.5,-324.1 200,-334.1 207,-334.1"/>
</g>
<!-- n76938358&#45;&gt;SUBSn16675258n76938358 -->
<g id="edge10" class="edge">
<title>n76938358&#45;&gt;SUBSn16675258n76938358</title>
<path fill="none" stroke="black" d="M193.37,-287.7C187.01,-276.85 178.85,-262.92 172.52,-252.1"/>
</g>
<!-- n06640614 -->
<g id="node9" class="node">
<title>n06640614</title>
<polygon fill="none" stroke="black" stroke-width="2" points="320.5,-468 248.5,-468 248.5,-432 320.5,-432 320.5,-468"/>
<text text-anchor="start" x="256.5" y="-446.3" font-family="Times,serif" font-size="14.00">!clear, dry</text>
</g>
<!-- n06640614&#45;&gt;SUBSn06640614n70297743 -->
<g id="edge6" class="edge">
<title>n06640614&#45;&gt;SUBSn06640614n70297743</title>
<path fill="none" stroke="black" d="M264.48,-431.7C251.92,-420.85 235.8,-406.92 223.29,-396.1"/>
</g>
<!-- n69195253 -->
<g id="node10" class="node">
<title>n69195253</title>
<polygon fill="none" stroke="black" stroke-width="2" points="71,-468 0,-468 0,-432 71,-432 71,-468"/>
<text text-anchor="start" x="8" y="-446.3" font-family="Times,serif" font-size="14.00">!wet, !dry</text>
</g>
<!-- n69195253&#45;&gt;SUBSn99536447n69195253 -->
<g id="edge5" class="edge">
<title>n69195253&#45;&gt;SUBSn99536447n69195253</title>
<path fill="none" stroke="black" d="M57.01,-431.7C70.49,-420.85 87.8,-406.92 101.24,-396.1"/>
</g>
<!-- n60263098 -->
<g id="node11" class="node">
<title>n60263098</title>
<polygon fill="none" stroke="black" stroke-width="2" points="261.5,-180 207.5,-180 207.5,-144 261.5,-144 261.5,-180"/>
<text text-anchor="start" x="223.5" y="-158.3" font-family="Times,serif" font-size="14.00">rain</text>
</g>
<!-- n60263098&#45;&gt;SUBSn60263099n60263098 -->
<g id="edge7" class="edge">
<title>n60263098&#45;&gt;SUBSn60263099n60263098</title>
<path fill="none" stroke="black" d="M225.6,-143.7C220.02,-132.85 212.86,-118.92 207.3,-108.1"/>
</g>
<!-- SUBSn16675258n76938358&#45;&gt;n60263099 -->
<g id="edge9" class="edge">
<title>SUBSn16675258n76938358&#45;&gt;n60263099</title>
<path fill="none" stroke="black" d="M162.5,-215.7C162.5,-207.98 162.5,-198.71 162.5,-190.11"/>
<polygon fill="black" stroke="black" points="166,-190.1 162.5,-180.1 159,-190.1 166,-190.1"/>
</g>
<!-- n99536447 -->
<g id="node13" class="node">
<title>n99536447</title>
<polygon fill="none" stroke="black" stroke-width="2" points="158,-468 89,-468 89,-432 158,-432 158,-468"/>
<text text-anchor="start" x="97" y="-446.3" font-family="Times,serif" font-size="14.00">wet, !rain</text>
</g>
<!-- n99536447&#45;&gt;SUBSn99536447n69195253 -->
<g id="edge12" class="edge">
<title>n99536447&#45;&gt;SUBSn99536447n69195253</title>
<path fill="none" stroke="black" d="M123.25,-431.7C123.1,-420.85 122.9,-406.92 122.74,-396.1"/>
</g>
</g>
</svg>
