<?xml version="1.0" encoding="UTF-8" standalone="no"?>
<!DOCTYPE svg PUBLIC "-//W3C//DTD SVG 1.1//EN"
 "http://www.w3.org/Graphics/SVG/1.1/DTD/svg11.dtd">
<!-- Generated by graphviz version 2.43.0 (0)
 -->
<!-- Title: g Pages: 1 -->
<svg width="1447pt" height="476pt"
 viewBox="0.00 0.00 1447.00 476.00" xmlns="http://www.w3.org/2000/svg" xmlns:xlink="http://www.w3.org/1999/xlink">
<g id="graph0" class="graph" transform="scale(1 1) rotate(0) translate(4 472)">
<title>g</title>
<polygon fill="white" stroke="transparent" points="-4,4 -4,-472 1443,-472 1443,4 -4,4"/>
<!-- SUBSn75170134n18712129 -->
<g id="node1" class="node">
<title>SUBSn75170134n18712129</title>
<text text-anchor="start" x="205" y="-374.3" font-family="Times,serif" font-size="14.00">{}</text>
</g>
<!-- n73479741 -->
<g id="node44" class="node">
<title>n73479741</title>
<polygon fill="none" stroke="black" points="244.5,-324 165.5,-324 165.5,-288 244.5,-288 244.5,-324"/>
<text text-anchor="start" x="173.5" y="-302.3" font-family="Times,serif" font-size="14.00">!wet, !clear</text>
</g>
<!-- SUBSn75170134n18712129&#45;&gt;n73479741 -->
<g id="edge34" class="edge">
<title>SUBSn75170134n18712129&#45;&gt;n73479741</title>
<path fill="none" stroke="black" d="M210.27,-359.7C209.5,-351.98 208.57,-342.71 207.71,-334.11"/>
<polygon fill="black" stroke="black" points="211.19,-333.71 206.71,-324.1 204.22,-334.4 211.19,-333.71"/>
</g>
<!-- SUBSn20843433n20843435 -->
<g id="node2" class="node">
<title>SUBSn20843433n20843435</title>
<text text-anchor="start" x="774" y="-230.3" font-family="Times,serif" font-size="14.00">{}</text>
</g>
<!-- n22844293 -->
<g id="node36" class="node">
<title>n22844293</title>
<polygon fill="none" stroke="black" points="791.5,-180 724.5,-180 724.5,-144 791.5,-144 791.5,-180"/>
<text text-anchor="start" x="732.5" y="-158.3" font-family="Times,serif" font-size="14.00">!day, day</text>
</g>
<!-- SUBSn20843433n20843435&#45;&gt;n22844293 -->
<g id="edge21" class="edge">
<title>SUBSn20843433n20843435&#45;&gt;n22844293</title>
<path fill="none" stroke="black" d="M775.31,-215.7C772.75,-207.9 769.67,-198.51 766.82,-189.83"/>
<polygon fill="black" stroke="black" points="770.07,-188.51 763.62,-180.1 763.42,-190.7 770.07,-188.51"/>
</g>
<!-- n18842575 -->
<g id="node46" class="node">
<title>n18842575</title>
<polygon fill="none" stroke="black" points="894,-180 810,-180 810,-144 894,-144 894,-180"/>
<text text-anchor="start" x="818" y="-158.3" font-family="Times,serif" font-size="14.00">night, !night</text>
</g>
<!-- SUBSn20843433n20843435&#45;&gt;n18842575 -->
<g id="edge37" class="edge">
<title>SUBSn20843433n20843435&#45;&gt;n18842575</title>
<path fill="none" stroke="black" d="M798.55,-215.7C807.23,-207.14 817.86,-196.66 827.35,-187.3"/>
<polygon fill="black" stroke="black" points="829.99,-189.62 834.65,-180.1 825.07,-184.63 829.99,-189.62"/>
</g>
<!-- SUBSn09279968n70058058 -->
<g id="node3" class="node">
<title>SUBSn09279968n70058058</title>
<text text-anchor="start" x="530" y="-86.3" font-family="Times,serif" font-size="14.00">{}</text>
</g>
<!-- n24562221 -->
<g id="node4" class="node">
<title>n24562221</title>
<polygon fill="none" stroke="black" points="576,-36 498,-36 498,0 576,0 576,-36"/>
<text text-anchor="start" x="506" y="-14.3" font-family="Times,serif" font-size="14.00">!day, !clear</text>
</g>
<!-- SUBSn09279968n70058058&#45;&gt;n24562221 -->
<g id="edge1" class="edge">
<title>SUBSn09279968n70058058&#45;&gt;n24562221</title>
<path fill="none" stroke="black" d="M537,-71.7C537,-63.98 537,-54.71 537,-46.11"/>
<polygon fill="black" stroke="black" points="540.5,-46.1 537,-36.1 533.5,-46.1 540.5,-46.1"/>
</g>
<!-- n99587445 -->
<g id="node5" class="node">
<title>n99587445</title>
<polygon fill="none" stroke="black" points="706.5,-180 569.5,-180 569.5,-144 706.5,-144 706.5,-180"/>
<text text-anchor="start" x="577.5" y="-158.3" font-family="Times,serif" font-size="14.00">night, sprinkler, !clear</text>
</g>
<!-- SUBSn09279968n99587445 -->
<g id="node6" class="node">
<title>SUBSn09279968n99587445</title>
<text text-anchor="start" x="863" y="-86.3" font-family="Times,serif" font-size="14.00">{}</text>
</g>
<!-- n99587445&#45;&gt;SUBSn09279968n99587445 -->
<g id="edge2" class="edge">
<title>n99587445&#45;&gt;SUBSn09279968n99587445</title>
<path fill="none" stroke="black" d="M694.46,-143.97C741.54,-129.76 806.57,-110.14 842.81,-99.2"/>
</g>
<!-- n08867412 -->
<g id="node41" class="node">
<title>n08867412</title>
<polygon fill="none" stroke="black" points="911.5,-36 828.5,-36 828.5,0 911.5,0 911.5,-36"/>
<text text-anchor="start" x="836.5" y="-14.3" font-family="Times,serif" font-size="14.00">night, !clear</text>
</g>
<!-- SUBSn09279968n99587445&#45;&gt;n08867412 -->
<g id="edge30" class="edge">
<title>SUBSn09279968n99587445&#45;&gt;n08867412</title>
<path fill="none" stroke="black" d="M870,-71.7C870,-63.98 870,-54.71 870,-46.11"/>
<polygon fill="black" stroke="black" points="873.5,-46.1 870,-36.1 866.5,-46.1 873.5,-46.1"/>
</g>
<!-- n75170134 -->
<g id="node7" class="node">
<title>n75170134</title>
<polygon fill="none" stroke="black" stroke-width="2" points="428,-468 356,-468 356,-432 428,-432 428,-468"/>
<text text-anchor="start" x="364" y="-446.3" font-family="Times,serif" font-size="14.00">dry, !clear</text>
</g>
<!-- n75170134&#45;&gt;SUBSn75170134n18712129 -->
<g id="edge7" class="edge">
<title>n75170134&#45;&gt;SUBSn75170134n18712129</title>
<path fill="none" stroke="black" d="M355.9,-435.34C328.02,-424.74 288.5,-409.61 254,-396 249.17,-394.1 244.04,-392.04 239.08,-390.05"/>
</g>
<!-- SUBSn90603567n75170134 -->
<g id="node8" class="node">
<title>SUBSn90603567n75170134</title>
<text text-anchor="start" x="585" y="-374.3" font-family="Times,serif" font-size="14.00">{}</text>
</g>
<!-- n75170134&#45;&gt;SUBSn90603567n75170134 -->
<g id="edge3" class="edge">
<title>n75170134&#45;&gt;SUBSn90603567n75170134</title>
<path fill="none" stroke="black" d="M428.31,-435.17C431.25,-434.09 434.17,-433.02 437,-432 481.56,-415.97 533.72,-398.37 564.75,-388.03"/>
</g>
<!-- SUBSn14854481n75170134 -->
<g id="node34" class="node">
<title>SUBSn14854481n75170134</title>
<text text-anchor="start" x="387" y="-374.3" font-family="Times,serif" font-size="14.00">{}</text>
</g>
<!-- n75170134&#45;&gt;SUBSn14854481n75170134 -->
<g id="edge20" class="edge">
<title>n75170134&#45;&gt;SUBSn14854481n75170134</title>
<path fill="none" stroke="black" d="M392.49,-431.7C392.8,-420.85 393.2,-406.92 393.51,-396.1"/>
</g>
<!-- n70058058 -->
<g id="node13" class="node">
<title>n70058058</title>
<polygon fill="none" stroke="black" points="658.5,-324 525.5,-324 525.5,-288 658.5,-288 658.5,-324"/>
<text text-anchor="start" x="533.5" y="-302.3" font-family="Times,serif" font-size="14.00">sprinkler, !day, !clear</text>
</g>
<!-- SUBSn90603567n75170134&#45;&gt;n70058058 -->
<g id="edge38" class="edge">
<title>SUBSn90603567n75170134&#45;&gt;n70058058</title>
<path fill="none" stroke="black" d="M592,-359.7C592,-351.98 592,-342.71 592,-334.11"/>
<polygon fill="black" stroke="black" points="595.5,-334.1 592,-324.1 588.5,-334.1 595.5,-334.1"/>
</g>
<!-- n65348637 -->
<g id="node9" class="node">
<title>n65348637</title>
<polygon fill="none" stroke="black" stroke-width="2" points="147.5,-324 78.5,-324 78.5,-288 147.5,-288 147.5,-324"/>
<text text-anchor="start" x="86.5" y="-302.3" font-family="Times,serif" font-size="14.00">!rain, wet</text>
</g>
<!-- SUBSn24033617n65348637 -->
<g id="node16" class="node">
<title>SUBSn24033617n65348637</title>
<text text-anchor="start" x="208" y="-230.3" font-family="Times,serif" font-size="14.00">{}</text>
</g>
<!-- n65348637&#45;&gt;SUBSn24033617n65348637 -->
<g id="edge67" class="edge">
<title>n65348637&#45;&gt;SUBSn24033617n65348637</title>
<path fill="none" stroke="black" d="M137.95,-287.88C153.76,-277.03 174.13,-263.05 189.95,-252.19"/>
</g>
<!-- SUBSn65348637n18712129 -->
<g id="node42" class="node">
<title>SUBSn65348637n18712129</title>
<text text-anchor="start" x="43" y="-230.3" font-family="Times,serif" font-size="14.00">{}</text>
</g>
<!-- n65348637&#45;&gt;SUBSn65348637n18712129 -->
<g id="edge33" class="edge">
<title>n65348637&#45;&gt;SUBSn65348637n18712129</title>
<path fill="none" stroke="black" d="M97.43,-287.7C87.66,-276.85 75.13,-262.92 65.39,-252.1"/>
</g>
<!-- SUBSn73479741n65348637 -->
<g id="node49" class="node">
<title>SUBSn73479741n65348637</title>
<text text-anchor="start" x="123" y="-230.3" font-family="Times,serif" font-size="14.00">{}</text>
</g>
<!-- n65348637&#45;&gt;SUBSn73479741n65348637 -->
<g id="edge46" class="edge">
<title>n65348637&#45;&gt;SUBSn73479741n65348637</title>
<path fill="none" stroke="black" d="M117.2,-287.7C119.84,-276.85 123.22,-262.92 125.85,-252.1"/>
</g>
<!-- n25890407 -->
<g id="node10" class="node">
<title>n25890407</title>
<polygon fill="none" stroke="black" points="996,-180 912,-180 912,-144 996,-144 996,-180"/>
<text text-anchor="start" x="920" y="-158.3" font-family="Times,serif" font-size="14.00">night, bright</text>
</g>
<!-- n18712129 -->
<g id="node11" class="node">
<title>n18712129</title>
<polygon fill="none" stroke="black" stroke-width="2" points="247.5,-468 176.5,-468 176.5,-432 247.5,-432 247.5,-468"/>
<text text-anchor="start" x="184.5" y="-446.3" font-family="Times,serif" font-size="14.00">!wet, !dry</text>
</g>
<!-- n18712129&#45;&gt;SUBSn75170134n18712129 -->
<g id="edge4" class="edge">
<title>n18712129&#45;&gt;SUBSn75170134n18712129</title>
<path fill="none" stroke="black" d="M212,-431.7C212,-420.85 212,-406.92 212,-396.1"/>
</g>
<!-- SUBSn42745745n18712129 -->
<g id="node29" class="node">
<title>SUBSn42745745n18712129</title>
<text text-anchor="start" x="283" y="-374.3" font-family="Times,serif" font-size="14.00">{}</text>
</g>
<!-- n18712129&#45;&gt;SUBSn42745745n18712129 -->
<g id="edge13" class="edge">
<title>n18712129&#45;&gt;SUBSn42745745n18712129</title>
<path fill="none" stroke="black" d="M231.28,-431.7C243.37,-420.85 258.89,-406.92 270.94,-396.1"/>
</g>
<!-- n18712129&#45;&gt;SUBSn65348637n18712129 -->
<g id="edge50" class="edge">
<title>n18712129&#45;&gt;SUBSn65348637n18712129</title>
<path fill="none" stroke="black" d="M183.17,-431.96C150.2,-410.9 97.16,-371.9 69,-324 55.79,-301.53 51.72,-271.05 50.49,-252.22"/>
</g>
<!-- n89382255 -->
<g id="node12" class="node">
<title>n89382255</title>
<polygon fill="none" stroke="black" points="242,-180 188,-180 188,-144 242,-144 242,-180"/>
<text text-anchor="start" x="202" y="-158.3" font-family="Times,serif" font-size="14.00">!rain</text>
</g>
<!-- n70058058&#45;&gt;SUBSn09279968n70058058 -->
<g id="edge47" class="edge">
<title>n70058058&#45;&gt;SUBSn09279968n70058058</title>
<path fill="none" stroke="black" d="M525.34,-289.06C502.72,-280.99 478.73,-269.14 461,-252 435.82,-227.66 436.27,-214.26 429,-180 425.68,-164.35 420.54,-157.58 429,-144 446.56,-115.82 483.97,-102.2 509.8,-95.92"/>
</g>
<!-- SUBSn20843435n70058058 -->
<g id="node14" class="node">
<title>SUBSn20843435n70058058</title>
<text text-anchor="start" x="631" y="-230.3" font-family="Times,serif" font-size="14.00">{}</text>
</g>
<!-- n70058058&#45;&gt;SUBSn20843435n70058058 -->
<g id="edge5" class="edge">
<title>n70058058&#45;&gt;SUBSn20843435n70058058</title>
<path fill="none" stroke="black" d="M603.37,-287.7C610.5,-276.85 619.65,-262.92 626.76,-252.1"/>
</g>
<!-- SUBSn20843435n70058058&#45;&gt;n99587445 -->
<g id="edge43" class="edge">
<title>SUBSn20843435n70058058&#45;&gt;n99587445</title>
<path fill="none" stroke="black" d="M638,-215.7C638,-207.98 638,-198.71 638,-190.11"/>
<polygon fill="black" stroke="black" points="641.5,-190.1 638,-180.1 634.5,-190.1 641.5,-190.1"/>
</g>
<!-- n24033617 -->
<g id="node15" class="node">
<title>n24033617</title>
<polygon fill="none" stroke="black" points="317,-324 263,-324 263,-288 317,-288 317,-324"/>
<text text-anchor="start" x="277.5" y="-302.3" font-family="Times,serif" font-size="14.00">!wet</text>
</g>
<!-- n24033617&#45;&gt;SUBSn24033617n65348637 -->
<g id="edge6" class="edge">
<title>n24033617&#45;&gt;SUBSn24033617n65348637</title>
<path fill="none" stroke="black" d="M271.46,-287.7C259.84,-276.85 244.91,-262.92 233.33,-252.1"/>
</g>
<!-- SUBSn24033617n65348637&#45;&gt;n89382255 -->
<g id="edge23" class="edge">
<title>SUBSn24033617n65348637&#45;&gt;n89382255</title>
<path fill="none" stroke="black" d="M215,-215.7C215,-207.98 215,-198.71 215,-190.11"/>
<polygon fill="black" stroke="black" points="218.5,-190.1 215,-180.1 211.5,-190.1 218.5,-190.1"/>
</g>
<!-- n61422146 -->
<g id="node17" class="node">
<title>n61422146</title>
<polygon fill="none" stroke="black" points="1330,-36 1276,-36 1276,0 1330,0 1330,-36"/>
<text text-anchor="start" x="1290.5" y="-14.3" font-family="Times,serif" font-size="14.00">!day</text>
</g>
<!-- n90603567 -->
<g id="node18" class="node">
<title>n90603567</title>
<polygon fill="none" stroke="black" stroke-width="2" points="1138.5,-468 1013.5,-468 1013.5,-432 1138.5,-432 1138.5,-468"/>
<text text-anchor="start" x="1021.5" y="-446.3" font-family="Times,serif" font-size="14.00">sprinkler, !day, !dry</text>
</g>
<!-- n90603567&#45;&gt;SUBSn90603567n75170134 -->
<g id="edge60" class="edge">
<title>n90603567&#45;&gt;SUBSn90603567n75170134</title>
<path fill="none" stroke="black" d="M1013.22,-439.92C906.56,-424.49 694.23,-393.79 619.11,-382.92"/>
</g>
<!-- SUBSn09279968n90603567 -->
<g id="node19" class="node">
<title>SUBSn09279968n90603567</title>
<text text-anchor="start" x="1397" y="-86.3" font-family="Times,serif" font-size="14.00">{}</text>
</g>
<!-- n90603567&#45;&gt;SUBSn09279968n90603567 -->
<g id="edge8" class="edge">
<title>n90603567&#45;&gt;SUBSn09279968n90603567</title>
<path fill="none" stroke="black" d="M1130.84,-431.96C1226.79,-401.35 1415,-337.43 1415,-307 1415,-307 1415,-307 1415,-233 1415,-187.75 1409.38,-134.63 1406.17,-108.02"/>
</g>
<!-- SUBSn42745745n90603567 -->
<g id="node21" class="node">
<title>SUBSn42745745n90603567</title>
<text text-anchor="start" x="1031" y="-374.3" font-family="Times,serif" font-size="14.00">{}</text>
</g>
<!-- n90603567&#45;&gt;SUBSn42745745n90603567 -->
<g id="edge29" class="edge">
<title>n90603567&#45;&gt;SUBSn42745745n90603567</title>
<path fill="none" stroke="black" d="M1066.61,-431.7C1060.72,-420.85 1053.15,-406.92 1047.29,-396.1"/>
</g>
<!-- SUBSn20843435n90603567 -->
<g id="node30" class="node">
<title>SUBSn20843435n90603567</title>
<text text-anchor="start" x="1107" y="-230.3" font-family="Times,serif" font-size="14.00">{}</text>
</g>
<!-- n90603567&#45;&gt;SUBSn20843435n90603567 -->
<g id="edge14" class="edge">
<title>n90603567&#45;&gt;SUBSn20843435n90603567</title>
<path fill="none" stroke="black" d="M1079.05,-431.85C1086.16,-391.78 1103.81,-292.38 1110.94,-252.23"/>
</g>
<!-- n81323600 -->
<g id="node53" class="node">
<title>n81323600</title>
<polygon fill="none" stroke="black" points="1439,-36 1369,-36 1369,0 1439,0 1439,-36"/>
<text text-anchor="start" x="1377" y="-14.3" font-family="Times,serif" font-size="14.00">!day, !dry</text>
</g>
<!-- SUBSn09279968n90603567&#45;&gt;n81323600 -->
<g id="edge53" class="edge">
<title>SUBSn09279968n90603567&#45;&gt;n81323600</title>
<path fill="none" stroke="black" d="M1404,-71.7C1404,-63.98 1404,-54.71 1404,-46.11"/>
<polygon fill="black" stroke="black" points="1407.5,-46.1 1404,-36.1 1400.5,-46.1 1407.5,-46.1"/>
</g>
<!-- n20843435 -->
<g id="node20" class="node">
<title>n20843435</title>
<polygon fill="none" stroke="black" stroke-width="2" points="747.5,-324 676.5,-324 676.5,-288 747.5,-288 747.5,-324"/>
<text text-anchor="start" x="684.5" y="-302.3" font-family="Times,serif" font-size="14.00">night, day</text>
</g>
<!-- n20843435&#45;&gt;SUBSn20843433n20843435 -->
<g id="edge49" class="edge">
<title>n20843435&#45;&gt;SUBSn20843433n20843435</title>
<path fill="none" stroke="black" d="M729.06,-287.7C739.75,-276.85 753.48,-262.92 764.14,-252.1"/>
</g>
<!-- n20843435&#45;&gt;SUBSn20843435n70058058 -->
<g id="edge16" class="edge">
<title>n20843435&#45;&gt;SUBSn20843435n70058058</title>
<path fill="none" stroke="black" d="M693.71,-287.7C682.24,-276.85 667.51,-262.92 656.08,-252.1"/>
</g>
<!-- SUBSn20843435n52142179 -->
<g id="node25" class="node">
<title>SUBSn20843435n52142179</title>
<text text-anchor="start" x="1031" y="-230.3" font-family="Times,serif" font-size="14.00">{}</text>
</g>
<!-- n20843435&#45;&gt;SUBSn20843435n52142179 -->
<g id="edge19" class="edge">
<title>n20843435&#45;&gt;SUBSn20843435n52142179</title>
<path fill="none" stroke="black" d="M747.67,-290.88C750.8,-289.84 753.94,-288.86 757,-288 781.38,-281.15 945.34,-251.56 1010.95,-239.82"/>
</g>
<!-- n20843435&#45;&gt;SUBSn20843435n90603567 -->
<g id="edge17" class="edge">
<title>n20843435&#45;&gt;SUBSn20843435n90603567</title>
<path fill="none" stroke="black" d="M747.61,-290.63C750.75,-289.64 753.92,-288.75 757,-288 894.83,-254.69 936.88,-288.11 1074,-252 1078.23,-250.89 1082.6,-249.4 1086.82,-247.78"/>
</g>
<!-- SUBSn20843435n91031340 -->
<g id="node33" class="node">
<title>SUBSn20843435n91031340</title>
<text text-anchor="start" x="348" y="-230.3" font-family="Times,serif" font-size="14.00">{}</text>
</g>
<!-- n20843435&#45;&gt;SUBSn20843435n91031340 -->
<g id="edge25" class="edge">
<title>n20843435&#45;&gt;SUBSn20843435n91031340</title>
<path fill="none" stroke="black" d="M676.34,-290.82C673.21,-289.79 670.06,-288.83 667,-288 653.2,-284.26 455.39,-251.53 382.07,-239.45"/>
</g>
<!-- SUBSn20843435n14854481 -->
<g id="node47" class="node">
<title>SUBSn20843435n14854481</title>
<text text-anchor="start" x="490" y="-230.3" font-family="Times,serif" font-size="14.00">{}</text>
</g>
<!-- n20843435&#45;&gt;SUBSn20843435n14854481 -->
<g id="edge52" class="edge">
<title>n20843435&#45;&gt;SUBSn20843435n14854481</title>
<path fill="none" stroke="black" d="M676.21,-291.26C673.1,-290.13 670,-289.03 667,-288 617.02,-270.78 557.96,-252.92 524.25,-242.95"/>
</g>
<!-- SUBSn20843435n27891265 -->
<g id="node54" class="node">
<title>SUBSn20843435n27891265</title>
<text text-anchor="start" x="897" y="-230.3" font-family="Times,serif" font-size="14.00">{}</text>
</g>
<!-- n20843435&#45;&gt;SUBSn20843435n27891265 -->
<g id="edge56" class="edge">
<title>n20843435&#45;&gt;SUBSn20843435n27891265</title>
<path fill="none" stroke="black" d="M747.84,-291.4C750.94,-290.25 754.02,-289.1 757,-288 798.74,-272.59 847.33,-255.17 876.86,-244.65"/>
</g>
<!-- n52142179 -->
<g id="node22" class="node">
<title>n52142179</title>
<polygon fill="none" stroke="black" points="1085.5,-324 990.5,-324 990.5,-288 1085.5,-288 1085.5,-324"/>
<text text-anchor="start" x="998.5" y="-302.3" font-family="Times,serif" font-size="14.00">sprinkler, !day</text>
</g>
<!-- SUBSn42745745n90603567&#45;&gt;n52142179 -->
<g id="edge9" class="edge">
<title>SUBSn42745745n90603567&#45;&gt;n52142179</title>
<path fill="none" stroke="black" d="M1038,-359.7C1038,-351.98 1038,-342.71 1038,-334.11"/>
<polygon fill="black" stroke="black" points="1041.5,-334.1 1038,-324.1 1034.5,-334.1 1041.5,-334.1"/>
</g>
<!-- n52142179&#45;&gt;SUBSn20843435n52142179 -->
<g id="edge40" class="edge">
<title>n52142179&#45;&gt;SUBSn20843435n52142179</title>
<path fill="none" stroke="black" d="M1038,-287.7C1038,-276.85 1038,-262.92 1038,-252.1"/>
</g>
<!-- SUBSn09279968n52142179 -->
<g id="node37" class="node">
<title>SUBSn09279968n52142179</title>
<text text-anchor="start" x="1296" y="-86.3" font-family="Times,serif" font-size="14.00">{}</text>
</g>
<!-- n52142179&#45;&gt;SUBSn09279968n52142179 -->
<g id="edge22" class="edge">
<title>n52142179&#45;&gt;SUBSn09279968n52142179</title>
<path fill="none" stroke="black" d="M1085.61,-302.35C1158.62,-295.42 1296.27,-270.38 1358,-180 1367.02,-166.79 1364.26,-158.72 1358,-144 1351.88,-129.6 1339.71,-117.21 1328.38,-108.05"/>
</g>
<!-- n14854481 -->
<g id="node23" class="node">
<title>n14854481</title>
<polygon fill="none" stroke="black" stroke-width="2" points="555.5,-468 446.5,-468 446.5,-432 555.5,-432 555.5,-468"/>
<text text-anchor="start" x="454.5" y="-446.3" font-family="Times,serif" font-size="14.00">!day, !dry, bright</text>
</g>
<!-- SUBSn42745745n14854481 -->
<g id="node24" class="node">
<title>SUBSn42745745n14854481</title>
<text text-anchor="start" x="776" y="-374.3" font-family="Times,serif" font-size="14.00">{}</text>
</g>
<!-- n14854481&#45;&gt;SUBSn42745745n14854481 -->
<g id="edge10" class="edge">
<title>n14854481&#45;&gt;SUBSn42745745n14854481</title>
<path fill="none" stroke="black" d="M555.71,-435.42C615.77,-420.51 709.78,-397.18 755.79,-385.75"/>
</g>
<!-- n14854481&#45;&gt;SUBSn14854481n75170134 -->
<g id="edge61" class="edge">
<title>n14854481&#45;&gt;SUBSn14854481n75170134</title>
<path fill="none" stroke="black" d="M474.82,-431.88C458.24,-421.03 436.88,-407.05 420.28,-396.19"/>
</g>
<!-- n14854481&#45;&gt;SUBSn20843435n14854481 -->
<g id="edge51" class="edge">
<title>n14854481&#45;&gt;SUBSn20843435n14854481</title>
<path fill="none" stroke="black" d="M500.68,-431.85C499.93,-391.78 498.07,-292.38 497.32,-252.23"/>
</g>
<!-- n27891265 -->
<g id="node51" class="node">
<title>n27891265</title>
<polygon fill="none" stroke="black" points="944,-324 864,-324 864,-288 944,-288 944,-324"/>
<text text-anchor="start" x="872" y="-302.3" font-family="Times,serif" font-size="14.00">!day, bright</text>
</g>
<!-- SUBSn42745745n14854481&#45;&gt;n27891265 -->
<g id="edge45" class="edge">
<title>SUBSn42745745n14854481&#45;&gt;n27891265</title>
<path fill="none" stroke="black" d="M810.15,-361.29C826.41,-351.89 847.34,-339.78 865.31,-329.38"/>
<polygon fill="black" stroke="black" points="867.49,-332.16 874.39,-324.13 863.99,-326.11 867.49,-332.16"/>
</g>
<!-- n50141321 -->
<g id="node26" class="node">
<title>n50141321</title>
<polygon fill="none" stroke="black" points="1114,-180 1014,-180 1014,-144 1114,-144 1114,-180"/>
<text text-anchor="start" x="1022" y="-158.3" font-family="Times,serif" font-size="14.00">night, sprinkler</text>
</g>
<!-- SUBSn20843435n52142179&#45;&gt;n50141321 -->
<g id="edge11" class="edge">
<title>SUBSn20843435n52142179&#45;&gt;n50141321</title>
<path fill="none" stroke="black" d="M1044.43,-215.7C1047.36,-207.81 1050.89,-198.3 1054.14,-189.55"/>
<polygon fill="black" stroke="black" points="1057.45,-190.7 1057.65,-180.1 1050.88,-188.26 1057.45,-190.7"/>
</g>
<!-- SUBSn50141321n09279968 -->
<g id="node27" class="node">
<title>SUBSn50141321n09279968</title>
<text text-anchor="start" x="1067" y="-86.3" font-family="Times,serif" font-size="14.00">{}</text>
</g>
<!-- n50141321&#45;&gt;SUBSn50141321n09279968 -->
<g id="edge26" class="edge">
<title>n50141321&#45;&gt;SUBSn50141321n09279968</title>
<path fill="none" stroke="black" d="M1066.47,-143.7C1068.02,-132.85 1070.01,-118.92 1071.56,-108.1"/>
</g>
<!-- n59421288 -->
<g id="node28" class="node">
<title>n59421288</title>
<polygon fill="none" stroke="black" points="1101,-36 1047,-36 1047,0 1101,0 1101,-36"/>
<text text-anchor="start" x="1060" y="-14.3" font-family="Times,serif" font-size="14.00">night</text>
</g>
<!-- SUBSn50141321n09279968&#45;&gt;n59421288 -->
<g id="edge12" class="edge">
<title>SUBSn50141321n09279968&#45;&gt;n59421288</title>
<path fill="none" stroke="black" d="M1074,-71.7C1074,-63.98 1074,-54.71 1074,-46.11"/>
<polygon fill="black" stroke="black" points="1077.5,-46.1 1074,-36.1 1070.5,-46.1 1077.5,-46.1"/>
</g>
<!-- SUBSn42745745n18712129&#45;&gt;n24033617 -->
<g id="edge36" class="edge">
<title>SUBSn42745745n18712129&#45;&gt;n24033617</title>
<path fill="none" stroke="black" d="M290,-359.7C290,-351.98 290,-342.71 290,-334.11"/>
<polygon fill="black" stroke="black" points="293.5,-334.1 290,-324.1 286.5,-334.1 293.5,-334.1"/>
</g>
<!-- n92604425 -->
<g id="node31" class="node">
<title>n92604425</title>
<polygon fill="none" stroke="black" points="1348.5,-180 1219.5,-180 1219.5,-144 1348.5,-144 1348.5,-180"/>
<text text-anchor="start" x="1227.5" y="-158.3" font-family="Times,serif" font-size="14.00">night, sprinkler, !dry</text>
</g>
<!-- SUBSn20843435n90603567&#45;&gt;n92604425 -->
<g id="edge27" class="edge">
<title>SUBSn20843435n90603567&#45;&gt;n92604425</title>
<path fill="none" stroke="black" d="M1141.31,-221.75C1165.96,-211.61 1202.85,-196.41 1232.95,-184.02"/>
<polygon fill="black" stroke="black" points="1234.55,-187.15 1242.46,-180.1 1231.88,-180.67 1234.55,-187.15"/>
</g>
<!-- SUBSn09279968n92604425 -->
<g id="node32" class="node">
<title>SUBSn09279968n92604425</title>
<text text-anchor="start" x="1171" y="-86.3" font-family="Times,serif" font-size="14.00">{}</text>
</g>
<!-- n92604425&#45;&gt;SUBSn09279968n92604425 -->
<g id="edge15" class="edge">
<title>n92604425&#45;&gt;SUBSn09279968n92604425</title>
<path fill="none" stroke="black" d="M1258.07,-143.88C1241.64,-133.03 1220.48,-119.05 1204.03,-108.19"/>
</g>
<!-- n83324458 -->
<g id="node48" class="node">
<title>n83324458</title>
<polygon fill="none" stroke="black" points="1215,-36 1141,-36 1141,0 1215,0 1215,-36"/>
<text text-anchor="start" x="1149" y="-14.3" font-family="Times,serif" font-size="14.00">night, !dry</text>
</g>
<!-- SUBSn09279968n92604425&#45;&gt;n83324458 -->
<g id="edge42" class="edge">
<title>SUBSn09279968n92604425&#45;&gt;n83324458</title>
<path fill="none" stroke="black" d="M1178,-71.7C1178,-63.98 1178,-54.71 1178,-46.11"/>
<polygon fill="black" stroke="black" points="1181.5,-46.1 1178,-36.1 1174.5,-46.1 1181.5,-46.1"/>
</g>
<!-- n75336531 -->
<g id="node40" class="node">
<title>n75336531</title>
<polygon fill="none" stroke="black" points="382,-180 260,-180 260,-144 382,-144 382,-180"/>
<text text-anchor="start" x="268" y="-158.3" font-family="Times,serif" font-size="14.00">night, bright, !clear</text>
</g>
<!-- SUBSn20843435n91031340&#45;&gt;n75336531 -->
<g id="edge28" class="edge">
<title>SUBSn20843435n91031340&#45;&gt;n75336531</title>
<path fill="none" stroke="black" d="M346.6,-215.7C342.73,-207.73 338.05,-198.1 333.76,-189.26"/>
<polygon fill="black" stroke="black" points="336.83,-187.57 329.31,-180.1 330.53,-190.63 336.83,-187.57"/>
</g>
<!-- n91031340 -->
<g id="node45" class="node">
<title>n91031340</title>
<polygon fill="none" stroke="black" points="452.5,-324 335.5,-324 335.5,-288 452.5,-288 452.5,-324"/>
<text text-anchor="start" x="343.5" y="-302.3" font-family="Times,serif" font-size="14.00">!day, !clear, bright</text>
</g>
<!-- SUBSn14854481n75170134&#45;&gt;n91031340 -->
<g id="edge66" class="edge">
<title>SUBSn14854481n75170134&#45;&gt;n91031340</title>
<path fill="none" stroke="black" d="M394,-359.7C394,-351.98 394,-342.71 394,-334.11"/>
<polygon fill="black" stroke="black" points="397.5,-334.1 394,-324.1 390.5,-334.1 397.5,-334.1"/>
</g>
<!-- n09279968 -->
<g id="node35" class="node">
<title>n09279968</title>
<polygon fill="none" stroke="black" stroke-width="2" points="1201.5,-180 1132.5,-180 1132.5,-144 1201.5,-144 1201.5,-180"/>
<text text-anchor="start" x="1140.5" y="-158.3" font-family="Times,serif" font-size="14.00">!sprinkler</text>
</g>
<!-- n09279968&#45;&gt;SUBSn09279968n70058058 -->
<g id="edge64" class="edge">
<title>n09279968&#45;&gt;SUBSn09279968n70058058</title>
<path fill="none" stroke="black" d="M1132.21,-146.55C1129.13,-145.58 1126.03,-144.71 1123,-144 1014.32,-118.62 664.27,-97.95 564.04,-92.44"/>
</g>
<!-- n09279968&#45;&gt;SUBSn09279968n99587445 -->
<g id="edge41" class="edge">
<title>n09279968&#45;&gt;SUBSn09279968n99587445</title>
<path fill="none" stroke="black" d="M1132.11,-146.93C1129.05,-145.88 1125.98,-144.88 1123,-144 1042.31,-120.13 944.1,-102.8 897.32,-95.23"/>
</g>
<!-- n09279968&#45;&gt;SUBSn09279968n90603567 -->
<g id="edge48" class="edge">
<title>n09279968&#45;&gt;SUBSn09279968n90603567</title>
<path fill="none" stroke="black" d="M1201.61,-146.94C1204.44,-145.91 1207.26,-144.91 1210,-144 1225.9,-138.7 1327.07,-111.54 1376.67,-98.29"/>
</g>
<!-- n09279968&#45;&gt;SUBSn50141321n09279968 -->
<g id="edge31" class="edge">
<title>n09279968&#45;&gt;SUBSn50141321n09279968</title>
<path fill="none" stroke="black" d="M1144.01,-143.7C1129.6,-132.85 1111.09,-118.92 1096.72,-108.1"/>
</g>
<!-- n09279968&#45;&gt;SUBSn09279968n92604425 -->
<g id="edge18" class="edge">
<title>n09279968&#45;&gt;SUBSn09279968n92604425</title>
<path fill="none" stroke="black" d="M1169.72,-143.7C1171.42,-132.85 1173.61,-118.92 1175.31,-108.1"/>
</g>
<!-- n09279968&#45;&gt;SUBSn09279968n52142179 -->
<g id="edge57" class="edge">
<title>n09279968&#45;&gt;SUBSn09279968n52142179</title>
<path fill="none" stroke="black" d="M1200.27,-143.88C1223.39,-131.98 1253.83,-116.31 1275.56,-105.12"/>
</g>
<!-- SUBSn09279968n52142179&#45;&gt;n61422146 -->
<g id="edge55" class="edge">
<title>SUBSn09279968n52142179&#45;&gt;n61422146</title>
<path fill="none" stroke="black" d="M1303,-71.7C1303,-63.98 1303,-54.71 1303,-46.11"/>
<polygon fill="black" stroke="black" points="1306.5,-46.1 1303,-36.1 1299.5,-46.1 1306.5,-46.1"/>
</g>
<!-- n71466376 -->
<g id="node38" class="node">
<title>n71466376</title>
<polygon fill="none" stroke="black" points="170,-180 90,-180 90,-144 170,-144 170,-180"/>
<text text-anchor="start" x="98" y="-158.3" font-family="Times,serif" font-size="14.00">!rain, !clear</text>
</g>
<!-- n42745745 -->
<g id="node39" class="node">
<title>n42745745</title>
<polygon fill="none" stroke="black" stroke-width="2" points="810,-468 756,-468 756,-432 810,-432 810,-468"/>
<text text-anchor="start" x="773.5" y="-446.3" font-family="Times,serif" font-size="14.00">dry</text>
</g>
<!-- n42745745&#45;&gt;SUBSn42745745n90603567 -->
<g id="edge24" class="edge">
<title>n42745745&#45;&gt;SUBSn42745745n90603567</title>
<path fill="none" stroke="black" d="M810.29,-441.51C859.37,-428.04 961.97,-399.87 1010.91,-386.44"/>
</g>
<!-- n42745745&#45;&gt;SUBSn42745745n14854481 -->
<g id="edge62" class="edge">
<title>n42745745&#45;&gt;SUBSn42745745n14854481</title>
<path fill="none" stroke="black" d="M783,-431.7C783,-420.85 783,-406.92 783,-396.1"/>
</g>
<!-- n42745745&#45;&gt;SUBSn42745745n18712129 -->
<g id="edge32" class="edge">
<title>n42745745&#45;&gt;SUBSn42745745n18712129</title>
<path fill="none" stroke="black" d="M755.97,-446.77C688.46,-440.96 507.11,-423.83 358,-396 344.48,-393.48 329.65,-389.87 317.3,-386.63"/>
</g>
<!-- n49964295 -->
<g id="node50" class="node">
<title>n49964295</title>
<polygon fill="none" stroke="black" points="72,-180 0,-180 0,-144 72,-144 72,-180"/>
<text text-anchor="start" x="8" y="-158.3" font-family="Times,serif" font-size="14.00">!rain, !dry</text>
</g>
<!-- SUBSn65348637n18712129&#45;&gt;n49964295 -->
<g id="edge59" class="edge">
<title>SUBSn65348637n18712129&#45;&gt;n49964295</title>
<path fill="none" stroke="black" d="M46.54,-215.7C45,-207.98 43.14,-198.71 41.42,-190.11"/>
<polygon fill="black" stroke="black" points="44.81,-189.22 39.42,-180.1 37.95,-190.6 44.81,-189.22"/>
</g>
<!-- n16855339 -->
<g id="node43" class="node">
<title>n16855339</title>
<polygon fill="none" stroke="black" points="551.5,-180 438.5,-180 438.5,-144 551.5,-144 551.5,-180"/>
<text text-anchor="start" x="446.5" y="-158.3" font-family="Times,serif" font-size="14.00">night, !dry, bright</text>
</g>
<!-- n73479741&#45;&gt;SUBSn73479741n65348637 -->
<g id="edge44" class="edge">
<title>n73479741&#45;&gt;SUBSn73479741n65348637</title>
<path fill="none" stroke="black" d="M186.46,-287.7C174.84,-276.85 159.91,-262.92 148.33,-252.1"/>
</g>
<!-- n91031340&#45;&gt;SUBSn20843435n91031340 -->
<g id="edge35" class="edge">
<title>n91031340&#45;&gt;SUBSn20843435n91031340</title>
<path fill="none" stroke="black" d="M384.36,-287.7C378.31,-276.85 370.55,-262.92 364.53,-252.1"/>
</g>
<!-- SUBSn20843435n14854481&#45;&gt;n16855339 -->
<g id="edge39" class="edge">
<title>SUBSn20843435n14854481&#45;&gt;n16855339</title>
<path fill="none" stroke="black" d="M496.51,-215.7C496.29,-207.98 496.02,-198.71 495.77,-190.11"/>
<polygon fill="black" stroke="black" points="499.27,-190 495.49,-180.1 492.28,-190.2 499.27,-190"/>
</g>
<!-- SUBSn73479741n65348637&#45;&gt;n71466376 -->
<g id="edge63" class="edge">
<title>SUBSn73479741n65348637&#45;&gt;n71466376</title>
<path fill="none" stroke="black" d="M130,-215.7C130,-207.98 130,-198.71 130,-190.11"/>
<polygon fill="black" stroke="black" points="133.5,-190.1 130,-180.1 126.5,-190.1 133.5,-190.1"/>
</g>
<!-- n27891265&#45;&gt;SUBSn20843435n27891265 -->
<g id="edge58" class="edge">
<title>n27891265&#45;&gt;SUBSn20843435n27891265</title>
<path fill="none" stroke="black" d="M904,-287.7C904,-276.85 904,-262.92 904,-252.1"/>
</g>
<!-- n20843433 -->
<g id="node52" class="node">
<title>n20843433</title>
<polygon fill="none" stroke="black" stroke-width="2" points="846,-324 766,-324 766,-288 846,-288 846,-324"/>
<text text-anchor="start" x="774" y="-302.3" font-family="Times,serif" font-size="14.00">!day, !night</text>
</g>
<!-- n20843433&#45;&gt;SUBSn20843433n20843435 -->
<g id="edge65" class="edge">
<title>n20843433&#45;&gt;SUBSn20843433n20843435</title>
<path fill="none" stroke="black" d="M799.82,-287.7C795.95,-276.85 790.97,-262.92 787.11,-252.1"/>
</g>
<!-- SUBSn20843435n27891265&#45;&gt;n25890407 -->
<g id="edge54" class="edge">
<title>SUBSn20843435n27891265&#45;&gt;n25890407</title>
<path fill="none" stroke="black" d="M916.36,-215.7C922.23,-207.47 929.37,-197.48 935.84,-188.42"/>
<polygon fill="black" stroke="black" points="938.82,-190.28 941.78,-180.1 933.12,-186.21 938.82,-190.28"/>
</g>
<!-- n22666086 -->
<g id="node55" class="node">
<title>n22666086</title>
<polygon fill="none" stroke="black" stroke-width="2" points="1215.5,-468 1156.5,-468 1156.5,-432 1215.5,-432 1215.5,-468"/>
<text text-anchor="start" x="1164.5" y="-446.3" font-family="Times,serif" font-size="14.00">!Nnight</text>
</g>
</g>
</svg>
