<?xml version="1.0" encoding="UTF-8" standalone="no"?>
<!DOCTYPE svg PUBLIC "-//W3C//DTD SVG 1.1//EN"
 "http://www.w3.org/Graphics/SVG/1.1/DTD/svg11.dtd">
<!-- Generated by graphviz version 2.43.0 (0)
 -->
<!-- Title: g Pages: 1 -->
<svg width="414pt" height="476pt"
 viewBox="0.00 0.00 414.00 476.00" xmlns="http://www.w3.org/2000/svg" xmlns:xlink="http://www.w3.org/1999/xlink">
<g id="graph0" class="graph" transform="scale(1 1) rotate(0) translate(4 472)">
<title>g</title>
<polygon fill="white" stroke="transparent" points="-4,4 -4,-472 410,-472 410,4 -4,4"/>
<!-- n31191516 -->
<g id="node1" class="node">
<title>n31191516</title>
<polygon fill="none" stroke="black" points="321,-180 267,-180 267,-144 321,-144 321,-180"/>
<text text-anchor="start" x="284.5" y="-158.3" font-family="Times,serif" font-size="14.00">dry</text>
</g>
<!-- SUBSn31191515n31191516 -->
<g id="node2" class="node">
<title>SUBSn31191515n31191516</title>
<text text-anchor="start" x="243" y="-86.3" font-family="Times,serif" font-size="14.00">{}</text>
</g>
<!-- n31191516&#45;&gt;SUBSn31191515n31191516 -->
<g id="edge1" class="edge">
<title>n31191516&#45;&gt;SUBSn31191515n31191516</title>
<path fill="none" stroke="black" d="M283.12,-143.7C276.3,-132.85 267.55,-118.92 260.75,-108.1"/>
</g>
<!-- n00000000 -->
<g id="node6" class="node">
<title>n00000000</title>
<polygon fill="none" stroke="black" points="279,-36 221,-36 221,0 279,0 279,-36"/>
<text text-anchor="start" x="229" y="-14.3" font-family="Times,serif" font-size="14.00">FALSE</text>
</g>
<!-- SUBSn31191515n31191516&#45;&gt;n00000000 -->
<g id="edge3" class="edge">
<title>SUBSn31191515n31191516&#45;&gt;n00000000</title>
<path fill="none" stroke="black" d="M250,-71.7C250,-63.98 250,-54.71 250,-46.11"/>
<polygon fill="black" stroke="black" points="253.5,-46.1 250,-36.1 246.5,-46.1 253.5,-46.1"/>
</g>
<!-- SUBSn90785144n91473941 -->
<g id="node3" class="node">
<title>SUBSn90785144n91473941</title>
<text text-anchor="start" x="101" y="-374.3" font-family="Times,serif" font-size="14.00">{}</text>
</g>
<!-- n99311202 -->
<g id="node4" class="node">
<title>n99311202</title>
<polygon fill="none" stroke="black" points="142,-324 88,-324 88,-288 142,-288 142,-324"/>
<text text-anchor="start" x="105" y="-302.3" font-family="Times,serif" font-size="14.00">day</text>
</g>
<!-- SUBSn90785144n91473941&#45;&gt;n99311202 -->
<g id="edge10" class="edge">
<title>SUBSn90785144n91473941&#45;&gt;n99311202</title>
<path fill="none" stroke="black" d="M109.73,-359.7C110.5,-351.98 111.43,-342.71 112.29,-334.11"/>
<polygon fill="black" stroke="black" points="115.78,-334.4 113.29,-324.1 108.81,-333.71 115.78,-334.4"/>
</g>
<!-- SUBSn75726912n99311202 -->
<g id="node10" class="node">
<title>SUBSn75726912n99311202</title>
<text text-anchor="start" x="202" y="-230.3" font-family="Times,serif" font-size="14.00">{}</text>
</g>
<!-- n99311202&#45;&gt;SUBSn75726912n99311202 -->
<g id="edge9" class="edge">
<title>n99311202&#45;&gt;SUBSn75726912n99311202</title>
<path fill="none" stroke="black" d="M138.24,-287.7C152.81,-276.85 171.51,-262.92 186.03,-252.1"/>
</g>
<!-- SUBSn30349718n61541233 -->
<g id="node5" class="node">
<title>SUBSn30349718n61541233</title>
<text text-anchor="start" x="291" y="-230.3" font-family="Times,serif" font-size="14.00">{}</text>
</g>
<!-- SUBSn30349718n61541233&#45;&gt;n31191516 -->
<g id="edge2" class="edge">
<title>SUBSn30349718n61541233&#45;&gt;n31191516</title>
<path fill="none" stroke="black" d="M297.01,-215.7C296.57,-207.98 296.04,-198.71 295.55,-190.11"/>
<polygon fill="black" stroke="black" points="299.04,-189.89 294.98,-180.1 292.05,-190.29 299.04,-189.89"/>
</g>
<!-- n07477849 -->
<g id="node7" class="node">
<title>n07477849</title>
<polygon fill="none" stroke="black" stroke-width="2" points="270.5,-468 161.5,-468 161.5,-432 270.5,-432 270.5,-468"/>
<text text-anchor="start" x="169.5" y="-446.3" font-family="Times,serif" font-size="14.00">!day, !dry, bright</text>
</g>
<!-- SUBSn59138838n07477849 -->
<g id="node8" class="node">
<title>SUBSn59138838n07477849</title>
<text text-anchor="start" x="209" y="-374.3" font-family="Times,serif" font-size="14.00">{}</text>
</g>
<!-- n07477849&#45;&gt;SUBSn59138838n07477849 -->
<g id="edge4" class="edge">
<title>n07477849&#45;&gt;SUBSn59138838n07477849</title>
<path fill="none" stroke="black" d="M216,-431.7C216,-420.85 216,-406.92 216,-396.1"/>
</g>
<!-- n75726912 -->
<g id="node16" class="node">
<title>n75726912</title>
<polygon fill="none" stroke="black" points="244,-324 174,-324 174,-288 244,-288 244,-324"/>
<text text-anchor="start" x="182" y="-302.3" font-family="Times,serif" font-size="14.00">!day, !dry</text>
</g>
<!-- SUBSn59138838n07477849&#45;&gt;n75726912 -->
<g id="edge15" class="edge">
<title>SUBSn59138838n07477849&#45;&gt;n75726912</title>
<path fill="none" stroke="black" d="M214.27,-359.7C213.5,-351.98 212.57,-342.71 211.71,-334.11"/>
<polygon fill="black" stroke="black" points="215.19,-333.71 210.71,-324.1 208.22,-334.4 215.19,-333.71"/>
</g>
<!-- n90785144 -->
<g id="node9" class="node">
<title>n90785144</title>
<polygon fill="none" stroke="black" stroke-width="2" points="54,-468 0,-468 0,-432 54,-432 54,-468"/>
<text text-anchor="start" x="10.5" y="-446.3" font-family="Times,serif" font-size="14.00">!night</text>
</g>
<!-- n90785144&#45;&gt;SUBSn90785144n91473941 -->
<g id="edge12" class="edge">
<title>n90785144&#45;&gt;SUBSn90785144n91473941</title>
<path fill="none" stroke="black" d="M47.02,-431.7C59.58,-420.85 75.7,-406.92 88.21,-396.1"/>
</g>
<!-- n31191515 -->
<g id="node11" class="node">
<title>n31191515</title>
<polygon fill="none" stroke="black" points="241,-180 187,-180 187,-144 241,-144 241,-180"/>
<text text-anchor="start" x="202.5" y="-158.3" font-family="Times,serif" font-size="14.00">!dry</text>
</g>
<!-- SUBSn75726912n99311202&#45;&gt;n31191515 -->
<g id="edge5" class="edge">
<title>SUBSn75726912n99311202&#45;&gt;n31191515</title>
<path fill="none" stroke="black" d="M210.24,-215.7C210.79,-207.98 211.45,-198.71 212.06,-190.11"/>
<polygon fill="black" stroke="black" points="215.56,-190.33 212.78,-180.1 208.57,-189.83 215.56,-190.33"/>
</g>
<!-- n31191515&#45;&gt;SUBSn31191515n31191516 -->
<g id="edge6" class="edge">
<title>n31191515&#45;&gt;SUBSn31191515n31191516</title>
<path fill="none" stroke="black" d="M222.9,-143.7C228.48,-132.85 235.64,-118.92 241.2,-108.1"/>
</g>
<!-- n91473941 -->
<g id="node12" class="node">
<title>n91473941</title>
<polygon fill="none" stroke="black" stroke-width="2" points="143.5,-468 72.5,-468 72.5,-432 143.5,-432 143.5,-468"/>
<text text-anchor="start" x="80.5" y="-446.3" font-family="Times,serif" font-size="14.00">night, day</text>
</g>
<!-- n91473941&#45;&gt;SUBSn90785144n91473941 -->
<g id="edge7" class="edge">
<title>n91473941&#45;&gt;SUBSn90785144n91473941</title>
<path fill="none" stroke="black" d="M108,-431.7C108,-420.85 108,-406.92 108,-396.1"/>
</g>
<!-- n30349718 -->
<g id="node13" class="node">
<title>n30349718</title>
<polygon fill="none" stroke="black" stroke-width="2" points="334,-324 262,-324 262,-288 334,-288 334,-324"/>
<text text-anchor="start" x="270" y="-302.3" font-family="Times,serif" font-size="14.00">dry, !clear</text>
</g>
<!-- n30349718&#45;&gt;SUBSn30349718n61541233 -->
<g id="edge11" class="edge">
<title>n30349718&#45;&gt;SUBSn30349718n61541233</title>
<path fill="none" stroke="black" d="M298,-287.7C298,-276.85 298,-262.92 298,-252.1"/>
</g>
<!-- n59138838 -->
<g id="node14" class="node">
<title>n59138838</title>
<polygon fill="none" stroke="black" stroke-width="2" points="343,-468 289,-468 289,-432 343,-432 343,-468"/>
<text text-anchor="start" x="297.5" y="-446.3" font-family="Times,serif" font-size="14.00">!bright</text>
</g>
<!-- n59138838&#45;&gt;SUBSn59138838n07477849 -->
<g id="edge8" class="edge">
<title>n59138838&#45;&gt;SUBSn59138838n07477849</title>
<path fill="none" stroke="black" d="M291.54,-431.88C276.04,-421.03 256.07,-407.05 240.56,-396.19"/>
</g>
<!-- n61541233 -->
<g id="node15" class="node">
<title>n61541233</title>
<polygon fill="none" stroke="black" stroke-width="2" points="406,-324 352,-324 352,-288 406,-288 406,-324"/>
<text text-anchor="start" x="365.5" y="-302.3" font-family="Times,serif" font-size="14.00">clear</text>
</g>
<!-- n61541233&#45;&gt;SUBSn30349718n61541233 -->
<g id="edge14" class="edge">
<title>n61541233&#45;&gt;SUBSn30349718n61541233</title>
<path fill="none" stroke="black" d="M358.98,-287.7C346.42,-276.85 330.3,-262.92 317.79,-252.1"/>
</g>
<!-- n75726912&#45;&gt;SUBSn75726912n99311202 -->
<g id="edge13" class="edge">
<title>n75726912&#45;&gt;SUBSn75726912n99311202</title>
<path fill="none" stroke="black" d="M209,-287.7C209,-276.85 209,-262.92 209,-252.1"/>
</g>
</g>
</svg>
