<?xml version="1.0" encoding="UTF-8" standalone="no"?>
<!DOCTYPE svg PUBLIC "-//W3C//DTD SVG 1.1//EN"
 "http://www.w3.org/Graphics/SVG/1.1/DTD/svg11.dtd">
<!-- Generated by graphviz version 2.43.0 (0)
 -->
<!-- Title: g Pages: 1 -->
<svg width="134pt" height="188pt"
 viewBox="0.00 0.00 134.00 188.00" xmlns="http://www.w3.org/2000/svg" xmlns:xlink="http://www.w3.org/1999/xlink">
<g id="graph0" class="graph" transform="scale(1 1) rotate(0) translate(4 184)">
<title>g</title>
<polygon fill="white" stroke="transparent" points="-4,4 -4,-184 130,-184 130,4 -4,4"/>
<!-- n85753850 -->
<g id="node1" class="node">
<title>n85753850</title>
<polygon fill="none" stroke="black" stroke-width="2" points="54,-180 0,-180 0,-144 54,-144 54,-180"/>
<text text-anchor="start" x="11.5" y="-158.3" font-family="Times,serif" font-size="14.00">!q, !p</text>
</g>
<!-- SUBSn85753848n85753850 -->
<g id="node3" class="node">
<title>SUBSn85753848n85753850</title>
<text text-anchor="start" x="56" y="-86.3" font-family="Times,serif" font-size="14.00">{}</text>
</g>
<!-- n85753850&#45;&gt;SUBSn85753848n85753850 -->
<g id="edge2" class="edge">
<title>n85753850&#45;&gt;SUBSn85753848n85753850</title>
<path fill="none" stroke="black" d="M35.9,-143.7C41.48,-132.85 48.64,-118.92 54.2,-108.1"/>
</g>
<!-- n23507347 -->
<g id="node2" class="node">
<title>n23507347</title>
<polygon fill="none" stroke="black" points="54,-36 0,-36 0,0 54,0 54,-36"/>
<text text-anchor="start" x="14" y="-14.3" font-family="Times,serif" font-size="14.00">!q, q</text>
</g>
<!-- SUBSn85753848n85753850&#45;&gt;n23507347 -->
<g id="edge1" class="edge">
<title>SUBSn85753848n85753850&#45;&gt;n23507347</title>
<path fill="none" stroke="black" d="M54.1,-71.7C50,-63.73 45.05,-54.1 40.51,-45.26"/>
<polygon fill="black" stroke="black" points="43.48,-43.4 35.8,-36.1 37.26,-46.6 43.48,-43.4"/>
</g>
<!-- n12851339 -->
<g id="node5" class="node">
<title>n12851339</title>
<polygon fill="none" stroke="black" points="126,-36 72,-36 72,0 126,0 126,-36"/>
<text text-anchor="start" x="86" y="-14.3" font-family="Times,serif" font-size="14.00">!p, p</text>
</g>
<!-- SUBSn85753848n85753850&#45;&gt;n12851339 -->
<g id="edge4" class="edge">
<title>SUBSn85753848n85753850&#45;&gt;n12851339</title>
<path fill="none" stroke="black" d="M71.9,-71.7C76,-63.73 80.95,-54.1 85.49,-45.26"/>
<polygon fill="black" stroke="black" points="88.74,-46.6 90.2,-36.1 82.52,-43.4 88.74,-46.6"/>
</g>
<!-- n85753848 -->
<g id="node4" class="node">
<title>n85753848</title>
<polygon fill="none" stroke="black" stroke-width="2" points="126,-180 72,-180 72,-144 126,-144 126,-180"/>
<text text-anchor="start" x="88" y="-158.3" font-family="Times,serif" font-size="14.00">q, p</text>
</g>
<!-- n85753848&#45;&gt;SUBSn85753848n85753850 -->
<g id="edge3" class="edge">
<title>n85753848&#45;&gt;SUBSn85753848n85753850</title>
<path fill="none" stroke="black" d="M90.1,-143.7C84.52,-132.85 77.36,-118.92 71.8,-108.1"/>
</g>
</g>
</svg>
