<?xml version="1.0" encoding="UTF-8" standalone="no"?>
<!DOCTYPE svg PUBLIC "-//W3C//DTD SVG 1.1//EN"
 "http://www.w3.org/Graphics/SVG/1.1/DTD/svg11.dtd">
<!-- Generated by graphviz version 2.43.0 (0)
 -->
<!-- Title: g Pages: 1 -->
<svg width="134pt" height="188pt"
 viewBox="0.00 0.00 134.00 188.00" xmlns="http://www.w3.org/2000/svg" xmlns:xlink="http://www.w3.org/1999/xlink">
<g id="graph0" class="graph" transform="scale(1 1) rotate(0) translate(4 184)">
<title>g</title>
<polygon fill="white" stroke="transparent" points="-4,4 -4,-184 130,-184 130,4 -4,4"/>
<!-- SUBSn16775920n16775921 -->
<g id="node1" class="node">
<title>SUBSn16775920n16775921</title>
<text text-anchor="start" x="56" y="-86.3" font-family="Times,serif" font-size="14.00">{}</text>
</g>
<!-- n00000000 -->
<g id="node2" class="node">
<title>n00000000</title>
<polygon fill="none" stroke="black" points="92,-36 34,-36 34,0 92,0 92,-36"/>
<text text-anchor="start" x="42" y="-14.3" font-family="Times,serif" font-size="14.00">FALSE</text>
</g>
<!-- SUBSn16775920n16775921&#45;&gt;n00000000 -->
<g id="edge1" class="edge">
<title>SUBSn16775920n16775921&#45;&gt;n00000000</title>
<path fill="none" stroke="black" d="M63,-71.7C63,-63.98 63,-54.71 63,-46.11"/>
<polygon fill="black" stroke="black" points="66.5,-46.1 63,-36.1 59.5,-46.1 66.5,-46.1"/>
</g>
<!-- n16775920 -->
<g id="node3" class="node">
<title>n16775920</title>
<polygon fill="none" stroke="black" stroke-width="2" points="54,-180 0,-180 0,-144 54,-144 54,-180"/>
<text text-anchor="start" x="23.5" y="-158.3" font-family="Times,serif" font-size="14.00">p</text>
</g>
<!-- n16775920&#45;&gt;SUBSn16775920n16775921 -->
<g id="edge2" class="edge">
<title>n16775920&#45;&gt;SUBSn16775920n16775921</title>
<path fill="none" stroke="black" d="M35.9,-143.7C41.48,-132.85 48.64,-118.92 54.2,-108.1"/>
</g>
<!-- n16775921 -->
<g id="node4" class="node">
<title>n16775921</title>
<polygon fill="none" stroke="black" stroke-width="2" points="126,-180 72,-180 72,-144 126,-144 126,-180"/>
<text text-anchor="start" x="93" y="-158.3" font-family="Times,serif" font-size="14.00">!p</text>
</g>
<!-- n16775921&#45;&gt;SUBSn16775920n16775921 -->
<g id="edge3" class="edge">
<title>n16775921&#45;&gt;SUBSn16775920n16775921</title>
<path fill="none" stroke="black" d="M90.1,-143.7C84.52,-132.85 77.36,-118.92 71.8,-108.1"/>
</g>
</g>
</svg>
