<?xml version="1.0" encoding="UTF-8" standalone="no"?>
<!DOCTYPE svg PUBLIC "-//W3C//DTD SVG 1.1//EN"
 "http://www.w3.org/Graphics/SVG/1.1/DTD/svg11.dtd">
<!-- Generated by graphviz version 2.43.0 (0)
 -->
<!-- Title: g Pages: 1 -->
<svg width="906pt" height="476pt"
 viewBox="0.00 0.00 905.80 476.00" xmlns="http://www.w3.org/2000/svg" xmlns:xlink="http://www.w3.org/1999/xlink">
<g id="graph0" class="graph" transform="scale(1 1) rotate(0) translate(4 472)">
<title>g</title>
<polygon fill="white" stroke="transparent" points="-4,4 -4,-472 901.8,-472 901.8,4 -4,4"/>
<!-- SUBSn87895183n19457276 -->
<g id="node1" class="node">
<title>SUBSn87895183n19457276</title>
<text text-anchor="start" x="82" y="-374.3" font-family="Times,serif" font-size="14.00">{}</text>
</g>
<!-- n13265102 -->
<g id="node4" class="node">
<title>n13265102</title>
<polygon fill="none" stroke="black" points="142,-324 36,-324 36,-288 142,-288 142,-324"/>
<text text-anchor="start" x="44" y="-302.3" font-family="Times,serif" font-size="14.00">!brown, yummy</text>
</g>
<!-- SUBSn87895183n19457276&#45;&gt;n13265102 -->
<g id="edge2" class="edge">
<title>SUBSn87895183n19457276&#45;&gt;n13265102</title>
<path fill="none" stroke="black" d="M89,-359.7C89,-351.98 89,-342.71 89,-334.11"/>
<polygon fill="black" stroke="black" points="92.5,-334.1 89,-324.1 85.5,-334.1 92.5,-334.1"/>
</g>
<!-- SUBSn42537450n99482743 -->
<g id="node2" class="node">
<title>SUBSn42537450n99482743</title>
<text text-anchor="start" x="708" y="-374.3" font-family="Times,serif" font-size="14.00">{}</text>
</g>
<!-- n98227512 -->
<g id="node3" class="node">
<title>n98227512</title>
<polygon fill="none" stroke="black" points="764,-324 666,-324 666,-288 764,-288 764,-324"/>
<text text-anchor="start" x="674" y="-302.3" font-family="Times,serif" font-size="14.00">!brown, !sweet</text>
</g>
<!-- SUBSn42537450n99482743&#45;&gt;n98227512 -->
<g id="edge1" class="edge">
<title>SUBSn42537450n99482743&#45;&gt;n98227512</title>
<path fill="none" stroke="black" d="M715,-359.7C715,-351.98 715,-342.71 715,-334.11"/>
<polygon fill="black" stroke="black" points="718.5,-334.1 715,-324.1 711.5,-334.1 718.5,-334.1"/>
</g>
<!-- SUBSn09466629n98227512 -->
<g id="node7" class="node">
<title>SUBSn09466629n98227512</title>
<text text-anchor="start" x="675" y="-230.3" font-family="Times,serif" font-size="14.00">{}</text>
</g>
<!-- n98227512&#45;&gt;SUBSn09466629n98227512 -->
<g id="edge41" class="edge">
<title>n98227512&#45;&gt;SUBSn09466629n98227512</title>
<path fill="none" stroke="black" d="M706.84,-287.7C701.73,-276.85 695.16,-262.92 690.06,-252.1"/>
</g>
<!-- SUBSn98227512n98227511 -->
<g id="node17" class="node">
<title>SUBSn98227512n98227511</title>
<text text-anchor="start" x="430" y="-230.3" font-family="Times,serif" font-size="14.00">{}</text>
</g>
<!-- n98227512&#45;&gt;SUBSn98227512n98227511 -->
<g id="edge33" class="edge">
<title>n98227512&#45;&gt;SUBSn98227512n98227511</title>
<path fill="none" stroke="black" d="M665.7,-290.3C662.76,-289.5 659.85,-288.73 657,-288 584.71,-269.49 565.2,-270.85 493,-252 483.56,-249.54 473.33,-246.53 464.22,-243.73"/>
</g>
<!-- SUBSn98227512n88363881 -->
<g id="node28" class="node">
<title>SUBSn98227512n88363881</title>
<text text-anchor="start" x="795" y="-230.3" font-family="Times,serif" font-size="14.00">{}</text>
</g>
<!-- n98227512&#45;&gt;SUBSn98227512n88363881 -->
<g id="edge17" class="edge">
<title>n98227512&#45;&gt;SUBSn98227512n88363881</title>
<path fill="none" stroke="black" d="M736.51,-287.7C749.99,-276.85 767.3,-262.92 780.74,-252.1"/>
</g>
<!-- SUBSn09466629n13265102 -->
<g id="node9" class="node">
<title>SUBSn09466629n13265102</title>
<text text-anchor="start" x="197" y="-230.3" font-family="Times,serif" font-size="14.00">{}</text>
</g>
<!-- n13265102&#45;&gt;SUBSn09466629n13265102 -->
<g id="edge30" class="edge">
<title>n13265102&#45;&gt;SUBSn09466629n13265102</title>
<path fill="none" stroke="black" d="M117.13,-287.88C135.35,-276.79 158.95,-262.42 176.95,-251.47"/>
</g>
<!-- SUBSn98227511n13265102 -->
<g id="node29" class="node">
<title>SUBSn98227511n13265102</title>
<text text-anchor="start" x="82" y="-230.3" font-family="Times,serif" font-size="14.00">{}</text>
</g>
<!-- n13265102&#45;&gt;SUBSn98227511n13265102 -->
<g id="edge39" class="edge">
<title>n13265102&#45;&gt;SUBSn98227511n13265102</title>
<path fill="none" stroke="black" d="M89,-287.7C89,-276.85 89,-262.92 89,-252.1"/>
</g>
<!-- n19457276 -->
<g id="node5" class="node">
<title>n19457276</title>
<polygon fill="none" stroke="black" stroke-width="2" points="255.5,-468 140.5,-468 140.5,-432 255.5,-432 255.5,-468"/>
<text text-anchor="start" x="148.5" y="-446.3" font-family="Times,serif" font-size="14.00">!brown, chocolate</text>
</g>
<!-- n19457276&#45;&gt;SUBSn87895183n19457276 -->
<g id="edge37" class="edge">
<title>n19457276&#45;&gt;SUBSn87895183n19457276</title>
<path fill="none" stroke="black" d="M171.34,-431.88C154.44,-421.03 132.68,-407.05 115.77,-396.19"/>
</g>
<!-- SUBSn98227511n19457276 -->
<g id="node6" class="node">
<title>SUBSn98227511n19457276</title>
<text text-anchor="start" x="247" y="-374.3" font-family="Times,serif" font-size="14.00">{}</text>
</g>
<!-- n19457276&#45;&gt;SUBSn98227511n19457276 -->
<g id="edge3" class="edge">
<title>n19457276&#45;&gt;SUBSn98227511n19457276</title>
<path fill="none" stroke="black" d="M211.84,-431.7C220.52,-420.85 231.67,-406.92 240.32,-396.1"/>
</g>
<!-- SUBSn09466629n19457276 -->
<g id="node15" class="node">
<title>SUBSn09466629n19457276</title>
<text text-anchor="start" x="327" y="-230.3" font-family="Times,serif" font-size="14.00">{}</text>
</g>
<!-- n19457276&#45;&gt;SUBSn09466629n19457276 -->
<g id="edge15" class="edge">
<title>n19457276&#45;&gt;SUBSn09466629n19457276</title>
<path fill="none" stroke="black" d="M190.72,-431.86C178.56,-400.23 158.28,-331.94 189,-288 202.82,-268.23 268.89,-250.06 306.9,-241.01"/>
</g>
<!-- n76402570 -->
<g id="node32" class="node">
<title>n76402570</title>
<polygon fill="none" stroke="black" points="309.5,-324 198.5,-324 198.5,-288 309.5,-288 309.5,-324"/>
<text text-anchor="start" x="206.5" y="-302.3" font-family="Times,serif" font-size="14.00">chocolate, !sweet</text>
</g>
<!-- SUBSn98227511n19457276&#45;&gt;n76402570 -->
<g id="edge24" class="edge">
<title>SUBSn98227511n19457276&#45;&gt;n76402570</title>
<path fill="none" stroke="black" d="M254,-359.7C254,-351.98 254,-342.71 254,-334.11"/>
<polygon fill="black" stroke="black" points="257.5,-334.1 254,-324.1 250.5,-334.1 257.5,-334.1"/>
</g>
<!-- n88363882 -->
<g id="node8" class="node">
<title>n88363882</title>
<polygon fill="none" stroke="black" points="732,-180 632,-180 632,-144 732,-144 732,-180"/>
<text text-anchor="start" x="640" y="-158.3" font-family="Times,serif" font-size="14.00">!cookie, !sweet</text>
</g>
<!-- SUBSn09466629n98227512&#45;&gt;n88363882 -->
<g id="edge4" class="edge">
<title>SUBSn09466629n98227512&#45;&gt;n88363882</title>
<path fill="none" stroke="black" d="M682,-215.7C682,-207.98 682,-198.71 682,-190.11"/>
<polygon fill="black" stroke="black" points="685.5,-190.1 682,-180.1 678.5,-190.1 685.5,-190.1"/>
</g>
<!-- n76871268 -->
<g id="node23" class="node">
<title>n76871268</title>
<polygon fill="none" stroke="black" points="257.5,-180 150.5,-180 150.5,-144 257.5,-144 257.5,-180"/>
<text text-anchor="start" x="158.5" y="-158.3" font-family="Times,serif" font-size="14.00">!cookie, yummy</text>
</g>
<!-- SUBSn09466629n13265102&#45;&gt;n76871268 -->
<g id="edge11" class="edge">
<title>SUBSn09466629n13265102&#45;&gt;n76871268</title>
<path fill="none" stroke="black" d="M204,-215.7C204,-207.98 204,-198.71 204,-190.11"/>
<polygon fill="black" stroke="black" points="207.5,-190.1 204,-180.1 200.5,-190.1 207.5,-190.1"/>
</g>
<!-- n88363881 -->
<g id="node10" class="node">
<title>n88363881</title>
<polygon fill="none" stroke="black" stroke-width="2" points="876.5,-468 781.5,-468 781.5,-432 876.5,-432 876.5,-468"/>
<text text-anchor="start" x="789.5" y="-446.3" font-family="Times,serif" font-size="14.00">!cookie, sweet</text>
</g>
<!-- SUBSn98227511n88363881 -->
<g id="node11" class="node">
<title>SUBSn98227511n88363881</title>
<text text-anchor="start" x="591" y="-374.3" font-family="Times,serif" font-size="14.00">{}</text>
</g>
<!-- n88363881&#45;&gt;SUBSn98227511n88363881 -->
<g id="edge5" class="edge">
<title>n88363881&#45;&gt;SUBSn98227511n88363881</title>
<path fill="none" stroke="black" d="M781.42,-434.58C734.27,-420.29 663.7,-398.91 625.29,-387.27"/>
</g>
<!-- SUBSn99482743n88363881 -->
<g id="node12" class="node">
<title>SUBSn99482743n88363881</title>
<text text-anchor="start" x="822" y="-374.3" font-family="Times,serif" font-size="14.00">{}</text>
</g>
<!-- n88363881&#45;&gt;SUBSn99482743n88363881 -->
<g id="edge26" class="edge">
<title>n88363881&#45;&gt;SUBSn99482743n88363881</title>
<path fill="none" stroke="black" d="M829,-431.7C829,-420.85 829,-406.92 829,-396.1"/>
</g>
<!-- n88363881&#45;&gt;SUBSn98227512n88363881 -->
<g id="edge35" class="edge">
<title>n88363881&#45;&gt;SUBSn98227512n88363881</title>
<path fill="none" stroke="black" d="M844.85,-431.79C870.75,-401.48 916.61,-337.15 889,-288 876.35,-265.49 849.83,-251.41 829.38,-243.48"/>
</g>
<!-- n09466629 -->
<g id="node24" class="node">
<title>n09466629</title>
<polygon fill="none" stroke="black" points="647.5,-324 548.5,-324 548.5,-288 647.5,-288 647.5,-324"/>
<text text-anchor="start" x="556.5" y="-302.3" font-family="Times,serif" font-size="14.00">!cookie, brown</text>
</g>
<!-- SUBSn98227511n88363881&#45;&gt;n09466629 -->
<g id="edge38" class="edge">
<title>SUBSn98227511n88363881&#45;&gt;n09466629</title>
<path fill="none" stroke="black" d="M598,-359.7C598,-351.98 598,-342.71 598,-334.11"/>
<polygon fill="black" stroke="black" points="601.5,-334.1 598,-324.1 594.5,-334.1 601.5,-334.1"/>
</g>
<!-- n07176883 -->
<g id="node13" class="node">
<title>n07176883</title>
<polygon fill="none" stroke="black" points="880,-324 782,-324 782,-288 880,-288 880,-324"/>
<text text-anchor="start" x="790" y="-302.3" font-family="Times,serif" font-size="14.00">!cookie, !burnt</text>
</g>
<!-- SUBSn99482743n88363881&#45;&gt;n07176883 -->
<g id="edge6" class="edge">
<title>SUBSn99482743n88363881&#45;&gt;n07176883</title>
<path fill="none" stroke="black" d="M829.49,-359.7C829.71,-351.98 829.98,-342.71 830.23,-334.11"/>
<polygon fill="black" stroke="black" points="833.72,-334.2 830.51,-324.1 826.73,-334 833.72,-334.2"/>
</g>
<!-- n42537450 -->
<g id="node14" class="node">
<title>n42537450</title>
<polygon fill="none" stroke="black" stroke-width="2" points="566,-468 474,-468 474,-432 566,-432 566,-468"/>
<text text-anchor="start" x="482" y="-446.3" font-family="Times,serif" font-size="14.00">!brown, burnt</text>
</g>
<!-- n42537450&#45;&gt;SUBSn42537450n99482743 -->
<g id="edge7" class="edge">
<title>n42537450&#45;&gt;SUBSn42537450n99482743</title>
<path fill="none" stroke="black" d="M566.21,-432.41C604.05,-418.83 656.31,-400.07 687.76,-388.78"/>
</g>
<!-- SUBSn09466629n42537450 -->
<g id="node20" class="node">
<title>SUBSn09466629n42537450</title>
<text text-anchor="start" x="522" y="-230.3" font-family="Times,serif" font-size="14.00">{}</text>
</g>
<!-- n42537450&#45;&gt;SUBSn09466629n42537450 -->
<g id="edge19" class="edge">
<title>n42537450&#45;&gt;SUBSn09466629n42537450</title>
<path fill="none" stroke="black" d="M520.72,-431.85C522.41,-391.78 526.59,-292.38 528.28,-252.23"/>
</g>
<!-- SUBSn98227511n42537450 -->
<g id="node30" class="node">
<title>SUBSn98227511n42537450</title>
<text text-anchor="start" x="441" y="-374.3" font-family="Times,serif" font-size="14.00">{}</text>
</g>
<!-- n42537450&#45;&gt;SUBSn98227511n42537450 -->
<g id="edge32" class="edge">
<title>n42537450&#45;&gt;SUBSn98227511n42537450</title>
<path fill="none" stroke="black" d="M502.2,-431.7C491.04,-420.85 476.71,-406.92 465.59,-396.1"/>
</g>
<!-- n84096710 -->
<g id="node16" class="node">
<title>n84096710</title>
<polygon fill="none" stroke="black" points="392,-180 276,-180 276,-144 392,-144 392,-180"/>
<text text-anchor="start" x="284" y="-158.3" font-family="Times,serif" font-size="14.00">!cookie, chocolate</text>
</g>
<!-- SUBSn09466629n19457276&#45;&gt;n84096710 -->
<g id="edge8" class="edge">
<title>SUBSn09466629n19457276&#45;&gt;n84096710</title>
<path fill="none" stroke="black" d="M334,-215.7C334,-207.98 334,-198.71 334,-190.11"/>
<polygon fill="black" stroke="black" points="337.5,-190.1 334,-180.1 330.5,-190.1 337.5,-190.1"/>
</g>
<!-- n48029011 -->
<g id="node18" class="node">
<title>n48029011</title>
<polygon fill="none" stroke="black" points="464,-180 410,-180 410,-144 464,-144 464,-180"/>
<text text-anchor="start" x="419" y="-158.3" font-family="Times,serif" font-size="14.00">!sweet</text>
</g>
<!-- SUBSn98227512n98227511&#45;&gt;n48029011 -->
<g id="edge9" class="edge">
<title>SUBSn98227512n98227511&#45;&gt;n48029011</title>
<path fill="none" stroke="black" d="M437,-215.7C437,-207.98 437,-198.71 437,-190.11"/>
<polygon fill="black" stroke="black" points="440.5,-190.1 437,-180.1 433.5,-190.1 440.5,-190.1"/>
</g>
<!-- SUBSn09466628n09466629 -->
<g id="node19" class="node">
<title>SUBSn09466628n09466629</title>
<text text-anchor="start" x="696" y="-86.3" font-family="Times,serif" font-size="14.00">{}</text>
</g>
<!-- n59665129 -->
<g id="node26" class="node">
<title>n59665129</title>
<polygon fill="none" stroke="black" points="731.5,-36 674.5,-36 674.5,0 731.5,0 731.5,-36"/>
<text text-anchor="start" x="682.5" y="-14.3" font-family="Times,serif" font-size="14.00">!cookie</text>
</g>
<!-- SUBSn09466628n09466629&#45;&gt;n59665129 -->
<g id="edge16" class="edge">
<title>SUBSn09466628n09466629&#45;&gt;n59665129</title>
<path fill="none" stroke="black" d="M703,-71.7C703,-63.98 703,-54.71 703,-46.11"/>
<polygon fill="black" stroke="black" points="706.5,-46.1 703,-36.1 699.5,-46.1 706.5,-46.1"/>
</g>
<!-- n07176884 -->
<g id="node21" class="node">
<title>n07176884</title>
<polygon fill="none" stroke="black" points="575.5,-180 482.5,-180 482.5,-144 575.5,-144 575.5,-180"/>
<text text-anchor="start" x="490.5" y="-158.3" font-family="Times,serif" font-size="14.00">!cookie, burnt</text>
</g>
<!-- SUBSn09466629n42537450&#45;&gt;n07176884 -->
<g id="edge10" class="edge">
<title>SUBSn09466629n42537450&#45;&gt;n07176884</title>
<path fill="none" stroke="black" d="M529,-215.7C529,-207.98 529,-198.71 529,-190.11"/>
<polygon fill="black" stroke="black" points="532.5,-190.1 529,-180.1 525.5,-190.1 532.5,-190.1"/>
</g>
<!-- n98227511 -->
<g id="node22" class="node">
<title>n98227511</title>
<polygon fill="none" stroke="black" stroke-width="2" points="423,-468 329,-468 329,-432 423,-432 423,-468"/>
<text text-anchor="start" x="337" y="-446.3" font-family="Times,serif" font-size="14.00">brown, !sweet</text>
</g>
<!-- n98227511&#45;&gt;SUBSn98227511n19457276 -->
<g id="edge36" class="edge">
<title>n98227511&#45;&gt;SUBSn98227511n19457276</title>
<path fill="none" stroke="black" d="M346.16,-431.88C326.26,-420.46 300.33,-405.58 281.04,-394.51"/>
</g>
<!-- n98227511&#45;&gt;SUBSn98227511n88363881 -->
<g id="edge42" class="edge">
<title>n98227511&#45;&gt;SUBSn98227511n88363881</title>
<path fill="none" stroke="black" d="M423.08,-434.15C468.01,-419.99 534.13,-399.14 570.87,-387.55"/>
</g>
<!-- n98227511&#45;&gt;SUBSn98227512n98227511 -->
<g id="edge12" class="edge">
<title>n98227511&#45;&gt;SUBSn98227512n98227511</title>
<path fill="none" stroke="black" d="M375.03,-431.78C373.96,-401.47 374.59,-337.12 395,-288 400.59,-274.56 410.61,-261.7 419.47,-252.02"/>
</g>
<!-- n98227511&#45;&gt;SUBSn98227511n13265102 -->
<g id="edge20" class="edge">
<title>n98227511&#45;&gt;SUBSn98227511n13265102</title>
<path fill="none" stroke="black" d="M375.02,-431.98C372.18,-399 361.09,-326.27 318,-288 314.18,-284.6 175.87,-254.02 116.08,-240.91"/>
</g>
<!-- n98227511&#45;&gt;SUBSn98227511n42537450 -->
<g id="edge40" class="edge">
<title>n98227511&#45;&gt;SUBSn98227511n42537450</title>
<path fill="none" stroke="black" d="M393.8,-431.7C404.96,-420.85 419.29,-406.92 430.41,-396.1"/>
</g>
<!-- n09466629&#45;&gt;SUBSn09466629n98227512 -->
<g id="edge13" class="edge">
<title>n09466629&#45;&gt;SUBSn09466629n98227512</title>
<path fill="none" stroke="black" d="M618.76,-287.7C631.78,-276.85 648.5,-262.92 661.47,-252.1"/>
</g>
<!-- n09466629&#45;&gt;SUBSn09466629n13265102 -->
<g id="edge21" class="edge">
<title>n09466629&#45;&gt;SUBSn09466629n13265102</title>
<path fill="none" stroke="black" d="M548.36,-296.29C488.85,-285.84 386.12,-267.75 298,-252 275.47,-247.97 249.92,-243.35 231.14,-239.94"/>
</g>
<!-- n09466629&#45;&gt;SUBSn09466629n19457276 -->
<g id="edge14" class="edge">
<title>n09466629&#45;&gt;SUBSn09466629n19457276</title>
<path fill="none" stroke="black" d="M548.34,-291.83C492.93,-277.14 405.28,-253.9 361.21,-242.21"/>
</g>
<!-- n09466629&#45;&gt;SUBSn09466628n09466629 -->
<g id="edge27" class="edge">
<title>n09466629&#45;&gt;SUBSn09466628n09466629</title>
<path fill="none" stroke="black" d="M596.38,-287.93C594.28,-256.72 593.85,-189.49 623,-144 635.49,-124.5 658.01,-110.55 675.97,-101.87"/>
</g>
<!-- n09466629&#45;&gt;SUBSn09466629n42537450 -->
<g id="edge22" class="edge">
<title>n09466629&#45;&gt;SUBSn09466629n42537450</title>
<path fill="none" stroke="black" d="M580.94,-287.7C570.25,-276.85 556.52,-262.92 545.86,-252.1"/>
</g>
<!-- n09466628 -->
<g id="node25" class="node">
<title>n09466628</title>
<polygon fill="none" stroke="black" points="854,-180 750,-180 750,-144 854,-144 854,-180"/>
<text text-anchor="start" x="758" y="-158.3" font-family="Times,serif" font-size="14.00">!cookie, !brown</text>
</g>
<!-- n09466628&#45;&gt;SUBSn09466628n09466629 -->
<g id="edge23" class="edge">
<title>n09466628&#45;&gt;SUBSn09466628n09466629</title>
<path fill="none" stroke="black" d="M777.78,-143.88C762.44,-133.03 742.67,-119.05 727.31,-108.19"/>
</g>
<!-- n99482743 -->
<g id="node27" class="node">
<title>n99482743</title>
<polygon fill="none" stroke="black" stroke-width="2" points="762,-468 670,-468 670,-432 762,-432 762,-468"/>
<text text-anchor="start" x="678" y="-446.3" font-family="Times,serif" font-size="14.00">!burnt, !sweet</text>
</g>
<!-- n99482743&#45;&gt;SUBSn42537450n99482743 -->
<g id="edge34" class="edge">
<title>n99482743&#45;&gt;SUBSn42537450n99482743</title>
<path fill="none" stroke="black" d="M715.75,-431.7C715.6,-420.85 715.4,-406.92 715.24,-396.1"/>
</g>
<!-- n99482743&#45;&gt;SUBSn99482743n88363881 -->
<g id="edge28" class="edge">
<title>n99482743&#45;&gt;SUBSn99482743n88363881</title>
<path fill="none" stroke="black" d="M743.64,-431.88C761.28,-420.95 784.06,-406.84 801.64,-395.95"/>
</g>
<!-- SUBSn98227512n88363881&#45;&gt;n09466628 -->
<g id="edge18" class="edge">
<title>SUBSn98227512n88363881&#45;&gt;n09466628</title>
<path fill="none" stroke="black" d="M802,-215.7C802,-207.98 802,-198.71 802,-190.11"/>
<polygon fill="black" stroke="black" points="805.5,-190.1 802,-180.1 798.5,-190.1 805.5,-190.1"/>
</g>
<!-- n84565408 -->
<g id="node31" class="node">
<title>n84565408</title>
<polygon fill="none" stroke="black" points="132.5,-180 31.5,-180 31.5,-144 132.5,-144 132.5,-180"/>
<text text-anchor="start" x="39.5" y="-158.3" font-family="Times,serif" font-size="14.00">yummy, !sweet</text>
</g>
<!-- SUBSn98227511n13265102&#45;&gt;n84565408 -->
<g id="edge31" class="edge">
<title>SUBSn98227511n13265102&#45;&gt;n84565408</title>
<path fill="none" stroke="black" d="M87.27,-215.7C86.5,-207.98 85.57,-198.71 84.71,-190.11"/>
<polygon fill="black" stroke="black" points="88.19,-189.71 83.71,-180.1 81.22,-190.4 88.19,-189.71"/>
</g>
<!-- n99482744 -->
<g id="node33" class="node">
<title>n99482744</title>
<polygon fill="none" stroke="black" points="492,-324 404,-324 404,-288 492,-288 492,-324"/>
<text text-anchor="start" x="412" y="-302.3" font-family="Times,serif" font-size="14.00">burnt, !sweet</text>
</g>
<!-- SUBSn98227511n42537450&#45;&gt;n99482744 -->
<g id="edge25" class="edge">
<title>SUBSn98227511n42537450&#45;&gt;n99482744</title>
<path fill="none" stroke="black" d="M448,-359.7C448,-351.98 448,-342.71 448,-334.11"/>
<polygon fill="black" stroke="black" points="451.5,-334.1 448,-324.1 444.5,-334.1 451.5,-334.1"/>
</g>
<!-- n87895183 -->
<g id="node34" class="node">
<title>n87895183</title>
<polygon fill="none" stroke="black" stroke-width="2" points="122,-468 0,-468 0,-432 122,-432 122,-468"/>
<text text-anchor="start" x="8" y="-446.3" font-family="Times,serif" font-size="14.00">yummy, !chocolate</text>
</g>
<!-- n87895183&#45;&gt;SUBSn87895183n19457276 -->
<g id="edge29" class="edge">
<title>n87895183&#45;&gt;SUBSn87895183n19457276</title>
<path fill="none" stroke="black" d="M67.92,-431.7C72.26,-420.85 77.83,-406.92 82.16,-396.1"/>
</g>
</g>
</svg>
