<?xml version="1.0" encoding="UTF-8" standalone="no"?>
<!DOCTYPE svg PUBLIC "-//W3C//DTD SVG 1.1//EN"
 "http://www.w3.org/Graphics/SVG/1.1/DTD/svg11.dtd">
<!-- Generated by graphviz version 2.43.0 (0)
 -->
<!-- Title: g Pages: 1 -->
<svg width="433pt" height="476pt"
 viewBox="0.00 0.00 432.50 476.00" xmlns="http://www.w3.org/2000/svg" xmlns:xlink="http://www.w3.org/1999/xlink">
<g id="graph0" class="graph" transform="scale(1 1) rotate(0) translate(4 472)">
<title>g</title>
<polygon fill="white" stroke="transparent" points="-4,4 -4,-472 428.5,-472 428.5,4 -4,4"/>
<!-- SUBSn91449719n25947848 -->
<g id="node1" class="node">
<title>SUBSn91449719n25947848</title>
<text text-anchor="start" x="299.5" y="-374.3" font-family="Times,serif" font-size="14.00">{}</text>
</g>
<!-- n65501870 -->
<g id="node4" class="node">
<title>n65501870</title>
<polygon fill="none" stroke="black" points="321.5,-324 267.5,-324 267.5,-288 321.5,-288 321.5,-324"/>
<text text-anchor="start" x="277.5" y="-302.3" font-family="Times,serif" font-size="14.00">!burnt</text>
</g>
<!-- SUBSn91449719n25947848&#45;&gt;n65501870 -->
<g id="edge11" class="edge">
<title>SUBSn91449719n25947848&#45;&gt;n65501870</title>
<path fill="none" stroke="black" d="M303.53,-359.7C302.21,-351.98 300.62,-342.71 299.15,-334.11"/>
<polygon fill="black" stroke="black" points="302.57,-333.37 297.43,-324.1 295.67,-334.55 302.57,-333.37"/>
</g>
<!-- n69808434 -->
<g id="node2" class="node">
<title>n69808434</title>
<polygon fill="none" stroke="black" points="252.5,-180 196.5,-180 196.5,-144 252.5,-144 252.5,-180"/>
<text text-anchor="start" x="204.5" y="-158.3" font-family="Times,serif" font-size="14.00">!brown</text>
</g>
<!-- SUBSn69808434n69808433 -->
<g id="node11" class="node">
<title>SUBSn69808434n69808433</title>
<text text-anchor="start" x="180.5" y="-86.3" font-family="Times,serif" font-size="14.00">{}</text>
</g>
<!-- n69808434&#45;&gt;SUBSn69808434n69808433 -->
<g id="edge4" class="edge">
<title>n69808434&#45;&gt;SUBSn69808434n69808433</title>
<path fill="none" stroke="black" d="M215.35,-143.7C209.62,-132.85 202.26,-118.92 196.54,-108.1"/>
</g>
<!-- n00000000 -->
<g id="node3" class="node">
<title>n00000000</title>
<polygon fill="none" stroke="black" points="216.5,-36 158.5,-36 158.5,0 216.5,0 216.5,-36"/>
<text text-anchor="start" x="166.5" y="-14.3" font-family="Times,serif" font-size="14.00">FALSE</text>
</g>
<!-- SUBSn35310303n65501870 -->
<g id="node5" class="node">
<title>SUBSn35310303n65501870</title>
<text text-anchor="start" x="217.5" y="-230.3" font-family="Times,serif" font-size="14.00">{}</text>
</g>
<!-- n65501870&#45;&gt;SUBSn35310303n65501870 -->
<g id="edge1" class="edge">
<title>n65501870&#45;&gt;SUBSn35310303n65501870</title>
<path fill="none" stroke="black" d="M277.2,-287.7C266.35,-276.85 252.42,-262.92 241.6,-252.1"/>
</g>
<!-- SUBSn35310303n65501870&#45;&gt;n69808434 -->
<g id="edge9" class="edge">
<title>SUBSn35310303n65501870&#45;&gt;n69808434</title>
<path fill="none" stroke="black" d="M224.5,-215.7C224.5,-207.98 224.5,-198.71 224.5,-190.11"/>
<polygon fill="black" stroke="black" points="228,-190.1 224.5,-180.1 221,-190.1 228,-190.1"/>
</g>
<!-- n03539998 -->
<g id="node6" class="node">
<title>n03539998</title>
<polygon fill="none" stroke="black" stroke-width="2" points="73,-468 0,-468 0,-432 73,-432 73,-468"/>
<text text-anchor="start" x="8" y="-446.3" font-family="Times,serif" font-size="14.00">!chocolate</text>
</g>
<!-- SUBSn03539998n70380545 -->
<g id="node7" class="node">
<title>SUBSn03539998n70380545</title>
<text text-anchor="start" x="159.5" y="-374.3" font-family="Times,serif" font-size="14.00">{}</text>
</g>
<!-- n03539998&#45;&gt;SUBSn03539998n70380545 -->
<g id="edge2" class="edge">
<title>n03539998&#45;&gt;SUBSn03539998n70380545</title>
<path fill="none" stroke="black" d="M68.3,-431.88C90.1,-420.14 118.71,-404.73 139.42,-393.58"/>
</g>
<!-- n35310303 -->
<g id="node9" class="node">
<title>n35310303</title>
<polygon fill="none" stroke="black" points="225.5,-324 133.5,-324 133.5,-288 225.5,-288 225.5,-324"/>
<text text-anchor="start" x="141.5" y="-302.3" font-family="Times,serif" font-size="14.00">burnt, !brown</text>
</g>
<!-- SUBSn03539998n70380545&#45;&gt;n35310303 -->
<g id="edge3" class="edge">
<title>SUBSn03539998n70380545&#45;&gt;n35310303</title>
<path fill="none" stroke="black" d="M169.71,-359.7C171.15,-351.98 172.87,-342.71 174.46,-334.11"/>
<polygon fill="black" stroke="black" points="177.94,-334.58 176.32,-324.1 171.06,-333.3 177.94,-334.58"/>
</g>
<!-- n91449719 -->
<g id="node8" class="node">
<title>n91449719</title>
<polygon fill="none" stroke="black" stroke-width="2" points="352.5,-468 260.5,-468 260.5,-432 352.5,-432 352.5,-468"/>
<text text-anchor="start" x="268.5" y="-446.3" font-family="Times,serif" font-size="14.00">!burnt, !sweet</text>
</g>
<!-- n91449719&#45;&gt;SUBSn91449719n25947848 -->
<g id="edge12" class="edge">
<title>n91449719&#45;&gt;SUBSn91449719n25947848</title>
<path fill="none" stroke="black" d="M306.5,-431.7C306.5,-420.85 306.5,-406.92 306.5,-396.1"/>
</g>
<!-- n35310303&#45;&gt;SUBSn35310303n65501870 -->
<g id="edge6" class="edge">
<title>n35310303&#45;&gt;SUBSn35310303n65501870</title>
<path fill="none" stroke="black" d="M190.62,-287.7C197.6,-276.85 206.55,-262.92 213.5,-252.1"/>
</g>
<!-- n70380545 -->
<g id="node10" class="node">
<title>n70380545</title>
<polygon fill="none" stroke="black" stroke-width="2" points="242,-468 91,-468 91,-432 242,-432 242,-468"/>
<text text-anchor="start" x="99" y="-446.3" font-family="Times,serif" font-size="14.00">burnt, !brown, chocolate</text>
</g>
<!-- n70380545&#45;&gt;SUBSn03539998n70380545 -->
<g id="edge10" class="edge">
<title>n70380545&#45;&gt;SUBSn03539998n70380545</title>
<path fill="none" stroke="black" d="M166.5,-431.7C166.5,-420.85 166.5,-406.92 166.5,-396.1"/>
</g>
<!-- SUBSn69808434n69808433&#45;&gt;n00000000 -->
<g id="edge7" class="edge">
<title>SUBSn69808434n69808433&#45;&gt;n00000000</title>
<path fill="none" stroke="black" d="M187.5,-71.7C187.5,-63.98 187.5,-54.71 187.5,-46.11"/>
<polygon fill="black" stroke="black" points="191,-46.1 187.5,-36.1 184,-46.1 191,-46.1"/>
</g>
<!-- n69808433 -->
<g id="node12" class="node">
<title>n69808433</title>
<polygon fill="none" stroke="black" stroke-width="2" points="178.5,-180 124.5,-180 124.5,-144 178.5,-144 178.5,-180"/>
<text text-anchor="start" x="134" y="-158.3" font-family="Times,serif" font-size="14.00">brown</text>
</g>
<!-- n69808433&#45;&gt;SUBSn69808434n69808433 -->
<g id="edge5" class="edge">
<title>n69808433&#45;&gt;SUBSn69808434n69808433</title>
<path fill="none" stroke="black" d="M160.4,-143.7C165.98,-132.85 173.14,-118.92 178.7,-108.1"/>
</g>
<!-- n25947848 -->
<g id="node13" class="node">
<title>n25947848</title>
<polygon fill="none" stroke="black" stroke-width="2" points="424.5,-468 370.5,-468 370.5,-432 424.5,-432 424.5,-468"/>
<text text-anchor="start" x="382" y="-446.3" font-family="Times,serif" font-size="14.00">sweet</text>
</g>
<!-- n25947848&#45;&gt;SUBSn91449719n25947848 -->
<g id="edge8" class="edge">
<title>n25947848&#45;&gt;SUBSn91449719n25947848</title>
<path fill="none" stroke="black" d="M375.01,-431.7C360.9,-420.85 342.79,-406.92 328.74,-396.1"/>
</g>
</g>
</svg>
