<?xml version="1.0" encoding="UTF-8" standalone="no"?>
<!DOCTYPE svg PUBLIC "-//W3C//DTD SVG 1.1//EN"
 "http://www.w3.org/Graphics/SVG/1.1/DTD/svg11.dtd">
<!-- Generated by graphviz version 2.43.0 (0)
 -->
<!-- Title: g Pages: 1 -->
<svg width="386pt" height="476pt"
 viewBox="0.00 0.00 385.50 476.00" xmlns="http://www.w3.org/2000/svg" xmlns:xlink="http://www.w3.org/1999/xlink">
<g id="graph0" class="graph" transform="scale(1 1) rotate(0) translate(4 472)">
<title>g</title>
<polygon fill="white" stroke="transparent" points="-4,4 -4,-472 381.5,-472 381.5,4 -4,4"/>
<!-- n29891878 -->
<g id="node1" class="node">
<title>n29891878</title>
<polygon fill="none" stroke="black" points="255,-180 201,-180 201,-144 255,-144 255,-180"/>
<text text-anchor="start" x="213.5" y="-158.3" font-family="Times,serif" font-size="14.00">burnt</text>
</g>
<!-- SUBSn29891879n29891878 -->
<g id="node4" class="node">
<title>SUBSn29891879n29891878</title>
<text text-anchor="start" x="173" y="-86.3" font-family="Times,serif" font-size="14.00">{}</text>
</g>
<!-- n29891878&#45;&gt;SUBSn29891879n29891878 -->
<g id="edge7" class="edge">
<title>n29891878&#45;&gt;SUBSn29891879n29891878</title>
<path fill="none" stroke="black" d="M216.13,-143.7C208.69,-132.85 199.14,-118.92 191.73,-108.1"/>
</g>
<!-- SUBSn19595094n58188527 -->
<g id="node2" class="node">
<title>SUBSn19595094n58188527</title>
<text text-anchor="start" x="227" y="-374.3" font-family="Times,serif" font-size="14.00">{}</text>
</g>
<!-- n23007816 -->
<g id="node3" class="node">
<title>n23007816</title>
<polygon fill="none" stroke="black" points="286,-324 182,-324 182,-288 286,-288 286,-324"/>
<text text-anchor="start" x="190" y="-302.3" font-family="Times,serif" font-size="14.00">burnt, chocolate</text>
</g>
<!-- SUBSn19595094n58188527&#45;&gt;n23007816 -->
<g id="edge1" class="edge">
<title>SUBSn19595094n58188527&#45;&gt;n23007816</title>
<path fill="none" stroke="black" d="M234,-359.7C234,-351.98 234,-342.71 234,-334.11"/>
<polygon fill="black" stroke="black" points="237.5,-334.1 234,-324.1 230.5,-334.1 237.5,-334.1"/>
</g>
<!-- SUBSn47891743n23007816 -->
<g id="node7" class="node">
<title>SUBSn47891743n23007816</title>
<text text-anchor="start" x="227" y="-230.3" font-family="Times,serif" font-size="14.00">{}</text>
</g>
<!-- n23007816&#45;&gt;SUBSn47891743n23007816 -->
<g id="edge4" class="edge">
<title>n23007816&#45;&gt;SUBSn47891743n23007816</title>
<path fill="none" stroke="black" d="M234,-287.7C234,-276.85 234,-262.92 234,-252.1"/>
</g>
<!-- n00000000 -->
<g id="node9" class="node">
<title>n00000000</title>
<polygon fill="none" stroke="black" points="209,-36 151,-36 151,0 209,0 209,-36"/>
<text text-anchor="start" x="159" y="-14.3" font-family="Times,serif" font-size="14.00">FALSE</text>
</g>
<!-- SUBSn29891879n29891878&#45;&gt;n00000000 -->
<g id="edge6" class="edge">
<title>SUBSn29891879n29891878&#45;&gt;n00000000</title>
<path fill="none" stroke="black" d="M180,-71.7C180,-63.98 180,-54.71 180,-46.11"/>
<polygon fill="black" stroke="black" points="183.5,-46.1 180,-36.1 176.5,-46.1 183.5,-46.1"/>
</g>
<!-- n33866250 -->
<g id="node5" class="node">
<title>n33866250</title>
<polygon fill="none" stroke="black" stroke-width="2" points="92,-324 0,-324 0,-288 92,-288 92,-324"/>
<text text-anchor="start" x="8" y="-302.3" font-family="Times,serif" font-size="14.00">!burnt, !sweet</text>
</g>
<!-- SUBSn33866250n96025630 -->
<g id="node6" class="node">
<title>SUBSn33866250n96025630</title>
<text text-anchor="start" x="130" y="-230.3" font-family="Times,serif" font-size="14.00">{}</text>
</g>
<!-- n33866250&#45;&gt;SUBSn33866250n96025630 -->
<g id="edge2" class="edge">
<title>n33866250&#45;&gt;SUBSn33866250n96025630</title>
<path fill="none" stroke="black" d="M68.49,-287.7C82.6,-276.85 100.71,-262.92 114.76,-252.1"/>
</g>
<!-- n29891879 -->
<g id="node8" class="node">
<title>n29891879</title>
<polygon fill="none" stroke="black" points="171,-180 117,-180 117,-144 171,-144 171,-180"/>
<text text-anchor="start" x="127" y="-158.3" font-family="Times,serif" font-size="14.00">!burnt</text>
</g>
<!-- SUBSn33866250n96025630&#45;&gt;n29891879 -->
<g id="edge10" class="edge">
<title>SUBSn33866250n96025630&#45;&gt;n29891879</title>
<path fill="none" stroke="black" d="M138.73,-215.7C139.5,-207.98 140.43,-198.71 141.29,-190.11"/>
<polygon fill="black" stroke="black" points="144.78,-190.4 142.29,-180.1 137.81,-189.71 144.78,-190.4"/>
</g>
<!-- SUBSn47891743n23007816&#45;&gt;n29891878 -->
<g id="edge3" class="edge">
<title>SUBSn47891743n23007816&#45;&gt;n29891878</title>
<path fill="none" stroke="black" d="M232.52,-215.7C231.86,-207.98 231.06,-198.71 230.32,-190.11"/>
<polygon fill="black" stroke="black" points="233.81,-189.77 229.47,-180.1 226.83,-190.37 233.81,-189.77"/>
</g>
<!-- n29891879&#45;&gt;SUBSn29891879n29891878 -->
<g id="edge5" class="edge">
<title>n29891879&#45;&gt;SUBSn29891879n29891878</title>
<path fill="none" stroke="black" d="M152.9,-143.7C158.48,-132.85 165.64,-118.92 171.2,-108.1"/>
</g>
<!-- n19595094 -->
<g id="node10" class="node">
<title>n19595094</title>
<polygon fill="none" stroke="black" stroke-width="2" points="249.5,-468 98.5,-468 98.5,-432 249.5,-432 249.5,-468"/>
<text text-anchor="start" x="106.5" y="-446.3" font-family="Times,serif" font-size="14.00">chocolate, burnt, !brown</text>
</g>
<!-- n19595094&#45;&gt;SUBSn19595094n58188527 -->
<g id="edge8" class="edge">
<title>n19595094&#45;&gt;SUBSn19595094n58188527</title>
<path fill="none" stroke="black" d="M188.83,-431.7C198.13,-420.85 210.07,-406.92 219.34,-396.1"/>
</g>
<!-- n47891743 -->
<g id="node11" class="node">
<title>n47891743</title>
<polygon fill="none" stroke="black" stroke-width="2" points="377.5,-324 304.5,-324 304.5,-288 377.5,-288 377.5,-324"/>
<text text-anchor="start" x="312.5" y="-302.3" font-family="Times,serif" font-size="14.00">!chocolate</text>
</g>
<!-- n47891743&#45;&gt;SUBSn47891743n23007816 -->
<g id="edge9" class="edge">
<title>n47891743&#45;&gt;SUBSn47891743n23007816</title>
<path fill="none" stroke="black" d="M314.82,-287.88C298.24,-277.03 276.88,-263.05 260.28,-252.19"/>
</g>
<!-- n96025630 -->
<g id="node12" class="node">
<title>n96025630</title>
<polygon fill="none" stroke="black" stroke-width="2" points="164,-324 110,-324 110,-288 164,-288 164,-324"/>
<text text-anchor="start" x="121.5" y="-302.3" font-family="Times,serif" font-size="14.00">sweet</text>
</g>
<!-- n96025630&#45;&gt;SUBSn33866250n96025630 -->
<g id="edge11" class="edge">
<title>n96025630&#45;&gt;SUBSn33866250n96025630</title>
<path fill="none" stroke="black" d="M137,-287.7C137,-276.85 137,-262.92 137,-252.1"/>
</g>
<!-- n58188527 -->
<g id="node13" class="node">
<title>n58188527</title>
<polygon fill="none" stroke="black" stroke-width="2" points="322,-468 268,-468 268,-432 322,-432 322,-468"/>
<text text-anchor="start" x="277.5" y="-446.3" font-family="Times,serif" font-size="14.00">brown</text>
</g>
<!-- n58188527&#45;&gt;SUBSn19595094n58188527 -->
<g id="edge12" class="edge">
<title>n58188527&#45;&gt;SUBSn19595094n58188527</title>
<path fill="none" stroke="black" d="M279.92,-431.7C270.47,-420.85 258.33,-406.92 248.91,-396.1"/>
</g>
</g>
</svg>
