<?xml version="1.0" encoding="UTF-8" standalone="no"?>
<!DOCTYPE svg PUBLIC "-//W3C//DTD SVG 1.1//EN"
 "http://www.w3.org/Graphics/SVG/1.1/DTD/svg11.dtd">
<!-- Generated by graphviz version 2.43.0 (0)
 -->
<!-- Title: g Pages: 1 -->
<svg width="328pt" height="476pt"
 viewBox="0.00 0.00 328.00 476.00" xmlns="http://www.w3.org/2000/svg" xmlns:xlink="http://www.w3.org/1999/xlink">
<g id="graph0" class="graph" transform="scale(1 1) rotate(0) translate(4 472)">
<title>g</title>
<polygon fill="white" stroke="transparent" points="-4,4 -4,-472 324,-472 324,4 -4,4"/>
<!-- n18745061 -->
<g id="node1" class="node">
<title>n18745061</title>
<polygon fill="none" stroke="black" points="229,-180 175,-180 175,-144 229,-144 229,-180"/>
<text text-anchor="start" x="189" y="-158.3" font-family="Times,serif" font-size="14.00">!Dry</text>
</g>
<!-- SUBSn18745061n18745060 -->
<g id="node2" class="node">
<title>SUBSn18745061n18745060</title>
<text text-anchor="start" x="147" y="-86.3" font-family="Times,serif" font-size="14.00">{}</text>
</g>
<!-- n18745061&#45;&gt;SUBSn18745061n18745060 -->
<g id="edge1" class="edge">
<title>n18745061&#45;&gt;SUBSn18745061n18745060</title>
<path fill="none" stroke="black" d="M190.13,-143.7C182.69,-132.85 173.14,-118.92 165.73,-108.1"/>
</g>
<!-- n00000000 -->
<g id="node10" class="node">
<title>n00000000</title>
<polygon fill="none" stroke="black" points="183,-36 125,-36 125,0 183,0 183,-36"/>
<text text-anchor="start" x="133" y="-14.3" font-family="Times,serif" font-size="14.00">FALSE</text>
</g>
<!-- SUBSn18745061n18745060&#45;&gt;n00000000 -->
<g id="edge5" class="edge">
<title>SUBSn18745061n18745060&#45;&gt;n00000000</title>
<path fill="none" stroke="black" d="M154,-71.7C154,-63.98 154,-54.71 154,-46.11"/>
<polygon fill="black" stroke="black" points="157.5,-46.1 154,-36.1 150.5,-46.1 157.5,-46.1"/>
</g>
<!-- n17933751 -->
<g id="node3" class="node">
<title>n17933751</title>
<polygon fill="none" stroke="black" points="247.5,-324 168.5,-324 168.5,-288 247.5,-288 247.5,-324"/>
<text text-anchor="start" x="176.5" y="-302.3" font-family="Times,serif" font-size="14.00">!Dry, !Rain</text>
</g>
<!-- SUBSn36678813n17933751 -->
<g id="node6" class="node">
<title>SUBSn36678813n17933751</title>
<text text-anchor="start" x="201" y="-230.3" font-family="Times,serif" font-size="14.00">{}</text>
</g>
<!-- n17933751&#45;&gt;SUBSn36678813n17933751 -->
<g id="edge6" class="edge">
<title>n17933751&#45;&gt;SUBSn36678813n17933751</title>
<path fill="none" stroke="black" d="M208,-287.7C208,-276.85 208,-262.92 208,-252.1"/>
</g>
<!-- SUBSn57098402n38353341 -->
<g id="node4" class="node">
<title>SUBSn57098402n38353341</title>
<text text-anchor="start" x="104" y="-230.3" font-family="Times,serif" font-size="14.00">{}</text>
</g>
<!-- n18745060 -->
<g id="node5" class="node">
<title>n18745060</title>
<polygon fill="none" stroke="black" points="145,-180 91,-180 91,-144 145,-144 145,-180"/>
<text text-anchor="start" x="107" y="-158.3" font-family="Times,serif" font-size="14.00">Dry</text>
</g>
<!-- SUBSn57098402n38353341&#45;&gt;n18745060 -->
<g id="edge2" class="edge">
<title>SUBSn57098402n38353341&#45;&gt;n18745060</title>
<path fill="none" stroke="black" d="M112.73,-215.7C113.5,-207.98 114.43,-198.71 115.29,-190.11"/>
<polygon fill="black" stroke="black" points="118.78,-190.4 116.29,-180.1 111.81,-189.71 118.78,-190.4"/>
</g>
<!-- n18745060&#45;&gt;SUBSn18745061n18745060 -->
<g id="edge7" class="edge">
<title>n18745060&#45;&gt;SUBSn18745061n18745060</title>
<path fill="none" stroke="black" d="M126.9,-143.7C132.48,-132.85 139.64,-118.92 145.2,-108.1"/>
</g>
<!-- SUBSn36678813n17933751&#45;&gt;n18745061 -->
<g id="edge10" class="edge">
<title>SUBSn36678813n17933751&#45;&gt;n18745061</title>
<path fill="none" stroke="black" d="M206.52,-215.7C205.86,-207.98 205.06,-198.71 204.32,-190.11"/>
<polygon fill="black" stroke="black" points="207.81,-189.77 203.47,-180.1 200.83,-190.37 207.81,-189.77"/>
</g>
<!-- n57098402 -->
<g id="node7" class="node">
<title>n57098402</title>
<polygon fill="none" stroke="black" stroke-width="2" points="54,-324 0,-324 0,-288 54,-288 54,-324"/>
<text text-anchor="start" x="12" y="-302.3" font-family="Times,serif" font-size="14.00">Clear</text>
</g>
<!-- n57098402&#45;&gt;SUBSn57098402n38353341 -->
<g id="edge3" class="edge">
<title>n57098402&#45;&gt;SUBSn57098402n38353341</title>
<path fill="none" stroke="black" d="M47.76,-287.7C60.78,-276.85 77.5,-262.92 90.47,-252.1"/>
</g>
<!-- n36678813 -->
<g id="node8" class="node">
<title>n36678813</title>
<polygon fill="none" stroke="black" stroke-width="2" points="320,-324 266,-324 266,-288 320,-288 320,-324"/>
<text text-anchor="start" x="280" y="-302.3" font-family="Times,serif" font-size="14.00">Rain</text>
</g>
<!-- n36678813&#45;&gt;SUBSn36678813n17933751 -->
<g id="edge12" class="edge">
<title>n36678813&#45;&gt;SUBSn36678813n17933751</title>
<path fill="none" stroke="black" d="M271.99,-287.7C258.81,-276.85 241.9,-262.92 228.77,-252.1"/>
</g>
<!-- SUBSn53506117n40460236 -->
<g id="node9" class="node">
<title>SUBSn53506117n40460236</title>
<text text-anchor="start" x="201" y="-374.3" font-family="Times,serif" font-size="14.00">{}</text>
</g>
<!-- SUBSn53506117n40460236&#45;&gt;n17933751 -->
<g id="edge4" class="edge">
<title>SUBSn53506117n40460236&#45;&gt;n17933751</title>
<path fill="none" stroke="black" d="M208,-359.7C208,-351.98 208,-342.71 208,-334.11"/>
<polygon fill="black" stroke="black" points="211.5,-334.1 208,-324.1 204.5,-334.1 211.5,-334.1"/>
</g>
<!-- n40460236 -->
<g id="node11" class="node">
<title>n40460236</title>
<polygon fill="none" stroke="black" stroke-width="2" points="199.5,-468 122.5,-468 122.5,-432 199.5,-432 199.5,-468"/>
<text text-anchor="start" x="130.5" y="-446.3" font-family="Times,serif" font-size="14.00">Wet, !Rain</text>
</g>
<!-- n40460236&#45;&gt;SUBSn53506117n40460236 -->
<g id="edge8" class="edge">
<title>n40460236&#45;&gt;SUBSn53506117n40460236</title>
<path fill="none" stroke="black" d="M172.62,-431.7C179.9,-420.85 189.26,-406.92 196.52,-396.1"/>
</g>
<!-- n38353341 -->
<g id="node12" class="node">
<title>n38353341</title>
<polygon fill="none" stroke="black" stroke-width="2" points="150,-324 72,-324 72,-288 150,-288 150,-324"/>
<text text-anchor="start" x="80" y="-302.3" font-family="Times,serif" font-size="14.00">!Clear, Dry</text>
</g>
<!-- n38353341&#45;&gt;SUBSn57098402n38353341 -->
<g id="edge9" class="edge">
<title>n38353341&#45;&gt;SUBSn57098402n38353341</title>
<path fill="none" stroke="black" d="M111,-287.7C111,-276.85 111,-262.92 111,-252.1"/>
</g>
<!-- n53506117 -->
<g id="node13" class="node">
<title>n53506117</title>
<polygon fill="none" stroke="black" stroke-width="2" points="294.5,-468 217.5,-468 217.5,-432 294.5,-432 294.5,-468"/>
<text text-anchor="start" x="225.5" y="-446.3" font-family="Times,serif" font-size="14.00">!Wet, !Dry</text>
</g>
<!-- n53506117&#45;&gt;SUBSn53506117n40460236 -->
<g id="edge11" class="edge">
<title>n53506117&#45;&gt;SUBSn53506117n40460236</title>
<path fill="none" stroke="black" d="M244.13,-431.7C236.69,-420.85 227.14,-406.92 219.73,-396.1"/>
</g>
</g>
</svg>
