<?xml version="1.0" encoding="UTF-8" standalone="no"?>
<!DOCTYPE svg PUBLIC "-//W3C//DTD SVG 1.1//EN"
 "http://www.w3.org/Graphics/SVG/1.1/DTD/svg11.dtd">
<!-- Generated by graphviz version 2.43.0 (0)
 -->
<!-- Title: g Pages: 1 -->
<svg width="451pt" height="476pt"
 viewBox="0.00 0.00 451.00 476.00" xmlns="http://www.w3.org/2000/svg" xmlns:xlink="http://www.w3.org/1999/xlink">
<g id="graph0" class="graph" transform="scale(1 1) rotate(0) translate(4 472)">
<title>g</title>
<polygon fill="white" stroke="transparent" points="-4,4 -4,-472 447,-472 447,4 -4,4"/>
<!-- n93450807 -->
<g id="node1" class="node">
<title>n93450807</title>
<polygon fill="none" stroke="black" points="317,-324 241,-324 241,-288 317,-288 317,-324"/>
<text text-anchor="start" x="249" y="-302.3" font-family="Times,serif" font-size="14.00">!Dry, !Day</text>
</g>
<!-- SUBSn93450807n41436514 -->
<g id="node7" class="node">
<title>SUBSn93450807n41436514</title>
<text text-anchor="start" x="188" y="-230.3" font-family="Times,serif" font-size="14.00">{}</text>
</g>
<!-- n93450807&#45;&gt;SUBSn93450807n41436514 -->
<g id="edge5" class="edge">
<title>n93450807&#45;&gt;SUBSn93450807n41436514</title>
<path fill="none" stroke="black" d="M258.24,-287.7C245.22,-276.85 228.5,-262.92 215.53,-252.1"/>
</g>
<!-- SUBSn29492841n77478545 -->
<g id="node2" class="node">
<title>SUBSn29492841n77478545</title>
<text text-anchor="start" x="104" y="-230.3" font-family="Times,serif" font-size="14.00">{}</text>
</g>
<!-- n52014295 -->
<g id="node3" class="node">
<title>n52014295</title>
<polygon fill="none" stroke="black" points="141,-180 87,-180 87,-144 141,-144 141,-180"/>
<text text-anchor="start" x="102.5" y="-158.3" font-family="Times,serif" font-size="14.00">Day</text>
</g>
<!-- SUBSn29492841n77478545&#45;&gt;n52014295 -->
<g id="edge1" class="edge">
<title>SUBSn29492841n77478545&#45;&gt;n52014295</title>
<path fill="none" stroke="black" d="M111.74,-215.7C112.07,-207.98 112.47,-198.71 112.84,-190.11"/>
<polygon fill="black" stroke="black" points="116.34,-190.25 113.27,-180.1 109.34,-189.95 116.34,-190.25"/>
</g>
<!-- SUBSn52014295n52014294 -->
<g id="node6" class="node">
<title>SUBSn52014295n52014294</title>
<text text-anchor="start" x="143" y="-86.3" font-family="Times,serif" font-size="14.00">{}</text>
</g>
<!-- n52014295&#45;&gt;SUBSn52014295n52014294 -->
<g id="edge3" class="edge">
<title>n52014295&#45;&gt;SUBSn52014295n52014294</title>
<path fill="none" stroke="black" d="M122.9,-143.7C128.48,-132.85 135.64,-118.92 141.2,-108.1"/>
</g>
<!-- n67889057 -->
<g id="node4" class="node">
<title>n67889057</title>
<polygon fill="none" stroke="black" stroke-width="2" points="307,-468 251,-468 251,-432 307,-432 307,-468"/>
<text text-anchor="start" x="259" y="-446.3" font-family="Times,serif" font-size="14.00">!Bright</text>
</g>
<!-- SUBSn74438249n67889057 -->
<g id="node5" class="node">
<title>SUBSn74438249n67889057</title>
<text text-anchor="start" x="272" y="-374.3" font-family="Times,serif" font-size="14.00">{}</text>
</g>
<!-- n67889057&#45;&gt;SUBSn74438249n67889057 -->
<g id="edge2" class="edge">
<title>n67889057&#45;&gt;SUBSn74438249n67889057</title>
<path fill="none" stroke="black" d="M279,-431.7C279,-420.85 279,-406.92 279,-396.1"/>
</g>
<!-- SUBSn74438249n67889057&#45;&gt;n93450807 -->
<g id="edge15" class="edge">
<title>SUBSn74438249n67889057&#45;&gt;n93450807</title>
<path fill="none" stroke="black" d="M279,-359.7C279,-351.98 279,-342.71 279,-334.11"/>
<polygon fill="black" stroke="black" points="282.5,-334.1 279,-324.1 275.5,-334.1 282.5,-334.1"/>
</g>
<!-- n00000000 -->
<g id="node13" class="node">
<title>n00000000</title>
<polygon fill="none" stroke="black" points="179,-36 121,-36 121,0 179,0 179,-36"/>
<text text-anchor="start" x="129" y="-14.3" font-family="Times,serif" font-size="14.00">FALSE</text>
</g>
<!-- SUBSn52014295n52014294&#45;&gt;n00000000 -->
<g id="edge14" class="edge">
<title>SUBSn52014295n52014294&#45;&gt;n00000000</title>
<path fill="none" stroke="black" d="M150,-71.7C150,-63.98 150,-54.71 150,-46.11"/>
<polygon fill="black" stroke="black" points="153.5,-46.1 150,-36.1 146.5,-46.1 153.5,-46.1"/>
</g>
<!-- n52014294 -->
<g id="node11" class="node">
<title>n52014294</title>
<polygon fill="none" stroke="black" points="219,-180 165,-180 165,-144 219,-144 219,-180"/>
<text text-anchor="start" x="178" y="-158.3" font-family="Times,serif" font-size="14.00">!Day</text>
</g>
<!-- SUBSn93450807n41436514&#45;&gt;n52014294 -->
<g id="edge8" class="edge">
<title>SUBSn93450807n41436514&#45;&gt;n52014294</title>
<path fill="none" stroke="black" d="M194.26,-215.7C193.93,-207.98 193.53,-198.71 193.16,-190.11"/>
<polygon fill="black" stroke="black" points="196.66,-189.95 192.73,-180.1 189.66,-190.25 196.66,-189.95"/>
</g>
<!-- n09043622 -->
<g id="node8" class="node">
<title>n09043622</title>
<polygon fill="none" stroke="black" stroke-width="2" points="137,-468 83,-468 83,-432 137,-432 137,-468"/>
<text text-anchor="start" x="95" y="-446.3" font-family="Times,serif" font-size="14.00">Clear</text>
</g>
<!-- SUBSn09043622n32392891 -->
<g id="node9" class="node">
<title>SUBSn09043622n32392891</title>
<text text-anchor="start" x="187" y="-374.3" font-family="Times,serif" font-size="14.00">{}</text>
</g>
<!-- n09043622&#45;&gt;SUBSn09043622n32392891 -->
<g id="edge4" class="edge">
<title>n09043622&#45;&gt;SUBSn09043622n32392891</title>
<path fill="none" stroke="black" d="M130.76,-431.7C143.78,-420.85 160.5,-406.92 173.47,-396.1"/>
</g>
<!-- n41436514 -->
<g id="node12" class="node">
<title>n41436514</title>
<polygon fill="none" stroke="black" points="222,-324 168,-324 168,-288 222,-288 222,-324"/>
<text text-anchor="start" x="184" y="-302.3" font-family="Times,serif" font-size="14.00">Dry</text>
</g>
<!-- SUBSn09043622n32392891&#45;&gt;n41436514 -->
<g id="edge7" class="edge">
<title>SUBSn09043622n32392891&#45;&gt;n41436514</title>
<path fill="none" stroke="black" d="M194.25,-359.7C194.36,-351.98 194.49,-342.71 194.61,-334.11"/>
<polygon fill="black" stroke="black" points="198.11,-334.15 194.76,-324.1 191.11,-334.05 198.11,-334.15"/>
</g>
<!-- n74438249 -->
<g id="node10" class="node">
<title>n74438249</title>
<polygon fill="none" stroke="black" stroke-width="2" points="443,-468 325,-468 325,-432 443,-432 443,-468"/>
<text text-anchor="start" x="333" y="-446.3" font-family="Times,serif" font-size="14.00">Bright, !Dry, !Day</text>
</g>
<!-- n74438249&#45;&gt;SUBSn74438249n67889057 -->
<g id="edge6" class="edge">
<title>n74438249&#45;&gt;SUBSn74438249n67889057</title>
<path fill="none" stroke="black" d="M358.31,-431.88C342.04,-421.03 321.07,-407.05 304.78,-396.19"/>
</g>
<!-- n52014294&#45;&gt;SUBSn52014295n52014294 -->
<g id="edge10" class="edge">
<title>n52014294&#45;&gt;SUBSn52014295n52014294</title>
<path fill="none" stroke="black" d="M181.62,-143.7C175.11,-132.85 166.75,-118.92 160.26,-108.1"/>
</g>
<!-- n41436514&#45;&gt;SUBSn93450807n41436514 -->
<g id="edge9" class="edge">
<title>n41436514&#45;&gt;SUBSn93450807n41436514</title>
<path fill="none" stroke="black" d="M195,-287.7C195,-276.85 195,-262.92 195,-252.1"/>
</g>
<!-- n77478545 -->
<g id="node14" class="node">
<title>n77478545</title>
<polygon fill="none" stroke="black" stroke-width="2" points="54,-324 0,-324 0,-288 54,-288 54,-324"/>
<text text-anchor="start" x="9" y="-302.3" font-family="Times,serif" font-size="14.00">!Night</text>
</g>
<!-- n77478545&#45;&gt;SUBSn29492841n77478545 -->
<g id="edge11" class="edge">
<title>n77478545&#45;&gt;SUBSn29492841n77478545</title>
<path fill="none" stroke="black" d="M47.76,-287.7C60.78,-276.85 77.5,-262.92 90.47,-252.1"/>
</g>
<!-- n29492841 -->
<g id="node15" class="node">
<title>n29492841</title>
<polygon fill="none" stroke="black" stroke-width="2" points="149.5,-324 72.5,-324 72.5,-288 149.5,-288 149.5,-324"/>
<text text-anchor="start" x="80.5" y="-302.3" font-family="Times,serif" font-size="14.00">Night, Day</text>
</g>
<!-- n29492841&#45;&gt;SUBSn29492841n77478545 -->
<g id="edge13" class="edge">
<title>n29492841&#45;&gt;SUBSn29492841n77478545</title>
<path fill="none" stroke="black" d="M111,-287.7C111,-276.85 111,-262.92 111,-252.1"/>
</g>
<!-- n32392891 -->
<g id="node16" class="node">
<title>n32392891</title>
<polygon fill="none" stroke="black" stroke-width="2" points="233,-468 155,-468 155,-432 233,-432 233,-468"/>
<text text-anchor="start" x="163" y="-446.3" font-family="Times,serif" font-size="14.00">!Clear, Dry</text>
</g>
<!-- n32392891&#45;&gt;SUBSn09043622n32392891 -->
<g id="edge12" class="edge">
<title>n32392891&#45;&gt;SUBSn09043622n32392891</title>
<path fill="none" stroke="black" d="M194,-431.7C194,-420.85 194,-406.92 194,-396.1"/>
</g>
</g>
</svg>
