<?xml version="1.0" encoding="UTF-8" standalone="no"?>
<!DOCTYPE svg PUBLIC "-//W3C//DTD SVG 1.1//EN"
 "http://www.w3.org/Graphics/SVG/1.1/DTD/svg11.dtd">
<!-- Generated by graphviz version 2.43.0 (0)
 -->
<!-- Title: g Pages: 1 -->
<svg width="277pt" height="332pt"
 viewBox="0.00 0.00 276.50 332.00" xmlns="http://www.w3.org/2000/svg" xmlns:xlink="http://www.w3.org/1999/xlink">
<g id="graph0" class="graph" transform="scale(1 1) rotate(0) translate(4 328)">
<title>g</title>
<polygon fill="white" stroke="transparent" points="-4,4 -4,-328 272.5,-328 272.5,4 -4,4"/>
<!-- SUBSn95405765n33674059 -->
<g id="node1" class="node">
<title>SUBSn95405765n33674059</title>
<text text-anchor="start" x="86" y="-230.3" font-family="Times,serif" font-size="14.00">{x2: K546, x1: K546}</text>
</g>
<!-- n18150899 -->
<g id="node3" class="node">
<title>n18150899</title>
<polygon fill="none" stroke="black" points="196,-180 100,-180 100,-144 196,-144 196,-180"/>
<text text-anchor="start" x="108" y="-159.3" font-family="Times,serif" font-size="14.00">animal(</text>
<text text-anchor="start" x="151" y="-159.3" font-family="Times,serif" font-weight="bold" font-size="14.00">K546</text>
<text text-anchor="start" x="183" y="-159.3" font-family="Times,serif" font-size="14.00">)</text>
</g>
<!-- SUBSn95405765n33674059&#45;&gt;n18150899 -->
<g id="edge2" class="edge">
<title>SUBSn95405765n33674059&#45;&gt;n18150899</title>
<path fill="none" stroke="black" d="M148,-215.7C148,-207.98 148,-198.71 148,-190.11"/>
<polygon fill="black" stroke="black" points="151.5,-190.1 148,-180.1 144.5,-190.1 151.5,-190.1"/>
</g>
<!-- n95405765 -->
<g id="node2" class="node">
<title>n95405765</title>
<polygon fill="none" stroke="black" stroke-width="2" points="121,-324 65,-324 65,-288 121,-288 121,-324"/>
<text text-anchor="start" x="73" y="-303.3" font-family="Times,serif" font-size="14.00">cat(</text>
<text text-anchor="start" x="94" y="-303.3" font-family="Times,serif" font-weight="bold" font-size="14.00">x2</text>
<text text-anchor="start" x="108" y="-303.3" font-family="Times,serif" font-size="14.00">)</text>
</g>
<!-- n95405765&#45;&gt;SUBSn95405765n33674059 -->
<g id="edge1" class="edge">
<title>n95405765&#45;&gt;SUBSn95405765n33674059</title>
<path fill="none" stroke="black" d="M106.6,-287.7C115.12,-276.85 126.07,-262.92 134.56,-252.1"/>
</g>
<!-- SUBSn30741218n18150899 -->
<g id="node4" class="node">
<title>SUBSn30741218n18150899</title>
<text text-anchor="start" x="29" y="-86.3" font-family="Times,serif" font-size="14.00">{x3: I781, K546: I781}</text>
</g>
<!-- n18150899&#45;&gt;SUBSn30741218n18150899 -->
<g id="edge6" class="edge">
<title>n18150899&#45;&gt;SUBSn30741218n18150899</title>
<path fill="none" stroke="black" d="M134.65,-143.7C126.28,-132.85 115.54,-118.92 107.19,-108.1"/>
</g>
<!-- n00000000 -->
<g id="node5" class="node">
<title>n00000000</title>
<polygon fill="none" stroke="black" points="123,-36 65,-36 65,0 123,0 123,-36"/>
<text text-anchor="start" x="73" y="-14.3" font-family="Times,serif" font-size="14.00">FALSE</text>
</g>
<!-- SUBSn30741218n18150899&#45;&gt;n00000000 -->
<g id="edge3" class="edge">
<title>SUBSn30741218n18150899&#45;&gt;n00000000</title>
<path fill="none" stroke="black" d="M94,-71.7C94,-63.98 94,-54.71 94,-46.11"/>
<polygon fill="black" stroke="black" points="97.5,-46.1 94,-36.1 90.5,-46.1 97.5,-46.1"/>
</g>
<!-- n30741218 -->
<g id="node6" class="node">
<title>n30741218</title>
<polygon fill="none" stroke="black" stroke-width="2" points="82,-180 0,-180 0,-144 82,-144 82,-180"/>
<text text-anchor="start" x="8" y="-159.3" font-family="Times,serif" font-size="14.00">!animal(</text>
<text text-anchor="start" x="55" y="-159.3" font-family="Times,serif" font-weight="bold" font-size="14.00">x3</text>
<text text-anchor="start" x="69" y="-159.3" font-family="Times,serif" font-size="14.00">)</text>
</g>
<!-- n30741218&#45;&gt;SUBSn30741218n18150899 -->
<g id="edge5" class="edge">
<title>n30741218&#45;&gt;SUBSn30741218n18150899</title>
<path fill="none" stroke="black" d="M54.1,-143.7C62.32,-132.85 72.86,-118.92 81.05,-108.1"/>
</g>
<!-- n33674059 -->
<g id="node7" class="node">
<title>n33674059</title>
<polygon fill="none" stroke="black" stroke-width="2" points="268.5,-324 139.5,-324 139.5,-288 268.5,-288 268.5,-324"/>
<text text-anchor="start" x="147.5" y="-303.3" font-family="Times,serif" font-size="14.00">animal(</text>
<text text-anchor="start" x="190.5" y="-303.3" font-family="Times,serif" font-weight="bold" font-size="14.00">x1</text>
<text text-anchor="start" x="204.5" y="-303.3" font-family="Times,serif" font-size="14.00">), !cat(</text>
<text text-anchor="start" x="241.5" y="-303.3" font-family="Times,serif" font-weight="bold" font-size="14.00">x1</text>
<text text-anchor="start" x="255.5" y="-303.3" font-family="Times,serif" font-size="14.00">)</text>
</g>
<!-- n33674059&#45;&gt;SUBSn95405765n33674059 -->
<g id="edge4" class="edge">
<title>n33674059&#45;&gt;SUBSn95405765n33674059</title>
<path fill="none" stroke="black" d="M190.16,-287.7C181.48,-276.85 170.33,-262.92 161.68,-252.1"/>
</g>
</g>
</svg>
