<?xml version="1.0" encoding="UTF-8" standalone="no"?>
<!DOCTYPE svg PUBLIC "-//W3C//DTD SVG 1.1//EN"
 "http://www.w3.org/Graphics/SVG/1.1/DTD/svg11.dtd">
<!-- Generated by graphviz version 2.43.0 (0)
 -->
<!-- Title: g Pages: 1 -->
<svg width="248pt" height="188pt"
 viewBox="0.00 0.00 247.50 188.00" xmlns="http://www.w3.org/2000/svg" xmlns:xlink="http://www.w3.org/1999/xlink">
<g id="graph0" class="graph" transform="scale(1 1) rotate(0) translate(4 184)">
<title>g</title>
<polygon fill="white" stroke="transparent" points="-4,4 -4,-184 243.5,-184 243.5,4 -4,4"/>
<!-- n11579888 -->
<g id="node1" class="node">
<title>n11579888</title>
<polygon fill="none" stroke="black" stroke-width="2" points="152,-180 0,-180 0,-144 152,-144 152,-180"/>
<text text-anchor="start" x="8" y="-159.3" font-family="Times,serif" font-size="14.00">animal(</text>
<text text-anchor="start" x="51" y="-159.3" font-family="Times,serif" font-style="italic" font-size="14.00">Kim</text>
<text text-anchor="start" x="74" y="-159.3" font-family="Times,serif" font-size="14.00">), !dog(</text>
<text text-anchor="start" x="116" y="-159.3" font-family="Times,serif" font-style="italic" font-size="14.00">Kim</text>
<text text-anchor="start" x="139" y="-159.3" font-family="Times,serif" font-size="14.00">)</text>
</g>
<!-- SUBSn11579888n52183697 -->
<g id="node2" class="node">
<title>SUBSn11579888n52183697</title>
<text text-anchor="start" x="133" y="-86.3" font-family="Times,serif" font-size="14.00">{}</text>
</g>
<!-- n11579888&#45;&gt;SUBSn11579888n52183697 -->
<g id="edge1" class="edge">
<title>n11579888&#45;&gt;SUBSn11579888n52183697</title>
<path fill="none" stroke="black" d="M91.82,-143.7C101.74,-132.85 114.48,-118.92 124.36,-108.1"/>
</g>
<!-- n63763586 -->
<g id="node4" class="node">
<title>n63763586</title>
<polygon fill="none" stroke="black" points="183.5,-36 96.5,-36 96.5,0 183.5,0 183.5,-36"/>
<text text-anchor="start" x="104.5" y="-15.3" font-family="Times,serif" font-size="14.00">animal(</text>
<text text-anchor="start" x="147.5" y="-15.3" font-family="Times,serif" font-style="italic" font-size="14.00">Kim</text>
<text text-anchor="start" x="170.5" y="-15.3" font-family="Times,serif" font-size="14.00">)</text>
</g>
<!-- SUBSn11579888n52183697&#45;&gt;n63763586 -->
<g id="edge2" class="edge">
<title>SUBSn11579888n52183697&#45;&gt;n63763586</title>
<path fill="none" stroke="black" d="M140,-71.7C140,-63.98 140,-54.71 140,-46.11"/>
<polygon fill="black" stroke="black" points="143.5,-46.1 140,-36.1 136.5,-46.1 143.5,-46.1"/>
</g>
<!-- n52183697 -->
<g id="node3" class="node">
<title>n52183697</title>
<polygon fill="none" stroke="black" stroke-width="2" points="239.5,-180 170.5,-180 170.5,-144 239.5,-144 239.5,-180"/>
<text text-anchor="start" x="178.5" y="-159.3" font-family="Times,serif" font-size="14.00">dog(</text>
<text text-anchor="start" x="203.5" y="-159.3" font-family="Times,serif" font-style="italic" font-size="14.00">Kim</text>
<text text-anchor="start" x="226.5" y="-159.3" font-family="Times,serif" font-size="14.00">)</text>
</g>
<!-- n52183697&#45;&gt;SUBSn11579888n52183697 -->
<g id="edge3" class="edge">
<title>n52183697&#45;&gt;SUBSn11579888n52183697</title>
<path fill="none" stroke="black" d="M188.93,-143.7C178.86,-132.85 165.92,-118.92 155.88,-108.1"/>
</g>
</g>
</svg>
