<?xml version="1.0" encoding="UTF-8" standalone="no"?>
<!DOCTYPE svg PUBLIC "-//W3C//DTD SVG 1.1//EN"
 "http://www.w3.org/Graphics/SVG/1.1/DTD/svg11.dtd">
<!-- Generated by graphviz version 2.43.0 (0)
 -->
<!-- Title: g Pages: 1 -->
<svg width="385pt" height="44pt"
 viewBox="0.00 0.00 385.00 44.00" xmlns="http://www.w3.org/2000/svg" xmlns:xlink="http://www.w3.org/1999/xlink">
<g id="graph0" class="graph" transform="scale(1 1) rotate(0) translate(4 40)">
<title>g</title>
<polygon fill="white" stroke="transparent" points="-4,4 -4,-40 381,-40 381,4 -4,4"/>
<!-- n08937502 -->
<g id="node1" class="node">
<title>n08937502</title>
<polygon fill="none" stroke="black" stroke-width="2" points="83,-36 0,-36 0,0 83,0 83,-36"/>
<text text-anchor="start" x="8" y="-15.3" font-family="Times,serif" font-size="14.00">dog(</text>
<text text-anchor="start" x="33" y="-15.3" font-family="Times,serif" font-style="italic" font-size="14.00">Jonsey</text>
<text text-anchor="start" x="70" y="-15.3" font-family="Times,serif" font-size="14.00">)</text>
</g>
<!-- n79370828 -->
<g id="node2" class="node">
<title>n79370828</title>
<polygon fill="none" stroke="black" stroke-width="2" points="253.5,-36 101.5,-36 101.5,0 253.5,0 253.5,-36"/>
<text text-anchor="start" x="109.5" y="-15.3" font-family="Times,serif" font-size="14.00">animal(</text>
<text text-anchor="start" x="152.5" y="-15.3" font-family="Times,serif" font-style="italic" font-size="14.00">Kim</text>
<text text-anchor="start" x="175.5" y="-15.3" font-family="Times,serif" font-size="14.00">), !dog(</text>
<text text-anchor="start" x="217.5" y="-15.3" font-family="Times,serif" font-style="italic" font-size="14.00">Kim</text>
<text text-anchor="start" x="240.5" y="-15.3" font-family="Times,serif" font-size="14.00">)</text>
</g>
<!-- n94822823 -->
<g id="node3" class="node">
<title>n94822823</title>
<polygon fill="none" stroke="black" stroke-width="2" points="377,-36 272,-36 272,0 377,0 377,-36"/>
<text text-anchor="start" x="280" y="-15.3" font-family="Times,serif" font-size="14.00">!animal(</text>
<text text-anchor="start" x="327" y="-15.3" font-family="Times,serif" font-style="italic" font-size="14.00">Jonsey</text>
<text text-anchor="start" x="364" y="-15.3" font-family="Times,serif" font-size="14.00">)</text>
</g>
</g>
</svg>
