<?xml version="1.0" encoding="UTF-8" standalone="no"?>
<!DOCTYPE svg PUBLIC "-//W3C//DTD SVG 1.1//EN"
 "http://www.w3.org/Graphics/SVG/1.1/DTD/svg11.dtd">
<!-- Generated by graphviz version 2.43.0 (0)
 -->
<!-- Title: g Pages: 1 -->
<svg width="371pt" height="188pt"
 viewBox="0.00 0.00 371.00 188.00" xmlns="http://www.w3.org/2000/svg" xmlns:xlink="http://www.w3.org/1999/xlink">
<g id="graph0" class="graph" transform="scale(1 1) rotate(0) translate(4 184)">
<title>g</title>
<polygon fill="white" stroke="transparent" points="-4,4 -4,-184 367,-184 367,4 -4,4"/>
<!-- n89879726 -->
<g id="node1" class="node">
<title>n89879726</title>
<polygon fill="none" stroke="black" stroke-width="2" points="91,-180 0,-180 0,-144 91,-144 91,-180"/>
<text text-anchor="start" x="8" y="-159.3" font-family="Times,serif" font-size="14.00">!animal(</text>
<text text-anchor="start" x="55" y="-159.3" font-family="Times,serif" font-style="italic" font-size="14.00">Kim</text>
<text text-anchor="start" x="78" y="-159.3" font-family="Times,serif" font-size="14.00">)</text>
</g>
<!-- SUBSn89879726n02505176 -->
<g id="node4" class="node">
<title>SUBSn89879726n02505176</title>
<text text-anchor="start" x="108.5" y="-86.3" font-family="Times,serif" font-size="14.00">{}</text>
</g>
<!-- n89879726&#45;&gt;SUBSn89879726n02505176 -->
<g id="edge2" class="edge">
<title>n89879726&#45;&gt;SUBSn89879726n02505176</title>
<path fill="none" stroke="black" d="M62.8,-143.7C73.65,-132.85 87.58,-118.92 98.4,-108.1"/>
</g>
<!-- n12625449 -->
<g id="node2" class="node">
<title>n12625449</title>
<polygon fill="none" stroke="black" points="152.5,-36 78.5,-36 78.5,0 152.5,0 152.5,-36"/>
<text text-anchor="start" x="86.5" y="-15.3" font-family="Times,serif" font-size="14.00">!dog(</text>
<text text-anchor="start" x="116.5" y="-15.3" font-family="Times,serif" font-style="italic" font-size="14.00">Kim</text>
<text text-anchor="start" x="139.5" y="-15.3" font-family="Times,serif" font-size="14.00">)</text>
</g>
<!-- n02505176 -->
<g id="node3" class="node">
<title>n02505176</title>
<polygon fill="none" stroke="black" stroke-width="2" points="261.5,-180 109.5,-180 109.5,-144 261.5,-144 261.5,-180"/>
<text text-anchor="start" x="117.5" y="-159.3" font-family="Times,serif" font-size="14.00">!dog(</text>
<text text-anchor="start" x="147.5" y="-159.3" font-family="Times,serif" font-style="italic" font-size="14.00">Kim</text>
<text text-anchor="start" x="170.5" y="-159.3" font-family="Times,serif" font-size="14.00">), animal(</text>
<text text-anchor="start" x="225.5" y="-159.3" font-family="Times,serif" font-style="italic" font-size="14.00">Kim</text>
<text text-anchor="start" x="248.5" y="-159.3" font-family="Times,serif" font-size="14.00">)</text>
</g>
<!-- n02505176&#45;&gt;SUBSn89879726n02505176 -->
<g id="edge3" class="edge">
<title>n02505176&#45;&gt;SUBSn89879726n02505176</title>
<path fill="none" stroke="black" d="M168.2,-143.7C157.35,-132.85 143.42,-118.92 132.6,-108.1"/>
</g>
<!-- SUBSn89879726n02505176&#45;&gt;n12625449 -->
<g id="edge1" class="edge">
<title>SUBSn89879726n02505176&#45;&gt;n12625449</title>
<path fill="none" stroke="black" d="M115.5,-71.7C115.5,-63.98 115.5,-54.71 115.5,-46.11"/>
<polygon fill="black" stroke="black" points="119,-46.1 115.5,-36.1 112,-46.1 119,-46.1"/>
</g>
<!-- n01644688 -->
<g id="node5" class="node">
<title>n01644688</title>
<polygon fill="none" stroke="black" stroke-width="2" points="363,-180 280,-180 280,-144 363,-144 363,-180"/>
<text text-anchor="start" x="288" y="-159.3" font-family="Times,serif" font-size="14.00">dog(</text>
<text text-anchor="start" x="313" y="-159.3" font-family="Times,serif" font-style="italic" font-size="14.00">Jonsey</text>
<text text-anchor="start" x="350" y="-159.3" font-family="Times,serif" font-size="14.00">)</text>
</g>
</g>
</svg>
