<?xml version="1.0" encoding="UTF-8" standalone="no"?>
<!DOCTYPE svg PUBLIC "-//W3C//DTD SVG 1.1//EN"
 "http://www.w3.org/Graphics/SVG/1.1/DTD/svg11.dtd">
<!-- Generated by graphviz version 2.43.0 (0)
 -->
<!-- Title: g Pages: 1 -->
<svg width="500pt" height="188pt"
 viewBox="0.00 0.00 500.00 188.00" xmlns="http://www.w3.org/2000/svg" xmlns:xlink="http://www.w3.org/1999/xlink">
<g id="graph0" class="graph" transform="scale(1 1) rotate(0) translate(4 184)">
<title>g</title>
<polygon fill="white" stroke="transparent" points="-4,4 -4,-184 496,-184 496,4 -4,4"/>
<!-- n56808924 -->
<g id="node1" class="node">
<title>n56808924</title>
<polygon fill="none" stroke="black" stroke-width="2" points="235,-180 0,-180 0,-144 235,-144 235,-180"/>
<text text-anchor="start" x="8" y="-159.3" font-family="Times,serif" font-size="14.00">friends(</text>
<text text-anchor="start" x="51" y="-159.3" font-family="Times,serif" font-style="italic" font-size="14.00">Kim</text>
<text text-anchor="start" x="74" y="-159.3" font-family="Times,serif" font-size="14.00">, </text>
<text text-anchor="start" x="82" y="-159.3" font-family="Times,serif" font-style="italic" font-size="14.00">Odie</text>
<text text-anchor="start" x="109" y="-159.3" font-family="Times,serif" font-size="14.00">), friends(</text>
<text text-anchor="start" x="164" y="-159.3" font-family="Times,serif" font-style="italic" font-size="14.00">Odie</text>
<text text-anchor="start" x="191" y="-159.3" font-family="Times,serif" font-size="14.00">, </text>
<text text-anchor="start" x="199" y="-159.3" font-family="Times,serif" font-style="italic" font-size="14.00">Kim</text>
<text text-anchor="start" x="222" y="-159.3" font-family="Times,serif" font-size="14.00">)</text>
</g>
<!-- SUBSn56808925n56808924 -->
<g id="node2" class="node">
<title>SUBSn56808925n56808924</title>
<text text-anchor="start" x="237.5" y="-86.3" font-family="Times,serif" font-size="14.00">{}</text>
</g>
<!-- n56808924&#45;&gt;SUBSn56808925n56808924 -->
<g id="edge1" class="edge">
<title>n56808924&#45;&gt;SUBSn56808925n56808924</title>
<path fill="none" stroke="black" d="M148.57,-143.88C169.57,-132.3 197.04,-117.16 217.2,-106.05"/>
</g>
<!-- n78404462 -->
<g id="node3" class="node">
<title>n78404462</title>
<polygon fill="none" stroke="black" points="305.5,-36 183.5,-36 183.5,0 305.5,0 305.5,-36"/>
<text text-anchor="start" x="191.5" y="-15.3" font-family="Times,serif" font-size="14.00">friends(</text>
<text text-anchor="start" x="234.5" y="-15.3" font-family="Times,serif" font-style="italic" font-size="14.00">Odie</text>
<text text-anchor="start" x="261.5" y="-15.3" font-family="Times,serif" font-size="14.00">, </text>
<text text-anchor="start" x="269.5" y="-15.3" font-family="Times,serif" font-style="italic" font-size="14.00">Kim</text>
<text text-anchor="start" x="292.5" y="-15.3" font-family="Times,serif" font-size="14.00">)</text>
</g>
<!-- SUBSn56808925n56808924&#45;&gt;n78404462 -->
<g id="edge2" class="edge">
<title>SUBSn56808925n56808924&#45;&gt;n78404462</title>
<path fill="none" stroke="black" d="M244.5,-71.7C244.5,-63.98 244.5,-54.71 244.5,-46.11"/>
<polygon fill="black" stroke="black" points="248,-46.1 244.5,-36.1 241,-46.1 248,-46.1"/>
</g>
<!-- n56808925 -->
<g id="node4" class="node">
<title>n56808925</title>
<polygon fill="none" stroke="black" stroke-width="2" points="492,-180 253,-180 253,-144 492,-144 492,-180"/>
<text text-anchor="start" x="261" y="-159.3" font-family="Times,serif" font-size="14.00">!friends(</text>
<text text-anchor="start" x="308" y="-159.3" font-family="Times,serif" font-style="italic" font-size="14.00">Kim</text>
<text text-anchor="start" x="331" y="-159.3" font-family="Times,serif" font-size="14.00">, </text>
<text text-anchor="start" x="339" y="-159.3" font-family="Times,serif" font-style="italic" font-size="14.00">Odie</text>
<text text-anchor="start" x="366" y="-159.3" font-family="Times,serif" font-size="14.00">), friends(</text>
<text text-anchor="start" x="421" y="-159.3" font-family="Times,serif" font-style="italic" font-size="14.00">Odie</text>
<text text-anchor="start" x="448" y="-159.3" font-family="Times,serif" font-size="14.00">, </text>
<text text-anchor="start" x="456" y="-159.3" font-family="Times,serif" font-style="italic" font-size="14.00">Kim</text>
<text text-anchor="start" x="479" y="-159.3" font-family="Times,serif" font-size="14.00">)</text>
</g>
<!-- n56808925&#45;&gt;SUBSn56808925n56808924 -->
<g id="edge3" class="edge">
<title>n56808925&#45;&gt;SUBSn56808925n56808924</title>
<path fill="none" stroke="black" d="M341.19,-143.88C319.87,-132.22 291.94,-116.95 271.59,-105.81"/>
</g>
</g>
</svg>
