<?xml version="1.0" encoding="UTF-8" standalone="no"?>
<!DOCTYPE svg PUBLIC "-//W3C//DTD SVG 1.1//EN"
 "http://www.w3.org/Graphics/SVG/1.1/DTD/svg11.dtd">
<!-- Generated by graphviz version 2.43.0 (0)
 -->
<!-- Title: g Pages: 1 -->
<svg width="789pt" height="188pt"
 viewBox="0.00 0.00 788.50 188.00" xmlns="http://www.w3.org/2000/svg" xmlns:xlink="http://www.w3.org/1999/xlink">
<g id="graph0" class="graph" transform="scale(1 1) rotate(0) translate(4 184)">
<title>g</title>
<polygon fill="white" stroke="transparent" points="-4,4 -4,-184 784.5,-184 784.5,4 -4,4"/>
<!-- n59702715 -->
<g id="node1" class="node">
<title>n59702715</title>
<polygon fill="none" stroke="black" stroke-width="2" points="243,-180 0,-180 0,-144 243,-144 243,-180"/>
<text text-anchor="start" x="8" y="-159.3" font-family="Times,serif" font-size="14.00">!friends(</text>
<text text-anchor="start" x="55" y="-159.3" font-family="Times,serif" font-style="italic" font-size="14.00">Odie</text>
<text text-anchor="start" x="82" y="-159.3" font-family="Times,serif" font-size="14.00">, </text>
<text text-anchor="start" x="90" y="-159.3" font-family="Times,serif" font-style="italic" font-size="14.00">Kim</text>
<text text-anchor="start" x="113" y="-159.3" font-family="Times,serif" font-size="14.00">), !friends(</text>
<text text-anchor="start" x="172" y="-159.3" font-family="Times,serif" font-style="italic" font-size="14.00">Kim</text>
<text text-anchor="start" x="195" y="-159.3" font-family="Times,serif" font-size="14.00">, </text>
<text text-anchor="start" x="203" y="-159.3" font-family="Times,serif" font-style="italic" font-size="14.00">Odie</text>
<text text-anchor="start" x="230" y="-159.3" font-family="Times,serif" font-size="14.00">)</text>
</g>
<!-- SUBSn59702715n59702717 -->
<g id="node2" class="node">
<title>SUBSn59702715n59702717</title>
<text text-anchor="start" x="242.5" y="-86.3" font-family="Times,serif" font-size="14.00">{}</text>
</g>
<!-- n59702715&#45;&gt;SUBSn59702715n59702717 -->
<g id="edge1" class="edge">
<title>n59702715&#45;&gt;SUBSn59702715n59702717</title>
<path fill="none" stroke="black" d="M152.81,-143.88C174.13,-132.22 202.06,-116.95 222.41,-105.81"/>
</g>
<!-- n59702716 -->
<g id="node6" class="node">
<title>n59702716</title>
<polygon fill="none" stroke="black" points="369,-36 130,-36 130,0 369,0 369,-36"/>
<text text-anchor="start" x="138" y="-15.3" font-family="Times,serif" font-size="14.00">!friends(</text>
<text text-anchor="start" x="185" y="-15.3" font-family="Times,serif" font-style="italic" font-size="14.00">Odie</text>
<text text-anchor="start" x="212" y="-15.3" font-family="Times,serif" font-size="14.00">, </text>
<text text-anchor="start" x="220" y="-15.3" font-family="Times,serif" font-style="italic" font-size="14.00">Kim</text>
<text text-anchor="start" x="243" y="-15.3" font-family="Times,serif" font-size="14.00">), friends(</text>
<text text-anchor="start" x="298" y="-15.3" font-family="Times,serif" font-style="italic" font-size="14.00">Odie</text>
<text text-anchor="start" x="325" y="-15.3" font-family="Times,serif" font-size="14.00">, </text>
<text text-anchor="start" x="333" y="-15.3" font-family="Times,serif" font-style="italic" font-size="14.00">Kim</text>
<text text-anchor="start" x="356" y="-15.3" font-family="Times,serif" font-size="14.00">)</text>
</g>
<!-- SUBSn59702715n59702717&#45;&gt;n59702716 -->
<g id="edge3" class="edge">
<title>SUBSn59702715n59702717&#45;&gt;n59702716</title>
<path fill="none" stroke="black" d="M249.5,-71.7C249.5,-63.98 249.5,-54.71 249.5,-46.11"/>
<polygon fill="black" stroke="black" points="253,-46.1 249.5,-36.1 246,-46.1 253,-46.1"/>
</g>
<!-- n14086235 -->
<g id="node3" class="node">
<title>n14086235</title>
<polygon fill="none" stroke="black" stroke-width="2" points="640.5,-180 514.5,-180 514.5,-144 640.5,-144 640.5,-180"/>
<text text-anchor="start" x="522.5" y="-159.3" font-family="Times,serif" font-size="14.00">!friends(</text>
<text text-anchor="start" x="569.5" y="-159.3" font-family="Times,serif" font-style="italic" font-size="14.00">Odie</text>
<text text-anchor="start" x="596.5" y="-159.3" font-family="Times,serif" font-size="14.00">, </text>
<text text-anchor="start" x="604.5" y="-159.3" font-family="Times,serif" font-style="italic" font-size="14.00">Kim</text>
<text text-anchor="start" x="627.5" y="-159.3" font-family="Times,serif" font-size="14.00">)</text>
</g>
<!-- n14086236 -->
<g id="node4" class="node">
<title>n14086236</title>
<polygon fill="none" stroke="black" stroke-width="2" points="780.5,-180 658.5,-180 658.5,-144 780.5,-144 780.5,-180"/>
<text text-anchor="start" x="666.5" y="-159.3" font-family="Times,serif" font-size="14.00">friends(</text>
<text text-anchor="start" x="709.5" y="-159.3" font-family="Times,serif" font-style="italic" font-size="14.00">Kim</text>
<text text-anchor="start" x="732.5" y="-159.3" font-family="Times,serif" font-size="14.00">, </text>
<text text-anchor="start" x="740.5" y="-159.3" font-family="Times,serif" font-style="italic" font-size="14.00">Odie</text>
<text text-anchor="start" x="767.5" y="-159.3" font-family="Times,serif" font-size="14.00">)</text>
</g>
<!-- n59702717 -->
<g id="node5" class="node">
<title>n59702717</title>
<polygon fill="none" stroke="black" stroke-width="2" points="496,-180 261,-180 261,-144 496,-144 496,-180"/>
<text text-anchor="start" x="269" y="-159.3" font-family="Times,serif" font-size="14.00">friends(</text>
<text text-anchor="start" x="312" y="-159.3" font-family="Times,serif" font-style="italic" font-size="14.00">Kim</text>
<text text-anchor="start" x="335" y="-159.3" font-family="Times,serif" font-size="14.00">, </text>
<text text-anchor="start" x="343" y="-159.3" font-family="Times,serif" font-style="italic" font-size="14.00">Odie</text>
<text text-anchor="start" x="370" y="-159.3" font-family="Times,serif" font-size="14.00">), friends(</text>
<text text-anchor="start" x="425" y="-159.3" font-family="Times,serif" font-style="italic" font-size="14.00">Odie</text>
<text text-anchor="start" x="452" y="-159.3" font-family="Times,serif" font-size="14.00">, </text>
<text text-anchor="start" x="460" y="-159.3" font-family="Times,serif" font-style="italic" font-size="14.00">Kim</text>
<text text-anchor="start" x="483" y="-159.3" font-family="Times,serif" font-size="14.00">)</text>
</g>
<!-- n59702717&#45;&gt;SUBSn59702715n59702717 -->
<g id="edge2" class="edge">
<title>n59702717&#45;&gt;SUBSn59702715n59702717</title>
<path fill="none" stroke="black" d="M346.94,-143.88C325.46,-132.22 297.31,-116.95 276.8,-105.81"/>
</g>
</g>
</svg>
