<?xml version="1.0" encoding="UTF-8" standalone="no"?>
<!DOCTYPE svg PUBLIC "-//W3C//DTD SVG 1.1//EN"
 "http://www.w3.org/Graphics/SVG/1.1/DTD/svg11.dtd">
<!-- Generated by graphviz version 2.43.0 (0)
 -->
<!-- Title: g Pages: 1 -->
<svg width="284pt" height="332pt"
 viewBox="0.00 0.00 283.50 332.00" xmlns="http://www.w3.org/2000/svg" xmlns:xlink="http://www.w3.org/1999/xlink">
<g id="graph0" class="graph" transform="scale(1 1) rotate(0) translate(4 328)">
<title>g</title>
<polygon fill="white" stroke="transparent" points="-4,4 -4,-328 279.5,-328 279.5,4 -4,4"/>
<!-- n96907026 -->
<g id="node1" class="node">
<title>n96907026</title>
<polygon fill="none" stroke="black" stroke-width="2" points="93.5,-180 10.5,-180 10.5,-144 93.5,-144 93.5,-180"/>
<text text-anchor="start" x="18.5" y="-159.3" font-family="Times,serif" font-size="14.00">dog(</text>
<text text-anchor="start" x="43.5" y="-159.3" font-family="Times,serif" font-style="italic" font-size="14.00">Jonsey</text>
<text text-anchor="start" x="80.5" y="-159.3" font-family="Times,serif" font-size="14.00">)</text>
</g>
<!-- SUBSn96907027n96907026 -->
<g id="node3" class="node">
<title>SUBSn96907027n96907026</title>
<text text-anchor="start" x="97" y="-86.3" font-family="Times,serif" font-size="14.00">{}</text>
</g>
<!-- n96907026&#45;&gt;SUBSn96907027n96907026 -->
<g id="edge6" class="edge">
<title>n96907026&#45;&gt;SUBSn96907027n96907026</title>
<path fill="none" stroke="black" d="M64.85,-143.7C72.91,-132.85 83.26,-118.92 91.29,-108.1"/>
</g>
<!-- n96907027 -->
<g id="node2" class="node">
<title>n96907027</title>
<polygon fill="none" stroke="black" points="200,-180 112,-180 112,-144 200,-144 200,-180"/>
<text text-anchor="start" x="120" y="-159.3" font-family="Times,serif" font-size="14.00">!dog(</text>
<text text-anchor="start" x="150" y="-159.3" font-family="Times,serif" font-style="italic" font-size="14.00">Jonsey</text>
<text text-anchor="start" x="187" y="-159.3" font-family="Times,serif" font-size="14.00">)</text>
</g>
<!-- n96907027&#45;&gt;SUBSn96907027n96907026 -->
<g id="edge1" class="edge">
<title>n96907027&#45;&gt;SUBSn96907027n96907026</title>
<path fill="none" stroke="black" d="M143.15,-143.7C135.09,-132.85 124.74,-118.92 116.71,-108.1"/>
</g>
<!-- n00000000 -->
<g id="node4" class="node">
<title>n00000000</title>
<polygon fill="none" stroke="black" points="133,-36 75,-36 75,0 133,0 133,-36"/>
<text text-anchor="start" x="83" y="-14.3" font-family="Times,serif" font-size="14.00">FALSE</text>
</g>
<!-- SUBSn96907027n96907026&#45;&gt;n00000000 -->
<g id="edge2" class="edge">
<title>SUBSn96907027n96907026&#45;&gt;n00000000</title>
<path fill="none" stroke="black" d="M104,-71.7C104,-63.98 104,-54.71 104,-46.11"/>
<polygon fill="black" stroke="black" points="107.5,-46.1 104,-36.1 100.5,-46.1 107.5,-46.1"/>
</g>
<!-- n07931973 -->
<g id="node5" class="node">
<title>n07931973</title>
<polygon fill="none" stroke="black" stroke-width="2" points="166,-324 0,-324 0,-288 166,-288 166,-324"/>
<text text-anchor="start" x="8" y="-303.3" font-family="Times,serif" font-size="14.00">!dog(</text>
<text text-anchor="start" x="38" y="-303.3" font-family="Times,serif" font-style="italic" font-size="14.00">Jonsey</text>
<text text-anchor="start" x="75" y="-303.3" font-family="Times,serif" font-size="14.00">), animal(</text>
<text text-anchor="start" x="130" y="-303.3" font-family="Times,serif" font-style="italic" font-size="14.00">Kim</text>
<text text-anchor="start" x="153" y="-303.3" font-family="Times,serif" font-size="14.00">)</text>
</g>
<!-- SUBSn07931973n88975053 -->
<g id="node7" class="node">
<title>SUBSn07931973n88975053</title>
<text text-anchor="start" x="149" y="-230.3" font-family="Times,serif" font-size="14.00">{}</text>
</g>
<!-- n07931973&#45;&gt;SUBSn07931973n88975053 -->
<g id="edge5" class="edge">
<title>n07931973&#45;&gt;SUBSn07931973n88975053</title>
<path fill="none" stroke="black" d="M101.04,-287.7C112.36,-276.85 126.89,-262.92 138.16,-252.1"/>
</g>
<!-- n88975053 -->
<g id="node6" class="node">
<title>n88975053</title>
<polygon fill="none" stroke="black" stroke-width="2" points="275.5,-324 184.5,-324 184.5,-288 275.5,-288 275.5,-324"/>
<text text-anchor="start" x="192.5" y="-303.3" font-family="Times,serif" font-size="14.00">!animal(</text>
<text text-anchor="start" x="239.5" y="-303.3" font-family="Times,serif" font-style="italic" font-size="14.00">Kim</text>
<text text-anchor="start" x="262.5" y="-303.3" font-family="Times,serif" font-size="14.00">)</text>
</g>
<!-- n88975053&#45;&gt;SUBSn07931973n88975053 -->
<g id="edge3" class="edge">
<title>n88975053&#45;&gt;SUBSn07931973n88975053</title>
<path fill="none" stroke="black" d="M211.71,-287.7C200.24,-276.85 185.51,-262.92 174.08,-252.1"/>
</g>
<!-- SUBSn07931973n88975053&#45;&gt;n96907027 -->
<g id="edge4" class="edge">
<title>SUBSn07931973n88975053&#45;&gt;n96907027</title>
<path fill="none" stroke="black" d="M156,-215.7C156,-207.98 156,-198.71 156,-190.11"/>
<polygon fill="black" stroke="black" points="159.5,-190.1 156,-180.1 152.5,-190.1 159.5,-190.1"/>
</g>
</g>
</svg>
