<?xml version="1.0" encoding="UTF-8" standalone="no"?>
<!DOCTYPE svg PUBLIC "-//W3C//DTD SVG 1.1//EN"
 "http://www.w3.org/Graphics/SVG/1.1/DTD/svg11.dtd">
<!-- Generated by graphviz version 2.43.0 (0)
 -->
<!-- Title: g Pages: 1 -->
<svg width="362pt" height="332pt"
 viewBox="0.00 0.00 362.00 332.00" xmlns="http://www.w3.org/2000/svg" xmlns:xlink="http://www.w3.org/1999/xlink">
<g id="graph0" class="graph" transform="scale(1 1) rotate(0) translate(4 328)">
<title>g</title>
<polygon fill="white" stroke="transparent" points="-4,4 -4,-328 358,-328 358,4 -4,4"/>
<!-- n93032983 -->
<g id="node1" class="node">
<title>n93032983</title>
<polygon fill="none" stroke="black" stroke-width="2" points="170,-324 0,-324 0,-288 170,-288 170,-324"/>
<text text-anchor="start" x="8" y="-303.3" font-family="Times,serif" font-size="14.00">!dog(</text>
<text text-anchor="start" x="38" y="-303.3" font-family="Times,serif" font-style="italic" font-size="14.00">Jonsey</text>
<text text-anchor="start" x="75" y="-303.3" font-family="Times,serif" font-size="14.00">), !animal(</text>
<text text-anchor="start" x="134" y="-303.3" font-family="Times,serif" font-style="italic" font-size="14.00">Kim</text>
<text text-anchor="start" x="157" y="-303.3" font-family="Times,serif" font-size="14.00">)</text>
</g>
<!-- SUBSn93032984n93032983 -->
<g id="node2" class="node">
<title>SUBSn93032984n93032983</title>
<text text-anchor="start" x="171" y="-230.3" font-family="Times,serif" font-size="14.00">{}</text>
</g>
<!-- n93032983&#45;&gt;SUBSn93032984n93032983 -->
<g id="edge2" class="edge">
<title>n93032983&#45;&gt;SUBSn93032984n93032983</title>
<path fill="none" stroke="black" d="M107.99,-287.7C122.4,-276.85 140.91,-262.92 155.28,-252.1"/>
</g>
<!-- n04251690 -->
<g id="node6" class="node">
<title>n04251690</title>
<polygon fill="none" stroke="black" points="222,-180 134,-180 134,-144 222,-144 222,-180"/>
<text text-anchor="start" x="142" y="-159.3" font-family="Times,serif" font-size="14.00">!dog(</text>
<text text-anchor="start" x="172" y="-159.3" font-family="Times,serif" font-style="italic" font-size="14.00">Jonsey</text>
<text text-anchor="start" x="209" y="-159.3" font-family="Times,serif" font-size="14.00">)</text>
</g>
<!-- SUBSn93032984n93032983&#45;&gt;n04251690 -->
<g id="edge3" class="edge">
<title>SUBSn93032984n93032983&#45;&gt;n04251690</title>
<path fill="none" stroke="black" d="M178,-215.7C178,-207.98 178,-198.71 178,-190.11"/>
<polygon fill="black" stroke="black" points="181.5,-190.1 178,-180.1 174.5,-190.1 181.5,-190.1"/>
</g>
<!-- n04251691 -->
<g id="node3" class="node">
<title>n04251691</title>
<polygon fill="none" stroke="black" stroke-width="2" points="323.5,-180 240.5,-180 240.5,-144 323.5,-144 323.5,-180"/>
<text text-anchor="start" x="248.5" y="-159.3" font-family="Times,serif" font-size="14.00">dog(</text>
<text text-anchor="start" x="273.5" y="-159.3" font-family="Times,serif" font-style="italic" font-size="14.00">Jonsey</text>
<text text-anchor="start" x="310.5" y="-159.3" font-family="Times,serif" font-size="14.00">)</text>
</g>
<!-- SUBSn04251690n04251691 -->
<g id="node7" class="node">
<title>SUBSn04251690n04251691</title>
<text text-anchor="start" x="223" y="-86.3" font-family="Times,serif" font-size="14.00">{}</text>
</g>
<!-- n04251691&#45;&gt;SUBSn04251690n04251691 -->
<g id="edge4" class="edge">
<title>n04251691&#45;&gt;SUBSn04251690n04251691</title>
<path fill="none" stroke="black" d="M269.15,-143.7C261.09,-132.85 250.74,-118.92 242.71,-108.1"/>
</g>
<!-- n00000000 -->
<g id="node4" class="node">
<title>n00000000</title>
<polygon fill="none" stroke="black" points="259,-36 201,-36 201,0 259,0 259,-36"/>
<text text-anchor="start" x="209" y="-14.3" font-family="Times,serif" font-size="14.00">FALSE</text>
</g>
<!-- n93032984 -->
<g id="node5" class="node">
<title>n93032984</title>
<polygon fill="none" stroke="black" stroke-width="2" points="354,-324 188,-324 188,-288 354,-288 354,-324"/>
<text text-anchor="start" x="196" y="-303.3" font-family="Times,serif" font-size="14.00">!dog(</text>
<text text-anchor="start" x="226" y="-303.3" font-family="Times,serif" font-style="italic" font-size="14.00">Jonsey</text>
<text text-anchor="start" x="263" y="-303.3" font-family="Times,serif" font-size="14.00">), animal(</text>
<text text-anchor="start" x="318" y="-303.3" font-family="Times,serif" font-style="italic" font-size="14.00">Kim</text>
<text text-anchor="start" x="341" y="-303.3" font-family="Times,serif" font-size="14.00">)</text>
</g>
<!-- n93032984&#45;&gt;SUBSn93032984n93032983 -->
<g id="edge1" class="edge">
<title>n93032984&#45;&gt;SUBSn93032984n93032983</title>
<path fill="none" stroke="black" d="M248.01,-287.7C233.6,-276.85 215.09,-262.92 200.72,-252.1"/>
</g>
<!-- n04251690&#45;&gt;SUBSn04251690n04251691 -->
<g id="edge6" class="edge">
<title>n04251690&#45;&gt;SUBSn04251690n04251691</title>
<path fill="none" stroke="black" d="M190.85,-143.7C198.91,-132.85 209.26,-118.92 217.29,-108.1"/>
</g>
<!-- SUBSn04251690n04251691&#45;&gt;n00000000 -->
<g id="edge5" class="edge">
<title>SUBSn04251690n04251691&#45;&gt;n00000000</title>
<path fill="none" stroke="black" d="M230,-71.7C230,-63.98 230,-54.71 230,-46.11"/>
<polygon fill="black" stroke="black" points="233.5,-46.1 230,-36.1 226.5,-46.1 233.5,-46.1"/>
</g>
</g>
</svg>
