<?xml version="1.0" encoding="UTF-8" standalone="no"?>
<!DOCTYPE svg PUBLIC "-//W3C//DTD SVG 1.1//EN"
 "http://www.w3.org/Graphics/SVG/1.1/DTD/svg11.dtd">
<!-- Generated by graphviz version 2.43.0 (0)
 -->
<!-- Title: g Pages: 1 -->
<svg width="255pt" height="332pt"
 viewBox="0.00 0.00 255.00 332.00" xmlns="http://www.w3.org/2000/svg" xmlns:xlink="http://www.w3.org/1999/xlink">
<g id="graph0" class="graph" transform="scale(1 1) rotate(0) translate(4 328)">
<title>g</title>
<polygon fill="white" stroke="transparent" points="-4,4 -4,-328 251,-328 251,4 -4,4"/>
<!-- n35484181 -->
<g id="node1" class="node">
<title>n35484181</title>
<polygon fill="none" stroke="black" points="196,-180 109,-180 109,-144 196,-144 196,-180"/>
<text text-anchor="start" x="117" y="-159.3" font-family="Times,serif" font-size="14.00">animal(</text>
<text text-anchor="start" x="160" y="-159.3" font-family="Times,serif" font-style="italic" font-size="14.00">Kim</text>
<text text-anchor="start" x="183" y="-159.3" font-family="Times,serif" font-size="14.00">)</text>
</g>
<!-- SUBSn35484182n35484181 -->
<g id="node2" class="node">
<title>SUBSn35484182n35484181</title>
<text text-anchor="start" x="91.5" y="-86.3" font-family="Times,serif" font-size="14.00">{}</text>
</g>
<!-- n35484181&#45;&gt;SUBSn35484182n35484181 -->
<g id="edge1" class="edge">
<title>n35484181&#45;&gt;SUBSn35484182n35484181</title>
<path fill="none" stroke="black" d="M139.15,-143.7C130.78,-132.85 120.04,-118.92 111.69,-108.1"/>
</g>
<!-- n00000000 -->
<g id="node7" class="node">
<title>n00000000</title>
<polygon fill="none" stroke="black" points="127.5,-36 69.5,-36 69.5,0 127.5,0 127.5,-36"/>
<text text-anchor="start" x="77.5" y="-14.3" font-family="Times,serif" font-size="14.00">FALSE</text>
</g>
<!-- SUBSn35484182n35484181&#45;&gt;n00000000 -->
<g id="edge5" class="edge">
<title>SUBSn35484182n35484181&#45;&gt;n00000000</title>
<path fill="none" stroke="black" d="M98.5,-71.7C98.5,-63.98 98.5,-54.71 98.5,-46.11"/>
<polygon fill="black" stroke="black" points="102,-46.1 98.5,-36.1 95,-46.1 102,-46.1"/>
</g>
<!-- n14273778 -->
<g id="node3" class="node">
<title>n14273778</title>
<polygon fill="none" stroke="black" stroke-width="2" points="159.5,-324 25.5,-324 25.5,-288 159.5,-288 159.5,-324"/>
<text text-anchor="start" x="33.5" y="-303.3" font-family="Times,serif" font-size="14.00">animal(</text>
<text text-anchor="start" x="76.5" y="-303.3" font-family="Times,serif" font-weight="bold" font-size="14.00">x0</text>
<text text-anchor="start" x="90.5" y="-303.3" font-family="Times,serif" font-size="14.00">), !dog(</text>
<text text-anchor="start" x="132.5" y="-303.3" font-family="Times,serif" font-weight="bold" font-size="14.00">x0</text>
<text text-anchor="start" x="146.5" y="-303.3" font-family="Times,serif" font-size="14.00">)</text>
</g>
<!-- SUBSn48960442n14273778 -->
<g id="node4" class="node">
<title>SUBSn48960442n14273778</title>
<text text-anchor="start" x="122.5" y="-230.3" font-family="Times,serif" font-size="14.00">{x0: Kim}</text>
</g>
<!-- n14273778&#45;&gt;SUBSn48960442n14273778 -->
<g id="edge2" class="edge">
<title>n14273778&#45;&gt;SUBSn48960442n14273778</title>
<path fill="none" stroke="black" d="M107.33,-287.7C116.63,-276.85 128.57,-262.92 137.84,-252.1"/>
</g>
<!-- SUBSn48960442n14273778&#45;&gt;n35484181 -->
<g id="edge4" class="edge">
<title>SUBSn48960442n14273778&#45;&gt;n35484181</title>
<path fill="none" stroke="black" d="M152.5,-215.7C152.5,-207.98 152.5,-198.71 152.5,-190.11"/>
<polygon fill="black" stroke="black" points="156,-190.1 152.5,-180.1 149,-190.1 156,-190.1"/>
</g>
<!-- n48960442 -->
<g id="node5" class="node">
<title>n48960442</title>
<polygon fill="none" stroke="black" stroke-width="2" points="247,-324 178,-324 178,-288 247,-288 247,-324"/>
<text text-anchor="start" x="186" y="-303.3" font-family="Times,serif" font-size="14.00">dog(</text>
<text text-anchor="start" x="211" y="-303.3" font-family="Times,serif" font-style="italic" font-size="14.00">Kim</text>
<text text-anchor="start" x="234" y="-303.3" font-family="Times,serif" font-size="14.00">)</text>
</g>
<!-- n48960442&#45;&gt;SUBSn48960442n14273778 -->
<g id="edge6" class="edge">
<title>n48960442&#45;&gt;SUBSn48960442n14273778</title>
<path fill="none" stroke="black" d="M197.67,-287.7C188.37,-276.85 176.43,-262.92 167.16,-252.1"/>
</g>
<!-- n35484182 -->
<g id="node6" class="node">
<title>n35484182</title>
<polygon fill="none" stroke="black" stroke-width="2" points="91,-180 0,-180 0,-144 91,-144 91,-180"/>
<text text-anchor="start" x="8" y="-159.3" font-family="Times,serif" font-size="14.00">!animal(</text>
<text text-anchor="start" x="55" y="-159.3" font-family="Times,serif" font-style="italic" font-size="14.00">Kim</text>
<text text-anchor="start" x="78" y="-159.3" font-family="Times,serif" font-size="14.00">)</text>
</g>
<!-- n35484182&#45;&gt;SUBSn35484182n35484181 -->
<g id="edge3" class="edge">
<title>n35484182&#45;&gt;SUBSn35484182n35484181</title>
<path fill="none" stroke="black" d="M58.6,-143.7C66.82,-132.85 77.36,-118.92 85.55,-108.1"/>
</g>
</g>
</svg>
