<?xml version="1.0" encoding="UTF-8" standalone="no"?>
<!DOCTYPE svg PUBLIC "-//W3C//DTD SVG 1.1//EN"
 "http://www.w3.org/Graphics/SVG/1.1/DTD/svg11.dtd">
<!-- Generated by graphviz version 2.43.0 (0)
 -->
<!-- Title: g Pages: 1 -->
<svg width="498pt" height="188pt"
 viewBox="0.00 0.00 498.00 188.00" xmlns="http://www.w3.org/2000/svg" xmlns:xlink="http://www.w3.org/1999/xlink">
<g id="graph0" class="graph" transform="scale(1 1) rotate(0) translate(4 184)">
<title>g</title>
<polygon fill="white" stroke="transparent" points="-4,4 -4,-184 494,-184 494,4 -4,4"/>
<!-- SUBSn91441163n83911206 -->
<g id="node1" class="node">
<title>SUBSn91441163n83911206</title>
<text text-anchor="start" x="60" y="-86.3" font-family="Times,serif" font-size="14.00">{x1: Kelley}</text>
</g>
<!-- n25139253 -->
<g id="node2" class="node">
<title>n25139253</title>
<polygon fill="none" stroke="black" points="136,-36 55,-36 55,0 136,0 136,-36"/>
<text text-anchor="start" x="63" y="-15.3" font-family="Times,serif" font-size="14.00">!cat(</text>
<text text-anchor="start" x="88" y="-15.3" font-family="Times,serif" font-style="italic" font-size="14.00">Kelley</text>
<text text-anchor="start" x="123" y="-15.3" font-family="Times,serif" font-size="14.00">)</text>
</g>
<!-- SUBSn91441163n83911206&#45;&gt;n25139253 -->
<g id="edge1" class="edge">
<title>SUBSn91441163n83911206&#45;&gt;n25139253</title>
<path fill="none" stroke="black" d="M95.5,-71.7C95.5,-63.98 95.5,-54.71 95.5,-46.11"/>
<polygon fill="black" stroke="black" points="99,-46.1 95.5,-36.1 92,-46.1 99,-46.1"/>
</g>
<!-- n79820076 -->
<g id="node3" class="node">
<title>n79820076</title>
<polygon fill="none" stroke="black" stroke-width="2" points="490,-180 421,-180 421,-144 490,-144 490,-180"/>
<text text-anchor="start" x="429" y="-159.3" font-family="Times,serif" font-size="14.00">dog(</text>
<text text-anchor="start" x="454" y="-159.3" font-family="Times,serif" font-style="italic" font-size="14.00">Kim</text>
<text text-anchor="start" x="477" y="-159.3" font-family="Times,serif" font-size="14.00">)</text>
</g>
<!-- SUBSn29203249n79820076 -->
<g id="node4" class="node">
<title>SUBSn29203249n79820076</title>
<text text-anchor="start" x="365.5" y="-86.3" font-family="Times,serif" font-size="14.00">{x0: Kim}</text>
</g>
<!-- n79820076&#45;&gt;SUBSn29203249n79820076 -->
<g id="edge2" class="edge">
<title>n79820076&#45;&gt;SUBSn29203249n79820076</title>
<path fill="none" stroke="black" d="M440.67,-143.7C431.37,-132.85 419.43,-118.92 410.16,-108.1"/>
</g>
<!-- n73234054 -->
<g id="node8" class="node">
<title>n73234054</title>
<polygon fill="none" stroke="black" points="439,-36 352,-36 352,0 439,0 439,-36"/>
<text text-anchor="start" x="360" y="-15.3" font-family="Times,serif" font-size="14.00">animal(</text>
<text text-anchor="start" x="403" y="-15.3" font-family="Times,serif" font-style="italic" font-size="14.00">Kim</text>
<text text-anchor="start" x="426" y="-15.3" font-family="Times,serif" font-size="14.00">)</text>
</g>
<!-- SUBSn29203249n79820076&#45;&gt;n73234054 -->
<g id="edge6" class="edge">
<title>SUBSn29203249n79820076&#45;&gt;n73234054</title>
<path fill="none" stroke="black" d="M395.5,-71.7C395.5,-63.98 395.5,-54.71 395.5,-46.11"/>
<polygon fill="black" stroke="black" points="399,-46.1 395.5,-36.1 392,-46.1 399,-46.1"/>
</g>
<!-- n83911206 -->
<g id="node5" class="node">
<title>n83911206</title>
<polygon fill="none" stroke="black" stroke-width="2" points="250,-180 147,-180 147,-144 250,-144 250,-180"/>
<text text-anchor="start" x="155" y="-159.3" font-family="Times,serif" font-size="14.00">!animal(</text>
<text text-anchor="start" x="202" y="-159.3" font-family="Times,serif" font-style="italic" font-size="14.00">Kelley</text>
<text text-anchor="start" x="237" y="-159.3" font-family="Times,serif" font-size="14.00">)</text>
</g>
<!-- n83911206&#45;&gt;SUBSn91441163n83911206 -->
<g id="edge5" class="edge">
<title>n83911206&#45;&gt;SUBSn91441163n83911206</title>
<path fill="none" stroke="black" d="M173.3,-143.88C157.34,-133.03 136.77,-119.05 120.79,-108.19"/>
</g>
<!-- SUBSn29203249n83911206 -->
<g id="node6" class="node">
<title>SUBSn29203249n83911206</title>
<text text-anchor="start" x="179" y="-86.3" font-family="Times,serif" font-size="14.00">{x0: Kelley}</text>
</g>
<!-- n83911206&#45;&gt;SUBSn29203249n83911206 -->
<g id="edge3" class="edge">
<title>n83911206&#45;&gt;SUBSn29203249n83911206</title>
<path fill="none" stroke="black" d="M202.46,-143.7C204.94,-132.85 208.12,-118.92 210.59,-108.1"/>
</g>
<!-- n90497228 -->
<g id="node9" class="node">
<title>n90497228</title>
<polygon fill="none" stroke="black" points="257.5,-36 171.5,-36 171.5,0 257.5,0 257.5,-36"/>
<text text-anchor="start" x="179.5" y="-15.3" font-family="Times,serif" font-size="14.00">!dog(</text>
<text text-anchor="start" x="209.5" y="-15.3" font-family="Times,serif" font-style="italic" font-size="14.00">Kelley</text>
<text text-anchor="start" x="244.5" y="-15.3" font-family="Times,serif" font-size="14.00">)</text>
</g>
<!-- SUBSn29203249n83911206&#45;&gt;n90497228 -->
<g id="edge7" class="edge">
<title>SUBSn29203249n83911206&#45;&gt;n90497228</title>
<path fill="none" stroke="black" d="M214.5,-71.7C214.5,-63.98 214.5,-54.71 214.5,-46.11"/>
<polygon fill="black" stroke="black" points="218,-46.1 214.5,-36.1 211,-46.1 218,-46.1"/>
</g>
<!-- n91441163 -->
<g id="node7" class="node">
<title>n91441163</title>
<polygon fill="none" stroke="black" stroke-width="2" points="129,-180 0,-180 0,-144 129,-144 129,-180"/>
<text text-anchor="start" x="8" y="-159.3" font-family="Times,serif" font-size="14.00">!cat(</text>
<text text-anchor="start" x="33" y="-159.3" font-family="Times,serif" font-weight="bold" font-size="14.00">x1</text>
<text text-anchor="start" x="47" y="-159.3" font-family="Times,serif" font-size="14.00">), animal(</text>
<text text-anchor="start" x="102" y="-159.3" font-family="Times,serif" font-weight="bold" font-size="14.00">x1</text>
<text text-anchor="start" x="116" y="-159.3" font-family="Times,serif" font-size="14.00">)</text>
</g>
<!-- n91441163&#45;&gt;SUBSn91441163n83911206 -->
<g id="edge4" class="edge">
<title>n91441163&#45;&gt;SUBSn91441163n83911206</title>
<path fill="none" stroke="black" d="M72.16,-143.7C76.97,-132.85 83.14,-118.92 87.93,-108.1"/>
</g>
<!-- n29203249 -->
<g id="node10" class="node">
<title>n29203249</title>
<polygon fill="none" stroke="black" stroke-width="2" points="402.5,-180 268.5,-180 268.5,-144 402.5,-144 402.5,-180"/>
<text text-anchor="start" x="276.5" y="-159.3" font-family="Times,serif" font-size="14.00">!dog(</text>
<text text-anchor="start" x="306.5" y="-159.3" font-family="Times,serif" font-weight="bold" font-size="14.00">x0</text>
<text text-anchor="start" x="320.5" y="-159.3" font-family="Times,serif" font-size="14.00">), animal(</text>
<text text-anchor="start" x="375.5" y="-159.3" font-family="Times,serif" font-weight="bold" font-size="14.00">x0</text>
<text text-anchor="start" x="389.5" y="-159.3" font-family="Times,serif" font-size="14.00">)</text>
</g>
<!-- n29203249&#45;&gt;SUBSn29203249n79820076 -->
<g id="edge8" class="edge">
<title>n29203249&#45;&gt;SUBSn29203249n79820076</title>
<path fill="none" stroke="black" d="M350.33,-143.7C359.63,-132.85 371.57,-118.92 380.84,-108.1"/>
</g>
<!-- n29203249&#45;&gt;SUBSn29203249n83911206 -->
<g id="edge9" class="edge">
<title>n29203249&#45;&gt;SUBSn29203249n83911206</title>
<path fill="none" stroke="black" d="M305.9,-143.88C287.15,-133.03 262.99,-119.05 244.21,-108.19"/>
</g>
</g>
</svg>
