<?xml version="1.0" encoding="UTF-8" standalone="no"?>
<!DOCTYPE svg PUBLIC "-//W3C//DTD SVG 1.1//EN"
 "http://www.w3.org/Graphics/SVG/1.1/DTD/svg11.dtd">
<!-- Generated by graphviz version 2.43.0 (0)
 -->
<!-- Title: g Pages: 1 -->
<svg width="278pt" height="332pt"
 viewBox="0.00 0.00 278.00 332.00" xmlns="http://www.w3.org/2000/svg" xmlns:xlink="http://www.w3.org/1999/xlink">
<g id="graph0" class="graph" transform="scale(1 1) rotate(0) translate(4 328)">
<title>g</title>
<polygon fill="white" stroke="transparent" points="-4,4 -4,-328 274,-328 274,4 -4,4"/>
<!-- n54518766 -->
<g id="node1" class="node">
<title>n54518766</title>
<polygon fill="none" stroke="black" points="220,-180 121,-180 121,-144 220,-144 220,-180"/>
<text text-anchor="start" x="129" y="-159.3" font-family="Times,serif" font-size="14.00">animal(</text>
<text text-anchor="start" x="172" y="-159.3" font-family="Times,serif" font-style="italic" font-size="14.00">Kelley</text>
<text text-anchor="start" x="207" y="-159.3" font-family="Times,serif" font-size="14.00">)</text>
</g>
<!-- SUBSn54518767n54518766 -->
<g id="node2" class="node">
<title>SUBSn54518767n54518766</title>
<text text-anchor="start" x="103.5" y="-86.3" font-family="Times,serif" font-size="14.00">{}</text>
</g>
<!-- n54518766&#45;&gt;SUBSn54518767n54518766 -->
<g id="edge1" class="edge">
<title>n54518766&#45;&gt;SUBSn54518767n54518766</title>
<path fill="none" stroke="black" d="M155.67,-143.7C146.37,-132.85 134.43,-118.92 125.16,-108.1"/>
</g>
<!-- n00000000 -->
<g id="node6" class="node">
<title>n00000000</title>
<polygon fill="none" stroke="black" points="139.5,-36 81.5,-36 81.5,0 139.5,0 139.5,-36"/>
<text text-anchor="start" x="89.5" y="-14.3" font-family="Times,serif" font-size="14.00">FALSE</text>
</g>
<!-- SUBSn54518767n54518766&#45;&gt;n00000000 -->
<g id="edge5" class="edge">
<title>SUBSn54518767n54518766&#45;&gt;n00000000</title>
<path fill="none" stroke="black" d="M110.5,-71.7C110.5,-63.98 110.5,-54.71 110.5,-46.11"/>
<polygon fill="black" stroke="black" points="114,-46.1 110.5,-36.1 107,-46.1 114,-46.1"/>
</g>
<!-- n16205722 -->
<g id="node3" class="node">
<title>n16205722</title>
<polygon fill="none" stroke="black" stroke-width="2" points="175,-324 46,-324 46,-288 175,-288 175,-324"/>
<text text-anchor="start" x="54" y="-303.3" font-family="Times,serif" font-size="14.00">!cat(</text>
<text text-anchor="start" x="79" y="-303.3" font-family="Times,serif" font-weight="bold" font-size="14.00">x1</text>
<text text-anchor="start" x="93" y="-303.3" font-family="Times,serif" font-size="14.00">), animal(</text>
<text text-anchor="start" x="148" y="-303.3" font-family="Times,serif" font-weight="bold" font-size="14.00">x1</text>
<text text-anchor="start" x="162" y="-303.3" font-family="Times,serif" font-size="14.00">)</text>
</g>
<!-- SUBSn16205722n44852035 -->
<g id="node4" class="node">
<title>SUBSn16205722n44852035</title>
<text text-anchor="start" x="135" y="-230.3" font-family="Times,serif" font-size="14.00">{x1: Kelley}</text>
</g>
<!-- n16205722&#45;&gt;SUBSn16205722n44852035 -->
<g id="edge2" class="edge">
<title>n16205722&#45;&gt;SUBSn16205722n44852035</title>
<path fill="none" stroke="black" d="M125.33,-287.7C134.63,-276.85 146.57,-262.92 155.84,-252.1"/>
</g>
<!-- SUBSn16205722n44852035&#45;&gt;n54518766 -->
<g id="edge4" class="edge">
<title>SUBSn16205722n44852035&#45;&gt;n54518766</title>
<path fill="none" stroke="black" d="M170.5,-215.7C170.5,-207.98 170.5,-198.71 170.5,-190.11"/>
<polygon fill="black" stroke="black" points="174,-190.1 170.5,-180.1 167,-190.1 174,-190.1"/>
</g>
<!-- n54518767 -->
<g id="node5" class="node">
<title>n54518767</title>
<polygon fill="none" stroke="black" stroke-width="2" points="103,-180 0,-180 0,-144 103,-144 103,-180"/>
<text text-anchor="start" x="8" y="-159.3" font-family="Times,serif" font-size="14.00">!animal(</text>
<text text-anchor="start" x="55" y="-159.3" font-family="Times,serif" font-style="italic" font-size="14.00">Kelley</text>
<text text-anchor="start" x="90" y="-159.3" font-family="Times,serif" font-size="14.00">)</text>
</g>
<!-- n54518767&#45;&gt;SUBSn54518767n54518766 -->
<g id="edge3" class="edge">
<title>n54518767&#45;&gt;SUBSn54518767n54518766</title>
<path fill="none" stroke="black" d="M66.08,-143.7C75.23,-132.85 86.97,-118.92 96.08,-108.1"/>
</g>
<!-- n44852035 -->
<g id="node7" class="node">
<title>n44852035</title>
<polygon fill="none" stroke="black" stroke-width="2" points="270,-324 193,-324 193,-288 270,-288 270,-324"/>
<text text-anchor="start" x="201" y="-303.3" font-family="Times,serif" font-size="14.00">cat(</text>
<text text-anchor="start" x="222" y="-303.3" font-family="Times,serif" font-style="italic" font-size="14.00">Kelley</text>
<text text-anchor="start" x="257" y="-303.3" font-family="Times,serif" font-size="14.00">)</text>
</g>
<!-- n44852035&#45;&gt;SUBSn16205722n44852035 -->
<g id="edge6" class="edge">
<title>n44852035&#45;&gt;SUBSn16205722n44852035</title>
<path fill="none" stroke="black" d="M216.42,-287.7C206.97,-276.85 194.83,-262.92 185.41,-252.1"/>
</g>
</g>
</svg>
