<?xml version="1.0" encoding="UTF-8" standalone="no"?>
<!DOCTYPE svg PUBLIC "-//W3C//DTD SVG 1.1//EN"
 "http://www.w3.org/Graphics/SVG/1.1/DTD/svg11.dtd">
<!-- Generated by graphviz version 2.43.0 (0)
 -->
<!-- Title: g Pages: 1 -->
<svg width="1235pt" height="332pt"
 viewBox="0.00 0.00 1235.05 332.00" xmlns="http://www.w3.org/2000/svg" xmlns:xlink="http://www.w3.org/1999/xlink">
<g id="graph0" class="graph" transform="scale(1 1) rotate(0) translate(4 328)">
<title>g</title>
<polygon fill="white" stroke="transparent" points="-4,4 -4,-328 1231.05,-328 1231.05,4 -4,4"/>
<!-- SUBSn61749742n12409800 -->
<g id="node1" class="node">
<title>SUBSn61749742n12409800</title>
<text text-anchor="start" x="652.55" y="-230.3" font-family="Times,serif" font-size="14.00">{t10: B, t20: C}</text>
</g>
<!-- n86828825 -->
<g id="node2" class="node">
<title>n86828825</title>
<polygon fill="none" stroke="black" points="792.55,-180 651.55,-180 651.55,-144 792.55,-144 792.55,-180"/>
<text text-anchor="start" x="659.55" y="-159.3" font-family="Times,serif" font-size="14.00">!rain(</text>
<text text-anchor="start" x="690.55" y="-159.3" font-family="Times,serif" font-style="italic" font-size="14.00">B</text>
<text text-anchor="start" x="699.55" y="-159.3" font-family="Times,serif" font-size="14.00">), !sprinkler(</text>
<text text-anchor="start" x="769.55" y="-159.3" font-family="Times,serif" font-style="italic" font-size="14.00">C</text>
<text text-anchor="start" x="779.55" y="-159.3" font-family="Times,serif" font-size="14.00">)</text>
</g>
<!-- SUBSn61749742n12409800&#45;&gt;n86828825 -->
<g id="edge1" class="edge">
<title>SUBSn61749742n12409800&#45;&gt;n86828825</title>
<path fill="none" stroke="black" d="M703.23,-215.7C706.04,-207.81 709.44,-198.3 712.57,-189.55"/>
<polygon fill="black" stroke="black" points="715.87,-190.7 715.94,-180.1 709.28,-188.34 715.87,-190.7"/>
</g>
<!-- SUBSn88735484n86828825 -->
<g id="node18" class="node">
<title>SUBSn88735484n86828825</title>
<text text-anchor="start" x="351.05" y="-86.3" font-family="Times,serif" font-size="14.00">{}</text>
</g>
<!-- n86828825&#45;&gt;SUBSn88735484n86828825 -->
<g id="edge23" class="edge">
<title>n86828825&#45;&gt;SUBSn88735484n86828825</title>
<path fill="none" stroke="black" d="M651.4,-145.89C648.24,-145.24 645.11,-144.61 642.05,-144 547.85,-125.21 435.66,-104.87 385.11,-95.82"/>
</g>
<!-- n80395472 -->
<g id="node3" class="node">
<title>n80395472</title>
<polygon fill="none" stroke="black" stroke-width="2" points="386.05,-324 330.05,-324 330.05,-288 386.05,-288 386.05,-324"/>
<text text-anchor="start" x="338.05" y="-303.3" font-family="Times,serif" font-size="14.00">rain(</text>
<text text-anchor="start" x="364.05" y="-303.3" font-family="Times,serif" font-style="italic" font-size="14.00">A</text>
<text text-anchor="start" x="373.05" y="-303.3" font-family="Times,serif" font-size="14.00">)</text>
</g>
<!-- SUBSn61749742n80395472 -->
<g id="node4" class="node">
<title>SUBSn61749742n80395472</title>
<text text-anchor="start" x="514.05" y="-230.3" font-family="Times,serif" font-size="14.00">{t10: A}</text>
</g>
<!-- n80395472&#45;&gt;SUBSn61749742n80395472 -->
<g id="edge2" class="edge">
<title>n80395472&#45;&gt;SUBSn61749742n80395472</title>
<path fill="none" stroke="black" d="M386.17,-294.06C418.6,-281.45 471.81,-260.76 505.87,-247.51"/>
</g>
<!-- SUBSn80395472n54788427 -->
<g id="node16" class="node">
<title>SUBSn80395472n54788427</title>
<text text-anchor="start" x="158.55" y="-230.3" font-family="Times,serif" font-size="14.00">{t0: A}</text>
</g>
<!-- n80395472&#45;&gt;SUBSn80395472n54788427 -->
<g id="edge19" class="edge">
<title>n80395472&#45;&gt;SUBSn80395472n54788427</title>
<path fill="none" stroke="black" d="M329.68,-293.91C296.27,-280.84 241.06,-259.25 207.57,-246.16"/>
</g>
<!-- n49219962 -->
<g id="node13" class="node">
<title>n49219962</title>
<polygon fill="none" stroke="black" points="633.05,-180 443.05,-180 443.05,-144 633.05,-144 633.05,-180"/>
<text text-anchor="start" x="451.05" y="-159.3" font-family="Times,serif" font-size="14.00">!sprinkler(</text>
<text text-anchor="start" x="509.05" y="-159.3" font-family="Times,serif" font-weight="bold" font-size="14.00">t20</text>
<text text-anchor="start" x="528.05" y="-159.3" font-family="Times,serif" font-size="14.00">), !before(</text>
<text text-anchor="start" x="584.05" y="-159.3" font-family="Times,serif" font-style="italic" font-size="14.00">A</text>
<text text-anchor="start" x="593.05" y="-159.3" font-family="Times,serif" font-size="14.00">, </text>
<text text-anchor="start" x="601.05" y="-159.3" font-family="Times,serif" font-weight="bold" font-size="14.00">t20</text>
<text text-anchor="start" x="620.05" y="-159.3" font-family="Times,serif" font-size="14.00">)</text>
</g>
<!-- SUBSn61749742n80395472&#45;&gt;n49219962 -->
<g id="edge20" class="edge">
<title>SUBSn61749742n80395472&#45;&gt;n49219962</title>
<path fill="none" stroke="black" d="M538.05,-215.7C538.05,-207.98 538.05,-198.71 538.05,-190.11"/>
<polygon fill="black" stroke="black" points="541.55,-190.1 538.05,-180.1 534.55,-190.1 541.55,-190.1"/>
</g>
<!-- n61749742 -->
<g id="node5" class="node">
<title>n61749742</title>
<polygon fill="none" stroke="black" stroke-width="2" points="828.05,-324 566.05,-324 566.05,-288 828.05,-288 828.05,-324"/>
<text text-anchor="start" x="574.05" y="-303.3" font-family="Times,serif" font-size="14.00">!sprinkler(</text>
<text text-anchor="start" x="632.05" y="-303.3" font-family="Times,serif" font-weight="bold" font-size="14.00">t20</text>
<text text-anchor="start" x="651.05" y="-303.3" font-family="Times,serif" font-size="14.00">), !before(</text>
<text text-anchor="start" x="707.05" y="-303.3" font-family="Times,serif" font-weight="bold" font-size="14.00">t10</text>
<text text-anchor="start" x="726.05" y="-303.3" font-family="Times,serif" font-size="14.00">, </text>
<text text-anchor="start" x="734.05" y="-303.3" font-family="Times,serif" font-weight="bold" font-size="14.00">t20</text>
<text text-anchor="start" x="753.05" y="-303.3" font-family="Times,serif" font-size="14.00">), !rain(</text>
<text text-anchor="start" x="796.05" y="-303.3" font-family="Times,serif" font-weight="bold" font-size="14.00">t10</text>
<text text-anchor="start" x="815.05" y="-303.3" font-family="Times,serif" font-size="14.00">)</text>
</g>
<!-- n61749742&#45;&gt;SUBSn61749742n12409800 -->
<g id="edge22" class="edge">
<title>n61749742&#45;&gt;SUBSn61749742n12409800</title>
<path fill="none" stroke="black" d="M697.05,-287.7C697.05,-276.85 697.05,-262.92 697.05,-252.1"/>
</g>
<!-- n61749742&#45;&gt;SUBSn61749742n80395472 -->
<g id="edge4" class="edge">
<title>n61749742&#45;&gt;SUBSn61749742n80395472</title>
<path fill="none" stroke="black" d="M658.15,-287.88C631.12,-275.98 595.53,-260.31 570.13,-249.12"/>
</g>
<!-- SUBSn88735484n61749742 -->
<g id="node6" class="node">
<title>SUBSn88735484n61749742</title>
<text text-anchor="start" x="306.05" y="-230.3" font-family="Times,serif" font-size="14.00">{t10: B}</text>
</g>
<!-- n61749742&#45;&gt;SUBSn88735484n61749742 -->
<g id="edge3" class="edge">
<title>n61749742&#45;&gt;SUBSn88735484n61749742</title>
<path fill="none" stroke="black" d="M607.74,-287.97C528.38,-272.83 416.79,-251.55 362.4,-241.17"/>
</g>
<!-- SUBSn53170085n61749742 -->
<g id="node11" class="node">
<title>SUBSn53170085n61749742</title>
<text text-anchor="start" x="837.05" y="-230.3" font-family="Times,serif" font-size="14.00">{t10: C, t20: D}</text>
</g>
<!-- n61749742&#45;&gt;SUBSn53170085n61749742 -->
<g id="edge21" class="edge">
<title>n61749742&#45;&gt;SUBSn53170085n61749742</title>
<path fill="none" stroke="black" d="M742.3,-287.88C771.08,-276.99 808.19,-262.95 836.94,-252.07"/>
</g>
<!-- SUBSn61749742n82859918 -->
<g id="node17" class="node">
<title>SUBSn61749742n82859918</title>
<text text-anchor="start" x="978.55" y="-230.3" font-family="Times,serif" font-size="14.00">{t10: A, t20: B}</text>
</g>
<!-- n61749742&#45;&gt;SUBSn61749742n82859918 -->
<g id="edge11" class="edge">
<title>n61749742&#45;&gt;SUBSn61749742n82859918</title>
<path fill="none" stroke="black" d="M776.58,-287.95C825,-277.56 888.09,-264.02 944.05,-252 952.55,-250.17 961.57,-248.23 970.35,-246.34"/>
</g>
<!-- n27589805 -->
<g id="node15" class="node">
<title>n27589805</title>
<polygon fill="none" stroke="black" points="425.05,-180 235.05,-180 235.05,-144 425.05,-144 425.05,-180"/>
<text text-anchor="start" x="243.05" y="-159.3" font-family="Times,serif" font-size="14.00">!sprinkler(</text>
<text text-anchor="start" x="301.05" y="-159.3" font-family="Times,serif" font-weight="bold" font-size="14.00">t20</text>
<text text-anchor="start" x="320.05" y="-159.3" font-family="Times,serif" font-size="14.00">), !before(</text>
<text text-anchor="start" x="376.05" y="-159.3" font-family="Times,serif" font-style="italic" font-size="14.00">B</text>
<text text-anchor="start" x="385.05" y="-159.3" font-family="Times,serif" font-size="14.00">, </text>
<text text-anchor="start" x="393.05" y="-159.3" font-family="Times,serif" font-weight="bold" font-size="14.00">t20</text>
<text text-anchor="start" x="412.05" y="-159.3" font-family="Times,serif" font-size="14.00">)</text>
</g>
<!-- SUBSn88735484n61749742&#45;&gt;n27589805 -->
<g id="edge9" class="edge">
<title>SUBSn88735484n61749742&#45;&gt;n27589805</title>
<path fill="none" stroke="black" d="M330.05,-215.7C330.05,-207.98 330.05,-198.71 330.05,-190.11"/>
<polygon fill="black" stroke="black" points="333.55,-190.1 330.05,-180.1 326.55,-190.1 333.55,-190.1"/>
</g>
<!-- n88735484 -->
<g id="node7" class="node">
<title>n88735484</title>
<polygon fill="none" stroke="black" stroke-width="2" points="88.05,-324 32.05,-324 32.05,-288 88.05,-288 88.05,-324"/>
<text text-anchor="start" x="40.05" y="-303.3" font-family="Times,serif" font-size="14.00">rain(</text>
<text text-anchor="start" x="66.05" y="-303.3" font-family="Times,serif" font-style="italic" font-size="14.00">B</text>
<text text-anchor="start" x="75.05" y="-303.3" font-family="Times,serif" font-size="14.00">)</text>
</g>
<!-- n88735484&#45;&gt;SUBSn88735484n61749742 -->
<g id="edge6" class="edge">
<title>n88735484&#45;&gt;SUBSn88735484n61749742</title>
<path fill="none" stroke="black" d="M88.08,-291.39C91.08,-290.16 94.1,-289 97.05,-288 166.97,-264.27 252.3,-247.92 297.81,-240.15"/>
</g>
<!-- SUBSn88735484n54788427 -->
<g id="node8" class="node">
<title>SUBSn88735484n54788427</title>
<text text-anchor="start" x="46.55" y="-230.3" font-family="Times,serif" font-size="14.00">{t0: B}</text>
</g>
<!-- n88735484&#45;&gt;SUBSn88735484n54788427 -->
<g id="edge5" class="edge">
<title>n88735484&#45;&gt;SUBSn88735484n54788427</title>
<path fill="none" stroke="black" d="M61.78,-287.7C62.86,-276.85 64.26,-262.92 65.34,-252.1"/>
</g>
<!-- n88735484&#45;&gt;SUBSn88735484n86828825 -->
<g id="edge12" class="edge">
<title>n88735484&#45;&gt;SUBSn88735484n86828825</title>
<path fill="none" stroke="black" d="M46.05,-287.79C21.75,-255.75 -22.29,-186.37 14.05,-144 55.01,-96.24 256.97,-91.11 330.88,-90.86"/>
</g>
<!-- n45353225 -->
<g id="node12" class="node">
<title>n45353225</title>
<polygon fill="none" stroke="black" points="111.05,-180 23.05,-180 23.05,-144 111.05,-144 111.05,-180"/>
<text text-anchor="start" x="31.05" y="-159.3" font-family="Times,serif" font-size="14.00">!sprinkler(</text>
<text text-anchor="start" x="89.05" y="-159.3" font-family="Times,serif" font-style="italic" font-size="14.00">B</text>
<text text-anchor="start" x="98.05" y="-159.3" font-family="Times,serif" font-size="14.00">)</text>
</g>
<!-- SUBSn88735484n54788427&#45;&gt;n45353225 -->
<g id="edge8" class="edge">
<title>SUBSn88735484n54788427&#45;&gt;n45353225</title>
<path fill="none" stroke="black" d="M67.05,-215.7C67.05,-207.98 67.05,-198.71 67.05,-190.11"/>
<polygon fill="black" stroke="black" points="70.55,-190.1 67.05,-180.1 63.55,-190.1 70.55,-190.1"/>
</g>
<!-- n98093340 -->
<g id="node9" class="node">
<title>n98093340</title>
<polygon fill="none" stroke="black" points="402.55,-36 313.55,-36 313.55,0 402.55,0 402.55,-36"/>
<text text-anchor="start" x="321.55" y="-15.3" font-family="Times,serif" font-size="14.00">!sprinkler(</text>
<text text-anchor="start" x="379.55" y="-15.3" font-family="Times,serif" font-style="italic" font-size="14.00">C</text>
<text text-anchor="start" x="389.55" y="-15.3" font-family="Times,serif" font-size="14.00">)</text>
</g>
<!-- n12409800 -->
<g id="node10" class="node">
<title>n12409800</title>
<polygon fill="none" stroke="black" stroke-width="2" points="548.05,-324 460.05,-324 460.05,-288 548.05,-288 548.05,-324"/>
<text text-anchor="start" x="468.05" y="-303.3" font-family="Times,serif" font-size="14.00">before(</text>
<text text-anchor="start" x="508.05" y="-303.3" font-family="Times,serif" font-style="italic" font-size="14.00">B</text>
<text text-anchor="start" x="517.05" y="-303.3" font-family="Times,serif" font-size="14.00">, </text>
<text text-anchor="start" x="525.05" y="-303.3" font-family="Times,serif" font-style="italic" font-size="14.00">C</text>
<text text-anchor="start" x="535.05" y="-303.3" font-family="Times,serif" font-size="14.00">)</text>
</g>
<!-- n12409800&#45;&gt;SUBSn61749742n12409800 -->
<g id="edge7" class="edge">
<title>n12409800&#45;&gt;SUBSn61749742n12409800</title>
<path fill="none" stroke="black" d="M548.33,-288.94C578.71,-277.92 618.97,-263.32 649.94,-252.08"/>
</g>
<!-- n89718695 -->
<g id="node21" class="node">
<title>n89718695</title>
<polygon fill="none" stroke="black" points="953.05,-180 811.05,-180 811.05,-144 953.05,-144 953.05,-180"/>
<text text-anchor="start" x="819.05" y="-159.3" font-family="Times,serif" font-size="14.00">!sprinkler(</text>
<text text-anchor="start" x="877.05" y="-159.3" font-family="Times,serif" font-style="italic" font-size="14.00">D</text>
<text text-anchor="start" x="887.05" y="-159.3" font-family="Times,serif" font-size="14.00">), !rain(</text>
<text text-anchor="start" x="930.05" y="-159.3" font-family="Times,serif" font-style="italic" font-size="14.00">C</text>
<text text-anchor="start" x="940.05" y="-159.3" font-family="Times,serif" font-size="14.00">)</text>
</g>
<!-- SUBSn53170085n61749742&#45;&gt;n89718695 -->
<g id="edge15" class="edge">
<title>SUBSn53170085n61749742&#45;&gt;n89718695</title>
<path fill="none" stroke="black" d="M882.05,-215.7C882.05,-207.98 882.05,-198.71 882.05,-190.11"/>
<polygon fill="black" stroke="black" points="885.55,-190.1 882.05,-180.1 878.55,-190.1 885.55,-190.1"/>
</g>
<!-- n82859918 -->
<g id="node14" class="node">
<title>n82859918</title>
<polygon fill="none" stroke="black" stroke-width="2" points="1066.55,-324 979.55,-324 979.55,-288 1066.55,-288 1066.55,-324"/>
<text text-anchor="start" x="987.55" y="-303.3" font-family="Times,serif" font-size="14.00">before(</text>
<text text-anchor="start" x="1027.55" y="-303.3" font-family="Times,serif" font-style="italic" font-size="14.00">A</text>
<text text-anchor="start" x="1036.55" y="-303.3" font-family="Times,serif" font-size="14.00">, </text>
<text text-anchor="start" x="1044.55" y="-303.3" font-family="Times,serif" font-style="italic" font-size="14.00">B</text>
<text text-anchor="start" x="1053.55" y="-303.3" font-family="Times,serif" font-size="14.00">)</text>
</g>
<!-- n82859918&#45;&gt;SUBSn61749742n82859918 -->
<g id="edge10" class="edge">
<title>n82859918&#45;&gt;SUBSn61749742n82859918</title>
<path fill="none" stroke="black" d="M1023.05,-287.7C1023.05,-276.85 1023.05,-262.92 1023.05,-252.1"/>
</g>
<!-- n68543458 -->
<g id="node22" class="node">
<title>n68543458</title>
<polygon fill="none" stroke="black" points="217.05,-180 129.05,-180 129.05,-144 217.05,-144 217.05,-180"/>
<text text-anchor="start" x="137.05" y="-159.3" font-family="Times,serif" font-size="14.00">!sprinkler(</text>
<text text-anchor="start" x="195.05" y="-159.3" font-family="Times,serif" font-style="italic" font-size="14.00">A</text>
<text text-anchor="start" x="204.05" y="-159.3" font-family="Times,serif" font-size="14.00">)</text>
</g>
<!-- SUBSn80395472n54788427&#45;&gt;n68543458 -->
<g id="edge24" class="edge">
<title>SUBSn80395472n54788427&#45;&gt;n68543458</title>
<path fill="none" stroke="black" d="M177.56,-215.7C176.9,-207.98 176.11,-198.71 175.37,-190.11"/>
<polygon fill="black" stroke="black" points="178.85,-189.77 174.51,-180.1 171.88,-190.37 178.85,-189.77"/>
</g>
<!-- n43584992 -->
<g id="node23" class="node">
<title>n43584992</title>
<polygon fill="none" stroke="black" points="1111.05,-180 971.05,-180 971.05,-144 1111.05,-144 1111.05,-180"/>
<text text-anchor="start" x="979.05" y="-159.3" font-family="Times,serif" font-size="14.00">!rain(</text>
<text text-anchor="start" x="1010.05" y="-159.3" font-family="Times,serif" font-style="italic" font-size="14.00">A</text>
<text text-anchor="start" x="1019.05" y="-159.3" font-family="Times,serif" font-size="14.00">), !sprinkler(</text>
<text text-anchor="start" x="1089.05" y="-159.3" font-family="Times,serif" font-style="italic" font-size="14.00">B</text>
<text text-anchor="start" x="1098.05" y="-159.3" font-family="Times,serif" font-size="14.00">)</text>
</g>
<!-- SUBSn61749742n82859918&#45;&gt;n43584992 -->
<g id="edge16" class="edge">
<title>SUBSn61749742n82859918&#45;&gt;n43584992</title>
<path fill="none" stroke="black" d="M1027.5,-215.7C1029.5,-207.9 1031.92,-198.51 1034.15,-189.83"/>
<polygon fill="black" stroke="black" points="1037.55,-190.66 1036.65,-180.1 1030.77,-188.92 1037.55,-190.66"/>
</g>
<!-- SUBSn88735484n86828825&#45;&gt;n98093340 -->
<g id="edge17" class="edge">
<title>SUBSn88735484n86828825&#45;&gt;n98093340</title>
<path fill="none" stroke="black" d="M358.05,-71.7C358.05,-63.98 358.05,-54.71 358.05,-46.11"/>
<polygon fill="black" stroke="black" points="361.55,-46.1 358.05,-36.1 354.55,-46.1 361.55,-46.1"/>
</g>
<!-- n54788427 -->
<g id="node19" class="node">
<title>n54788427</title>
<polygon fill="none" stroke="black" stroke-width="2" points="252.05,-324 106.05,-324 106.05,-288 252.05,-288 252.05,-324"/>
<text text-anchor="start" x="114.05" y="-303.3" font-family="Times,serif" font-size="14.00">!sprinkler(</text>
<text text-anchor="start" x="172.05" y="-303.3" font-family="Times,serif" font-weight="bold" font-size="14.00">t0</text>
<text text-anchor="start" x="184.05" y="-303.3" font-family="Times,serif" font-size="14.00">), !rain(</text>
<text text-anchor="start" x="227.05" y="-303.3" font-family="Times,serif" font-weight="bold" font-size="14.00">t0</text>
<text text-anchor="start" x="239.05" y="-303.3" font-family="Times,serif" font-size="14.00">)</text>
</g>
<!-- n54788427&#45;&gt;SUBSn88735484n54788427 -->
<g id="edge13" class="edge">
<title>n54788427&#45;&gt;SUBSn88735484n54788427</title>
<path fill="none" stroke="black" d="M151.65,-287.88C134.29,-277.03 111.93,-263.05 94.55,-252.19"/>
</g>
<!-- n54788427&#45;&gt;SUBSn80395472n54788427 -->
<g id="edge18" class="edge">
<title>n54788427&#45;&gt;SUBSn80395472n54788427</title>
<path fill="none" stroke="black" d="M179.05,-287.7C179.05,-276.85 179.05,-262.92 179.05,-252.1"/>
</g>
<!-- n53170085 -->
<g id="node20" class="node">
<title>n53170085</title>
<polygon fill="none" stroke="black" stroke-width="2" points="935.55,-324 846.55,-324 846.55,-288 935.55,-288 935.55,-324"/>
<text text-anchor="start" x="854.55" y="-303.3" font-family="Times,serif" font-size="14.00">before(</text>
<text text-anchor="start" x="894.55" y="-303.3" font-family="Times,serif" font-style="italic" font-size="14.00">C</text>
<text text-anchor="start" x="904.55" y="-303.3" font-family="Times,serif" font-size="14.00">, </text>
<text text-anchor="start" x="912.55" y="-303.3" font-family="Times,serif" font-style="italic" font-size="14.00">D</text>
<text text-anchor="start" x="922.55" y="-303.3" font-family="Times,serif" font-size="14.00">)</text>
</g>
<!-- n53170085&#45;&gt;SUBSn53170085n61749742 -->
<g id="edge14" class="edge">
<title>n53170085&#45;&gt;SUBSn53170085n61749742</title>
<path fill="none" stroke="black" d="M888.82,-287.7C887.43,-276.85 885.64,-262.92 884.25,-252.1"/>
</g>
<!-- n91625355 -->
<g id="node24" class="node">
<title>n91625355</title>
<polygon fill="none" stroke="black" stroke-width="2" points="1147.05,-324 1085.05,-324 1085.05,-288 1147.05,-288 1147.05,-324"/>
<text text-anchor="start" x="1093.05" y="-303.3" font-family="Times,serif" font-size="14.00">!rain(</text>
<text text-anchor="start" x="1124.05" y="-303.3" font-family="Times,serif" font-style="italic" font-size="14.00">D</text>
<text text-anchor="start" x="1134.05" y="-303.3" font-family="Times,serif" font-size="14.00">)</text>
</g>
<!-- n09945355 -->
<g id="node25" class="node">
<title>n09945355</title>
<polygon fill="none" stroke="black" stroke-width="2" points="1227.05,-324 1165.05,-324 1165.05,-288 1227.05,-288 1227.05,-324"/>
<text text-anchor="start" x="1173.05" y="-303.3" font-family="Times,serif" font-size="14.00">!rain(</text>
<text text-anchor="start" x="1204.05" y="-303.3" font-family="Times,serif" font-style="italic" font-size="14.00">C</text>
<text text-anchor="start" x="1214.05" y="-303.3" font-family="Times,serif" font-size="14.00">)</text>
</g>
</g>
</svg>
