<?xml version="1.0" encoding="UTF-8" standalone="no"?>
<!DOCTYPE svg PUBLIC "-//W3C//DTD SVG 1.1//EN"
 "http://www.w3.org/Graphics/SVG/1.1/DTD/svg11.dtd">
<!-- Generated by graphviz version 2.43.0 (0)
 -->
<!-- Title: g Pages: 1 -->
<svg width="715pt" height="476pt"
 viewBox="0.00 0.00 715.00 476.00" xmlns="http://www.w3.org/2000/svg" xmlns:xlink="http://www.w3.org/1999/xlink">
<g id="graph0" class="graph" transform="scale(1 1) rotate(0) translate(4 472)">
<title>g</title>
<polygon fill="white" stroke="transparent" points="-4,4 -4,-472 711,-472 711,4 -4,4"/>
<!-- SUBSn00974259n00974258 -->
<g id="node1" class="node">
<title>SUBSn00974259n00974258</title>
<text text-anchor="start" x="336.5" y="-230.3" font-family="Times,serif" font-size="14.00">{}</text>
</g>
<!-- n58448309 -->
<g id="node4" class="node">
<title>n58448309</title>
<polygon fill="none" stroke="black" points="374,-180 313,-180 313,-144 374,-144 374,-180"/>
<text text-anchor="start" x="321" y="-159.3" font-family="Times,serif" font-size="14.00">!rain(</text>
<text text-anchor="start" x="352" y="-159.3" font-family="Times,serif" font-style="italic" font-size="14.00">A</text>
<text text-anchor="start" x="361" y="-159.3" font-family="Times,serif" font-size="14.00">)</text>
</g>
<!-- SUBSn00974259n00974258&#45;&gt;n58448309 -->
<g id="edge12" class="edge">
<title>SUBSn00974259n00974258&#45;&gt;n58448309</title>
<path fill="none" stroke="black" d="M343.5,-215.7C343.5,-207.98 343.5,-198.71 343.5,-190.11"/>
<polygon fill="black" stroke="black" points="347,-190.1 343.5,-180.1 340,-190.1 347,-190.1"/>
</g>
<!-- n00974259 -->
<g id="node2" class="node">
<title>n00974259</title>
<polygon fill="none" stroke="black" points="333,-324 198,-324 198,-288 333,-288 333,-324"/>
<text text-anchor="start" x="206" y="-303.3" font-family="Times,serif" font-size="14.00">sprinkler(</text>
<text text-anchor="start" x="259" y="-303.3" font-family="Times,serif" font-style="italic" font-size="14.00">B</text>
<text text-anchor="start" x="268" y="-303.3" font-family="Times,serif" font-size="14.00">), !rain(</text>
<text text-anchor="start" x="311" y="-303.3" font-family="Times,serif" font-style="italic" font-size="14.00">A</text>
<text text-anchor="start" x="320" y="-303.3" font-family="Times,serif" font-size="14.00">)</text>
</g>
<!-- n00974259&#45;&gt;SUBSn00974259n00974258 -->
<g id="edge1" class="edge">
<title>n00974259&#45;&gt;SUBSn00974259n00974258</title>
<path fill="none" stroke="black" d="M284.78,-287.7C296.87,-276.85 312.39,-262.92 324.44,-252.1"/>
</g>
<!-- n00000000 -->
<g id="node3" class="node">
<title>n00000000</title>
<polygon fill="none" stroke="black" points="333.5,-36 275.5,-36 275.5,0 333.5,0 333.5,-36"/>
<text text-anchor="start" x="283.5" y="-14.3" font-family="Times,serif" font-size="14.00">FALSE</text>
</g>
<!-- SUBSn58448309n58448310 -->
<g id="node9" class="node">
<title>SUBSn58448309n58448310</title>
<text text-anchor="start" x="297.5" y="-86.3" font-family="Times,serif" font-size="14.00">{}</text>
</g>
<!-- n58448309&#45;&gt;SUBSn58448309n58448310 -->
<g id="edge6" class="edge">
<title>n58448309&#45;&gt;SUBSn58448309n58448310</title>
<path fill="none" stroke="black" d="M333.86,-143.7C327.81,-132.85 320.05,-118.92 314.03,-108.1"/>
</g>
<!-- SUBSn40288868n81041017 -->
<g id="node5" class="node">
<title>SUBSn40288868n81041017</title>
<text text-anchor="start" x="426" y="-374.3" font-family="Times,serif" font-size="14.00">{t10: A, t20: B}</text>
</g>
<!-- n00974258 -->
<g id="node6" class="node">
<title>n00974258</title>
<polygon fill="none" stroke="black" points="524.5,-324 384.5,-324 384.5,-288 524.5,-288 524.5,-324"/>
<text text-anchor="start" x="392.5" y="-303.3" font-family="Times,serif" font-size="14.00">!rain(</text>
<text text-anchor="start" x="423.5" y="-303.3" font-family="Times,serif" font-style="italic" font-size="14.00">A</text>
<text text-anchor="start" x="432.5" y="-303.3" font-family="Times,serif" font-size="14.00">), !sprinkler(</text>
<text text-anchor="start" x="502.5" y="-303.3" font-family="Times,serif" font-style="italic" font-size="14.00">B</text>
<text text-anchor="start" x="511.5" y="-303.3" font-family="Times,serif" font-size="14.00">)</text>
</g>
<!-- SUBSn40288868n81041017&#45;&gt;n00974258 -->
<g id="edge2" class="edge">
<title>SUBSn40288868n81041017&#45;&gt;n00974258</title>
<path fill="none" stroke="black" d="M466.54,-359.7C464.78,-351.98 462.66,-342.71 460.7,-334.11"/>
<polygon fill="black" stroke="black" points="464.05,-333.07 458.41,-324.1 457.23,-334.63 464.05,-333.07"/>
</g>
<!-- n00974258&#45;&gt;SUBSn00974259n00974258 -->
<g id="edge4" class="edge">
<title>n00974258&#45;&gt;SUBSn00974259n00974258</title>
<path fill="none" stroke="black" d="M427.35,-287.88C410.15,-277.03 387.98,-263.05 370.76,-252.19"/>
</g>
<!-- n34671474 -->
<g id="node7" class="node">
<title>n34671474</title>
<polygon fill="none" stroke="black" stroke-width="2" points="157,-468 0,-468 0,-432 157,-432 157,-468"/>
<text text-anchor="start" x="8" y="-447.3" font-family="Times,serif" font-size="14.00">sprinkler(</text>
<text text-anchor="start" x="61" y="-447.3" font-family="Times,serif" font-style="italic" font-size="14.00">B</text>
<text text-anchor="start" x="70" y="-447.3" font-family="Times,serif" font-size="14.00">), sprinkler(</text>
<text text-anchor="start" x="135" y="-447.3" font-family="Times,serif" font-style="italic" font-size="14.00">A</text>
<text text-anchor="start" x="144" y="-447.3" font-family="Times,serif" font-size="14.00">)</text>
</g>
<!-- SUBSn28173571n34671474 -->
<g id="node11" class="node">
<title>SUBSn28173571n34671474</title>
<text text-anchor="start" x="228" y="-374.3" font-family="Times,serif" font-size="14.00">{t0: A}</text>
</g>
<!-- n34671474&#45;&gt;SUBSn28173571n34671474 -->
<g id="edge5" class="edge">
<title>n34671474&#45;&gt;SUBSn28173571n34671474</title>
<path fill="none" stroke="black" d="M120.09,-431.88C151.05,-419.13 192.52,-402.05 219.85,-390.8"/>
</g>
<!-- n58448310 -->
<g id="node8" class="node">
<title>n58448310</title>
<polygon fill="none" stroke="black" stroke-width="2" points="294.5,-180 238.5,-180 238.5,-144 294.5,-144 294.5,-180"/>
<text text-anchor="start" x="246.5" y="-159.3" font-family="Times,serif" font-size="14.00">rain(</text>
<text text-anchor="start" x="272.5" y="-159.3" font-family="Times,serif" font-style="italic" font-size="14.00">A</text>
<text text-anchor="start" x="281.5" y="-159.3" font-family="Times,serif" font-size="14.00">)</text>
</g>
<!-- n58448310&#45;&gt;SUBSn58448309n58448310 -->
<g id="edge3" class="edge">
<title>n58448310&#45;&gt;SUBSn58448309n58448310</title>
<path fill="none" stroke="black" d="M275.89,-143.7C281.78,-132.85 289.35,-118.92 295.21,-108.1"/>
</g>
<!-- SUBSn58448309n58448310&#45;&gt;n00000000 -->
<g id="edge10" class="edge">
<title>SUBSn58448309n58448310&#45;&gt;n00000000</title>
<path fill="none" stroke="black" d="M304.5,-71.7C304.5,-63.98 304.5,-54.71 304.5,-46.11"/>
<polygon fill="black" stroke="black" points="308,-46.1 304.5,-36.1 301,-46.1 308,-46.1"/>
</g>
<!-- n81041017 -->
<g id="node10" class="node">
<title>n81041017</title>
<polygon fill="none" stroke="black" stroke-width="2" points="601.5,-468 339.5,-468 339.5,-432 601.5,-432 601.5,-468"/>
<text text-anchor="start" x="347.5" y="-447.3" font-family="Times,serif" font-size="14.00">!before(</text>
<text text-anchor="start" x="391.5" y="-447.3" font-family="Times,serif" font-weight="bold" font-size="14.00">t10</text>
<text text-anchor="start" x="410.5" y="-447.3" font-family="Times,serif" font-size="14.00">, </text>
<text text-anchor="start" x="418.5" y="-447.3" font-family="Times,serif" font-weight="bold" font-size="14.00">t20</text>
<text text-anchor="start" x="437.5" y="-447.3" font-family="Times,serif" font-size="14.00">), !rain(</text>
<text text-anchor="start" x="480.5" y="-447.3" font-family="Times,serif" font-weight="bold" font-size="14.00">t10</text>
<text text-anchor="start" x="499.5" y="-447.3" font-family="Times,serif" font-size="14.00">), !sprinkler(</text>
<text text-anchor="start" x="569.5" y="-447.3" font-family="Times,serif" font-weight="bold" font-size="14.00">t20</text>
<text text-anchor="start" x="588.5" y="-447.3" font-family="Times,serif" font-size="14.00">)</text>
</g>
<!-- n81041017&#45;&gt;SUBSn40288868n81041017 -->
<g id="edge9" class="edge">
<title>n81041017&#45;&gt;SUBSn40288868n81041017</title>
<path fill="none" stroke="black" d="M470.5,-431.7C470.5,-420.85 470.5,-406.92 470.5,-396.1"/>
</g>
<!-- SUBSn28173571n34671474&#45;&gt;n00974259 -->
<g id="edge7" class="edge">
<title>SUBSn28173571n34671474&#45;&gt;n00974259</title>
<path fill="none" stroke="black" d="M252.7,-359.7C254.6,-351.9 256.88,-342.51 258.98,-333.83"/>
<polygon fill="black" stroke="black" points="262.39,-334.65 261.35,-324.1 255.58,-333 262.39,-334.65"/>
</g>
<!-- n40288868 -->
<g id="node12" class="node">
<title>n40288868</title>
<polygon fill="none" stroke="black" stroke-width="2" points="707,-468 620,-468 620,-432 707,-432 707,-468"/>
<text text-anchor="start" x="628" y="-447.3" font-family="Times,serif" font-size="14.00">before(</text>
<text text-anchor="start" x="668" y="-447.3" font-family="Times,serif" font-style="italic" font-size="14.00">A</text>
<text text-anchor="start" x="677" y="-447.3" font-family="Times,serif" font-size="14.00">, </text>
<text text-anchor="start" x="685" y="-447.3" font-family="Times,serif" font-style="italic" font-size="14.00">B</text>
<text text-anchor="start" x="694" y="-447.3" font-family="Times,serif" font-size="14.00">)</text>
</g>
<!-- n40288868&#45;&gt;SUBSn40288868n81041017 -->
<g id="edge11" class="edge">
<title>n40288868&#45;&gt;SUBSn40288868n81041017</title>
<path fill="none" stroke="black" d="M619.71,-433.12C589.23,-422.06 548.64,-407.34 517.49,-396.04"/>
</g>
<!-- n28173571 -->
<g id="node13" class="node">
<title>n28173571</title>
<polygon fill="none" stroke="black" stroke-width="2" points="321.5,-468 175.5,-468 175.5,-432 321.5,-432 321.5,-468"/>
<text text-anchor="start" x="183.5" y="-447.3" font-family="Times,serif" font-size="14.00">!rain(</text>
<text text-anchor="start" x="214.5" y="-447.3" font-family="Times,serif" font-weight="bold" font-size="14.00">t0</text>
<text text-anchor="start" x="226.5" y="-447.3" font-family="Times,serif" font-size="14.00">), !sprinkler(</text>
<text text-anchor="start" x="296.5" y="-447.3" font-family="Times,serif" font-weight="bold" font-size="14.00">t0</text>
<text text-anchor="start" x="308.5" y="-447.3" font-family="Times,serif" font-size="14.00">)</text>
</g>
<!-- n28173571&#45;&gt;SUBSn28173571n34671474 -->
<g id="edge8" class="edge">
<title>n28173571&#45;&gt;SUBSn28173571n34671474</title>
<path fill="none" stroke="black" d="M248.5,-431.7C248.5,-420.85 248.5,-406.92 248.5,-396.1"/>
</g>
</g>
</svg>
