<?xml version="1.0" encoding="UTF-8" standalone="no"?>
<!DOCTYPE svg PUBLIC "-//W3C//DTD SVG 1.1//EN"
 "http://www.w3.org/Graphics/SVG/1.1/DTD/svg11.dtd">
<!-- Generated by graphviz version 2.43.0 (0)
 -->
<!-- Title: g Pages: 1 -->
<svg width="263pt" height="332pt"
 viewBox="0.00 0.00 263.00 332.00" xmlns="http://www.w3.org/2000/svg" xmlns:xlink="http://www.w3.org/1999/xlink">
<g id="graph0" class="graph" transform="scale(1 1) rotate(0) translate(4 328)">
<title>g</title>
<polygon fill="white" stroke="transparent" points="-4,4 -4,-328 259,-328 259,4 -4,4"/>
<!-- n55689716 -->
<g id="node1" class="node">
<title>n55689716</title>
<polygon fill="none" stroke="black" stroke-width="2" points="146,-324 0,-324 0,-288 146,-288 146,-324"/>
<text text-anchor="start" x="8" y="-303.3" font-family="Times,serif" font-size="14.00">!rain(</text>
<text text-anchor="start" x="39" y="-303.3" font-family="Times,serif" font-weight="bold" font-size="14.00">t0</text>
<text text-anchor="start" x="51" y="-303.3" font-family="Times,serif" font-size="14.00">), !sprinkler(</text>
<text text-anchor="start" x="121" y="-303.3" font-family="Times,serif" font-weight="bold" font-size="14.00">t0</text>
<text text-anchor="start" x="133" y="-303.3" font-family="Times,serif" font-size="14.00">)</text>
</g>
<!-- SUBSn15729646n55689716 -->
<g id="node2" class="node">
<title>SUBSn15729646n55689716</title>
<text text-anchor="start" x="82.5" y="-230.3" font-family="Times,serif" font-size="14.00">{t1: L236, t0: L236}</text>
</g>
<!-- n55689716&#45;&gt;SUBSn15729646n55689716 -->
<g id="edge1" class="edge">
<title>n55689716&#45;&gt;SUBSn15729646n55689716</title>
<path fill="none" stroke="black" d="M89.56,-287.7C99.95,-276.85 113.28,-262.92 123.63,-252.1"/>
</g>
<!-- n11935298 -->
<g id="node3" class="node">
<title>n11935298</title>
<polygon fill="none" stroke="black" points="181,-180 99,-180 99,-144 181,-144 181,-180"/>
<text text-anchor="start" x="107" y="-159.3" font-family="Times,serif" font-size="14.00">!rain(</text>
<text text-anchor="start" x="138" y="-159.3" font-family="Times,serif" font-weight="bold" font-size="14.00">L236</text>
<text text-anchor="start" x="168" y="-159.3" font-family="Times,serif" font-size="14.00">)</text>
</g>
<!-- SUBSn15729646n55689716&#45;&gt;n11935298 -->
<g id="edge3" class="edge">
<title>SUBSn15729646n55689716&#45;&gt;n11935298</title>
<path fill="none" stroke="black" d="M140,-215.7C140,-207.98 140,-198.71 140,-190.11"/>
<polygon fill="black" stroke="black" points="143.5,-190.1 140,-180.1 136.5,-190.1 143.5,-190.1"/>
</g>
<!-- SUBSn20665359n11935298 -->
<g id="node4" class="node">
<title>SUBSn20665359n11935298</title>
<text text-anchor="start" x="153.5" y="-86.3" font-family="Times,serif" font-size="14.00">{L236: A}</text>
</g>
<!-- n11935298&#45;&gt;SUBSn20665359n11935298 -->
<g id="edge2" class="edge">
<title>n11935298&#45;&gt;SUBSn20665359n11935298</title>
<path fill="none" stroke="black" d="M150.63,-143.7C157.29,-132.85 165.85,-118.92 172.49,-108.1"/>
</g>
<!-- n00000000 -->
<g id="node6" class="node">
<title>n00000000</title>
<polygon fill="none" stroke="black" points="212,-36 154,-36 154,0 212,0 212,-36"/>
<text text-anchor="start" x="162" y="-14.3" font-family="Times,serif" font-size="14.00">FALSE</text>
</g>
<!-- SUBSn20665359n11935298&#45;&gt;n00000000 -->
<g id="edge6" class="edge">
<title>SUBSn20665359n11935298&#45;&gt;n00000000</title>
<path fill="none" stroke="black" d="M183,-71.7C183,-63.98 183,-54.71 183,-46.11"/>
<polygon fill="black" stroke="black" points="186.5,-46.1 183,-36.1 179.5,-46.1 186.5,-46.1"/>
</g>
<!-- n15729646 -->
<g id="node5" class="node">
<title>n15729646</title>
<polygon fill="none" stroke="black" stroke-width="2" points="250,-324 164,-324 164,-288 250,-288 250,-324"/>
<text text-anchor="start" x="172" y="-303.3" font-family="Times,serif" font-size="14.00">sprinkler(</text>
<text text-anchor="start" x="225" y="-303.3" font-family="Times,serif" font-weight="bold" font-size="14.00">t1</text>
<text text-anchor="start" x="237" y="-303.3" font-family="Times,serif" font-size="14.00">)</text>
</g>
<!-- n15729646&#45;&gt;SUBSn15729646n55689716 -->
<g id="edge4" class="edge">
<title>n15729646&#45;&gt;SUBSn15729646n55689716</title>
<path fill="none" stroke="black" d="M190.44,-287.7C180.05,-276.85 166.72,-262.92 156.37,-252.1"/>
</g>
<!-- n20665359 -->
<g id="node7" class="node">
<title>n20665359</title>
<polygon fill="none" stroke="black" stroke-width="2" points="255,-180 199,-180 199,-144 255,-144 255,-180"/>
<text text-anchor="start" x="207" y="-159.3" font-family="Times,serif" font-size="14.00">rain(</text>
<text text-anchor="start" x="233" y="-159.3" font-family="Times,serif" font-style="italic" font-size="14.00">A</text>
<text text-anchor="start" x="242" y="-159.3" font-family="Times,serif" font-size="14.00">)</text>
</g>
<!-- n20665359&#45;&gt;SUBSn20665359n11935298 -->
<g id="edge5" class="edge">
<title>n20665359&#45;&gt;SUBSn20665359n11935298</title>
<path fill="none" stroke="black" d="M216.12,-143.7C209.3,-132.85 200.55,-118.92 193.75,-108.1"/>
</g>
</g>
</svg>
