<?xml version="1.0" encoding="UTF-8" standalone="no"?>
<!DOCTYPE svg PUBLIC "-//W3C//DTD SVG 1.1//EN"
 "http://www.w3.org/Graphics/SVG/1.1/DTD/svg11.dtd">
<!-- Generated by graphviz version 2.43.0 (0)
 -->
<!-- Title: g Pages: 1 -->
<svg width="241pt" height="332pt"
 viewBox="0.00 0.00 240.50 332.00" xmlns="http://www.w3.org/2000/svg" xmlns:xlink="http://www.w3.org/1999/xlink">
<g id="graph0" class="graph" transform="scale(1 1) rotate(0) translate(4 328)">
<title>g</title>
<polygon fill="white" stroke="transparent" points="-4,4 -4,-328 236.5,-328 236.5,4 -4,4"/>
<!-- n44748464 -->
<g id="node1" class="node">
<title>n44748464</title>
<polygon fill="none" stroke="black" stroke-width="2" points="56,-324 0,-324 0,-288 56,-288 56,-324"/>
<text text-anchor="start" x="8" y="-303.3" font-family="Times,serif" font-size="14.00">rain(</text>
<text text-anchor="start" x="34" y="-303.3" font-family="Times,serif" font-style="italic" font-size="14.00">B</text>
<text text-anchor="start" x="43" y="-303.3" font-family="Times,serif" font-size="14.00">)</text>
</g>
<!-- SUBSn44748464n68368562 -->
<g id="node2" class="node">
<title>SUBSn44748464n68368562</title>
<text text-anchor="start" x="66.5" y="-230.3" font-family="Times,serif" font-size="14.00">{t0: B}</text>
</g>
<!-- n44748464&#45;&gt;SUBSn44748464n68368562 -->
<g id="edge1" class="edge">
<title>n44748464&#45;&gt;SUBSn44748464n68368562</title>
<path fill="none" stroke="black" d="M42.58,-287.7C51.73,-276.85 63.47,-262.92 72.58,-252.1"/>
</g>
<!-- n01741874 -->
<g id="node5" class="node">
<title>n01741874</title>
<polygon fill="none" stroke="black" points="131,-180 43,-180 43,-144 131,-144 131,-180"/>
<text text-anchor="start" x="51" y="-159.3" font-family="Times,serif" font-size="14.00">!sprinkler(</text>
<text text-anchor="start" x="109" y="-159.3" font-family="Times,serif" font-style="italic" font-size="14.00">B</text>
<text text-anchor="start" x="118" y="-159.3" font-family="Times,serif" font-size="14.00">)</text>
</g>
<!-- SUBSn44748464n68368562&#45;&gt;n01741874 -->
<g id="edge3" class="edge">
<title>SUBSn44748464n68368562&#45;&gt;n01741874</title>
<path fill="none" stroke="black" d="M87,-215.7C87,-207.98 87,-198.71 87,-190.11"/>
<polygon fill="black" stroke="black" points="90.5,-190.1 87,-180.1 83.5,-190.1 90.5,-190.1"/>
</g>
<!-- n01741873 -->
<g id="node3" class="node">
<title>n01741873</title>
<polygon fill="none" stroke="black" stroke-width="2" points="232.5,-180 149.5,-180 149.5,-144 232.5,-144 232.5,-180"/>
<text text-anchor="start" x="157.5" y="-159.3" font-family="Times,serif" font-size="14.00">sprinkler(</text>
<text text-anchor="start" x="210.5" y="-159.3" font-family="Times,serif" font-style="italic" font-size="14.00">B</text>
<text text-anchor="start" x="219.5" y="-159.3" font-family="Times,serif" font-size="14.00">)</text>
</g>
<!-- SUBSn01741873n01741874 -->
<g id="node4" class="node">
<title>SUBSn01741873n01741874</title>
<text text-anchor="start" x="132" y="-86.3" font-family="Times,serif" font-size="14.00">{}</text>
</g>
<!-- n01741873&#45;&gt;SUBSn01741873n01741874 -->
<g id="edge2" class="edge">
<title>n01741873&#45;&gt;SUBSn01741873n01741874</title>
<path fill="none" stroke="black" d="M178.15,-143.7C170.09,-132.85 159.74,-118.92 151.71,-108.1"/>
</g>
<!-- n00000000 -->
<g id="node6" class="node">
<title>n00000000</title>
<polygon fill="none" stroke="black" points="168,-36 110,-36 110,0 168,0 168,-36"/>
<text text-anchor="start" x="118" y="-14.3" font-family="Times,serif" font-size="14.00">FALSE</text>
</g>
<!-- SUBSn01741873n01741874&#45;&gt;n00000000 -->
<g id="edge4" class="edge">
<title>SUBSn01741873n01741874&#45;&gt;n00000000</title>
<path fill="none" stroke="black" d="M139,-71.7C139,-63.98 139,-54.71 139,-46.11"/>
<polygon fill="black" stroke="black" points="142.5,-46.1 139,-36.1 135.5,-46.1 142.5,-46.1"/>
</g>
<!-- n01741874&#45;&gt;SUBSn01741873n01741874 -->
<g id="edge5" class="edge">
<title>n01741874&#45;&gt;SUBSn01741873n01741874</title>
<path fill="none" stroke="black" d="M99.85,-143.7C107.91,-132.85 118.26,-118.92 126.29,-108.1"/>
</g>
<!-- n68368562 -->
<g id="node7" class="node">
<title>n68368562</title>
<polygon fill="none" stroke="black" stroke-width="2" points="220,-324 74,-324 74,-288 220,-288 220,-324"/>
<text text-anchor="start" x="82" y="-303.3" font-family="Times,serif" font-size="14.00">!sprinkler(</text>
<text text-anchor="start" x="140" y="-303.3" font-family="Times,serif" font-weight="bold" font-size="14.00">t0</text>
<text text-anchor="start" x="152" y="-303.3" font-family="Times,serif" font-size="14.00">), !rain(</text>
<text text-anchor="start" x="195" y="-303.3" font-family="Times,serif" font-weight="bold" font-size="14.00">t0</text>
<text text-anchor="start" x="207" y="-303.3" font-family="Times,serif" font-size="14.00">)</text>
</g>
<!-- n68368562&#45;&gt;SUBSn44748464n68368562 -->
<g id="edge6" class="edge">
<title>n68368562&#45;&gt;SUBSn44748464n68368562</title>
<path fill="none" stroke="black" d="M132.17,-287.7C122.87,-276.85 110.93,-262.92 101.66,-252.1"/>
</g>
</g>
</svg>
