<?xml version="1.0" encoding="UTF-8" standalone="no"?>
<!DOCTYPE svg PUBLIC "-//W3C//DTD SVG 1.1//EN"
 "http://www.w3.org/Graphics/SVG/1.1/DTD/svg11.dtd">
<!-- Generated by graphviz version 2.43.0 (0)
 -->
<!-- Title: g Pages: 1 -->
<svg width="1404pt" height="332pt"
 viewBox="0.00 0.00 1404.00 332.00" xmlns="http://www.w3.org/2000/svg" xmlns:xlink="http://www.w3.org/1999/xlink">
<g id="graph0" class="graph" transform="scale(1 1) rotate(0) translate(4 328)">
<title>g</title>
<polygon fill="white" stroke="transparent" points="-4,4 -4,-328 1400,-328 1400,4 -4,4"/>
<!-- n95506921 -->
<g id="node1" class="node">
<title>n95506921</title>
<polygon fill="none" stroke="black" stroke-width="2" points="123.5,-324 36.5,-324 36.5,-288 123.5,-288 123.5,-324"/>
<text text-anchor="start" x="44.5" y="-303.3" font-family="Times,serif" font-size="14.00">before(</text>
<text text-anchor="start" x="84.5" y="-303.3" font-family="Times,serif" font-style="italic" font-size="14.00">A</text>
<text text-anchor="start" x="93.5" y="-303.3" font-family="Times,serif" font-size="14.00">, </text>
<text text-anchor="start" x="101.5" y="-303.3" font-family="Times,serif" font-style="italic" font-size="14.00">B</text>
<text text-anchor="start" x="110.5" y="-303.3" font-family="Times,serif" font-size="14.00">)</text>
</g>
<!-- SUBSn50270575n95506921 -->
<g id="node2" class="node">
<title>SUBSn50270575n95506921</title>
<text text-anchor="start" x="35.5" y="-230.3" font-family="Times,serif" font-size="14.00">{t10: A, t20: B}</text>
</g>
<!-- n95506921&#45;&gt;SUBSn50270575n95506921 -->
<g id="edge1" class="edge">
<title>n95506921&#45;&gt;SUBSn50270575n95506921</title>
<path fill="none" stroke="black" d="M80,-287.7C80,-276.85 80,-262.92 80,-252.1"/>
</g>
<!-- n30108229 -->
<g id="node20" class="node">
<title>n30108229</title>
<polygon fill="none" stroke="black" points="140,-180 0,-180 0,-144 140,-144 140,-180"/>
<text text-anchor="start" x="8" y="-159.3" font-family="Times,serif" font-size="14.00">!sprinkler(</text>
<text text-anchor="start" x="66" y="-159.3" font-family="Times,serif" font-style="italic" font-size="14.00">B</text>
<text text-anchor="start" x="75" y="-159.3" font-family="Times,serif" font-size="14.00">), !rain(</text>
<text text-anchor="start" x="118" y="-159.3" font-family="Times,serif" font-style="italic" font-size="14.00">A</text>
<text text-anchor="start" x="127" y="-159.3" font-family="Times,serif" font-size="14.00">)</text>
</g>
<!-- SUBSn50270575n95506921&#45;&gt;n30108229 -->
<g id="edge21" class="edge">
<title>SUBSn50270575n95506921&#45;&gt;n30108229</title>
<path fill="none" stroke="black" d="M77.53,-215.7C76.43,-207.98 75.1,-198.71 73.87,-190.11"/>
<polygon fill="black" stroke="black" points="77.32,-189.51 72.44,-180.1 70.39,-190.5 77.32,-189.51"/>
</g>
<!-- n50270575 -->
<g id="node3" class="node">
<title>n50270575</title>
<polygon fill="none" stroke="black" stroke-width="2" points="536,-324 274,-324 274,-288 536,-288 536,-324"/>
<text text-anchor="start" x="282" y="-303.3" font-family="Times,serif" font-size="14.00">!sprinkler(</text>
<text text-anchor="start" x="340" y="-303.3" font-family="Times,serif" font-weight="bold" font-size="14.00">t20</text>
<text text-anchor="start" x="359" y="-303.3" font-family="Times,serif" font-size="14.00">), !before(</text>
<text text-anchor="start" x="415" y="-303.3" font-family="Times,serif" font-weight="bold" font-size="14.00">t10</text>
<text text-anchor="start" x="434" y="-303.3" font-family="Times,serif" font-size="14.00">, </text>
<text text-anchor="start" x="442" y="-303.3" font-family="Times,serif" font-weight="bold" font-size="14.00">t20</text>
<text text-anchor="start" x="461" y="-303.3" font-family="Times,serif" font-size="14.00">), !rain(</text>
<text text-anchor="start" x="504" y="-303.3" font-family="Times,serif" font-weight="bold" font-size="14.00">t10</text>
<text text-anchor="start" x="523" y="-303.3" font-family="Times,serif" font-size="14.00">)</text>
</g>
<!-- n50270575&#45;&gt;SUBSn50270575n95506921 -->
<g id="edge18" class="edge">
<title>n50270575&#45;&gt;SUBSn50270575n95506921</title>
<path fill="none" stroke="black" d="M325.91,-287.97C265.97,-275.06 185.26,-257.67 132.93,-246.4"/>
</g>
<!-- SUBSn80170599n50270575 -->
<g id="node4" class="node">
<title>SUBSn80170599n50270575</title>
<text text-anchor="start" x="549" y="-230.3" font-family="Times,serif" font-size="14.00">{t10: B}</text>
</g>
<!-- n50270575&#45;&gt;SUBSn80170599n50270575 -->
<g id="edge2" class="edge">
<title>n50270575&#45;&gt;SUBSn80170599n50270575</title>
<path fill="none" stroke="black" d="M446.1,-287.88C475.24,-275.73 513.8,-259.67 540.74,-248.44"/>
</g>
<!-- SUBSn85064681n50270575 -->
<g id="node5" class="node">
<title>SUBSn85064681n50270575</title>
<text text-anchor="start" x="184.5" y="-230.3" font-family="Times,serif" font-size="14.00">{t10: B, t20: C}</text>
</g>
<!-- n50270575&#45;&gt;SUBSn85064681n50270575 -->
<g id="edge13" class="edge">
<title>n50270575&#45;&gt;SUBSn85064681n50270575</title>
<path fill="none" stroke="black" d="M361.95,-287.88C334.57,-276.99 299.26,-262.95 271.91,-252.07"/>
</g>
<!-- SUBSn65884461n50270575 -->
<g id="node7" class="node">
<title>SUBSn65884461n50270575</title>
<text text-anchor="start" x="757" y="-230.3" font-family="Times,serif" font-size="14.00">{t10: A}</text>
</g>
<!-- n50270575&#45;&gt;SUBSn65884461n50270575 -->
<g id="edge4" class="edge">
<title>n50270575&#45;&gt;SUBSn65884461n50270575</title>
<path fill="none" stroke="black" d="M496.5,-287.97C578.23,-272.75 693.35,-251.32 748.74,-241.01"/>
</g>
<!-- SUBSn64439000n50270575 -->
<g id="node13" class="node">
<title>SUBSn64439000n50270575</title>
<text text-anchor="start" x="360" y="-230.3" font-family="Times,serif" font-size="14.00">{t10: C, t20: D}</text>
</g>
<!-- n50270575&#45;&gt;SUBSn64439000n50270575 -->
<g id="edge23" class="edge">
<title>n50270575&#45;&gt;SUBSn64439000n50270575</title>
<path fill="none" stroke="black" d="M405,-287.7C405,-276.85 405,-262.92 405,-252.1"/>
</g>
<!-- n63239783 -->
<g id="node22" class="node">
<title>n63239783</title>
<polygon fill="none" stroke="black" points="668,-180 478,-180 478,-144 668,-144 668,-180"/>
<text text-anchor="start" x="486" y="-159.3" font-family="Times,serif" font-size="14.00">!sprinkler(</text>
<text text-anchor="start" x="544" y="-159.3" font-family="Times,serif" font-weight="bold" font-size="14.00">t20</text>
<text text-anchor="start" x="563" y="-159.3" font-family="Times,serif" font-size="14.00">), !before(</text>
<text text-anchor="start" x="619" y="-159.3" font-family="Times,serif" font-style="italic" font-size="14.00">B</text>
<text text-anchor="start" x="628" y="-159.3" font-family="Times,serif" font-size="14.00">, </text>
<text text-anchor="start" x="636" y="-159.3" font-family="Times,serif" font-weight="bold" font-size="14.00">t20</text>
<text text-anchor="start" x="655" y="-159.3" font-family="Times,serif" font-size="14.00">)</text>
</g>
<!-- SUBSn80170599n50270575&#45;&gt;n63239783 -->
<g id="edge20" class="edge">
<title>SUBSn80170599n50270575&#45;&gt;n63239783</title>
<path fill="none" stroke="black" d="M573,-215.7C573,-207.98 573,-198.71 573,-190.11"/>
<polygon fill="black" stroke="black" points="576.5,-190.1 573,-180.1 569.5,-190.1 576.5,-190.1"/>
</g>
<!-- n69597978 -->
<g id="node6" class="node">
<title>n69597978</title>
<polygon fill="none" stroke="black" points="299.5,-180 158.5,-180 158.5,-144 299.5,-144 299.5,-180"/>
<text text-anchor="start" x="166.5" y="-159.3" font-family="Times,serif" font-size="14.00">!sprinkler(</text>
<text text-anchor="start" x="224.5" y="-159.3" font-family="Times,serif" font-style="italic" font-size="14.00">C</text>
<text text-anchor="start" x="234.5" y="-159.3" font-family="Times,serif" font-size="14.00">), !rain(</text>
<text text-anchor="start" x="277.5" y="-159.3" font-family="Times,serif" font-style="italic" font-size="14.00">B</text>
<text text-anchor="start" x="286.5" y="-159.3" font-family="Times,serif" font-size="14.00">)</text>
</g>
<!-- SUBSn85064681n50270575&#45;&gt;n69597978 -->
<g id="edge3" class="edge">
<title>SUBSn85064681n50270575&#45;&gt;n69597978</title>
<path fill="none" stroke="black" d="M229,-215.7C229,-207.98 229,-198.71 229,-190.11"/>
<polygon fill="black" stroke="black" points="232.5,-190.1 229,-180.1 225.5,-190.1 232.5,-190.1"/>
</g>
<!-- SUBSn80170599n69597978 -->
<g id="node9" class="node">
<title>SUBSn80170599n69597978</title>
<text text-anchor="start" x="559" y="-86.3" font-family="Times,serif" font-size="14.00">{}</text>
</g>
<!-- n69597978&#45;&gt;SUBSn80170599n69597978 -->
<g id="edge7" class="edge">
<title>n69597978&#45;&gt;SUBSn80170599n69597978</title>
<path fill="none" stroke="black" d="M299.67,-145.96C302.82,-145.3 305.94,-144.64 309,-144 392.83,-126.45 492.14,-106.09 538.98,-96.52"/>
</g>
<!-- n51046355 -->
<g id="node26" class="node">
<title>n51046355</title>
<polygon fill="none" stroke="black" points="876,-180 686,-180 686,-144 876,-144 876,-180"/>
<text text-anchor="start" x="694" y="-159.3" font-family="Times,serif" font-size="14.00">!sprinkler(</text>
<text text-anchor="start" x="752" y="-159.3" font-family="Times,serif" font-weight="bold" font-size="14.00">t20</text>
<text text-anchor="start" x="771" y="-159.3" font-family="Times,serif" font-size="14.00">), !before(</text>
<text text-anchor="start" x="827" y="-159.3" font-family="Times,serif" font-style="italic" font-size="14.00">A</text>
<text text-anchor="start" x="836" y="-159.3" font-family="Times,serif" font-size="14.00">, </text>
<text text-anchor="start" x="844" y="-159.3" font-family="Times,serif" font-weight="bold" font-size="14.00">t20</text>
<text text-anchor="start" x="863" y="-159.3" font-family="Times,serif" font-size="14.00">)</text>
</g>
<!-- SUBSn65884461n50270575&#45;&gt;n51046355 -->
<g id="edge16" class="edge">
<title>SUBSn65884461n50270575&#45;&gt;n51046355</title>
<path fill="none" stroke="black" d="M781,-215.7C781,-207.98 781,-198.71 781,-190.11"/>
<polygon fill="black" stroke="black" points="784.5,-190.1 781,-180.1 777.5,-190.1 784.5,-190.1"/>
</g>
<!-- n85064681 -->
<g id="node8" class="node">
<title>n85064681</title>
<polygon fill="none" stroke="black" stroke-width="2" points="256,-324 168,-324 168,-288 256,-288 256,-324"/>
<text text-anchor="start" x="176" y="-303.3" font-family="Times,serif" font-size="14.00">before(</text>
<text text-anchor="start" x="216" y="-303.3" font-family="Times,serif" font-style="italic" font-size="14.00">B</text>
<text text-anchor="start" x="225" y="-303.3" font-family="Times,serif" font-size="14.00">, </text>
<text text-anchor="start" x="233" y="-303.3" font-family="Times,serif" font-style="italic" font-size="14.00">C</text>
<text text-anchor="start" x="243" y="-303.3" font-family="Times,serif" font-size="14.00">)</text>
</g>
<!-- n85064681&#45;&gt;SUBSn85064681n50270575 -->
<g id="edge12" class="edge">
<title>n85064681&#45;&gt;SUBSn85064681n50270575</title>
<path fill="none" stroke="black" d="M216.2,-287.7C218.84,-276.85 222.22,-262.92 224.85,-252.1"/>
</g>
<!-- n89427380 -->
<g id="node10" class="node">
<title>n89427380</title>
<polygon fill="none" stroke="black" points="610.5,-36 521.5,-36 521.5,0 610.5,0 610.5,-36"/>
<text text-anchor="start" x="529.5" y="-15.3" font-family="Times,serif" font-size="14.00">!sprinkler(</text>
<text text-anchor="start" x="587.5" y="-15.3" font-family="Times,serif" font-style="italic" font-size="14.00">C</text>
<text text-anchor="start" x="597.5" y="-15.3" font-family="Times,serif" font-size="14.00">)</text>
</g>
<!-- SUBSn80170599n69597978&#45;&gt;n89427380 -->
<g id="edge5" class="edge">
<title>SUBSn80170599n69597978&#45;&gt;n89427380</title>
<path fill="none" stroke="black" d="M566,-71.7C566,-63.98 566,-54.71 566,-46.11"/>
<polygon fill="black" stroke="black" points="569.5,-46.1 566,-36.1 562.5,-46.1 569.5,-46.1"/>
</g>
<!-- n65884461 -->
<g id="node11" class="node">
<title>n65884461</title>
<polygon fill="none" stroke="black" stroke-width="2" points="975,-324 919,-324 919,-288 975,-288 975,-324"/>
<text text-anchor="start" x="927" y="-303.3" font-family="Times,serif" font-size="14.00">rain(</text>
<text text-anchor="start" x="953" y="-303.3" font-family="Times,serif" font-style="italic" font-size="14.00">A</text>
<text text-anchor="start" x="962" y="-303.3" font-family="Times,serif" font-size="14.00">)</text>
</g>
<!-- n65884461&#45;&gt;SUBSn65884461n50270575 -->
<g id="edge6" class="edge">
<title>n65884461&#45;&gt;SUBSn65884461n50270575</title>
<path fill="none" stroke="black" d="M918.77,-291.89C915.82,-290.56 912.85,-289.24 910,-288 877.25,-273.76 839.41,-258.33 813.23,-247.82"/>
</g>
<!-- SUBSn68620097n65884461 -->
<g id="node15" class="node">
<title>SUBSn68620097n65884461</title>
<text text-anchor="start" x="1045.5" y="-230.3" font-family="Times,serif" font-size="14.00">{t0: A}</text>
</g>
<!-- n65884461&#45;&gt;SUBSn68620097n65884461 -->
<g id="edge10" class="edge">
<title>n65884461&#45;&gt;SUBSn68620097n65884461</title>
<path fill="none" stroke="black" d="M975.2,-288.41C993.9,-277.41 1018.35,-263.03 1037.17,-251.96"/>
</g>
<!-- n64439000 -->
<g id="node12" class="node">
<title>n64439000</title>
<polygon fill="none" stroke="black" stroke-width="2" points="643.5,-324 554.5,-324 554.5,-288 643.5,-288 643.5,-324"/>
<text text-anchor="start" x="562.5" y="-303.3" font-family="Times,serif" font-size="14.00">before(</text>
<text text-anchor="start" x="602.5" y="-303.3" font-family="Times,serif" font-style="italic" font-size="14.00">C</text>
<text text-anchor="start" x="612.5" y="-303.3" font-family="Times,serif" font-size="14.00">, </text>
<text text-anchor="start" x="620.5" y="-303.3" font-family="Times,serif" font-style="italic" font-size="14.00">D</text>
<text text-anchor="start" x="630.5" y="-303.3" font-family="Times,serif" font-size="14.00">)</text>
</g>
<!-- n64439000&#45;&gt;SUBSn64439000n50270575 -->
<g id="edge17" class="edge">
<title>n64439000&#45;&gt;SUBSn64439000n50270575</title>
<path fill="none" stroke="black" d="M554.49,-288.94C523.95,-277.92 483.48,-263.32 452.35,-252.08"/>
</g>
<!-- n47482199 -->
<g id="node24" class="node">
<title>n47482199</title>
<polygon fill="none" stroke="black" points="460,-180 318,-180 318,-144 460,-144 460,-180"/>
<text text-anchor="start" x="326" y="-159.3" font-family="Times,serif" font-size="14.00">!rain(</text>
<text text-anchor="start" x="357" y="-159.3" font-family="Times,serif" font-style="italic" font-size="14.00">C</text>
<text text-anchor="start" x="367" y="-159.3" font-family="Times,serif" font-size="14.00">), !sprinkler(</text>
<text text-anchor="start" x="437" y="-159.3" font-family="Times,serif" font-style="italic" font-size="14.00">D</text>
<text text-anchor="start" x="447" y="-159.3" font-family="Times,serif" font-size="14.00">)</text>
</g>
<!-- SUBSn64439000n50270575&#45;&gt;n47482199 -->
<g id="edge19" class="edge">
<title>SUBSn64439000n50270575&#45;&gt;n47482199</title>
<path fill="none" stroke="black" d="M401.04,-215.7C399.28,-207.98 397.16,-198.71 395.2,-190.11"/>
<polygon fill="black" stroke="black" points="398.55,-189.07 392.91,-180.1 391.73,-190.63 398.55,-189.07"/>
</g>
<!-- n68620097 -->
<g id="node14" class="node">
<title>n68620097</title>
<polygon fill="none" stroke="black" stroke-width="2" points="1139,-324 993,-324 993,-288 1139,-288 1139,-324"/>
<text text-anchor="start" x="1001" y="-303.3" font-family="Times,serif" font-size="14.00">!sprinkler(</text>
<text text-anchor="start" x="1059" y="-303.3" font-family="Times,serif" font-weight="bold" font-size="14.00">t0</text>
<text text-anchor="start" x="1071" y="-303.3" font-family="Times,serif" font-size="14.00">), !rain(</text>
<text text-anchor="start" x="1114" y="-303.3" font-family="Times,serif" font-weight="bold" font-size="14.00">t0</text>
<text text-anchor="start" x="1126" y="-303.3" font-family="Times,serif" font-size="14.00">)</text>
</g>
<!-- n68620097&#45;&gt;SUBSn68620097n65884461 -->
<g id="edge8" class="edge">
<title>n68620097&#45;&gt;SUBSn68620097n65884461</title>
<path fill="none" stroke="black" d="M1066,-287.7C1066,-276.85 1066,-262.92 1066,-252.1"/>
</g>
<!-- SUBSn68620097n80170599 -->
<g id="node16" class="node">
<title>SUBSn68620097n80170599</title>
<text text-anchor="start" x="955.5" y="-230.3" font-family="Times,serif" font-size="14.00">{t0: B}</text>
</g>
<!-- n68620097&#45;&gt;SUBSn68620097n80170599 -->
<g id="edge9" class="edge">
<title>n68620097&#45;&gt;SUBSn68620097n80170599</title>
<path fill="none" stroke="black" d="M1043.75,-287.7C1029.8,-276.85 1011.89,-262.92 997.99,-252.1"/>
</g>
<!-- n04713435 -->
<g id="node21" class="node">
<title>n04713435</title>
<polygon fill="none" stroke="black" points="1126,-180 1038,-180 1038,-144 1126,-144 1126,-180"/>
<text text-anchor="start" x="1046" y="-159.3" font-family="Times,serif" font-size="14.00">!sprinkler(</text>
<text text-anchor="start" x="1104" y="-159.3" font-family="Times,serif" font-style="italic" font-size="14.00">A</text>
<text text-anchor="start" x="1113" y="-159.3" font-family="Times,serif" font-size="14.00">)</text>
</g>
<!-- SUBSn68620097n65884461&#45;&gt;n04713435 -->
<g id="edge15" class="edge">
<title>SUBSn68620097n65884461&#45;&gt;n04713435</title>
<path fill="none" stroke="black" d="M1069.96,-215.7C1071.72,-207.98 1073.84,-198.71 1075.8,-190.11"/>
<polygon fill="black" stroke="black" points="1079.27,-190.63 1078.09,-180.1 1072.45,-189.07 1079.27,-190.63"/>
</g>
<!-- n64223769 -->
<g id="node23" class="node">
<title>n64223769</title>
<polygon fill="none" stroke="black" points="1020,-180 932,-180 932,-144 1020,-144 1020,-180"/>
<text text-anchor="start" x="940" y="-159.3" font-family="Times,serif" font-size="14.00">!sprinkler(</text>
<text text-anchor="start" x="998" y="-159.3" font-family="Times,serif" font-style="italic" font-size="14.00">B</text>
<text text-anchor="start" x="1007" y="-159.3" font-family="Times,serif" font-size="14.00">)</text>
</g>
<!-- SUBSn68620097n80170599&#45;&gt;n64223769 -->
<g id="edge22" class="edge">
<title>SUBSn68620097n80170599&#45;&gt;n64223769</title>
<path fill="none" stroke="black" d="M976,-215.7C976,-207.98 976,-198.71 976,-190.11"/>
<polygon fill="black" stroke="black" points="979.5,-190.1 976,-180.1 972.5,-190.1 979.5,-190.1"/>
</g>
<!-- n80170599 -->
<g id="node17" class="node">
<title>n80170599</title>
<polygon fill="none" stroke="black" stroke-width="2" points="901,-324 845,-324 845,-288 901,-288 901,-324"/>
<text text-anchor="start" x="853" y="-303.3" font-family="Times,serif" font-size="14.00">rain(</text>
<text text-anchor="start" x="879" y="-303.3" font-family="Times,serif" font-style="italic" font-size="14.00">B</text>
<text text-anchor="start" x="888" y="-303.3" font-family="Times,serif" font-size="14.00">)</text>
</g>
<!-- n80170599&#45;&gt;SUBSn80170599n50270575 -->
<g id="edge11" class="edge">
<title>n80170599&#45;&gt;SUBSn80170599n50270575</title>
<path fill="none" stroke="black" d="M844.78,-298.41C788.91,-285.38 664.55,-256.36 605.42,-242.57"/>
</g>
<!-- n80170599&#45;&gt;SUBSn80170599n69597978 -->
<g id="edge24" class="edge">
<title>n80170599&#45;&gt;SUBSn80170599n69597978</title>
<path fill="none" stroke="black" d="M881.4,-287.54C895.65,-255.09 919.8,-185.05 885,-144 847.57,-99.83 663.39,-92.43 593.22,-91.22"/>
</g>
<!-- n80170599&#45;&gt;SUBSn68620097n80170599 -->
<g id="edge14" class="edge">
<title>n80170599&#45;&gt;SUBSn68620097n80170599</title>
<path fill="none" stroke="black" d="M898.2,-287.88C914.16,-277.03 934.73,-263.05 950.71,-252.19"/>
</g>
<!-- n90372692 -->
<g id="node18" class="node">
<title>n90372692</title>
<polygon fill="none" stroke="black" stroke-width="2" points="1236.5,-324 1157.5,-324 1157.5,-288 1236.5,-288 1236.5,-324"/>
<text text-anchor="start" x="1165.5" y="-303.3" font-family="Times,serif" font-size="14.00">prinkler(</text>
<text text-anchor="start" x="1213.5" y="-303.3" font-family="Times,serif" font-style="italic" font-size="14.00">C</text>
<text text-anchor="start" x="1223.5" y="-303.3" font-family="Times,serif" font-size="14.00">)</text>
</g>
<!-- n77986307 -->
<g id="node19" class="node">
<title>n77986307</title>
<polygon fill="none" stroke="black" stroke-width="2" points="1316,-324 1254,-324 1254,-288 1316,-288 1316,-324"/>
<text text-anchor="start" x="1262" y="-303.3" font-family="Times,serif" font-size="14.00">!rain(</text>
<text text-anchor="start" x="1293" y="-303.3" font-family="Times,serif" font-style="italic" font-size="14.00">C</text>
<text text-anchor="start" x="1303" y="-303.3" font-family="Times,serif" font-size="14.00">)</text>
</g>
<!-- n69333083 -->
<g id="node25" class="node">
<title>n69333083</title>
<polygon fill="none" stroke="black" stroke-width="2" points="1396,-324 1334,-324 1334,-288 1396,-288 1396,-324"/>
<text text-anchor="start" x="1342" y="-303.3" font-family="Times,serif" font-size="14.00">!rain(</text>
<text text-anchor="start" x="1373" y="-303.3" font-family="Times,serif" font-style="italic" font-size="14.00">D</text>
<text text-anchor="start" x="1383" y="-303.3" font-family="Times,serif" font-size="14.00">)</text>
</g>
</g>
</svg>
