<?xml version="1.0" encoding="UTF-8" standalone="no"?>
<!DOCTYPE svg PUBLIC "-//W3C//DTD SVG 1.1//EN"
 "http://www.w3.org/Graphics/SVG/1.1/DTD/svg11.dtd">
<!-- Generated by graphviz version 2.43.0 (0)
 -->
<!-- Title: g Pages: 1 -->
<svg width="416pt" height="476pt"
 viewBox="0.00 0.00 415.50 476.00" xmlns="http://www.w3.org/2000/svg" xmlns:xlink="http://www.w3.org/1999/xlink">
<g id="graph0" class="graph" transform="scale(1 1) rotate(0) translate(4 472)">
<title>g</title>
<polygon fill="white" stroke="transparent" points="-4,4 -4,-472 411.5,-472 411.5,4 -4,4"/>
<!-- SUBSn16362666n86079711 -->
<g id="node1" class="node">
<title>SUBSn16362666n86079711</title>
<text text-anchor="start" x="85.5" y="-374.3" font-family="Times,serif" font-size="14.00">{t0: A}</text>
</g>
<!-- n73339364 -->
<g id="node7" class="node">
<title>n73339364</title>
<polygon fill="none" stroke="black" points="150,-252 62,-252 62,-216 150,-216 150,-252"/>
<text text-anchor="start" x="70" y="-231.3" font-family="Times,serif" font-size="14.00">!sprinkler(</text>
<text text-anchor="start" x="128" y="-231.3" font-family="Times,serif" font-style="italic" font-size="14.00">A</text>
<text text-anchor="start" x="137" y="-231.3" font-family="Times,serif" font-size="14.00">)</text>
</g>
<!-- SUBSn16362666n86079711&#45;&gt;n73339364 -->
<g id="edge5" class="edge">
<title>SUBSn16362666n86079711&#45;&gt;n73339364</title>
<path fill="none" stroke="black" d="M106,-359.87C106,-335.67 106,-291.21 106,-262.39"/>
<polygon fill="black" stroke="black" points="109.5,-262.19 106,-252.19 102.5,-262.19 109.5,-262.19"/>
</g>
<!-- n16362666 -->
<g id="node2" class="node">
<title>n16362666</title>
<polygon fill="none" stroke="black" stroke-width="2" points="56,-468 0,-468 0,-432 56,-432 56,-468"/>
<text text-anchor="start" x="8" y="-447.3" font-family="Times,serif" font-size="14.00">rain(</text>
<text text-anchor="start" x="34" y="-447.3" font-family="Times,serif" font-style="italic" font-size="14.00">A</text>
<text text-anchor="start" x="43" y="-447.3" font-family="Times,serif" font-size="14.00">)</text>
</g>
<!-- n16362666&#45;&gt;SUBSn16362666n86079711 -->
<g id="edge12" class="edge">
<title>n16362666&#45;&gt;SUBSn16362666n86079711</title>
<path fill="none" stroke="black" d="M47.28,-431.7C59.37,-420.85 74.89,-406.92 86.94,-396.1"/>
</g>
<!-- n86079711 -->
<g id="node3" class="node">
<title>n86079711</title>
<polygon fill="none" stroke="black" stroke-width="2" points="220,-468 74,-468 74,-432 220,-432 220,-468"/>
<text text-anchor="start" x="82" y="-447.3" font-family="Times,serif" font-size="14.00">!rain(</text>
<text text-anchor="start" x="113" y="-447.3" font-family="Times,serif" font-weight="bold" font-size="14.00">t0</text>
<text text-anchor="start" x="125" y="-447.3" font-family="Times,serif" font-size="14.00">), !sprinkler(</text>
<text text-anchor="start" x="195" y="-447.3" font-family="Times,serif" font-weight="bold" font-size="14.00">t0</text>
<text text-anchor="start" x="207" y="-447.3" font-family="Times,serif" font-size="14.00">)</text>
</g>
<!-- n86079711&#45;&gt;SUBSn16362666n86079711 -->
<g id="edge1" class="edge">
<title>n86079711&#45;&gt;SUBSn16362666n86079711</title>
<path fill="none" stroke="black" d="M136.87,-431.7C130.51,-420.85 122.35,-406.92 116.02,-396.1"/>
</g>
<!-- SUBSn06824101n86079711 -->
<g id="node10" class="node">
<title>SUBSn06824101n86079711</title>
<text text-anchor="start" x="167.5" y="-374.3" font-family="Times,serif" font-size="14.00">{t0: B}</text>
</g>
<!-- n86079711&#45;&gt;SUBSn06824101n86079711 -->
<g id="edge7" class="edge">
<title>n86079711&#45;&gt;SUBSn06824101n86079711</title>
<path fill="none" stroke="black" d="M157.13,-431.7C163.49,-420.85 171.65,-406.92 177.98,-396.1"/>
</g>
<!-- n00000000 -->
<g id="node4" class="node">
<title>n00000000</title>
<polygon fill="none" stroke="black" points="179,-36 121,-36 121,0 179,0 179,-36"/>
<text text-anchor="start" x="129" y="-14.3" font-family="Times,serif" font-size="14.00">FALSE</text>
</g>
<!-- SUBSn73339364n73339363 -->
<g id="node5" class="node">
<title>SUBSn73339364n73339363</title>
<text text-anchor="start" x="143" y="-86.3" font-family="Times,serif" font-size="14.00">{}</text>
</g>
<!-- SUBSn73339364n73339363&#45;&gt;n00000000 -->
<g id="edge10" class="edge">
<title>SUBSn73339364n73339363&#45;&gt;n00000000</title>
<path fill="none" stroke="black" d="M150,-71.7C150,-63.98 150,-54.71 150,-46.11"/>
<polygon fill="black" stroke="black" points="153.5,-46.1 150,-36.1 146.5,-46.1 153.5,-46.1"/>
</g>
<!-- n63541354 -->
<g id="node6" class="node">
<title>n63541354</title>
<polygon fill="none" stroke="black" points="232,-324 144,-324 144,-288 232,-288 232,-324"/>
<text text-anchor="start" x="152" y="-303.3" font-family="Times,serif" font-size="14.00">!sprinkler(</text>
<text text-anchor="start" x="210" y="-303.3" font-family="Times,serif" font-style="italic" font-size="14.00">B</text>
<text text-anchor="start" x="219" y="-303.3" font-family="Times,serif" font-size="14.00">)</text>
</g>
<!-- SUBSn90201992n63541354 -->
<g id="node11" class="node">
<title>SUBSn90201992n63541354</title>
<text text-anchor="start" x="188" y="-230.3" font-family="Times,serif" font-size="14.00">{}</text>
</g>
<!-- n63541354&#45;&gt;SUBSn90201992n63541354 -->
<g id="edge6" class="edge">
<title>n63541354&#45;&gt;SUBSn90201992n63541354</title>
<path fill="none" stroke="black" d="M189.73,-287.7C190.82,-276.85 192.21,-262.92 193.29,-252.1"/>
</g>
<!-- n73339364&#45;&gt;SUBSn73339364n73339363 -->
<g id="edge2" class="edge">
<title>n73339364&#45;&gt;SUBSn73339364n73339363</title>
<path fill="none" stroke="black" d="M111.31,-215.87C119.76,-188.58 136.2,-135.52 144.67,-108.19"/>
</g>
<!-- n90201992 -->
<g id="node8" class="node">
<title>n90201992</title>
<polygon fill="none" stroke="black" stroke-width="2" points="407.5,-324 250.5,-324 250.5,-288 407.5,-288 407.5,-324"/>
<text text-anchor="start" x="258.5" y="-303.3" font-family="Times,serif" font-size="14.00">sprinkler(</text>
<text text-anchor="start" x="311.5" y="-303.3" font-family="Times,serif" font-style="italic" font-size="14.00">B</text>
<text text-anchor="start" x="320.5" y="-303.3" font-family="Times,serif" font-size="14.00">), sprinkler(</text>
<text text-anchor="start" x="385.5" y="-303.3" font-family="Times,serif" font-style="italic" font-size="14.00">A</text>
<text text-anchor="start" x="394.5" y="-303.3" font-family="Times,serif" font-size="14.00">)</text>
</g>
<!-- n90201992&#45;&gt;SUBSn90201992n63541354 -->
<g id="edge4" class="edge">
<title>n90201992&#45;&gt;SUBSn90201992n63541354</title>
<path fill="none" stroke="black" d="M296.22,-287.88C273.44,-275.98 243.45,-260.31 222.04,-249.12"/>
</g>
<!-- n06824101 -->
<g id="node9" class="node">
<title>n06824101</title>
<polygon fill="none" stroke="black" stroke-width="2" points="294,-468 238,-468 238,-432 294,-432 294,-468"/>
<text text-anchor="start" x="246" y="-447.3" font-family="Times,serif" font-size="14.00">rain(</text>
<text text-anchor="start" x="272" y="-447.3" font-family="Times,serif" font-style="italic" font-size="14.00">B</text>
<text text-anchor="start" x="281" y="-447.3" font-family="Times,serif" font-size="14.00">)</text>
</g>
<!-- n06824101&#45;&gt;SUBSn06824101n86079711 -->
<g id="edge3" class="edge">
<title>n06824101&#45;&gt;SUBSn06824101n86079711</title>
<path fill="none" stroke="black" d="M246.72,-431.7C234.63,-420.85 219.11,-406.92 207.06,-396.1"/>
</g>
<!-- SUBSn06824101n86079711&#45;&gt;n63541354 -->
<g id="edge9" class="edge">
<title>SUBSn06824101n86079711&#45;&gt;n63541354</title>
<path fill="none" stroke="black" d="M188,-359.7C188,-351.98 188,-342.71 188,-334.11"/>
<polygon fill="black" stroke="black" points="191.5,-334.1 188,-324.1 184.5,-334.1 191.5,-334.1"/>
</g>
<!-- n73339363 -->
<g id="node12" class="node">
<title>n73339363</title>
<polygon fill="none" stroke="black" points="231.5,-180 148.5,-180 148.5,-144 231.5,-144 231.5,-180"/>
<text text-anchor="start" x="156.5" y="-159.3" font-family="Times,serif" font-size="14.00">sprinkler(</text>
<text text-anchor="start" x="209.5" y="-159.3" font-family="Times,serif" font-style="italic" font-size="14.00">A</text>
<text text-anchor="start" x="218.5" y="-159.3" font-family="Times,serif" font-size="14.00">)</text>
</g>
<!-- SUBSn90201992n63541354&#45;&gt;n73339363 -->
<g id="edge11" class="edge">
<title>SUBSn90201992n63541354&#45;&gt;n73339363</title>
<path fill="none" stroke="black" d="M193.76,-215.7C193.21,-207.98 192.55,-198.71 191.94,-190.11"/>
<polygon fill="black" stroke="black" points="195.43,-189.83 191.22,-180.1 188.44,-190.33 195.43,-189.83"/>
</g>
<!-- n73339363&#45;&gt;SUBSn73339364n73339363 -->
<g id="edge8" class="edge">
<title>n73339363&#45;&gt;SUBSn73339364n73339363</title>
<path fill="none" stroke="black" d="M180.11,-143.7C173.91,-132.85 165.95,-118.92 159.77,-108.1"/>
</g>
</g>
</svg>
