<?xml version="1.0" encoding="UTF-8" standalone="no"?>
<!DOCTYPE svg PUBLIC "-//W3C//DTD SVG 1.1//EN"
 "http://www.w3.org/Graphics/SVG/1.1/DTD/svg11.dtd">
<!-- Generated by graphviz version 2.43.0 (0)
 -->
<!-- Title: g Pages: 1 -->
<svg width="1346pt" height="332pt"
 viewBox="0.00 0.00 1345.50 332.00" xmlns="http://www.w3.org/2000/svg" xmlns:xlink="http://www.w3.org/1999/xlink">
<g id="graph0" class="graph" transform="scale(1 1) rotate(0) translate(4 328)">
<title>g</title>
<polygon fill="white" stroke="transparent" points="-4,4 -4,-328 1341.5,-328 1341.5,4 -4,4"/>
<!-- SUBSn04282456n10905338 -->
<g id="node1" class="node">
<title>SUBSn04282456n10905338</title>
<text text-anchor="start" x="294" y="-230.3" font-family="Times,serif" font-size="14.00">{t1: A469, t20: A469}</text>
</g>
<!-- n56190744 -->
<g id="node2" class="node">
<title>n56190744</title>
<polygon fill="none" stroke="black" points="437,-180 252,-180 252,-144 437,-144 437,-180"/>
<text text-anchor="start" x="260" y="-159.3" font-family="Times,serif" font-size="14.00">!rain(</text>
<text text-anchor="start" x="291" y="-159.3" font-family="Times,serif" font-weight="bold" font-size="14.00">t10</text>
<text text-anchor="start" x="310" y="-159.3" font-family="Times,serif" font-size="14.00">), !before(</text>
<text text-anchor="start" x="366" y="-159.3" font-family="Times,serif" font-weight="bold" font-size="14.00">t10</text>
<text text-anchor="start" x="385" y="-159.3" font-family="Times,serif" font-size="14.00">, </text>
<text text-anchor="start" x="393" y="-159.3" font-family="Times,serif" font-weight="bold" font-size="14.00">A469</text>
<text text-anchor="start" x="424" y="-159.3" font-family="Times,serif" font-size="14.00">)</text>
</g>
<!-- SUBSn04282456n10905338&#45;&gt;n56190744 -->
<g id="edge1" class="edge">
<title>SUBSn04282456n10905338&#45;&gt;n56190744</title>
<path fill="none" stroke="black" d="M352.78,-215.7C351.57,-207.98 350.11,-198.71 348.76,-190.11"/>
<polygon fill="black" stroke="black" points="352.2,-189.44 347.19,-180.1 345.28,-190.53 352.2,-189.44"/>
</g>
<!-- SUBSn44200285n10905338 -->
<g id="node3" class="node">
<title>SUBSn44200285n10905338</title>
<text text-anchor="start" x="1040" y="-230.3" font-family="Times,serif" font-size="14.00">{t10: A, t20: B}</text>
</g>
<!-- n47477464 -->
<g id="node4" class="node">
<title>n47477464</title>
<polygon fill="none" stroke="black" points="1154.5,-180 1014.5,-180 1014.5,-144 1154.5,-144 1154.5,-180"/>
<text text-anchor="start" x="1022.5" y="-159.3" font-family="Times,serif" font-size="14.00">!rain(</text>
<text text-anchor="start" x="1053.5" y="-159.3" font-family="Times,serif" font-style="italic" font-size="14.00">A</text>
<text text-anchor="start" x="1062.5" y="-159.3" font-family="Times,serif" font-size="14.00">), !sprinkler(</text>
<text text-anchor="start" x="1132.5" y="-159.3" font-family="Times,serif" font-style="italic" font-size="14.00">B</text>
<text text-anchor="start" x="1141.5" y="-159.3" font-family="Times,serif" font-size="14.00">)</text>
</g>
<!-- SUBSn44200285n10905338&#45;&gt;n47477464 -->
<g id="edge2" class="edge">
<title>SUBSn44200285n10905338&#45;&gt;n47477464</title>
<path fill="none" stroke="black" d="M1084.5,-215.7C1084.5,-207.98 1084.5,-198.71 1084.5,-190.11"/>
<polygon fill="black" stroke="black" points="1088,-190.1 1084.5,-180.1 1081,-190.1 1088,-190.1"/>
</g>
<!-- n10877086 -->
<g id="node5" class="node">
<title>n10877086</title>
<polygon fill="none" stroke="black" stroke-width="2" points="542.5,-324 454.5,-324 454.5,-288 542.5,-288 542.5,-324"/>
<text text-anchor="start" x="462.5" y="-303.3" font-family="Times,serif" font-size="14.00">before(</text>
<text text-anchor="start" x="502.5" y="-303.3" font-family="Times,serif" font-style="italic" font-size="14.00">B</text>
<text text-anchor="start" x="511.5" y="-303.3" font-family="Times,serif" font-size="14.00">, </text>
<text text-anchor="start" x="519.5" y="-303.3" font-family="Times,serif" font-style="italic" font-size="14.00">C</text>
<text text-anchor="start" x="529.5" y="-303.3" font-family="Times,serif" font-size="14.00">)</text>
</g>
<!-- SUBSn10905338n10877086 -->
<g id="node6" class="node">
<title>SUBSn10905338n10877086</title>
<text text-anchor="start" x="682" y="-230.3" font-family="Times,serif" font-size="14.00">{t10: B, t20: C}</text>
</g>
<!-- n10877086&#45;&gt;SUBSn10905338n10877086 -->
<g id="edge3" class="edge">
<title>n10877086&#45;&gt;SUBSn10905338n10877086</title>
<path fill="none" stroke="black" d="M542.73,-291.42C580.29,-279.89 634.25,-263.32 673.99,-251.12"/>
</g>
<!-- SUBSn71773096n10877086 -->
<g id="node17" class="node">
<title>SUBSn71773096n10877086</title>
<text text-anchor="start" x="474" y="-86.3" font-family="Times,serif" font-size="14.00">{t10: B, A470: C}</text>
</g>
<!-- n10877086&#45;&gt;SUBSn71773096n10877086 -->
<g id="edge11" class="edge">
<title>n10877086&#45;&gt;SUBSn71773096n10877086</title>
<path fill="none" stroke="black" d="M492.2,-287.99C482.08,-258 465.04,-194.14 482.5,-144 487.21,-130.47 496.97,-117.8 505.9,-108.24"/>
</g>
<!-- n74563799 -->
<g id="node24" class="node">
<title>n74563799</title>
<polygon fill="none" stroke="black" points="836,-180 695,-180 695,-144 836,-144 836,-180"/>
<text text-anchor="start" x="703" y="-159.3" font-family="Times,serif" font-size="14.00">!sprinkler(</text>
<text text-anchor="start" x="761" y="-159.3" font-family="Times,serif" font-style="italic" font-size="14.00">C</text>
<text text-anchor="start" x="771" y="-159.3" font-family="Times,serif" font-size="14.00">), !rain(</text>
<text text-anchor="start" x="814" y="-159.3" font-family="Times,serif" font-style="italic" font-size="14.00">B</text>
<text text-anchor="start" x="823" y="-159.3" font-family="Times,serif" font-size="14.00">)</text>
</g>
<!-- SUBSn10905338n10877086&#45;&gt;n74563799 -->
<g id="edge16" class="edge">
<title>SUBSn10905338n10877086&#45;&gt;n74563799</title>
<path fill="none" stroke="black" d="M736.14,-215.7C740.63,-207.64 746.06,-197.89 751.02,-188.98"/>
<polygon fill="black" stroke="black" points="754.16,-190.54 755.97,-180.1 748.05,-187.14 754.16,-190.54"/>
</g>
<!-- n48336259 -->
<g id="node7" class="node">
<title>n48336259</title>
<polygon fill="none" stroke="black" points="996.5,-180 854.5,-180 854.5,-144 996.5,-144 996.5,-180"/>
<text text-anchor="start" x="862.5" y="-159.3" font-family="Times,serif" font-size="14.00">!sprinkler(</text>
<text text-anchor="start" x="920.5" y="-159.3" font-family="Times,serif" font-style="italic" font-size="14.00">D</text>
<text text-anchor="start" x="930.5" y="-159.3" font-family="Times,serif" font-size="14.00">), !rain(</text>
<text text-anchor="start" x="973.5" y="-159.3" font-family="Times,serif" font-style="italic" font-size="14.00">C</text>
<text text-anchor="start" x="983.5" y="-159.3" font-family="Times,serif" font-size="14.00">)</text>
</g>
<!-- n04282456 -->
<g id="node8" class="node">
<title>n04282456</title>
<polygon fill="none" stroke="black" stroke-width="2" points="317.5,-324 231.5,-324 231.5,-288 317.5,-288 317.5,-324"/>
<text text-anchor="start" x="239.5" y="-303.3" font-family="Times,serif" font-size="14.00">sprinkler(</text>
<text text-anchor="start" x="292.5" y="-303.3" font-family="Times,serif" font-weight="bold" font-size="14.00">t1</text>
<text text-anchor="start" x="304.5" y="-303.3" font-family="Times,serif" font-size="14.00">)</text>
</g>
<!-- n04282456&#45;&gt;SUBSn04282456n10905338 -->
<g id="edge12" class="edge">
<title>n04282456&#45;&gt;SUBSn04282456n10905338</title>
<path fill="none" stroke="black" d="M294.52,-287.7C307.08,-276.85 323.2,-262.92 335.71,-252.1"/>
</g>
<!-- SUBSn10715066n04282456 -->
<g id="node9" class="node">
<title>SUBSn10715066n04282456</title>
<text text-anchor="start" x="8" y="-230.3" font-family="Times,serif" font-size="14.00">{t0: J677, t1: J677}</text>
</g>
<!-- n04282456&#45;&gt;SUBSn10715066n04282456 -->
<g id="edge4" class="edge">
<title>n04282456&#45;&gt;SUBSn10715066n04282456</title>
<path fill="none" stroke="black" d="M231.34,-290.75C197.44,-279.56 150.13,-263.93 114.2,-252.07"/>
</g>
<!-- SUBSn04282456n10715066 -->
<g id="node11" class="node">
<title>SUBSn04282456n10715066</title>
<text text-anchor="start" x="151" y="-230.3" font-family="Times,serif" font-size="14.00">{t1: J678, t0: J678}</text>
</g>
<!-- n04282456&#45;&gt;SUBSn04282456n10715066 -->
<g id="edge27" class="edge">
<title>n04282456&#45;&gt;SUBSn04282456n10715066</title>
<path fill="none" stroke="black" d="M257.44,-287.7C246.75,-276.85 233.02,-262.92 222.36,-252.1"/>
</g>
<!-- SUBSn10905338n04282456 -->
<g id="node21" class="node">
<title>SUBSn10905338n04282456</title>
<text text-anchor="start" x="523" y="-230.3" font-family="Times,serif" font-size="14.00">{t20: A470, t1: A470}</text>
</g>
<!-- n04282456&#45;&gt;SUBSn10905338n04282456 -->
<g id="edge25" class="edge">
<title>n04282456&#45;&gt;SUBSn10905338n04282456</title>
<path fill="none" stroke="black" d="M317.6,-295.27C368.68,-283.73 454.46,-264.36 514.97,-250.7"/>
</g>
<!-- n76209935 -->
<g id="node26" class="node">
<title>n76209935</title>
<polygon fill="none" stroke="black" points="102.5,-180 22.5,-180 22.5,-144 102.5,-144 102.5,-180"/>
<text text-anchor="start" x="30.5" y="-159.3" font-family="Times,serif" font-size="14.00">!rain(</text>
<text text-anchor="start" x="61.5" y="-159.3" font-family="Times,serif" font-weight="bold" font-size="14.00">J677</text>
<text text-anchor="start" x="89.5" y="-159.3" font-family="Times,serif" font-size="14.00">)</text>
</g>
<!-- SUBSn10715066n04282456&#45;&gt;n76209935 -->
<g id="edge22" class="edge">
<title>SUBSn10715066n04282456&#45;&gt;n76209935</title>
<path fill="none" stroke="black" d="M62.5,-215.7C62.5,-207.98 62.5,-198.71 62.5,-190.11"/>
<polygon fill="black" stroke="black" points="66,-190.1 62.5,-180.1 59,-190.1 66,-190.1"/>
</g>
<!-- n10715066 -->
<g id="node10" class="node">
<title>n10715066</title>
<polygon fill="none" stroke="black" stroke-width="2" points="209.5,-324 63.5,-324 63.5,-288 209.5,-288 209.5,-324"/>
<text text-anchor="start" x="71.5" y="-303.3" font-family="Times,serif" font-size="14.00">!rain(</text>
<text text-anchor="start" x="102.5" y="-303.3" font-family="Times,serif" font-weight="bold" font-size="14.00">t0</text>
<text text-anchor="start" x="114.5" y="-303.3" font-family="Times,serif" font-size="14.00">), !sprinkler(</text>
<text text-anchor="start" x="184.5" y="-303.3" font-family="Times,serif" font-weight="bold" font-size="14.00">t0</text>
<text text-anchor="start" x="196.5" y="-303.3" font-family="Times,serif" font-size="14.00">)</text>
</g>
<!-- n10715066&#45;&gt;SUBSn10715066n04282456 -->
<g id="edge8" class="edge">
<title>n10715066&#45;&gt;SUBSn10715066n04282456</title>
<path fill="none" stroke="black" d="M118.21,-287.7C106.74,-276.85 92.01,-262.92 80.58,-252.1"/>
</g>
<!-- n10715066&#45;&gt;SUBSn04282456n10715066 -->
<g id="edge5" class="edge">
<title>n10715066&#45;&gt;SUBSn04282456n10715066</title>
<path fill="none" stroke="black" d="M153.56,-287.7C164.25,-276.85 177.98,-262.92 188.64,-252.1"/>
</g>
<!-- n29284081 -->
<g id="node25" class="node">
<title>n29284081</title>
<polygon fill="none" stroke="black" points="233.5,-180 153.5,-180 153.5,-144 233.5,-144 233.5,-180"/>
<text text-anchor="start" x="161.5" y="-159.3" font-family="Times,serif" font-size="14.00">!rain(</text>
<text text-anchor="start" x="192.5" y="-159.3" font-family="Times,serif" font-weight="bold" font-size="14.00">J678</text>
<text text-anchor="start" x="220.5" y="-159.3" font-family="Times,serif" font-size="14.00">)</text>
</g>
<!-- SUBSn04282456n10715066&#45;&gt;n29284081 -->
<g id="edge18" class="edge">
<title>SUBSn04282456n10715066&#45;&gt;n29284081</title>
<path fill="none" stroke="black" d="M202.53,-215.7C201.21,-207.98 199.62,-198.71 198.15,-190.11"/>
<polygon fill="black" stroke="black" points="201.57,-189.37 196.43,-180.1 194.67,-190.55 201.57,-189.37"/>
</g>
<!-- n10905338 -->
<g id="node12" class="node">
<title>n10905338</title>
<polygon fill="none" stroke="black" stroke-width="2" points="857.5,-324 595.5,-324 595.5,-288 857.5,-288 857.5,-324"/>
<text text-anchor="start" x="603.5" y="-303.3" font-family="Times,serif" font-size="14.00">!sprinkler(</text>
<text text-anchor="start" x="661.5" y="-303.3" font-family="Times,serif" font-weight="bold" font-size="14.00">t20</text>
<text text-anchor="start" x="680.5" y="-303.3" font-family="Times,serif" font-size="14.00">), !rain(</text>
<text text-anchor="start" x="723.5" y="-303.3" font-family="Times,serif" font-weight="bold" font-size="14.00">t10</text>
<text text-anchor="start" x="742.5" y="-303.3" font-family="Times,serif" font-size="14.00">), !before(</text>
<text text-anchor="start" x="798.5" y="-303.3" font-family="Times,serif" font-weight="bold" font-size="14.00">t10</text>
<text text-anchor="start" x="817.5" y="-303.3" font-family="Times,serif" font-size="14.00">, </text>
<text text-anchor="start" x="825.5" y="-303.3" font-family="Times,serif" font-weight="bold" font-size="14.00">t20</text>
<text text-anchor="start" x="844.5" y="-303.3" font-family="Times,serif" font-size="14.00">)</text>
</g>
<!-- n10905338&#45;&gt;SUBSn04282456n10905338 -->
<g id="edge6" class="edge">
<title>n10905338&#45;&gt;SUBSn04282456n10905338</title>
<path fill="none" stroke="black" d="M636.22,-287.97C571.23,-275.7 484.85,-259.4 425.15,-248.14"/>
</g>
<!-- n10905338&#45;&gt;SUBSn44200285n10905338 -->
<g id="edge17" class="edge">
<title>n10905338&#45;&gt;SUBSn44200285n10905338</title>
<path fill="none" stroke="black" d="M813.62,-287.97C881.82,-274.63 974.42,-256.52 1031.78,-245.31"/>
</g>
<!-- n10905338&#45;&gt;SUBSn10905338n10877086 -->
<g id="edge26" class="edge">
<title>n10905338&#45;&gt;SUBSn10905338n10877086</title>
<path fill="none" stroke="black" d="M726.5,-287.7C726.5,-276.85 726.5,-262.92 726.5,-252.1"/>
</g>
<!-- SUBSn17671178n10905338 -->
<g id="node20" class="node">
<title>SUBSn17671178n10905338</title>
<text text-anchor="start" x="877.5" y="-230.3" font-family="Times,serif" font-size="14.00">{t10: C, t20: D}</text>
</g>
<!-- n10905338&#45;&gt;SUBSn17671178n10905338 -->
<g id="edge24" class="edge">
<title>n10905338&#45;&gt;SUBSn17671178n10905338</title>
<path fill="none" stroke="black" d="M774.2,-287.97C804.68,-277.08 844.07,-263.01 874.59,-252.11"/>
</g>
<!-- n10905338&#45;&gt;SUBSn10905338n04282456 -->
<g id="edge19" class="edge">
<title>n10905338&#45;&gt;SUBSn10905338n04282456</title>
<path fill="none" stroke="black" d="M691.76,-287.88C669.76,-277.03 641.4,-263.05 619.37,-252.19"/>
</g>
<!-- n44200285 -->
<g id="node13" class="node">
<title>n44200285</title>
<polygon fill="none" stroke="black" stroke-width="2" points="1177,-324 1090,-324 1090,-288 1177,-288 1177,-324"/>
<text text-anchor="start" x="1098" y="-303.3" font-family="Times,serif" font-size="14.00">before(</text>
<text text-anchor="start" x="1138" y="-303.3" font-family="Times,serif" font-style="italic" font-size="14.00">A</text>
<text text-anchor="start" x="1147" y="-303.3" font-family="Times,serif" font-size="14.00">, </text>
<text text-anchor="start" x="1155" y="-303.3" font-family="Times,serif" font-style="italic" font-size="14.00">B</text>
<text text-anchor="start" x="1164" y="-303.3" font-family="Times,serif" font-size="14.00">)</text>
</g>
<!-- n44200285&#45;&gt;SUBSn44200285n10905338 -->
<g id="edge7" class="edge">
<title>n44200285&#45;&gt;SUBSn44200285n10905338</title>
<path fill="none" stroke="black" d="M1121.39,-287.7C1113.79,-276.85 1104.04,-262.92 1096.47,-252.1"/>
</g>
<!-- SUBSn44200285n71773096 -->
<g id="node23" class="node">
<title>SUBSn44200285n71773096</title>
<text text-anchor="start" x="870" y="-86.3" font-family="Times,serif" font-size="14.00">{t10: A, A470: B}</text>
</g>
<!-- n44200285&#45;&gt;SUBSn44200285n71773096 -->
<g id="edge20" class="edge">
<title>n44200285&#45;&gt;SUBSn44200285n71773096</title>
<path fill="none" stroke="black" d="M1144.61,-287.82C1163.75,-255.82 1197.74,-186.52 1163.5,-144 1140.78,-115.79 1043.5,-101.8 979.12,-95.5"/>
</g>
<!-- n04978678 -->
<g id="node14" class="node">
<title>n04978678</title>
<polygon fill="none" stroke="black" points="951,-36 890,-36 890,0 951,0 951,-36"/>
<text text-anchor="start" x="898" y="-15.3" font-family="Times,serif" font-size="14.00">!rain(</text>
<text text-anchor="start" x="929" y="-15.3" font-family="Times,serif" font-style="italic" font-size="14.00">A</text>
<text text-anchor="start" x="938" y="-15.3" font-family="Times,serif" font-size="14.00">)</text>
</g>
<!-- n86260221 -->
<g id="node15" class="node">
<title>n86260221</title>
<polygon fill="none" stroke="black" stroke-width="2" points="1257.5,-324 1195.5,-324 1195.5,-288 1257.5,-288 1257.5,-324"/>
<text text-anchor="start" x="1203.5" y="-303.3" font-family="Times,serif" font-size="14.00">!rain(</text>
<text text-anchor="start" x="1234.5" y="-303.3" font-family="Times,serif" font-style="italic" font-size="14.00">D</text>
<text text-anchor="start" x="1244.5" y="-303.3" font-family="Times,serif" font-size="14.00">)</text>
</g>
<!-- n71773096 -->
<g id="node16" class="node">
<title>n71773096</title>
<polygon fill="none" stroke="black" points="677,-180 492,-180 492,-144 677,-144 677,-180"/>
<text text-anchor="start" x="500" y="-159.3" font-family="Times,serif" font-size="14.00">!rain(</text>
<text text-anchor="start" x="531" y="-159.3" font-family="Times,serif" font-weight="bold" font-size="14.00">t10</text>
<text text-anchor="start" x="550" y="-159.3" font-family="Times,serif" font-size="14.00">), !before(</text>
<text text-anchor="start" x="606" y="-159.3" font-family="Times,serif" font-weight="bold" font-size="14.00">t10</text>
<text text-anchor="start" x="625" y="-159.3" font-family="Times,serif" font-size="14.00">, </text>
<text text-anchor="start" x="633" y="-159.3" font-family="Times,serif" font-weight="bold" font-size="14.00">A470</text>
<text text-anchor="start" x="664" y="-159.3" font-family="Times,serif" font-size="14.00">)</text>
</g>
<!-- n71773096&#45;&gt;SUBSn71773096n10877086 -->
<g id="edge9" class="edge">
<title>n71773096&#45;&gt;SUBSn71773096n10877086</title>
<path fill="none" stroke="black" d="M569.67,-143.7C560.37,-132.85 548.43,-118.92 539.16,-108.1"/>
</g>
<!-- n71773096&#45;&gt;SUBSn44200285n71773096 -->
<g id="edge23" class="edge">
<title>n71773096&#45;&gt;SUBSn44200285n71773096</title>
<path fill="none" stroke="black" d="M666.27,-143.97C726.77,-131.36 807.76,-114.49 861.91,-103.21"/>
</g>
<!-- n39875663 -->
<g id="node22" class="node">
<title>n39875663</title>
<polygon fill="none" stroke="black" points="555,-36 494,-36 494,0 555,0 555,-36"/>
<text text-anchor="start" x="502" y="-15.3" font-family="Times,serif" font-size="14.00">!rain(</text>
<text text-anchor="start" x="533" y="-15.3" font-family="Times,serif" font-style="italic" font-size="14.00">B</text>
<text text-anchor="start" x="542" y="-15.3" font-family="Times,serif" font-size="14.00">)</text>
</g>
<!-- SUBSn71773096n10877086&#45;&gt;n39875663 -->
<g id="edge21" class="edge">
<title>SUBSn71773096n10877086&#45;&gt;n39875663</title>
<path fill="none" stroke="black" d="M524.5,-71.7C524.5,-63.98 524.5,-54.71 524.5,-46.11"/>
<polygon fill="black" stroke="black" points="528,-46.1 524.5,-36.1 521,-46.1 528,-46.1"/>
</g>
<!-- n49901307 -->
<g id="node18" class="node">
<title>n49901307</title>
<polygon fill="none" stroke="black" stroke-width="2" points="1337.5,-324 1275.5,-324 1275.5,-288 1337.5,-288 1337.5,-324"/>
<text text-anchor="start" x="1283.5" y="-303.3" font-family="Times,serif" font-size="14.00">!rain(</text>
<text text-anchor="start" x="1314.5" y="-303.3" font-family="Times,serif" font-style="italic" font-size="14.00">C</text>
<text text-anchor="start" x="1324.5" y="-303.3" font-family="Times,serif" font-size="14.00">)</text>
</g>
<!-- n17671178 -->
<g id="node19" class="node">
<title>n17671178</title>
<polygon fill="none" stroke="black" stroke-width="2" points="967,-324 878,-324 878,-288 967,-288 967,-324"/>
<text text-anchor="start" x="886" y="-303.3" font-family="Times,serif" font-size="14.00">before(</text>
<text text-anchor="start" x="926" y="-303.3" font-family="Times,serif" font-style="italic" font-size="14.00">C</text>
<text text-anchor="start" x="936" y="-303.3" font-family="Times,serif" font-size="14.00">, </text>
<text text-anchor="start" x="944" y="-303.3" font-family="Times,serif" font-style="italic" font-size="14.00">D</text>
<text text-anchor="start" x="954" y="-303.3" font-family="Times,serif" font-size="14.00">)</text>
</g>
<!-- n17671178&#45;&gt;SUBSn17671178n10905338 -->
<g id="edge10" class="edge">
<title>n17671178&#45;&gt;SUBSn17671178n10905338</title>
<path fill="none" stroke="black" d="M922.5,-287.7C922.5,-276.85 922.5,-262.92 922.5,-252.1"/>
</g>
<!-- SUBSn17671178n10905338&#45;&gt;n48336259 -->
<g id="edge15" class="edge">
<title>SUBSn17671178n10905338&#45;&gt;n48336259</title>
<path fill="none" stroke="black" d="M923.24,-215.7C923.57,-207.98 923.97,-198.71 924.34,-190.11"/>
<polygon fill="black" stroke="black" points="927.84,-190.25 924.77,-180.1 920.84,-189.95 927.84,-190.25"/>
</g>
<!-- SUBSn10905338n04282456&#45;&gt;n71773096 -->
<g id="edge13" class="edge">
<title>SUBSn10905338n04282456&#45;&gt;n71773096</title>
<path fill="none" stroke="black" d="M584.5,-215.7C584.5,-207.98 584.5,-198.71 584.5,-190.11"/>
<polygon fill="black" stroke="black" points="588,-190.1 584.5,-180.1 581,-190.1 588,-190.1"/>
</g>
<!-- SUBSn44200285n71773096&#45;&gt;n04978678 -->
<g id="edge14" class="edge">
<title>SUBSn44200285n71773096&#45;&gt;n04978678</title>
<path fill="none" stroke="black" d="M920.5,-71.7C920.5,-63.98 920.5,-54.71 920.5,-46.11"/>
<polygon fill="black" stroke="black" points="924,-46.1 920.5,-36.1 917,-46.1 924,-46.1"/>
</g>
</g>
</svg>
