<?xml version="1.0" encoding="UTF-8" standalone="no"?>
<!DOCTYPE svg PUBLIC "-//W3C//DTD SVG 1.1//EN"
 "http://www.w3.org/Graphics/SVG/1.1/DTD/svg11.dtd">
<!-- Generated by graphviz version 2.43.0 (0)
 -->
<!-- Title: g Pages: 1 -->
<svg width="384pt" height="476pt"
 viewBox="0.00 0.00 384.00 476.00" xmlns="http://www.w3.org/2000/svg" xmlns:xlink="http://www.w3.org/1999/xlink">
<g id="graph0" class="graph" transform="scale(1 1) rotate(0) translate(4 472)">
<title>g</title>
<polygon fill="white" stroke="transparent" points="-4,4 -4,-472 380,-472 380,4 -4,4"/>
<!-- n00000000 -->
<g id="node1" class="node">
<title>n00000000</title>
<polygon fill="none" stroke="black" points="216,-36 158,-36 158,0 216,0 216,-36"/>
<text text-anchor="start" x="166" y="-14.3" font-family="Times,serif" font-size="14.00">FALSE</text>
</g>
<!-- SUBSn45089688n54638979 -->
<g id="node2" class="node">
<title>SUBSn45089688n54638979</title>
<text text-anchor="start" x="92" y="-230.3" font-family="Times,serif" font-size="14.00">{x5: SKF0(Kim)}</text>
</g>
<!-- n30998027 -->
<g id="node9" class="node">
<title>n30998027</title>
<polygon fill="none" stroke="black" points="179,-180 105,-180 105,-144 179,-144 179,-180"/>
<text text-anchor="start" x="113" y="-159.3" font-family="Times,serif" font-size="14.00">!dog(</text>
<text text-anchor="start" x="143" y="-159.3" font-family="Times,serif" font-style="italic" font-size="14.00">Kim</text>
<text text-anchor="start" x="166" y="-159.3" font-family="Times,serif" font-size="14.00">)</text>
</g>
<!-- SUBSn45089688n54638979&#45;&gt;n30998027 -->
<g id="edge9" class="edge">
<title>SUBSn45089688n54638979&#45;&gt;n30998027</title>
<path fill="none" stroke="black" d="M142,-215.7C142,-207.98 142,-198.71 142,-190.11"/>
<polygon fill="black" stroke="black" points="145.5,-190.1 142,-180.1 138.5,-190.1 145.5,-190.1"/>
</g>
<!-- n54638979 -->
<g id="node3" class="node">
<title>n54638979</title>
<polygon fill="none" stroke="black" stroke-width="2" points="105,-324 1,-324 1,-288 105,-288 105,-324"/>
<text text-anchor="start" x="9" y="-303.3" font-family="Times,serif" font-size="14.00">!loves(</text>
<text text-anchor="start" x="47" y="-303.3" font-family="Times,serif" font-weight="bold" font-size="14.00">x5</text>
<text text-anchor="start" x="61" y="-303.3" font-family="Times,serif" font-size="14.00">, </text>
<text text-anchor="start" x="69" y="-303.3" font-family="Times,serif" font-style="italic" font-size="14.00">Kim</text>
<text text-anchor="start" x="92" y="-303.3" font-family="Times,serif" font-size="14.00">)</text>
</g>
<!-- n54638979&#45;&gt;SUBSn45089688n54638979 -->
<g id="edge7" class="edge">
<title>n54638979&#45;&gt;SUBSn45089688n54638979</title>
<path fill="none" stroke="black" d="M75,-287.7C88.8,-276.85 106.51,-262.92 120.25,-252.1"/>
</g>
<!-- n45089688 -->
<g id="node4" class="node">
<title>n45089688</title>
<polygon fill="none" stroke="black" points="338.5,-324 123.5,-324 123.5,-288 338.5,-288 338.5,-324"/>
<text text-anchor="start" x="131.5" y="-303.3" font-family="Times,serif" font-size="14.00">!dog(</text>
<text text-anchor="start" x="161.5" y="-303.3" font-family="Times,serif" font-style="italic" font-size="14.00">Kim</text>
<text text-anchor="start" x="184.5" y="-303.3" font-family="Times,serif" font-size="14.00">), loves(</text>
<text text-anchor="start" x="230.5" y="-303.3" font-family="Times,serif" font-style="italic" font-size="14.00">SKF0</text>
<text text-anchor="start" x="261.5" y="-303.3" font-family="Times,serif" font-size="14.00">(</text>
<text text-anchor="start" x="266.5" y="-303.3" font-family="Times,serif" font-style="italic" font-size="14.00">Kim</text>
<text text-anchor="start" x="289.5" y="-303.3" font-family="Times,serif" font-size="14.00">), </text>
<text text-anchor="start" x="302.5" y="-303.3" font-family="Times,serif" font-style="italic" font-size="14.00">Kim</text>
<text text-anchor="start" x="325.5" y="-303.3" font-family="Times,serif" font-size="14.00">)</text>
</g>
<!-- n45089688&#45;&gt;SUBSn45089688n54638979 -->
<g id="edge1" class="edge">
<title>n45089688&#45;&gt;SUBSn45089688n54638979</title>
<path fill="none" stroke="black" d="M209,-287.7C195.2,-276.85 177.49,-262.92 163.75,-252.1"/>
</g>
<!-- SUBSn30998027n30998028 -->
<g id="node5" class="node">
<title>SUBSn30998027n30998028</title>
<text text-anchor="start" x="180" y="-86.3" font-family="Times,serif" font-size="14.00">{}</text>
</g>
<!-- SUBSn30998027n30998028&#45;&gt;n00000000 -->
<g id="edge2" class="edge">
<title>SUBSn30998027n30998028&#45;&gt;n00000000</title>
<path fill="none" stroke="black" d="M187,-71.7C187,-63.98 187,-54.71 187,-46.11"/>
<polygon fill="black" stroke="black" points="190.5,-46.1 187,-36.1 183.5,-46.1 190.5,-46.1"/>
</g>
<!-- n46236713 -->
<g id="node6" class="node">
<title>n46236713</title>
<polygon fill="none" stroke="black" stroke-width="2" points="266,-468 0,-468 0,-432 266,-432 266,-468"/>
<text text-anchor="start" x="8" y="-447.3" font-family="Times,serif" font-size="14.00">loves(</text>
<text text-anchor="start" x="42" y="-447.3" font-family="Times,serif" font-style="italic" font-size="14.00">SKF0</text>
<text text-anchor="start" x="73" y="-447.3" font-family="Times,serif" font-size="14.00">(</text>
<text text-anchor="start" x="78" y="-447.3" font-family="Times,serif" font-weight="bold" font-size="14.00">x2</text>
<text text-anchor="start" x="92" y="-447.3" font-family="Times,serif" font-size="14.00">), </text>
<text text-anchor="start" x="105" y="-447.3" font-family="Times,serif" font-weight="bold" font-size="14.00">x2</text>
<text text-anchor="start" x="119" y="-447.3" font-family="Times,serif" font-size="14.00">), !friendly(</text>
<text text-anchor="start" x="183" y="-447.3" font-family="Times,serif" font-weight="bold" font-size="14.00">x2</text>
<text text-anchor="start" x="197" y="-447.3" font-family="Times,serif" font-size="14.00">), !dog(</text>
<text text-anchor="start" x="239" y="-447.3" font-family="Times,serif" font-weight="bold" font-size="14.00">x2</text>
<text text-anchor="start" x="253" y="-447.3" font-family="Times,serif" font-size="14.00">)</text>
</g>
<!-- SUBSn46236713n19152490 -->
<g id="node8" class="node">
<title>SUBSn46236713n19152490</title>
<text text-anchor="start" x="201" y="-374.3" font-family="Times,serif" font-size="14.00">{x2: Kim}</text>
</g>
<!-- n46236713&#45;&gt;SUBSn46236713n19152490 -->
<g id="edge8" class="edge">
<title>n46236713&#45;&gt;SUBSn46236713n19152490</title>
<path fill="none" stroke="black" d="M156.97,-431.88C172.16,-421.03 191.73,-407.05 206.93,-396.19"/>
</g>
<!-- n19152490 -->
<g id="node7" class="node">
<title>n19152490</title>
<polygon fill="none" stroke="black" stroke-width="2" points="376,-468 284,-468 284,-432 376,-432 376,-468"/>
<text text-anchor="start" x="292" y="-447.3" font-family="Times,serif" font-size="14.00">friendly(</text>
<text text-anchor="start" x="340" y="-447.3" font-family="Times,serif" font-style="italic" font-size="14.00">Kim</text>
<text text-anchor="start" x="363" y="-447.3" font-family="Times,serif" font-size="14.00">)</text>
</g>
<!-- n19152490&#45;&gt;SUBSn46236713n19152490 -->
<g id="edge3" class="edge">
<title>n19152490&#45;&gt;SUBSn46236713n19152490</title>
<path fill="none" stroke="black" d="M305.78,-431.88C290.44,-421.03 270.67,-407.05 255.31,-396.19"/>
</g>
<!-- SUBSn46236713n19152490&#45;&gt;n45089688 -->
<g id="edge6" class="edge">
<title>SUBSn46236713n19152490&#45;&gt;n45089688</title>
<path fill="none" stroke="black" d="M231,-359.7C231,-351.98 231,-342.71 231,-334.11"/>
<polygon fill="black" stroke="black" points="234.5,-334.1 231,-324.1 227.5,-334.1 234.5,-334.1"/>
</g>
<!-- n30998027&#45;&gt;SUBSn30998027n30998028 -->
<g id="edge4" class="edge">
<title>n30998027&#45;&gt;SUBSn30998027n30998028</title>
<path fill="none" stroke="black" d="M153.12,-143.7C160.1,-132.85 169.05,-118.92 176,-108.1"/>
</g>
<!-- n30998028 -->
<g id="node10" class="node">
<title>n30998028</title>
<polygon fill="none" stroke="black" stroke-width="2" points="266.5,-180 197.5,-180 197.5,-144 266.5,-144 266.5,-180"/>
<text text-anchor="start" x="205.5" y="-159.3" font-family="Times,serif" font-size="14.00">dog(</text>
<text text-anchor="start" x="230.5" y="-159.3" font-family="Times,serif" font-style="italic" font-size="14.00">Kim</text>
<text text-anchor="start" x="253.5" y="-159.3" font-family="Times,serif" font-size="14.00">)</text>
</g>
<!-- n30998028&#45;&gt;SUBSn30998027n30998028 -->
<g id="edge5" class="edge">
<title>n30998028&#45;&gt;SUBSn30998027n30998028</title>
<path fill="none" stroke="black" d="M220.88,-143.7C213.9,-132.85 204.95,-118.92 198,-108.1"/>
</g>
</g>
</svg>
