<?xml version="1.0" encoding="UTF-8" standalone="no"?>
<!DOCTYPE svg PUBLIC "-//W3C//DTD SVG 1.1//EN"
 "http://www.w3.org/Graphics/SVG/1.1/DTD/svg11.dtd">
<!-- Generated by graphviz version 2.43.0 (0)
 -->
<!-- Title: g Pages: 1 -->
<svg width="1043pt" height="332pt"
 viewBox="0.00 0.00 1042.50 332.00" xmlns="http://www.w3.org/2000/svg" xmlns:xlink="http://www.w3.org/1999/xlink">
<g id="graph0" class="graph" transform="scale(1 1) rotate(0) translate(4 328)">
<title>g</title>
<polygon fill="white" stroke="transparent" points="-4,4 -4,-328 1038.5,-328 1038.5,4 -4,4"/>
<!-- n64849750 -->
<g id="node1" class="node">
<title>n64849750</title>
<polygon fill="none" stroke="black" stroke-width="2" points="485.5,-324 376.5,-324 376.5,-288 485.5,-288 485.5,-324"/>
<text text-anchor="start" x="384.5" y="-302.3" font-family="Times,serif" font-size="14.00">!day, !dry, bright</text>
</g>
<!-- SUBSn68041384n64849750 -->
<g id="node9" class="node">
<title>SUBSn68041384n64849750</title>
<text text-anchor="start" x="276" y="-230.3" font-family="Times,serif" font-size="14.00">{}</text>
</g>
<!-- n64849750&#45;&gt;SUBSn68041384n64849750 -->
<g id="edge11" class="edge">
<title>n64849750&#45;&gt;SUBSn68041384n64849750</title>
<path fill="none" stroke="black" d="M394.8,-287.88C368.61,-275.49 333.79,-259.02 310.01,-247.78"/>
</g>
<!-- SUBSn69938094n64849750 -->
<g id="node21" class="node">
<title>SUBSn69938094n64849750</title>
<text text-anchor="start" x="556" y="-230.3" font-family="Times,serif" font-size="14.00">{}</text>
</g>
<!-- n64849750&#45;&gt;SUBSn69938094n64849750 -->
<g id="edge23" class="edge">
<title>n64849750&#45;&gt;SUBSn69938094n64849750</title>
<path fill="none" stroke="black" d="M463.29,-287.88C485.58,-276.06 514.87,-260.52 535.94,-249.35"/>
</g>
<!-- n68041382 -->
<g id="node2" class="node">
<title>n68041382</title>
<polygon fill="none" stroke="black" stroke-width="2" points="176,-324 96,-324 96,-288 176,-288 176,-324"/>
<text text-anchor="start" x="104" y="-302.3" font-family="Times,serif" font-size="14.00">!night, !day</text>
</g>
<!-- SUBSn68041382n68041384 -->
<g id="node3" class="node">
<title>SUBSn68041382n68041384</title>
<text text-anchor="start" x="129" y="-230.3" font-family="Times,serif" font-size="14.00">{}</text>
</g>
<!-- n68041382&#45;&gt;SUBSn68041382n68041384 -->
<g id="edge1" class="edge">
<title>n68041382&#45;&gt;SUBSn68041382n68041384</title>
<path fill="none" stroke="black" d="M136,-287.7C136,-276.85 136,-262.92 136,-252.1"/>
</g>
<!-- n30402487 -->
<g id="node11" class="node">
<title>n30402487</title>
<polygon fill="none" stroke="black" points="169.5,-180 102.5,-180 102.5,-144 169.5,-144 169.5,-180"/>
<text text-anchor="start" x="110.5" y="-158.3" font-family="Times,serif" font-size="14.00">!day, day</text>
</g>
<!-- SUBSn68041382n68041384&#45;&gt;n30402487 -->
<g id="edge8" class="edge">
<title>SUBSn68041382n68041384&#45;&gt;n30402487</title>
<path fill="none" stroke="black" d="M136,-215.7C136,-207.98 136,-198.71 136,-190.11"/>
<polygon fill="black" stroke="black" points="139.5,-190.1 136,-180.1 132.5,-190.1 139.5,-190.1"/>
</g>
<!-- n37210524 -->
<g id="node22" class="node">
<title>n37210524</title>
<polygon fill="none" stroke="black" points="84,-180 0,-180 0,-144 84,-144 84,-180"/>
<text text-anchor="start" x="8" y="-158.3" font-family="Times,serif" font-size="14.00">!night, night</text>
</g>
<!-- SUBSn68041382n68041384&#45;&gt;n37210524 -->
<g id="edge14" class="edge">
<title>SUBSn68041382n68041384&#45;&gt;n37210524</title>
<path fill="none" stroke="black" d="M112.76,-215.7C100.81,-206.8 86.08,-195.82 73.15,-186.2"/>
<polygon fill="black" stroke="black" points="75.08,-183.27 64.97,-180.1 70.9,-188.88 75.08,-183.27"/>
</g>
<!-- SUBSn40220261n69938094 -->
<g id="node4" class="node">
<title>SUBSn40220261n69938094</title>
<text text-anchor="start" x="560" y="-86.3" font-family="Times,serif" font-size="14.00">{}</text>
</g>
<!-- n09258128 -->
<g id="node5" class="node">
<title>n09258128</title>
<polygon fill="none" stroke="black" points="635.5,-36 498.5,-36 498.5,0 635.5,0 635.5,-36"/>
<text text-anchor="start" x="506.5" y="-14.3" font-family="Times,serif" font-size="14.00">!clear, night, sprinkler</text>
</g>
<!-- SUBSn40220261n69938094&#45;&gt;n09258128 -->
<g id="edge2" class="edge">
<title>SUBSn40220261n69938094&#45;&gt;n09258128</title>
<path fill="none" stroke="black" d="M567,-71.7C567,-63.98 567,-54.71 567,-46.11"/>
<polygon fill="black" stroke="black" points="570.5,-46.1 567,-36.1 563.5,-46.1 570.5,-46.1"/>
</g>
<!-- n15757804 -->
<g id="node6" class="node">
<title>n15757804</title>
<polygon fill="none" stroke="black" stroke-width="2" points="942,-324 872,-324 872,-288 942,-288 942,-324"/>
<text text-anchor="start" x="880" y="-302.3" font-family="Times,serif" font-size="14.00">!dry, !wet</text>
</g>
<!-- SUBSn15757804n69938094 -->
<g id="node7" class="node">
<title>SUBSn15757804n69938094</title>
<text text-anchor="start" x="899" y="-230.3" font-family="Times,serif" font-size="14.00">{}</text>
</g>
<!-- n15757804&#45;&gt;SUBSn15757804n69938094 -->
<g id="edge3" class="edge">
<title>n15757804&#45;&gt;SUBSn15757804n69938094</title>
<path fill="none" stroke="black" d="M906.75,-287.7C906.6,-276.85 906.4,-262.92 906.24,-252.1"/>
</g>
<!-- SUBSn15757804n21911963 -->
<g id="node17" class="node">
<title>SUBSn15757804n21911963</title>
<text text-anchor="start" x="990" y="-230.3" font-family="Times,serif" font-size="14.00">{}</text>
</g>
<!-- n15757804&#45;&gt;SUBSn15757804n21911963 -->
<g id="edge12" class="edge">
<title>n15757804&#45;&gt;SUBSn15757804n21911963</title>
<path fill="none" stroke="black" d="M929.25,-287.7C943.2,-276.85 961.11,-262.92 975.01,-252.1"/>
</g>
<!-- n84795671 -->
<g id="node28" class="node">
<title>n84795671</title>
<polygon fill="none" stroke="black" points="945,-180 867,-180 867,-144 945,-144 945,-180"/>
<text text-anchor="start" x="875" y="-158.3" font-family="Times,serif" font-size="14.00">!clear, !wet</text>
</g>
<!-- SUBSn15757804n69938094&#45;&gt;n84795671 -->
<g id="edge31" class="edge">
<title>SUBSn15757804n69938094&#45;&gt;n84795671</title>
<path fill="none" stroke="black" d="M906,-215.7C906,-207.98 906,-198.71 906,-190.11"/>
<polygon fill="black" stroke="black" points="909.5,-190.1 906,-180.1 902.5,-190.1 909.5,-190.1"/>
</g>
<!-- n69938094 -->
<g id="node8" class="node">
<title>n69938094</title>
<polygon fill="none" stroke="black" stroke-width="2" points="837,-324 765,-324 765,-288 837,-288 837,-324"/>
<text text-anchor="start" x="773" y="-302.3" font-family="Times,serif" font-size="14.00">!clear, dry</text>
</g>
<!-- n69938094&#45;&gt;SUBSn40220261n69938094 -->
<g id="edge29" class="edge">
<title>n69938094&#45;&gt;SUBSn40220261n69938094</title>
<path fill="none" stroke="black" d="M804.65,-287.95C810.49,-255.55 817.95,-184.72 782,-144 757.32,-116.05 646.58,-100.02 594.38,-93.9"/>
</g>
<!-- n69938094&#45;&gt;SUBSn15757804n69938094 -->
<g id="edge5" class="edge">
<title>n69938094&#45;&gt;SUBSn15757804n69938094</title>
<path fill="none" stroke="black" d="M826.69,-287.88C842.96,-277.03 863.93,-263.05 880.22,-252.19"/>
</g>
<!-- SUBSn69938094n94566098 -->
<g id="node14" class="node">
<title>SUBSn69938094n94566098</title>
<text text-anchor="start" x="912" y="-86.3" font-family="Times,serif" font-size="14.00">{}</text>
</g>
<!-- n69938094&#45;&gt;SUBSn69938094n94566098 -->
<g id="edge17" class="edge">
<title>n69938094&#45;&gt;SUBSn69938094n94566098</title>
<path fill="none" stroke="black" d="M805.83,-287.96C816.29,-251.73 841.44,-168.32 858,-144 867.48,-130.09 881.47,-117.57 893.67,-108.2"/>
</g>
<!-- SUBSn69938094n02581364 -->
<g id="node18" class="node">
<title>SUBSn69938094n02581364</title>
<text text-anchor="start" x="699" y="-230.3" font-family="Times,serif" font-size="14.00">{}</text>
</g>
<!-- n69938094&#45;&gt;SUBSn69938094n02581364 -->
<g id="edge19" class="edge">
<title>n69938094&#45;&gt;SUBSn69938094n02581364</title>
<path fill="none" stroke="black" d="M777.52,-287.7C762.79,-276.85 743.89,-262.92 729.21,-252.1"/>
</g>
<!-- n69938094&#45;&gt;SUBSn69938094n64849750 -->
<g id="edge15" class="edge">
<title>n69938094&#45;&gt;SUBSn69938094n64849750</title>
<path fill="none" stroke="black" d="M764.85,-294.37C716.87,-280.26 633.2,-255.65 590.21,-243"/>
</g>
<!-- n02488647 -->
<g id="node25" class="node">
<title>n02488647</title>
<polygon fill="none" stroke="black" points="339.5,-180 226.5,-180 226.5,-144 339.5,-144 339.5,-180"/>
<text text-anchor="start" x="234.5" y="-158.3" font-family="Times,serif" font-size="14.00">night, !dry, bright</text>
</g>
<!-- SUBSn68041384n64849750&#45;&gt;n02488647 -->
<g id="edge26" class="edge">
<title>SUBSn68041384n64849750&#45;&gt;n02488647</title>
<path fill="none" stroke="black" d="M283,-215.7C283,-207.98 283,-198.71 283,-190.11"/>
<polygon fill="black" stroke="black" points="286.5,-190.1 283,-180.1 279.5,-190.1 286.5,-190.1"/>
</g>
<!-- n68041384 -->
<g id="node10" class="node">
<title>n68041384</title>
<polygon fill="none" stroke="black" stroke-width="2" points="292.5,-324 221.5,-324 221.5,-288 292.5,-288 292.5,-324"/>
<text text-anchor="start" x="229.5" y="-302.3" font-family="Times,serif" font-size="14.00">day, night</text>
</g>
<!-- n68041384&#45;&gt;SUBSn68041382n68041384 -->
<g id="edge10" class="edge">
<title>n68041384&#45;&gt;SUBSn68041382n68041384</title>
<path fill="none" stroke="black" d="M227.4,-287.88C207.81,-276.54 182.31,-261.79 163.23,-250.75"/>
</g>
<!-- n68041384&#45;&gt;SUBSn68041384n64849750 -->
<g id="edge4" class="edge">
<title>n68041384&#45;&gt;SUBSn68041384n64849750</title>
<path fill="none" stroke="black" d="M263.43,-287.7C267.46,-276.85 272.63,-262.92 276.65,-252.1"/>
</g>
<!-- SUBSn68041384n02581364 -->
<g id="node24" class="node">
<title>SUBSn68041384n02581364</title>
<text text-anchor="start" x="415" y="-230.3" font-family="Times,serif" font-size="14.00">{}</text>
</g>
<!-- n68041384&#45;&gt;SUBSn68041384n02581364 -->
<g id="edge30" class="edge">
<title>n68041384&#45;&gt;SUBSn68041384n02581364</title>
<path fill="none" stroke="black" d="M292.8,-289.81C323.51,-276.78 367.09,-258.29 394.96,-246.47"/>
</g>
<!-- SUBSn33887617n68041384 -->
<g id="node26" class="node">
<title>SUBSn33887617n68041384</title>
<text text-anchor="start" x="374" y="-86.3" font-family="Times,serif" font-size="14.00">{}</text>
</g>
<!-- n68041384&#45;&gt;SUBSn33887617n68041384 -->
<g id="edge28" class="edge">
<title>n68041384&#45;&gt;SUBSn33887617n68041384</title>
<path fill="none" stroke="black" d="M244.31,-287.73C222.83,-256.21 184.63,-188.48 217,-144 248.52,-100.69 316.14,-92.04 353.97,-90.75"/>
</g>
<!-- n33887617 -->
<g id="node12" class="node">
<title>n33887617</title>
<polygon fill="none" stroke="black" points="621.5,-180 504.5,-180 504.5,-144 621.5,-144 621.5,-180"/>
<text text-anchor="start" x="512.5" y="-158.3" font-family="Times,serif" font-size="14.00">!clear, !day, bright</text>
</g>
<!-- n33887617&#45;&gt;SUBSn33887617n68041384 -->
<g id="edge18" class="edge">
<title>n33887617&#45;&gt;SUBSn33887617n68041384</title>
<path fill="none" stroke="black" d="M518.48,-143.88C483.96,-130.6 437.25,-112.63 408.13,-101.43"/>
</g>
<!-- n40220261 -->
<g id="node13" class="node">
<title>n40220261</title>
<polygon fill="none" stroke="black" points="486.5,-180 357.5,-180 357.5,-144 486.5,-144 486.5,-180"/>
<text text-anchor="start" x="365.5" y="-158.3" font-family="Times,serif" font-size="14.00">!dry, night, sprinkler</text>
</g>
<!-- n40220261&#45;&gt;SUBSn40220261n69938094 -->
<g id="edge25" class="edge">
<title>n40220261&#45;&gt;SUBSn40220261n69938094</title>
<path fill="none" stroke="black" d="M457.47,-143.88C482.79,-131.65 516.35,-115.45 539.62,-104.22"/>
</g>
<!-- n63603965 -->
<g id="node15" class="node">
<title>n63603965</title>
<polygon fill="none" stroke="black" points="959,-36 879,-36 879,0 959,0 959,-36"/>
<text text-anchor="start" x="887" y="-14.3" font-family="Times,serif" font-size="14.00">!clear, !rain</text>
</g>
<!-- SUBSn69938094n94566098&#45;&gt;n63603965 -->
<g id="edge6" class="edge">
<title>SUBSn69938094n94566098&#45;&gt;n63603965</title>
<path fill="none" stroke="black" d="M919,-71.7C919,-63.98 919,-54.71 919,-46.11"/>
<polygon fill="black" stroke="black" points="922.5,-46.1 919,-36.1 915.5,-46.1 922.5,-46.1"/>
</g>
<!-- n21911963 -->
<g id="node16" class="node">
<title>n21911963</title>
<polygon fill="none" stroke="black" stroke-width="2" points="1031.5,-324 962.5,-324 962.5,-288 1031.5,-288 1031.5,-324"/>
<text text-anchor="start" x="970.5" y="-302.3" font-family="Times,serif" font-size="14.00">wet, !rain</text>
</g>
<!-- n21911963&#45;&gt;SUBSn15757804n21911963 -->
<g id="edge7" class="edge">
<title>n21911963&#45;&gt;SUBSn15757804n21911963</title>
<path fill="none" stroke="black" d="M997,-287.7C997,-276.85 997,-262.92 997,-252.1"/>
</g>
<!-- n94566098 -->
<g id="node23" class="node">
<title>n94566098</title>
<polygon fill="none" stroke="black" points="1034.5,-180 963.5,-180 963.5,-144 1034.5,-144 1034.5,-180"/>
<text text-anchor="start" x="971.5" y="-158.3" font-family="Times,serif" font-size="14.00">!dry, !rain</text>
</g>
<!-- SUBSn15757804n21911963&#45;&gt;n94566098 -->
<g id="edge24" class="edge">
<title>SUBSn15757804n21911963&#45;&gt;n94566098</title>
<path fill="none" stroke="black" d="M997.49,-215.7C997.71,-207.98 997.98,-198.71 998.23,-190.11"/>
<polygon fill="black" stroke="black" points="1001.72,-190.2 998.51,-180.1 994.73,-190 1001.72,-190.2"/>
</g>
<!-- n28380769 -->
<g id="node19" class="node">
<title>n28380769</title>
<polygon fill="none" stroke="black" points="772.5,-180 639.5,-180 639.5,-144 772.5,-144 772.5,-180"/>
<text text-anchor="start" x="647.5" y="-158.3" font-family="Times,serif" font-size="14.00">!clear, !day, sprinkler</text>
</g>
<!-- SUBSn69938094n02581364&#45;&gt;n28380769 -->
<g id="edge9" class="edge">
<title>SUBSn69938094n02581364&#45;&gt;n28380769</title>
<path fill="none" stroke="black" d="M706,-215.7C706,-207.98 706,-198.71 706,-190.11"/>
<polygon fill="black" stroke="black" points="709.5,-190.1 706,-180.1 702.5,-190.1 709.5,-190.1"/>
</g>
<!-- n02581364 -->
<g id="node20" class="node">
<title>n02581364</title>
<polygon fill="none" stroke="black" stroke-width="2" points="707.5,-324 582.5,-324 582.5,-288 707.5,-288 707.5,-324"/>
<text text-anchor="start" x="590.5" y="-302.3" font-family="Times,serif" font-size="14.00">!day, sprinkler, !dry</text>
</g>
<!-- n02581364&#45;&gt;SUBSn69938094n02581364 -->
<g id="edge21" class="edge">
<title>n02581364&#45;&gt;SUBSn69938094n02581364</title>
<path fill="none" stroke="black" d="M660.08,-287.7C669.53,-276.85 681.67,-262.92 691.09,-252.1"/>
</g>
<!-- n02581364&#45;&gt;SUBSn68041384n02581364 -->
<g id="edge27" class="edge">
<title>n02581364&#45;&gt;SUBSn68041384n02581364</title>
<path fill="none" stroke="black" d="M590.73,-287.97C545.87,-273.88 484.04,-254.47 449.04,-243.49"/>
</g>
<!-- SUBSn69938094n64849750&#45;&gt;n33887617 -->
<g id="edge13" class="edge">
<title>SUBSn69938094n64849750&#45;&gt;n33887617</title>
<path fill="none" stroke="black" d="M563,-215.7C563,-207.98 563,-198.71 563,-190.11"/>
<polygon fill="black" stroke="black" points="566.5,-190.1 563,-180.1 559.5,-190.1 566.5,-190.1"/>
</g>
<!-- n94566098&#45;&gt;SUBSn69938094n94566098 -->
<g id="edge16" class="edge">
<title>n94566098&#45;&gt;SUBSn69938094n94566098</title>
<path fill="none" stroke="black" d="M979.22,-143.7C966.82,-132.85 950.9,-118.92 938.55,-108.1"/>
</g>
<!-- SUBSn68041384n02581364&#45;&gt;n40220261 -->
<g id="edge20" class="edge">
<title>SUBSn68041384n02581364&#45;&gt;n40220261</title>
<path fill="none" stroke="black" d="M422,-215.7C422,-207.98 422,-198.71 422,-190.11"/>
<polygon fill="black" stroke="black" points="425.5,-190.1 422,-180.1 418.5,-190.1 425.5,-190.1"/>
</g>
<!-- n71526514 -->
<g id="node27" class="node">
<title>n71526514</title>
<polygon fill="none" stroke="black" points="442,-36 320,-36 320,0 442,0 442,-36"/>
<text text-anchor="start" x="328" y="-14.3" font-family="Times,serif" font-size="14.00">!clear, night, bright</text>
</g>
<!-- SUBSn33887617n68041384&#45;&gt;n71526514 -->
<g id="edge22" class="edge">
<title>SUBSn33887617n68041384&#45;&gt;n71526514</title>
<path fill="none" stroke="black" d="M381,-71.7C381,-63.98 381,-54.71 381,-46.11"/>
<polygon fill="black" stroke="black" points="384.5,-46.1 381,-36.1 377.5,-46.1 384.5,-46.1"/>
</g>
</g>
</svg>
