<?xml version="1.0" encoding="UTF-8" standalone="no"?>
<!DOCTYPE svg PUBLIC "-//W3C//DTD SVG 1.1//EN"
 "http://www.w3.org/Graphics/SVG/1.1/DTD/svg11.dtd">
<!-- Generated by graphviz version 2.43.0 (0)
 -->
<!-- Title: g Pages: 1 -->
<svg width="279pt" height="332pt"
 viewBox="0.00 0.00 278.50 332.00" xmlns="http://www.w3.org/2000/svg" xmlns:xlink="http://www.w3.org/1999/xlink">
<g id="graph0" class="graph" transform="scale(1 1) rotate(0) translate(4 328)">
<title>g</title>
<polygon fill="white" stroke="transparent" points="-4,4 -4,-328 274.5,-328 274.5,4 -4,4"/>
<!-- n30105863 -->
<g id="node1" class="node">
<title>n30105863</title>
<polygon fill="none" stroke="black" points="161.5,-180 87.5,-180 87.5,-144 161.5,-144 161.5,-180"/>
<text text-anchor="start" x="95.5" y="-159.3" font-family="Times,serif" font-size="14.00">!dog(</text>
<text text-anchor="start" x="125.5" y="-159.3" font-family="Times,serif" font-style="italic" font-size="14.00">Kim</text>
<text text-anchor="start" x="148.5" y="-159.3" font-family="Times,serif" font-size="14.00">)</text>
</g>
<!-- SUBSn30105863n30105864 -->
<g id="node2" class="node">
<title>SUBSn30105863n30105864</title>
<text text-anchor="start" x="72.5" y="-86.3" font-family="Times,serif" font-size="14.00">{}</text>
</g>
<!-- n30105863&#45;&gt;SUBSn30105863n30105864 -->
<g id="edge1" class="edge">
<title>n30105863&#45;&gt;SUBSn30105863n30105864</title>
<path fill="none" stroke="black" d="M113.38,-143.7C106.4,-132.85 97.45,-118.92 90.5,-108.1"/>
</g>
<!-- n00000000 -->
<g id="node6" class="node">
<title>n00000000</title>
<polygon fill="none" stroke="black" points="108.5,-36 50.5,-36 50.5,0 108.5,0 108.5,-36"/>
<text text-anchor="start" x="58.5" y="-14.3" font-family="Times,serif" font-size="14.00">FALSE</text>
</g>
<!-- SUBSn30105863n30105864&#45;&gt;n00000000 -->
<g id="edge5" class="edge">
<title>SUBSn30105863n30105864&#45;&gt;n00000000</title>
<path fill="none" stroke="black" d="M79.5,-71.7C79.5,-63.98 79.5,-54.71 79.5,-46.11"/>
<polygon fill="black" stroke="black" points="83,-46.1 79.5,-36.1 76,-46.1 83,-46.1"/>
</g>
<!-- n98182257 -->
<g id="node3" class="node">
<title>n98182257</title>
<polygon fill="none" stroke="black" stroke-width="2" points="100,-324 9,-324 9,-288 100,-288 100,-324"/>
<text text-anchor="start" x="17" y="-303.3" font-family="Times,serif" font-size="14.00">!animal(</text>
<text text-anchor="start" x="64" y="-303.3" font-family="Times,serif" font-style="italic" font-size="14.00">Kim</text>
<text text-anchor="start" x="87" y="-303.3" font-family="Times,serif" font-size="14.00">)</text>
</g>
<!-- SUBSn98182257n28288121 -->
<g id="node5" class="node">
<title>SUBSn98182257n28288121</title>
<text text-anchor="start" x="117.5" y="-230.3" font-family="Times,serif" font-size="14.00">{}</text>
</g>
<!-- n98182257&#45;&gt;SUBSn98182257n28288121 -->
<g id="edge2" class="edge">
<title>n98182257&#45;&gt;SUBSn98182257n28288121</title>
<path fill="none" stroke="black" d="M71.8,-287.7C82.65,-276.85 96.58,-262.92 107.4,-252.1"/>
</g>
<!-- n28288121 -->
<g id="node4" class="node">
<title>n28288121</title>
<polygon fill="none" stroke="black" stroke-width="2" points="270.5,-324 118.5,-324 118.5,-288 270.5,-288 270.5,-324"/>
<text text-anchor="start" x="126.5" y="-303.3" font-family="Times,serif" font-size="14.00">animal(</text>
<text text-anchor="start" x="169.5" y="-303.3" font-family="Times,serif" font-style="italic" font-size="14.00">Kim</text>
<text text-anchor="start" x="192.5" y="-303.3" font-family="Times,serif" font-size="14.00">), !dog(</text>
<text text-anchor="start" x="234.5" y="-303.3" font-family="Times,serif" font-style="italic" font-size="14.00">Kim</text>
<text text-anchor="start" x="257.5" y="-303.3" font-family="Times,serif" font-size="14.00">)</text>
</g>
<!-- n28288121&#45;&gt;SUBSn98182257n28288121 -->
<g id="edge6" class="edge">
<title>n28288121&#45;&gt;SUBSn98182257n28288121</title>
<path fill="none" stroke="black" d="M177.2,-287.7C166.35,-276.85 152.42,-262.92 141.6,-252.1"/>
</g>
<!-- SUBSn98182257n28288121&#45;&gt;n30105863 -->
<g id="edge4" class="edge">
<title>SUBSn98182257n28288121&#45;&gt;n30105863</title>
<path fill="none" stroke="black" d="M124.5,-215.7C124.5,-207.98 124.5,-198.71 124.5,-190.11"/>
<polygon fill="black" stroke="black" points="128,-190.1 124.5,-180.1 121,-190.1 128,-190.1"/>
</g>
<!-- n30105864 -->
<g id="node7" class="node">
<title>n30105864</title>
<polygon fill="none" stroke="black" stroke-width="2" points="69,-180 0,-180 0,-144 69,-144 69,-180"/>
<text text-anchor="start" x="8" y="-159.3" font-family="Times,serif" font-size="14.00">dog(</text>
<text text-anchor="start" x="33" y="-159.3" font-family="Times,serif" font-style="italic" font-size="14.00">Kim</text>
<text text-anchor="start" x="56" y="-159.3" font-family="Times,serif" font-size="14.00">)</text>
</g>
<!-- n30105864&#45;&gt;SUBSn30105863n30105864 -->
<g id="edge3" class="edge">
<title>n30105864&#45;&gt;SUBSn30105863n30105864</title>
<path fill="none" stroke="black" d="M45.62,-143.7C52.6,-132.85 61.55,-118.92 68.5,-108.1"/>
</g>
</g>
</svg>
