<?xml version="1.0" encoding="UTF-8" standalone="no"?>
<!DOCTYPE svg PUBLIC "-//W3C//DTD SVG 1.1//EN"
 "http://www.w3.org/Graphics/SVG/1.1/DTD/svg11.dtd">
<!-- Generated by graphviz version 2.43.0 (0)
 -->
<!-- Title: g Pages: 1 -->
<svg width="274pt" height="188pt"
 viewBox="0.00 0.00 274.00 188.00" xmlns="http://www.w3.org/2000/svg" xmlns:xlink="http://www.w3.org/1999/xlink">
<g id="graph0" class="graph" transform="scale(1 1) rotate(0) translate(4 184)">
<title>g</title>
<polygon fill="white" stroke="transparent" points="-4,4 -4,-184 270,-184 270,4 -4,4"/>
<!-- n86992546 -->
<g id="node1" class="node">
<title>n86992546</title>
<polygon fill="none" stroke="black" stroke-width="2" points="122,-180 0,-180 0,-144 122,-144 122,-180"/>
<text text-anchor="start" x="8" y="-159.3" font-family="Times,serif" font-size="14.00">friends(</text>
<text text-anchor="start" x="51" y="-159.3" font-family="Times,serif" font-style="italic" font-size="14.00">Kim</text>
<text text-anchor="start" x="74" y="-159.3" font-family="Times,serif" font-size="14.00">, </text>
<text text-anchor="start" x="82" y="-159.3" font-family="Times,serif" font-style="italic" font-size="14.00">Odie</text>
<text text-anchor="start" x="109" y="-159.3" font-family="Times,serif" font-size="14.00">)</text>
</g>
<!-- SUBSn86992545n86992546 -->
<g id="node2" class="node">
<title>SUBSn86992545n86992546</title>
<text text-anchor="start" x="125" y="-86.3" font-family="Times,serif" font-size="14.00">{}</text>
</g>
<!-- n86992546&#45;&gt;SUBSn86992545n86992546 -->
<g id="edge1" class="edge">
<title>n86992546&#45;&gt;SUBSn86992545n86992546</title>
<path fill="none" stroke="black" d="M78.55,-143.7C89.56,-132.85 103.68,-118.92 114.65,-108.1"/>
</g>
<!-- n00000000 -->
<g id="node4" class="node">
<title>n00000000</title>
<polygon fill="none" stroke="black" points="161,-36 103,-36 103,0 161,0 161,-36"/>
<text text-anchor="start" x="111" y="-14.3" font-family="Times,serif" font-size="14.00">FALSE</text>
</g>
<!-- SUBSn86992545n86992546&#45;&gt;n00000000 -->
<g id="edge2" class="edge">
<title>SUBSn86992545n86992546&#45;&gt;n00000000</title>
<path fill="none" stroke="black" d="M132,-71.7C132,-63.98 132,-54.71 132,-46.11"/>
<polygon fill="black" stroke="black" points="135.5,-46.1 132,-36.1 128.5,-46.1 135.5,-46.1"/>
</g>
<!-- n86992545 -->
<g id="node3" class="node">
<title>n86992545</title>
<polygon fill="none" stroke="black" stroke-width="2" points="266,-180 140,-180 140,-144 266,-144 266,-180"/>
<text text-anchor="start" x="148" y="-159.3" font-family="Times,serif" font-size="14.00">!friends(</text>
<text text-anchor="start" x="195" y="-159.3" font-family="Times,serif" font-style="italic" font-size="14.00">Kim</text>
<text text-anchor="start" x="218" y="-159.3" font-family="Times,serif" font-size="14.00">, </text>
<text text-anchor="start" x="226" y="-159.3" font-family="Times,serif" font-style="italic" font-size="14.00">Odie</text>
<text text-anchor="start" x="253" y="-159.3" font-family="Times,serif" font-size="14.00">)</text>
</g>
<!-- n86992545&#45;&gt;SUBSn86992545n86992546 -->
<g id="edge3" class="edge">
<title>n86992545&#45;&gt;SUBSn86992545n86992546</title>
<path fill="none" stroke="black" d="M185.45,-143.7C174.44,-132.85 160.32,-118.92 149.35,-108.1"/>
</g>
</g>
</svg>
