<?xml version="1.0" encoding="UTF-8" standalone="no"?>
<!DOCTYPE svg PUBLIC "-//W3C//DTD SVG 1.1//EN"
 "http://www.w3.org/Graphics/SVG/1.1/DTD/svg11.dtd">
<!-- Generated by graphviz version 2.43.0 (0)
 -->
<!-- Title: g Pages: 1 -->
<svg width="613pt" height="188pt"
 viewBox="0.00 0.00 612.50 188.00" xmlns="http://www.w3.org/2000/svg" xmlns:xlink="http://www.w3.org/1999/xlink">
<g id="graph0" class="graph" transform="scale(1 1) rotate(0) translate(4 184)">
<title>g</title>
<polygon fill="white" stroke="transparent" points="-4,4 -4,-184 608.5,-184 608.5,4 -4,4"/>
<!-- n32556331 -->
<g id="node1" class="node">
<title>n32556331</title>
<polygon fill="none" stroke="black" stroke-width="2" points="276.5,-180 194.5,-180 194.5,-144 276.5,-144 276.5,-180"/>
<text text-anchor="start" x="202.5" y="-159.3" font-family="Times,serif" font-size="14.00">!animal(</text>
<text text-anchor="start" x="249.5" y="-159.3" font-family="Times,serif" font-weight="bold" font-size="14.00">x2</text>
<text text-anchor="start" x="263.5" y="-159.3" font-family="Times,serif" font-size="14.00">)</text>
</g>
<!-- SUBSn71005397n32556331 -->
<g id="node2" class="node">
<title>SUBSn71005397n32556331</title>
<text text-anchor="start" x="8" y="-86.3" font-family="Times,serif" font-size="14.00">{x1: S417, x2: S417}</text>
</g>
<!-- n32556331&#45;&gt;SUBSn71005397n32556331 -->
<g id="edge1" class="edge">
<title>n32556331&#45;&gt;SUBSn71005397n32556331</title>
<path fill="none" stroke="black" d="M194.4,-143.88C168.27,-132.99 134.57,-118.95 108.46,-108.07"/>
</g>
<!-- SUBSn32556331n25215623 -->
<g id="node4" class="node">
<title>SUBSn32556331n25215623</title>
<text text-anchor="start" x="314.5" y="-86.3" font-family="Times,serif" font-size="14.00">{x2: D657, x0: D657}</text>
</g>
<!-- n32556331&#45;&gt;SUBSn32556331n25215623 -->
<g id="edge3" class="edge">
<title>n32556331&#45;&gt;SUBSn32556331n25215623</title>
<path fill="none" stroke="black" d="M269.99,-143.88C291.84,-133.03 320,-119.05 341.87,-108.19"/>
</g>
<!-- SUBSn25215623n32556331 -->
<g id="node5" class="node">
<title>SUBSn25215623n32556331</title>
<text text-anchor="start" x="472.5" y="-86.3" font-family="Times,serif" font-size="14.00">{x0: D656, x2: D656}</text>
</g>
<!-- n32556331&#45;&gt;SUBSn25215623n32556331 -->
<g id="edge8" class="edge">
<title>n32556331&#45;&gt;SUBSn25215623n32556331</title>
<path fill="none" stroke="black" d="M276.76,-151.34C325.14,-140.01 406.12,-121.06 464.41,-107.41"/>
</g>
<!-- SUBSn32556331n71005397 -->
<g id="node10" class="node">
<title>SUBSn32556331n71005397</title>
<text text-anchor="start" x="161" y="-86.3" font-family="Times,serif" font-size="14.00">{x2: S418, x1: S418}</text>
</g>
<!-- n32556331&#45;&gt;SUBSn32556331n71005397 -->
<g id="edge10" class="edge">
<title>n32556331&#45;&gt;SUBSn32556331n71005397</title>
<path fill="none" stroke="black" d="M231.79,-143.7C229.47,-132.85 226.48,-118.92 224.17,-108.1"/>
</g>
<!-- n93472168 -->
<g id="node3" class="node">
<title>n93472168</title>
<polygon fill="none" stroke="black" points="104.5,-36 30.5,-36 30.5,0 104.5,0 104.5,-36"/>
<text text-anchor="start" x="38.5" y="-15.3" font-family="Times,serif" font-size="14.00">!cat(</text>
<text text-anchor="start" x="63.5" y="-15.3" font-family="Times,serif" font-weight="bold" font-size="14.00">S417</text>
<text text-anchor="start" x="91.5" y="-15.3" font-family="Times,serif" font-size="14.00">)</text>
</g>
<!-- SUBSn71005397n32556331&#45;&gt;n93472168 -->
<g id="edge2" class="edge">
<title>SUBSn71005397n32556331&#45;&gt;n93472168</title>
<path fill="none" stroke="black" d="M67.5,-71.7C67.5,-63.98 67.5,-54.71 67.5,-46.11"/>
<polygon fill="black" stroke="black" points="71,-46.1 67.5,-36.1 64,-46.1 71,-46.1"/>
</g>
<!-- n11011350 -->
<g id="node6" class="node">
<title>n11011350</title>
<polygon fill="none" stroke="black" points="417.5,-36 335.5,-36 335.5,0 417.5,0 417.5,-36"/>
<text text-anchor="start" x="343.5" y="-15.3" font-family="Times,serif" font-size="14.00">!dog(</text>
<text text-anchor="start" x="373.5" y="-15.3" font-family="Times,serif" font-weight="bold" font-size="14.00">D657</text>
<text text-anchor="start" x="404.5" y="-15.3" font-family="Times,serif" font-size="14.00">)</text>
</g>
<!-- SUBSn32556331n25215623&#45;&gt;n11011350 -->
<g id="edge4" class="edge">
<title>SUBSn32556331n25215623&#45;&gt;n11011350</title>
<path fill="none" stroke="black" d="M376.5,-71.7C376.5,-63.98 376.5,-54.71 376.5,-46.11"/>
<polygon fill="black" stroke="black" points="380,-46.1 376.5,-36.1 373,-46.1 380,-46.1"/>
</g>
<!-- n86749178 -->
<g id="node11" class="node">
<title>n86749178</title>
<polygon fill="none" stroke="black" points="575.5,-36 493.5,-36 493.5,0 575.5,0 575.5,-36"/>
<text text-anchor="start" x="501.5" y="-15.3" font-family="Times,serif" font-size="14.00">!dog(</text>
<text text-anchor="start" x="531.5" y="-15.3" font-family="Times,serif" font-weight="bold" font-size="14.00">D656</text>
<text text-anchor="start" x="562.5" y="-15.3" font-family="Times,serif" font-size="14.00">)</text>
</g>
<!-- SUBSn25215623n32556331&#45;&gt;n86749178 -->
<g id="edge12" class="edge">
<title>SUBSn25215623n32556331&#45;&gt;n86749178</title>
<path fill="none" stroke="black" d="M534.5,-71.7C534.5,-63.98 534.5,-54.71 534.5,-46.11"/>
<polygon fill="black" stroke="black" points="538,-46.1 534.5,-36.1 531,-46.1 538,-46.1"/>
</g>
<!-- n98380019 -->
<g id="node7" class="node">
<title>n98380019</title>
<polygon fill="none" stroke="black" points="257.5,-36 183.5,-36 183.5,0 257.5,0 257.5,-36"/>
<text text-anchor="start" x="191.5" y="-15.3" font-family="Times,serif" font-size="14.00">!cat(</text>
<text text-anchor="start" x="216.5" y="-15.3" font-family="Times,serif" font-weight="bold" font-size="14.00">S418</text>
<text text-anchor="start" x="244.5" y="-15.3" font-family="Times,serif" font-size="14.00">)</text>
</g>
<!-- n25215623 -->
<g id="node8" class="node">
<title>n25215623</title>
<polygon fill="none" stroke="black" stroke-width="2" points="522.5,-180 388.5,-180 388.5,-144 522.5,-144 522.5,-180"/>
<text text-anchor="start" x="396.5" y="-159.3" font-family="Times,serif" font-size="14.00">!dog(</text>
<text text-anchor="start" x="426.5" y="-159.3" font-family="Times,serif" font-weight="bold" font-size="14.00">x0</text>
<text text-anchor="start" x="440.5" y="-159.3" font-family="Times,serif" font-size="14.00">), animal(</text>
<text text-anchor="start" x="495.5" y="-159.3" font-family="Times,serif" font-weight="bold" font-size="14.00">x0</text>
<text text-anchor="start" x="509.5" y="-159.3" font-family="Times,serif" font-size="14.00">)</text>
</g>
<!-- n25215623&#45;&gt;SUBSn32556331n25215623 -->
<g id="edge5" class="edge">
<title>n25215623&#45;&gt;SUBSn32556331n25215623</title>
<path fill="none" stroke="black" d="M435.97,-143.7C423.73,-132.85 408.01,-118.92 395.8,-108.1"/>
</g>
<!-- n25215623&#45;&gt;SUBSn25215623n32556331 -->
<g id="edge6" class="edge">
<title>n25215623&#45;&gt;SUBSn25215623n32556331</title>
<path fill="none" stroke="black" d="M475.03,-143.7C487.27,-132.85 502.99,-118.92 515.2,-108.1"/>
</g>
<!-- n71005397 -->
<g id="node9" class="node">
<title>n71005397</title>
<polygon fill="none" stroke="black" stroke-width="2" points="162,-180 33,-180 33,-144 162,-144 162,-180"/>
<text text-anchor="start" x="41" y="-159.3" font-family="Times,serif" font-size="14.00">!cat(</text>
<text text-anchor="start" x="66" y="-159.3" font-family="Times,serif" font-weight="bold" font-size="14.00">x1</text>
<text text-anchor="start" x="80" y="-159.3" font-family="Times,serif" font-size="14.00">), animal(</text>
<text text-anchor="start" x="135" y="-159.3" font-family="Times,serif" font-weight="bold" font-size="14.00">x1</text>
<text text-anchor="start" x="149" y="-159.3" font-family="Times,serif" font-size="14.00">)</text>
</g>
<!-- n71005397&#45;&gt;SUBSn71005397n32556331 -->
<g id="edge9" class="edge">
<title>n71005397&#45;&gt;SUBSn71005397n32556331</title>
<path fill="none" stroke="black" d="M90.08,-143.7C85.43,-132.85 79.46,-118.92 74.83,-108.1"/>
</g>
<!-- n71005397&#45;&gt;SUBSn32556331n71005397 -->
<g id="edge7" class="edge">
<title>n71005397&#45;&gt;SUBSn32556331n71005397</title>
<path fill="none" stroke="black" d="M127.59,-143.88C146.65,-133.03 171.21,-119.05 190.3,-108.19"/>
</g>
<!-- SUBSn32556331n71005397&#45;&gt;n98380019 -->
<g id="edge11" class="edge">
<title>SUBSn32556331n71005397&#45;&gt;n98380019</title>
<path fill="none" stroke="black" d="M220.5,-71.7C220.5,-63.98 220.5,-54.71 220.5,-46.11"/>
<polygon fill="black" stroke="black" points="224,-46.1 220.5,-36.1 217,-46.1 224,-46.1"/>
</g>
</g>
</svg>
