<?xml version="1.0" encoding="UTF-8" standalone="no"?>
<!DOCTYPE svg PUBLIC "-//W3C//DTD SVG 1.1//EN"
 "http://www.w3.org/Graphics/SVG/1.1/DTD/svg11.dtd">
<!-- Generated by graphviz version 2.43.0 (0)
 -->
<!-- Title: g Pages: 1 -->
<svg width="504pt" height="476pt"
 viewBox="0.00 0.00 503.50 476.00" xmlns="http://www.w3.org/2000/svg" xmlns:xlink="http://www.w3.org/1999/xlink">
<g id="graph0" class="graph" transform="scale(1 1) rotate(0) translate(4 472)">
<title>g</title>
<polygon fill="white" stroke="transparent" points="-4,4 -4,-472 499.5,-472 499.5,4 -4,4"/>
<!-- SUBSn46487741n63117507 -->
<g id="node1" class="node">
<title>SUBSn46487741n63117507</title>
<text text-anchor="start" x="282" y="-374.3" font-family="Times,serif" font-size="14.00">{t5: D93, t7: D93}</text>
</g>
<!-- n74937760 -->
<g id="node13" class="node">
<title>n74937760</title>
<polygon fill="none" stroke="black" points="368.5,-324 295.5,-324 295.5,-288 368.5,-288 368.5,-324"/>
<text text-anchor="start" x="303.5" y="-303.3" font-family="Times,serif" font-size="14.00">Wet(</text>
<text text-anchor="start" x="331.5" y="-303.3" font-family="Times,serif" font-weight="bold" font-size="14.00">D93</text>
<text text-anchor="start" x="355.5" y="-303.3" font-family="Times,serif" font-size="14.00">)</text>
</g>
<!-- SUBSn46487741n63117507&#45;&gt;n74937760 -->
<g id="edge10" class="edge">
<title>SUBSn46487741n63117507&#45;&gt;n74937760</title>
<path fill="none" stroke="black" d="M333.51,-359.7C333.29,-351.98 333.02,-342.71 332.77,-334.11"/>
<polygon fill="black" stroke="black" points="336.27,-334 332.49,-324.1 329.28,-334.2 336.27,-334"/>
</g>
<!-- SUBSn74937760n37545994 -->
<g id="node2" class="node">
<title>SUBSn74937760n37545994</title>
<text text-anchor="start" x="188" y="-230.3" font-family="Times,serif" font-size="14.00">{D93: V344, Y957: V344}</text>
</g>
<!-- n84206595 -->
<g id="node9" class="node">
<title>n84206595</title>
<polygon fill="none" stroke="black" points="307.5,-180 216.5,-180 216.5,-144 307.5,-144 307.5,-180"/>
<text text-anchor="start" x="224.5" y="-159.3" font-family="Times,serif" font-size="14.00">!Clear(</text>
<text text-anchor="start" x="263.5" y="-159.3" font-family="Times,serif" font-weight="bold" font-size="14.00">V344</text>
<text text-anchor="start" x="294.5" y="-159.3" font-family="Times,serif" font-size="14.00">)</text>
</g>
<!-- SUBSn74937760n37545994&#45;&gt;n84206595 -->
<g id="edge6" class="edge">
<title>SUBSn74937760n37545994&#45;&gt;n84206595</title>
<path fill="none" stroke="black" d="M262,-215.7C262,-207.98 262,-198.71 262,-190.11"/>
<polygon fill="black" stroke="black" points="265.5,-190.1 262,-180.1 258.5,-190.1 265.5,-190.1"/>
</g>
<!-- n59881030 -->
<g id="node3" class="node">
<title>n59881030</title>
<polygon fill="none" stroke="black" stroke-width="2" points="120,-468 0,-468 0,-432 120,-432 120,-468"/>
<text text-anchor="start" x="8" y="-447.3" font-family="Times,serif" font-size="14.00">!Dry(</text>
<text text-anchor="start" x="39" y="-447.3" font-family="Times,serif" font-weight="bold" font-size="14.00">t6</text>
<text text-anchor="start" x="51" y="-447.3" font-family="Times,serif" font-size="14.00">), !Wet(</text>
<text text-anchor="start" x="95" y="-447.3" font-family="Times,serif" font-weight="bold" font-size="14.00">t6</text>
<text text-anchor="start" x="107" y="-447.3" font-family="Times,serif" font-size="14.00">)</text>
</g>
<!-- SUBSn59881030n90296937 -->
<g id="node11" class="node">
<title>SUBSn59881030n90296937</title>
<text text-anchor="start" x="132" y="-374.3" font-family="Times,serif" font-size="14.00">{t6: Y957, t2: Y957}</text>
</g>
<!-- n59881030&#45;&gt;SUBSn59881030n90296937 -->
<g id="edge11" class="edge">
<title>n59881030&#45;&gt;SUBSn59881030n90296937</title>
<path fill="none" stroke="black" d="M91.8,-431.88C111.95,-421.03 137.91,-407.05 158.08,-396.19"/>
</g>
<!-- n37545994 -->
<g id="node4" class="node">
<title>n37545994</title>
<polygon fill="none" stroke="black" points="276,-324 110,-324 110,-288 276,-288 276,-324"/>
<text text-anchor="start" x="118" y="-303.3" font-family="Times,serif" font-size="14.00">!Wet(</text>
<text text-anchor="start" x="150" y="-303.3" font-family="Times,serif" font-weight="bold" font-size="14.00">Y957</text>
<text text-anchor="start" x="181" y="-303.3" font-family="Times,serif" font-size="14.00">), !Clear(</text>
<text text-anchor="start" x="232" y="-303.3" font-family="Times,serif" font-weight="bold" font-size="14.00">Y957</text>
<text text-anchor="start" x="263" y="-303.3" font-family="Times,serif" font-size="14.00">)</text>
</g>
<!-- n37545994&#45;&gt;SUBSn74937760n37545994 -->
<g id="edge1" class="edge">
<title>n37545994&#45;&gt;SUBSn74937760n37545994</title>
<path fill="none" stroke="black" d="M210.06,-287.7C220.75,-276.85 234.48,-262.92 245.14,-252.1"/>
</g>
<!-- n63117507 -->
<g id="node5" class="node">
<title>n63117507</title>
<polygon fill="none" stroke="black" stroke-width="2" points="358,-468 294,-468 294,-432 358,-432 358,-468"/>
<text text-anchor="start" x="302" y="-447.3" font-family="Times,serif" font-size="14.00">Rain(</text>
<text text-anchor="start" x="333" y="-447.3" font-family="Times,serif" font-weight="bold" font-size="14.00">t7</text>
<text text-anchor="start" x="345" y="-447.3" font-family="Times,serif" font-size="14.00">)</text>
</g>
<!-- n63117507&#45;&gt;SUBSn46487741n63117507 -->
<g id="edge2" class="edge">
<title>n63117507&#45;&gt;SUBSn46487741n63117507</title>
<path fill="none" stroke="black" d="M327.98,-431.7C329.22,-420.85 330.81,-406.92 332.05,-396.1"/>
</g>
<!-- SUBSn84206595n16126985 -->
<g id="node6" class="node">
<title>SUBSn84206595n16126985</title>
<text text-anchor="start" x="146.5" y="-86.3" font-family="Times,serif" font-size="14.00">{V344: T222, t8: T222}</text>
</g>
<!-- n00000000 -->
<g id="node7" class="node">
<title>n00000000</title>
<polygon fill="none" stroke="black" points="242,-36 184,-36 184,0 242,0 242,-36"/>
<text text-anchor="start" x="192" y="-14.3" font-family="Times,serif" font-size="14.00">FALSE</text>
</g>
<!-- SUBSn84206595n16126985&#45;&gt;n00000000 -->
<g id="edge3" class="edge">
<title>SUBSn84206595n16126985&#45;&gt;n00000000</title>
<path fill="none" stroke="black" d="M213,-71.7C213,-63.98 213,-54.71 213,-46.11"/>
<polygon fill="black" stroke="black" points="216.5,-46.1 213,-36.1 209.5,-46.1 216.5,-46.1"/>
</g>
<!-- n46487741 -->
<g id="node8" class="node">
<title>n46487741</title>
<polygon fill="none" stroke="black" stroke-width="2" points="495.5,-468 376.5,-468 376.5,-432 495.5,-432 495.5,-468"/>
<text text-anchor="start" x="384.5" y="-447.3" font-family="Times,serif" font-size="14.00">!Rain(</text>
<text text-anchor="start" x="419.5" y="-447.3" font-family="Times,serif" font-weight="bold" font-size="14.00">t5</text>
<text text-anchor="start" x="431.5" y="-447.3" font-family="Times,serif" font-size="14.00">), Wet(</text>
<text text-anchor="start" x="470.5" y="-447.3" font-family="Times,serif" font-weight="bold" font-size="14.00">t5</text>
<text text-anchor="start" x="482.5" y="-447.3" font-family="Times,serif" font-size="14.00">)</text>
</g>
<!-- n46487741&#45;&gt;SUBSn46487741n63117507 -->
<g id="edge4" class="edge">
<title>n46487741&#45;&gt;SUBSn46487741n63117507</title>
<path fill="none" stroke="black" d="M411.05,-431.88C395.24,-421.03 374.87,-407.05 359.05,-396.19"/>
</g>
<!-- n84206595&#45;&gt;SUBSn84206595n16126985 -->
<g id="edge5" class="edge">
<title>n84206595&#45;&gt;SUBSn84206595n16126985</title>
<path fill="none" stroke="black" d="M249.89,-143.7C242.29,-132.85 232.54,-118.92 224.97,-108.1"/>
</g>
<!-- n90296937 -->
<g id="node10" class="node">
<title>n90296937</title>
<polygon fill="none" stroke="black" stroke-width="2" points="260,-468 138,-468 138,-432 260,-432 260,-468"/>
<text text-anchor="start" x="146" y="-447.3" font-family="Times,serif" font-size="14.00">Dry(</text>
<text text-anchor="start" x="172" y="-447.3" font-family="Times,serif" font-weight="bold" font-size="14.00">t2</text>
<text text-anchor="start" x="184" y="-447.3" font-family="Times,serif" font-size="14.00">), !Clear(</text>
<text text-anchor="start" x="235" y="-447.3" font-family="Times,serif" font-weight="bold" font-size="14.00">t2</text>
<text text-anchor="start" x="247" y="-447.3" font-family="Times,serif" font-size="14.00">)</text>
</g>
<!-- n90296937&#45;&gt;SUBSn59881030n90296937 -->
<g id="edge8" class="edge">
<title>n90296937&#45;&gt;SUBSn59881030n90296937</title>
<path fill="none" stroke="black" d="M196.78,-431.7C195.38,-420.85 193.59,-406.92 192.2,-396.1"/>
</g>
<!-- SUBSn59881030n90296937&#45;&gt;n37545994 -->
<g id="edge7" class="edge">
<title>SUBSn59881030n90296937&#45;&gt;n37545994</title>
<path fill="none" stroke="black" d="M190.74,-359.7C191.07,-351.98 191.47,-342.71 191.84,-334.11"/>
<polygon fill="black" stroke="black" points="195.34,-334.25 192.27,-324.1 188.34,-333.95 195.34,-334.25"/>
</g>
<!-- n16126985 -->
<g id="node12" class="node">
<title>n16126985</title>
<polygon fill="none" stroke="black" stroke-width="2" points="198.5,-180 131.5,-180 131.5,-144 198.5,-144 198.5,-180"/>
<text text-anchor="start" x="139.5" y="-159.3" font-family="Times,serif" font-size="14.00">Clear(</text>
<text text-anchor="start" x="173.5" y="-159.3" font-family="Times,serif" font-weight="bold" font-size="14.00">t8</text>
<text text-anchor="start" x="185.5" y="-159.3" font-family="Times,serif" font-size="14.00">)</text>
</g>
<!-- n16126985&#45;&gt;SUBSn84206595n16126985 -->
<g id="edge12" class="edge">
<title>n16126985&#45;&gt;SUBSn84206595n16126985</title>
<path fill="none" stroke="black" d="M176.87,-143.7C184.31,-132.85 193.86,-118.92 201.27,-108.1"/>
</g>
<!-- n74937760&#45;&gt;SUBSn74937760n37545994 -->
<g id="edge9" class="edge">
<title>n74937760&#45;&gt;SUBSn74937760n37545994</title>
<path fill="none" stroke="black" d="M314.7,-287.7C303.85,-276.85 289.92,-262.92 279.1,-252.1"/>
</g>
</g>
</svg>
