<?xml version="1.0" encoding="UTF-8" standalone="no"?>
<!DOCTYPE svg PUBLIC "-//W3C//DTD SVG 1.1//EN"
 "http://www.w3.org/Graphics/SVG/1.1/DTD/svg11.dtd">
<!-- Generated by graphviz version 2.43.0 (0)
 -->
<!-- Title: g Pages: 1 -->
<svg width="450pt" height="332pt"
 viewBox="0.00 0.00 450.00 332.00" xmlns="http://www.w3.org/2000/svg" xmlns:xlink="http://www.w3.org/1999/xlink">
<g id="graph0" class="graph" transform="scale(1 1) rotate(0) translate(4 328)">
<title>g</title>
<polygon fill="white" stroke="transparent" points="-4,4 -4,-328 446,-328 446,4 -4,4"/>
<!-- SUBSn42423558n26824915 -->
<g id="node1" class="node">
<title>SUBSn42423558n26824915</title>
<text text-anchor="start" x="147" y="-86.3" font-family="Times,serif" font-size="14.00">{Z119: E800, Q454: E800}</text>
</g>
<!-- n00000000 -->
<g id="node2" class="node">
<title>n00000000</title>
<polygon fill="none" stroke="black" points="252,-36 194,-36 194,0 252,0 252,-36"/>
<text text-anchor="start" x="202" y="-14.3" font-family="Times,serif" font-size="14.00">FALSE</text>
</g>
<!-- SUBSn42423558n26824915&#45;&gt;n00000000 -->
<g id="edge1" class="edge">
<title>SUBSn42423558n26824915&#45;&gt;n00000000</title>
<path fill="none" stroke="black" d="M223,-71.7C223,-63.98 223,-54.71 223,-46.11"/>
<polygon fill="black" stroke="black" points="226.5,-46.1 223,-36.1 219.5,-46.1 226.5,-46.1"/>
</g>
<!-- n91575140 -->
<g id="node3" class="node">
<title>n91575140</title>
<polygon fill="none" stroke="black" stroke-width="2" points="116,-324 0,-324 0,-288 116,-288 116,-324"/>
<text text-anchor="start" x="8" y="-303.3" font-family="Times,serif" font-size="14.00">!clear(</text>
<text text-anchor="start" x="44" y="-303.3" font-family="Times,serif" font-weight="bold" font-size="14.00">t2</text>
<text text-anchor="start" x="56" y="-303.3" font-family="Times,serif" font-size="14.00">), dry(</text>
<text text-anchor="start" x="91" y="-303.3" font-family="Times,serif" font-weight="bold" font-size="14.00">t2</text>
<text text-anchor="start" x="103" y="-303.3" font-family="Times,serif" font-size="14.00">)</text>
</g>
<!-- SUBSn91575140n05738830 -->
<g id="node4" class="node">
<title>SUBSn91575140n05738830</title>
<text text-anchor="start" x="89" y="-230.3" font-family="Times,serif" font-size="14.00">{t2: Q454, t8: Q454}</text>
</g>
<!-- n91575140&#45;&gt;SUBSn91575140n05738830 -->
<g id="edge2" class="edge">
<title>n91575140&#45;&gt;SUBSn91575140n05738830</title>
<path fill="none" stroke="black" d="M80.25,-287.7C94.2,-276.85 112.11,-262.92 126.01,-252.1"/>
</g>
<!-- n26824915 -->
<g id="node5" class="node">
<title>n26824915</title>
<polygon fill="none" stroke="black" points="213,-180 137,-180 137,-144 213,-144 213,-180"/>
<text text-anchor="start" x="145" y="-159.3" font-family="Times,serif" font-size="14.00">dry(</text>
<text text-anchor="start" x="168" y="-159.3" font-family="Times,serif" font-weight="bold" font-size="14.00">Q454</text>
<text text-anchor="start" x="200" y="-159.3" font-family="Times,serif" font-size="14.00">)</text>
</g>
<!-- SUBSn91575140n05738830&#45;&gt;n26824915 -->
<g id="edge7" class="edge">
<title>SUBSn91575140n05738830&#45;&gt;n26824915</title>
<path fill="none" stroke="black" d="M154.67,-215.7C157.71,-207.81 161.38,-198.3 164.76,-189.55"/>
<polygon fill="black" stroke="black" points="168.07,-190.69 168.4,-180.1 161.54,-188.17 168.07,-190.69"/>
</g>
<!-- n26824915&#45;&gt;SUBSn42423558n26824915 -->
<g id="edge3" class="edge">
<title>n26824915&#45;&gt;SUBSn42423558n26824915</title>
<path fill="none" stroke="black" d="M186.87,-143.7C194.31,-132.85 203.86,-118.92 211.27,-108.1"/>
</g>
<!-- n08313223 -->
<g id="node6" class="node">
<title>n08313223</title>
<polygon fill="none" stroke="black" stroke-width="2" points="310,-324 252,-324 252,-288 310,-288 310,-324"/>
<text text-anchor="start" x="260" y="-303.3" font-family="Times,serif" font-size="14.00">wet(</text>
<text text-anchor="start" x="285" y="-303.3" font-family="Times,serif" font-weight="bold" font-size="14.00">t7</text>
<text text-anchor="start" x="297" y="-303.3" font-family="Times,serif" font-size="14.00">)</text>
</g>
<!-- SUBSn08313223n66441693 -->
<g id="node7" class="node">
<title>SUBSn08313223n66441693</title>
<text text-anchor="start" x="241.5" y="-230.3" font-family="Times,serif" font-size="14.00">{t7: Z119, t4: Z119}</text>
</g>
<!-- n08313223&#45;&gt;SUBSn08313223n66441693 -->
<g id="edge4" class="edge">
<title>n08313223&#45;&gt;SUBSn08313223n66441693</title>
<path fill="none" stroke="black" d="M285.45,-287.7C288.24,-276.85 291.82,-262.92 294.6,-252.1"/>
</g>
<!-- n42423558 -->
<g id="node9" class="node">
<title>n42423558</title>
<polygon fill="none" stroke="black" points="324.5,-180 245.5,-180 245.5,-144 324.5,-144 324.5,-180"/>
<text text-anchor="start" x="253.5" y="-159.3" font-family="Times,serif" font-size="14.00">!dry(</text>
<text text-anchor="start" x="281.5" y="-159.3" font-family="Times,serif" font-weight="bold" font-size="14.00">Z119</text>
<text text-anchor="start" x="311.5" y="-159.3" font-family="Times,serif" font-size="14.00">)</text>
</g>
<!-- SUBSn08313223n66441693&#45;&gt;n42423558 -->
<g id="edge8" class="edge">
<title>SUBSn08313223n66441693&#45;&gt;n42423558</title>
<path fill="none" stroke="black" d="M295.54,-215.7C294,-207.98 292.14,-198.71 290.42,-190.11"/>
<polygon fill="black" stroke="black" points="293.81,-189.22 288.42,-180.1 286.95,-190.6 293.81,-189.22"/>
</g>
<!-- n05738830 -->
<g id="node8" class="node">
<title>n05738830</title>
<polygon fill="none" stroke="black" stroke-width="2" points="198,-324 134,-324 134,-288 198,-288 198,-324"/>
<text text-anchor="start" x="142" y="-303.3" font-family="Times,serif" font-size="14.00">clear(</text>
<text text-anchor="start" x="173" y="-303.3" font-family="Times,serif" font-weight="bold" font-size="14.00">t8</text>
<text text-anchor="start" x="185" y="-303.3" font-family="Times,serif" font-size="14.00">)</text>
</g>
<!-- n05738830&#45;&gt;SUBSn91575140n05738830 -->
<g id="edge5" class="edge">
<title>n05738830&#45;&gt;SUBSn91575140n05738830</title>
<path fill="none" stroke="black" d="M161.55,-287.7C158.76,-276.85 155.18,-262.92 152.4,-252.1"/>
</g>
<!-- n42423558&#45;&gt;SUBSn42423558n26824915 -->
<g id="edge6" class="edge">
<title>n42423558&#45;&gt;SUBSn42423558n26824915</title>
<path fill="none" stroke="black" d="M269.67,-143.7C260.06,-132.85 247.73,-118.92 238.15,-108.1"/>
</g>
<!-- n66441693 -->
<g id="node10" class="node">
<title>n66441693</title>
<polygon fill="none" stroke="black" stroke-width="2" points="442,-324 328,-324 328,-288 442,-288 442,-324"/>
<text text-anchor="start" x="336" y="-303.3" font-family="Times,serif" font-size="14.00">!wet(</text>
<text text-anchor="start" x="365" y="-303.3" font-family="Times,serif" font-weight="bold" font-size="14.00">t4</text>
<text text-anchor="start" x="377" y="-303.3" font-family="Times,serif" font-size="14.00">), !dry(</text>
<text text-anchor="start" x="417" y="-303.3" font-family="Times,serif" font-weight="bold" font-size="14.00">t4</text>
<text text-anchor="start" x="429" y="-303.3" font-family="Times,serif" font-size="14.00">)</text>
</g>
<!-- n66441693&#45;&gt;SUBSn08313223n66441693 -->
<g id="edge9" class="edge">
<title>n66441693&#45;&gt;SUBSn08313223n66441693</title>
<path fill="none" stroke="black" d="M363.74,-287.7C350.41,-276.85 333.3,-262.92 320.01,-252.1"/>
</g>
</g>
</svg>
