<?xml version="1.0" encoding="UTF-8" standalone="no"?>
<!DOCTYPE svg PUBLIC "-//W3C//DTD SVG 1.1//EN"
 "http://www.w3.org/Graphics/SVG/1.1/DTD/svg11.dtd">
<!-- Generated by graphviz version 2.43.0 (0)
 -->
<!-- Title: g Pages: 1 -->
<svg width="696pt" height="476pt"
 viewBox="0.00 0.00 695.50 476.00" xmlns="http://www.w3.org/2000/svg" xmlns:xlink="http://www.w3.org/1999/xlink">
<g id="graph0" class="graph" transform="scale(1 1) rotate(0) translate(4 472)">
<title>g</title>
<polygon fill="white" stroke="transparent" points="-4,4 -4,-472 691.5,-472 691.5,4 -4,4"/>
<!-- n84304472 -->
<g id="node1" class="node">
<title>n84304472</title>
<polygon fill="none" stroke="black" points="614,-324 528,-324 528,-288 614,-288 614,-324"/>
<text text-anchor="start" x="536" y="-303.3" font-family="Times,serif" font-size="14.00">!night(</text>
<text text-anchor="start" x="573" y="-303.3" font-family="Times,serif" font-weight="bold" font-size="14.00">S339</text>
<text text-anchor="start" x="601" y="-303.3" font-family="Times,serif" font-size="14.00">)</text>
</g>
<!-- SUBSn84304472n01521300 -->
<g id="node4" class="node">
<title>SUBSn84304472n01521300</title>
<text text-anchor="start" x="402" y="-230.3" font-family="Times,serif" font-size="14.00">{S339: E932, t1: E932}</text>
</g>
<!-- n84304472&#45;&gt;SUBSn84304472n01521300 -->
<g id="edge1" class="edge">
<title>n84304472&#45;&gt;SUBSn84304472n01521300</title>
<path fill="none" stroke="black" d="M545.8,-287.88C529.84,-277.03 509.27,-263.05 493.29,-252.19"/>
</g>
<!-- n70670247 -->
<g id="node2" class="node">
<title>n70670247</title>
<polygon fill="none" stroke="black" stroke-width="2" points="210,-468 0,-468 0,-432 210,-432 210,-468"/>
<text text-anchor="start" x="8" y="-447.3" font-family="Times,serif" font-size="14.00">!day(</text>
<text text-anchor="start" x="37" y="-447.3" font-family="Times,serif" font-weight="bold" font-size="14.00">t5</text>
<text text-anchor="start" x="49" y="-447.3" font-family="Times,serif" font-size="14.00">), !dry(</text>
<text text-anchor="start" x="89" y="-447.3" font-family="Times,serif" font-weight="bold" font-size="14.00">t5</text>
<text text-anchor="start" x="101" y="-447.3" font-family="Times,serif" font-size="14.00">), sprinkler(</text>
<text text-anchor="start" x="166" y="-447.3" font-family="Times,serif" font-weight="bold" font-size="14.00">t5</text>
<text text-anchor="start" x="178" y="-447.3" font-family="Times,serif" font-size="14.00">, </text>
<text text-anchor="start" x="186" y="-447.3" font-family="Times,serif" font-weight="bold" font-size="14.00">l0</text>
<text text-anchor="start" x="197" y="-447.3" font-family="Times,serif" font-size="14.00">)</text>
</g>
<!-- SUBSn70670247n15126308 -->
<g id="node7" class="node">
<title>SUBSn70670247n15126308</title>
<text text-anchor="start" x="82.5" y="-374.3" font-family="Times,serif" font-size="14.00">{t5: C743, t9: C743, l0: F930, l1: F930}</text>
</g>
<!-- n70670247&#45;&gt;SUBSn70670247n15126308 -->
<g id="edge14" class="edge">
<title>n70670247&#45;&gt;SUBSn70670247n15126308</title>
<path fill="none" stroke="black" d="M127,-431.7C140.8,-420.85 158.51,-406.92 172.25,-396.1"/>
</g>
<!-- SUBSn70477804n27275544 -->
<g id="node3" class="node">
<title>SUBSn70477804n27275544</title>
<text text-anchor="start" x="305.5" y="-86.3" font-family="Times,serif" font-size="14.00">{E932: D320, N190: D320}</text>
</g>
<!-- n00000000 -->
<g id="node8" class="node">
<title>n00000000</title>
<polygon fill="none" stroke="black" points="412,-36 354,-36 354,0 412,0 412,-36"/>
<text text-anchor="start" x="362" y="-14.3" font-family="Times,serif" font-size="14.00">FALSE</text>
</g>
<!-- SUBSn70477804n27275544&#45;&gt;n00000000 -->
<g id="edge3" class="edge">
<title>SUBSn70477804n27275544&#45;&gt;n00000000</title>
<path fill="none" stroke="black" d="M383,-71.7C383,-63.98 383,-54.71 383,-46.11"/>
<polygon fill="black" stroke="black" points="386.5,-46.1 383,-36.1 379.5,-46.1 386.5,-46.1"/>
</g>
<!-- n70477804 -->
<g id="node12" class="node">
<title>n70477804</title>
<polygon fill="none" stroke="black" points="488,-180 412,-180 412,-144 488,-144 488,-180"/>
<text text-anchor="start" x="420" y="-159.3" font-family="Times,serif" font-size="14.00">day(</text>
<text text-anchor="start" x="445" y="-159.3" font-family="Times,serif" font-weight="bold" font-size="14.00">E932</text>
<text text-anchor="start" x="475" y="-159.3" font-family="Times,serif" font-size="14.00">)</text>
</g>
<!-- SUBSn84304472n01521300&#45;&gt;n70477804 -->
<g id="edge11" class="edge">
<title>SUBSn84304472n01521300&#45;&gt;n70477804</title>
<path fill="none" stroke="black" d="M463.55,-215.7C461.55,-207.9 459.13,-198.51 456.9,-189.83"/>
<polygon fill="black" stroke="black" points="460.28,-188.92 454.4,-180.1 453.5,-190.66 460.28,-188.92"/>
</g>
<!-- n41723142 -->
<g id="node5" class="node">
<title>n41723142</title>
<polygon fill="none" stroke="black" stroke-width="2" points="546,-468 488,-468 488,-432 546,-432 546,-468"/>
<text text-anchor="start" x="496" y="-447.3" font-family="Times,serif" font-size="14.00">day(</text>
<text text-anchor="start" x="521" y="-447.3" font-family="Times,serif" font-weight="bold" font-size="14.00">t7</text>
<text text-anchor="start" x="533" y="-447.3" font-family="Times,serif" font-size="14.00">)</text>
</g>
<!-- SUBSn41723142n64837737 -->
<g id="node6" class="node">
<title>SUBSn41723142n64837737</title>
<text text-anchor="start" x="514.5" y="-374.3" font-family="Times,serif" font-size="14.00">{t7: S339, t0: S339}</text>
</g>
<!-- n41723142&#45;&gt;SUBSn41723142n64837737 -->
<g id="edge2" class="edge">
<title>n41723142&#45;&gt;SUBSn41723142n64837737</title>
<path fill="none" stroke="black" d="M530.35,-431.7C538.72,-420.85 549.46,-406.92 557.81,-396.1"/>
</g>
<!-- SUBSn41723142n64837737&#45;&gt;n84304472 -->
<g id="edge10" class="edge">
<title>SUBSn41723142n64837737&#45;&gt;n84304472</title>
<path fill="none" stroke="black" d="M571,-359.7C571,-351.98 571,-342.71 571,-334.11"/>
<polygon fill="black" stroke="black" points="574.5,-334.1 571,-324.1 567.5,-334.1 574.5,-334.1"/>
</g>
<!-- n47440726 -->
<g id="node10" class="node">
<title>n47440726</title>
<polygon fill="none" stroke="black" points="270,-324 118,-324 118,-288 270,-288 270,-324"/>
<text text-anchor="start" x="126" y="-303.3" font-family="Times,serif" font-size="14.00">!dry(</text>
<text text-anchor="start" x="154" y="-303.3" font-family="Times,serif" font-weight="bold" font-size="14.00">C743</text>
<text text-anchor="start" x="185" y="-303.3" font-family="Times,serif" font-size="14.00">), !day(</text>
<text text-anchor="start" x="226" y="-303.3" font-family="Times,serif" font-weight="bold" font-size="14.00">C743</text>
<text text-anchor="start" x="257" y="-303.3" font-family="Times,serif" font-size="14.00">)</text>
</g>
<!-- SUBSn70670247n15126308&#45;&gt;n47440726 -->
<g id="edge4" class="edge">
<title>SUBSn70670247n15126308&#45;&gt;n47440726</title>
<path fill="none" stroke="black" d="M194,-359.7C194,-351.98 194,-342.71 194,-334.11"/>
<polygon fill="black" stroke="black" points="197.5,-334.1 194,-324.1 190.5,-334.1 197.5,-334.1"/>
</g>
<!-- SUBSn96869763n47440726 -->
<g id="node9" class="node">
<title>SUBSn96869763n47440726</title>
<text text-anchor="start" x="232" y="-230.3" font-family="Times,serif" font-size="14.00">{t8: N190, C743: N190}</text>
</g>
<!-- n27275544 -->
<g id="node15" class="node">
<title>n27275544</title>
<polygon fill="none" stroke="black" points="375.5,-180 294.5,-180 294.5,-144 375.5,-144 375.5,-180"/>
<text text-anchor="start" x="302.5" y="-159.3" font-family="Times,serif" font-size="14.00">!day(</text>
<text text-anchor="start" x="331.5" y="-159.3" font-family="Times,serif" font-weight="bold" font-size="14.00">N190</text>
<text text-anchor="start" x="362.5" y="-159.3" font-family="Times,serif" font-size="14.00">)</text>
</g>
<!-- SUBSn96869763n47440726&#45;&gt;n27275544 -->
<g id="edge13" class="edge">
<title>SUBSn96869763n47440726&#45;&gt;n27275544</title>
<path fill="none" stroke="black" d="M308.65,-215.7C312.64,-207.73 317.45,-198.1 321.87,-189.26"/>
<polygon fill="black" stroke="black" points="325.11,-190.61 326.45,-180.1 318.85,-187.48 325.11,-190.61"/>
</g>
<!-- n47440726&#45;&gt;SUBSn96869763n47440726 -->
<g id="edge12" class="edge">
<title>n47440726&#45;&gt;SUBSn96869763n47440726</title>
<path fill="none" stroke="black" d="M219.93,-287.88C236.36,-277.03 257.52,-263.05 273.97,-252.19"/>
</g>
<!-- n96869763 -->
<g id="node11" class="node">
<title>n96869763</title>
<polygon fill="none" stroke="black" stroke-width="2" points="344,-324 288,-324 288,-288 344,-288 344,-324"/>
<text text-anchor="start" x="296" y="-303.3" font-family="Times,serif" font-size="14.00">dry(</text>
<text text-anchor="start" x="319" y="-303.3" font-family="Times,serif" font-weight="bold" font-size="14.00">t8</text>
<text text-anchor="start" x="331" y="-303.3" font-family="Times,serif" font-size="14.00">)</text>
</g>
<!-- n96869763&#45;&gt;SUBSn96869763n47440726 -->
<g id="edge6" class="edge">
<title>n96869763&#45;&gt;SUBSn96869763n47440726</title>
<path fill="none" stroke="black" d="M312.04,-287.7C309.56,-276.85 306.38,-262.92 303.91,-252.1"/>
</g>
<!-- n70477804&#45;&gt;SUBSn70477804n27275544 -->
<g id="edge5" class="edge">
<title>n70477804&#45;&gt;SUBSn70477804n27275544</title>
<path fill="none" stroke="black" d="M433.44,-143.7C423.05,-132.85 409.72,-118.92 399.37,-108.1"/>
</g>
<!-- n64837737 -->
<g id="node13" class="node">
<title>n64837737</title>
<polygon fill="none" stroke="black" stroke-width="2" points="687.5,-468 564.5,-468 564.5,-432 687.5,-432 687.5,-468"/>
<text text-anchor="start" x="572.5" y="-447.3" font-family="Times,serif" font-size="14.00">!night(</text>
<text text-anchor="start" x="609.5" y="-447.3" font-family="Times,serif" font-weight="bold" font-size="14.00">t0</text>
<text text-anchor="start" x="621.5" y="-447.3" font-family="Times,serif" font-size="14.00">), !day(</text>
<text text-anchor="start" x="662.5" y="-447.3" font-family="Times,serif" font-weight="bold" font-size="14.00">t0</text>
<text text-anchor="start" x="674.5" y="-447.3" font-family="Times,serif" font-size="14.00">)</text>
</g>
<!-- n64837737&#45;&gt;SUBSn41723142n64837737 -->
<g id="edge7" class="edge">
<title>n64837737&#45;&gt;SUBSn41723142n64837737</title>
<path fill="none" stroke="black" d="M612.4,-431.7C603.88,-420.85 592.93,-406.92 584.44,-396.1"/>
</g>
<!-- n01521300 -->
<g id="node14" class="node">
<title>n01521300</title>
<polygon fill="none" stroke="black" stroke-width="2" points="509.5,-324 394.5,-324 394.5,-288 509.5,-288 509.5,-324"/>
<text text-anchor="start" x="402.5" y="-303.3" font-family="Times,serif" font-size="14.00">day(</text>
<text text-anchor="start" x="427.5" y="-303.3" font-family="Times,serif" font-weight="bold" font-size="14.00">t1</text>
<text text-anchor="start" x="439.5" y="-303.3" font-family="Times,serif" font-size="14.00">), night(</text>
<text text-anchor="start" x="484.5" y="-303.3" font-family="Times,serif" font-weight="bold" font-size="14.00">t1</text>
<text text-anchor="start" x="496.5" y="-303.3" font-family="Times,serif" font-size="14.00">)</text>
</g>
<!-- n01521300&#45;&gt;SUBSn84304472n01521300 -->
<g id="edge8" class="edge">
<title>n01521300&#45;&gt;SUBSn84304472n01521300</title>
<path fill="none" stroke="black" d="M455.96,-287.7C458.44,-276.85 461.62,-262.92 464.09,-252.1"/>
</g>
<!-- n27275544&#45;&gt;SUBSn70477804n27275544 -->
<g id="edge9" class="edge">
<title>n27275544&#45;&gt;SUBSn70477804n27275544</title>
<path fill="none" stroke="black" d="M346.87,-143.7C354.31,-132.85 363.86,-118.92 371.27,-108.1"/>
</g>
<!-- n15126308 -->
<g id="node16" class="node">
<title>n15126308</title>
<polygon fill="none" stroke="black" stroke-width="2" points="338,-468 228,-468 228,-432 338,-432 338,-468"/>
<text text-anchor="start" x="236" y="-447.3" font-family="Times,serif" font-size="14.00">!sprinkler(</text>
<text text-anchor="start" x="294" y="-447.3" font-family="Times,serif" font-weight="bold" font-size="14.00">t9</text>
<text text-anchor="start" x="306" y="-447.3" font-family="Times,serif" font-size="14.00">, </text>
<text text-anchor="start" x="314" y="-447.3" font-family="Times,serif" font-weight="bold" font-size="14.00">l1</text>
<text text-anchor="start" x="325" y="-447.3" font-family="Times,serif" font-size="14.00">)</text>
</g>
<!-- n15126308&#45;&gt;SUBSn70670247n15126308 -->
<g id="edge15" class="edge">
<title>n15126308&#45;&gt;SUBSn70670247n15126308</title>
<path fill="none" stroke="black" d="M261,-431.7C247.2,-420.85 229.49,-406.92 215.75,-396.1"/>
</g>
</g>
</svg>
