<?xml version="1.0" encoding="UTF-8" standalone="no"?>
<!DOCTYPE svg PUBLIC "-//W3C//DTD SVG 1.1//EN"
 "http://www.w3.org/Graphics/SVG/1.1/DTD/svg11.dtd">
<!-- Generated by graphviz version 2.43.0 (0)
 -->
<!-- Title: g Pages: 1 -->
<svg width="485pt" height="476pt"
 viewBox="0.00 0.00 484.50 476.00" xmlns="http://www.w3.org/2000/svg" xmlns:xlink="http://www.w3.org/1999/xlink">
<g id="graph0" class="graph" transform="scale(1 1) rotate(0) translate(4 472)">
<title>g</title>
<polygon fill="white" stroke="transparent" points="-4,4 -4,-472 480.5,-472 480.5,4 -4,4"/>
<!-- n37562150 -->
<g id="node1" class="node">
<title>n37562150</title>
<polygon fill="none" stroke="black" stroke-width="2" points="115,-468 0,-468 0,-432 115,-432 115,-468"/>
<text text-anchor="start" x="8" y="-447.3" font-family="Times,serif" font-size="14.00">night(</text>
<text text-anchor="start" x="41" y="-447.3" font-family="Times,serif" font-weight="bold" font-size="14.00">t1</text>
<text text-anchor="start" x="53" y="-447.3" font-family="Times,serif" font-size="14.00">), day(</text>
<text text-anchor="start" x="90" y="-447.3" font-family="Times,serif" font-weight="bold" font-size="14.00">t1</text>
<text text-anchor="start" x="102" y="-447.3" font-family="Times,serif" font-size="14.00">)</text>
</g>
<!-- SUBSn37562150n60049678 -->
<g id="node2" class="node">
<title>SUBSn37562150n60049678</title>
<text text-anchor="start" x="106.5" y="-374.3" font-family="Times,serif" font-size="14.00">{t1: D811, t7: D811}</text>
</g>
<!-- n37562150&#45;&gt;SUBSn37562150n60049678 -->
<g id="edge1" class="edge">
<title>n37562150&#45;&gt;SUBSn37562150n60049678</title>
<path fill="none" stroke="black" d="M83.92,-431.88C100.66,-421.03 122.22,-407.05 138.98,-396.19"/>
</g>
<!-- n06417638 -->
<g id="node8" class="node">
<title>n06417638</title>
<polygon fill="none" stroke="black" points="211,-324 134,-324 134,-288 211,-288 211,-324"/>
<text text-anchor="start" x="142" y="-303.3" font-family="Times,serif" font-size="14.00">day(</text>
<text text-anchor="start" x="167" y="-303.3" font-family="Times,serif" font-weight="bold" font-size="14.00">D811</text>
<text text-anchor="start" x="198" y="-303.3" font-family="Times,serif" font-size="14.00">)</text>
</g>
<!-- SUBSn37562150n60049678&#45;&gt;n06417638 -->
<g id="edge4" class="edge">
<title>SUBSn37562150n60049678&#45;&gt;n06417638</title>
<path fill="none" stroke="black" d="M167.23,-359.7C168,-351.98 168.93,-342.71 169.79,-334.11"/>
<polygon fill="black" stroke="black" points="173.28,-334.4 170.79,-324.1 166.31,-333.71 173.28,-334.4"/>
</g>
<!-- n60049678 -->
<g id="node3" class="node">
<title>n60049678</title>
<polygon fill="none" stroke="black" stroke-width="2" points="203.5,-468 133.5,-468 133.5,-432 203.5,-432 203.5,-468"/>
<text text-anchor="start" x="141.5" y="-447.3" font-family="Times,serif" font-size="14.00">!night(</text>
<text text-anchor="start" x="178.5" y="-447.3" font-family="Times,serif" font-weight="bold" font-size="14.00">t7</text>
<text text-anchor="start" x="190.5" y="-447.3" font-family="Times,serif" font-size="14.00">)</text>
</g>
<!-- n60049678&#45;&gt;SUBSn37562150n60049678 -->
<g id="edge2" class="edge">
<title>n60049678&#45;&gt;SUBSn37562150n60049678</title>
<path fill="none" stroke="black" d="M167.76,-431.7C167.29,-420.85 166.7,-406.92 166.23,-396.1"/>
</g>
<!-- SUBSn02717992n06417638 -->
<g id="node4" class="node">
<title>SUBSn02717992n06417638</title>
<text text-anchor="start" x="163" y="-230.3" font-family="Times,serif" font-size="14.00">{Y478: B368, D811: B368}</text>
</g>
<!-- n33586943 -->
<g id="node5" class="node">
<title>n33586943</title>
<polygon fill="none" stroke="black" points="284.5,-180 196.5,-180 196.5,-144 284.5,-144 284.5,-180"/>
<text text-anchor="start" x="204.5" y="-159.3" font-family="Times,serif" font-size="14.00">bright(</text>
<text text-anchor="start" x="241.5" y="-159.3" font-family="Times,serif" font-weight="bold" font-size="14.00">B368</text>
<text text-anchor="start" x="271.5" y="-159.3" font-family="Times,serif" font-size="14.00">)</text>
</g>
<!-- SUBSn02717992n06417638&#45;&gt;n33586943 -->
<g id="edge3" class="edge">
<title>SUBSn02717992n06417638&#45;&gt;n33586943</title>
<path fill="none" stroke="black" d="M240.5,-215.7C240.5,-207.98 240.5,-198.71 240.5,-190.11"/>
<polygon fill="black" stroke="black" points="244,-190.1 240.5,-180.1 237,-190.1 244,-190.1"/>
</g>
<!-- SUBSn33586943n33116793 -->
<g id="node11" class="node">
<title>SUBSn33586943n33116793</title>
<text text-anchor="start" x="222" y="-86.3" font-family="Times,serif" font-size="14.00">{B368: B198, t6: B198}</text>
</g>
<!-- n33586943&#45;&gt;SUBSn33586943n33116793 -->
<g id="edge8" class="edge">
<title>n33586943&#45;&gt;SUBSn33586943n33116793</title>
<path fill="none" stroke="black" d="M252.61,-143.7C260.21,-132.85 269.96,-118.92 277.53,-108.1"/>
</g>
<!-- n59001870 -->
<g id="node6" class="node">
<title>n59001870</title>
<polygon fill="none" stroke="black" stroke-width="2" points="402,-468 227,-468 227,-432 402,-432 402,-468"/>
<text text-anchor="start" x="235" y="-447.3" font-family="Times,serif" font-size="14.00">!day(</text>
<text text-anchor="start" x="264" y="-447.3" font-family="Times,serif" font-weight="bold" font-size="14.00">t5</text>
<text text-anchor="start" x="276" y="-447.3" font-family="Times,serif" font-size="14.00">), !dry(</text>
<text text-anchor="start" x="316" y="-447.3" font-family="Times,serif" font-weight="bold" font-size="14.00">t5</text>
<text text-anchor="start" x="328" y="-447.3" font-family="Times,serif" font-size="14.00">), bright(</text>
<text text-anchor="start" x="377" y="-447.3" font-family="Times,serif" font-weight="bold" font-size="14.00">t5</text>
<text text-anchor="start" x="389" y="-447.3" font-family="Times,serif" font-size="14.00">)</text>
</g>
<!-- SUBSn59001870n39861207 -->
<g id="node7" class="node">
<title>SUBSn59001870n39861207</title>
<text text-anchor="start" x="258.5" y="-374.3" font-family="Times,serif" font-size="14.00">{t5: Y478, t8: Y478}</text>
</g>
<!-- n59001870&#45;&gt;SUBSn59001870n39861207 -->
<g id="edge9" class="edge">
<title>n59001870&#45;&gt;SUBSn59001870n39861207</title>
<path fill="none" stroke="black" d="M314.99,-431.7C315.3,-420.85 315.7,-406.92 316.01,-396.1"/>
</g>
<!-- n02717992 -->
<g id="node10" class="node">
<title>n02717992</title>
<polygon fill="none" stroke="black" points="393,-324 232,-324 232,-288 393,-288 393,-324"/>
<text text-anchor="start" x="240" y="-303.3" font-family="Times,serif" font-size="14.00">!day(</text>
<text text-anchor="start" x="269" y="-303.3" font-family="Times,serif" font-weight="bold" font-size="14.00">Y478</text>
<text text-anchor="start" x="300" y="-303.3" font-family="Times,serif" font-size="14.00">), bright(</text>
<text text-anchor="start" x="349" y="-303.3" font-family="Times,serif" font-weight="bold" font-size="14.00">Y478</text>
<text text-anchor="start" x="380" y="-303.3" font-family="Times,serif" font-size="14.00">)</text>
</g>
<!-- SUBSn59001870n39861207&#45;&gt;n02717992 -->
<g id="edge10" class="edge">
<title>SUBSn59001870n39861207&#45;&gt;n02717992</title>
<path fill="none" stroke="black" d="M315.51,-359.7C315.07,-351.98 314.54,-342.71 314.05,-334.11"/>
<polygon fill="black" stroke="black" points="317.54,-333.89 313.48,-324.1 310.55,-334.29 317.54,-333.89"/>
</g>
<!-- n06417638&#45;&gt;SUBSn02717992n06417638 -->
<g id="edge7" class="edge">
<title>n06417638&#45;&gt;SUBSn02717992n06417638</title>
<path fill="none" stroke="black" d="M189.31,-287.7C199.85,-276.85 213.38,-262.92 223.88,-252.1"/>
</g>
<!-- n39861207 -->
<g id="node9" class="node">
<title>n39861207</title>
<polygon fill="none" stroke="black" stroke-width="2" points="476.5,-468 420.5,-468 420.5,-432 476.5,-432 476.5,-468"/>
<text text-anchor="start" x="428.5" y="-447.3" font-family="Times,serif" font-size="14.00">dry(</text>
<text text-anchor="start" x="451.5" y="-447.3" font-family="Times,serif" font-weight="bold" font-size="14.00">t8</text>
<text text-anchor="start" x="463.5" y="-447.3" font-family="Times,serif" font-size="14.00">)</text>
</g>
<!-- n39861207&#45;&gt;SUBSn59001870n39861207 -->
<g id="edge5" class="edge">
<title>n39861207&#45;&gt;SUBSn59001870n39861207</title>
<path fill="none" stroke="black" d="M420.18,-433.98C399.27,-422.9 370.78,-407.78 348.95,-396.21"/>
</g>
<!-- n02717992&#45;&gt;SUBSn02717992n06417638 -->
<g id="edge6" class="edge">
<title>n02717992&#45;&gt;SUBSn02717992n06417638</title>
<path fill="none" stroke="black" d="M294.7,-287.7C283.54,-276.85 269.21,-262.92 258.09,-252.1"/>
</g>
<!-- n00000000 -->
<g id="node13" class="node">
<title>n00000000</title>
<polygon fill="none" stroke="black" points="318.5,-36 260.5,-36 260.5,0 318.5,0 318.5,-36"/>
<text text-anchor="start" x="268.5" y="-14.3" font-family="Times,serif" font-size="14.00">FALSE</text>
</g>
<!-- SUBSn33586943n33116793&#45;&gt;n00000000 -->
<g id="edge12" class="edge">
<title>SUBSn33586943n33116793&#45;&gt;n00000000</title>
<path fill="none" stroke="black" d="M289.5,-71.7C289.5,-63.98 289.5,-54.71 289.5,-46.11"/>
<polygon fill="black" stroke="black" points="293,-46.1 289.5,-36.1 286,-46.1 293,-46.1"/>
</g>
<!-- n33116793 -->
<g id="node12" class="node">
<title>n33116793</title>
<polygon fill="none" stroke="black" stroke-width="2" points="377,-180 302,-180 302,-144 377,-144 377,-180"/>
<text text-anchor="start" x="310" y="-159.3" font-family="Times,serif" font-size="14.00">!bright(</text>
<text text-anchor="start" x="352" y="-159.3" font-family="Times,serif" font-weight="bold" font-size="14.00">t6</text>
<text text-anchor="start" x="364" y="-159.3" font-family="Times,serif" font-size="14.00">)</text>
</g>
<!-- n33116793&#45;&gt;SUBSn33586943n33116793 -->
<g id="edge11" class="edge">
<title>n33116793&#45;&gt;SUBSn33586943n33116793</title>
<path fill="none" stroke="black" d="M327.14,-143.7C319.39,-132.85 309.44,-118.92 301.72,-108.1"/>
</g>
</g>
</svg>
