<?xml version="1.0" encoding="UTF-8" standalone="no"?>
<!DOCTYPE svg PUBLIC "-//W3C//DTD SVG 1.1//EN"
 "http://www.w3.org/Graphics/SVG/1.1/DTD/svg11.dtd">
<!-- Generated by graphviz version 2.43.0 (0)
 -->
<!-- Title: g Pages: 1 -->
<svg width="2400pt" height="332pt"
 viewBox="0.00 0.00 2399.50 332.00" xmlns="http://www.w3.org/2000/svg" xmlns:xlink="http://www.w3.org/1999/xlink">
<g id="graph0" class="graph" transform="scale(1 1) rotate(0) translate(4 328)">
<title>g</title>
<polygon fill="white" stroke="transparent" points="-4,4 -4,-328 2395.5,-328 2395.5,4 -4,4"/>
<!-- n91179235 -->
<g id="node1" class="node">
<title>n91179235</title>
<polygon fill="none" stroke="black" stroke-width="2" points="1259.5,-324 1137.5,-324 1137.5,-288 1259.5,-288 1259.5,-324"/>
<text text-anchor="start" x="1145.5" y="-303.3" font-family="Times,serif" font-size="14.00">!Clear(</text>
<text text-anchor="start" x="1184.5" y="-303.3" font-family="Times,serif" font-weight="bold" font-size="14.00">t1</text>
<text text-anchor="start" x="1196.5" y="-303.3" font-family="Times,serif" font-size="14.00">), Dry(</text>
<text text-anchor="start" x="1234.5" y="-303.3" font-family="Times,serif" font-weight="bold" font-size="14.00">t1</text>
<text text-anchor="start" x="1246.5" y="-303.3" font-family="Times,serif" font-size="14.00">)</text>
</g>
<!-- SUBSn92248572n91179235 -->
<g id="node2" class="node">
<title>SUBSn92248572n91179235</title>
<text text-anchor="start" x="833" y="-86.3" font-family="Times,serif" font-size="14.00">{T33: J8, t1: J8}</text>
</g>
<!-- n91179235&#45;&gt;SUBSn92248572n91179235 -->
<g id="edge1" class="edge">
<title>n91179235&#45;&gt;SUBSn92248572n91179235</title>
<path fill="none" stroke="black" d="M1170.17,-287.87C1137.1,-268.42 1080.31,-236.71 1028.5,-216 974.42,-194.38 943.16,-221.7 902.5,-180 883.67,-160.69 879.68,-128.09 879.14,-108.16"/>
</g>
<!-- SUBSn87152361n91179235 -->
<g id="node6" class="node">
<title>SUBSn87152361n91179235</title>
<text text-anchor="start" x="1393.5" y="-230.3" font-family="Times,serif" font-size="14.00">{t2: D614, t1: D614}</text>
</g>
<!-- n91179235&#45;&gt;SUBSn87152361n91179235 -->
<g id="edge48" class="edge">
<title>n91179235&#45;&gt;SUBSn87152361n91179235</title>
<path fill="none" stroke="black" d="M1259.66,-288.14C1299.3,-277.22 1350.76,-263.04 1390.55,-252.07"/>
</g>
<!-- SUBSn03023091n91179235 -->
<g id="node7" class="node">
<title>SUBSn03023091n91179235</title>
<text text-anchor="start" x="1103" y="-86.3" font-family="Times,serif" font-size="14.00">{T34: C257, t1: C257}</text>
</g>
<!-- n91179235&#45;&gt;SUBSn03023091n91179235 -->
<g id="edge28" class="edge">
<title>n91179235&#45;&gt;SUBSn03023091n91179235</title>
<path fill="none" stroke="black" d="M1188.07,-288C1174.44,-264.66 1151.25,-220.93 1142.5,-180 1139.16,-164.35 1139.12,-159.64 1142.5,-144 1145.23,-131.36 1151.23,-118.11 1156.55,-108.02"/>
</g>
<!-- SUBSn73958907n91179235 -->
<g id="node9" class="node">
<title>SUBSn73958907n91179235</title>
<text text-anchor="start" x="1839" y="-230.3" font-family="Times,serif" font-size="14.00">{t3: V91, t1: V91}</text>
</g>
<!-- n91179235&#45;&gt;SUBSn73958907n91179235 -->
<g id="edge12" class="edge">
<title>n91179235&#45;&gt;SUBSn73958907n91179235</title>
<path fill="none" stroke="black" d="M1259.61,-298.82C1391.23,-285.5 1700.15,-254.26 1830.64,-241.06"/>
</g>
<!-- SUBSn91179235n73958907 -->
<g id="node10" class="node">
<title>SUBSn91179235n73958907</title>
<text text-anchor="start" x="1976" y="-230.3" font-family="Times,serif" font-size="14.00">{t1: V90, t3: V90}</text>
</g>
<!-- n91179235&#45;&gt;SUBSn91179235n73958907 -->
<g id="edge9" class="edge">
<title>n91179235&#45;&gt;SUBSn91179235n73958907</title>
<path fill="none" stroke="black" d="M1259.74,-300.15C1304.31,-296.66 1366.14,-291.9 1420.5,-288 1659.97,-270.83 1722.32,-289.26 1959.5,-252 1962.26,-251.57 1965.08,-251.07 1967.92,-250.53"/>
</g>
<!-- SUBSn91179235n87152361 -->
<g id="node11" class="node">
<title>SUBSn91179235n87152361</title>
<text text-anchor="start" x="1545.5" y="-230.3" font-family="Times,serif" font-size="14.00">{t1: D613, t2: D613}</text>
</g>
<!-- n91179235&#45;&gt;SUBSn91179235n87152361 -->
<g id="edge27" class="edge">
<title>n91179235&#45;&gt;SUBSn91179235n87152361</title>
<path fill="none" stroke="black" d="M1259.52,-296.34C1325.9,-286.65 1435.04,-269.94 1528.5,-252 1531.42,-251.44 1534.4,-250.85 1537.41,-250.24"/>
</g>
<!-- SUBSn91179235n93912987 -->
<g id="node14" class="node">
<title>SUBSn91179235n93912987</title>
<text text-anchor="start" x="895.5" y="-230.3" font-family="Times,serif" font-size="14.00">{t1: B784, t5: B784}</text>
</g>
<!-- n91179235&#45;&gt;SUBSn91179235n93912987 -->
<g id="edge34" class="edge">
<title>n91179235&#45;&gt;SUBSn91179235n93912987</title>
<path fill="none" stroke="black" d="M1138.88,-287.97C1100.78,-277.08 1051.54,-263.01 1013.39,-252.11"/>
</g>
<!-- SUBSn91179235n92248572 -->
<g id="node16" class="node">
<title>SUBSn91179235n92248572</title>
<text text-anchor="start" x="960.5" y="-86.3" font-family="Times,serif" font-size="14.00">{t1: J7, T33: J7}</text>
</g>
<!-- n91179235&#45;&gt;SUBSn91179235n92248572 -->
<g id="edge6" class="edge">
<title>n91179235&#45;&gt;SUBSn91179235n92248572</title>
<path fill="none" stroke="black" d="M1182.19,-287.6C1172.75,-277.39 1160.75,-264.14 1150.5,-252 1111.09,-205.33 1107.26,-188.57 1065.5,-144 1053.54,-131.24 1038.93,-118.1 1027.24,-108.09"/>
</g>
<!-- SUBSn93912987n91179235 -->
<g id="node18" class="node">
<title>SUBSn93912987n91179235</title>
<text text-anchor="start" x="745.5" y="-230.3" font-family="Times,serif" font-size="14.00">{t5: B785, t1: B785}</text>
</g>
<!-- n91179235&#45;&gt;SUBSn93912987n91179235 -->
<g id="edge22" class="edge">
<title>n91179235&#45;&gt;SUBSn93912987n91179235</title>
<path fill="none" stroke="black" d="M1137.26,-295.95C1072.71,-286.16 968.16,-269.57 878.5,-252 875.62,-251.44 872.68,-250.84 869.71,-250.23"/>
</g>
<!-- SUBSn91179235n03023091 -->
<g id="node26" class="node">
<title>SUBSn91179235n03023091</title>
<text text-anchor="start" x="1264" y="-86.3" font-family="Times,serif" font-size="14.00">{t1: C256, T34: C256}</text>
</g>
<!-- n91179235&#45;&gt;SUBSn91179235n03023091 -->
<g id="edge14" class="edge">
<title>n91179235&#45;&gt;SUBSn91179235n03023091</title>
<path fill="none" stroke="black" d="M1217.82,-287.96C1241.98,-265.58 1282.89,-223.95 1305.5,-180 1317.44,-156.79 1323.11,-126.79 1325.64,-108.23"/>
</g>
<!-- n24377703 -->
<g id="node32" class="node">
<title>n24377703</title>
<polygon fill="none" stroke="black" points="919,-36 784,-36 784,0 919,0 919,-36"/>
<text text-anchor="start" x="792" y="-15.3" font-family="Times,serif" font-size="14.00">!Rain(</text>
<text text-anchor="start" x="827" y="-15.3" font-family="Times,serif" font-weight="bold" font-size="14.00">J8</text>
<text text-anchor="start" x="841" y="-15.3" font-family="Times,serif" font-size="14.00">), !Clear(</text>
<text text-anchor="start" x="892" y="-15.3" font-family="Times,serif" font-weight="bold" font-size="14.00">J8</text>
<text text-anchor="start" x="906" y="-15.3" font-family="Times,serif" font-size="14.00">)</text>
</g>
<!-- SUBSn92248572n91179235&#45;&gt;n24377703 -->
<g id="edge47" class="edge">
<title>SUBSn92248572n91179235&#45;&gt;n24377703</title>
<path fill="none" stroke="black" d="M872.58,-71.7C869.43,-63.81 865.62,-54.3 862.12,-45.55"/>
<polygon fill="black" stroke="black" points="865.31,-44.09 858.34,-36.1 858.81,-46.69 865.31,-44.09"/>
</g>
<!-- n93912987 -->
<g id="node3" class="node">
<title>n93912987</title>
<polygon fill="none" stroke="black" stroke-width="2" points="792.5,-324 672.5,-324 672.5,-288 792.5,-288 792.5,-324"/>
<text text-anchor="start" x="680.5" y="-303.3" font-family="Times,serif" font-size="14.00">!Dry(</text>
<text text-anchor="start" x="711.5" y="-303.3" font-family="Times,serif" font-weight="bold" font-size="14.00">t5</text>
<text text-anchor="start" x="723.5" y="-303.3" font-family="Times,serif" font-size="14.00">), !Wet(</text>
<text text-anchor="start" x="767.5" y="-303.3" font-family="Times,serif" font-weight="bold" font-size="14.00">t5</text>
<text text-anchor="start" x="779.5" y="-303.3" font-family="Times,serif" font-size="14.00">)</text>
</g>
<!-- n93912987&#45;&gt;SUBSn91179235n93912987 -->
<g id="edge4" class="edge">
<title>n93912987&#45;&gt;SUBSn91179235n93912987</title>
<path fill="none" stroke="black" d="M786.28,-287.97C820.65,-277.08 865.06,-263.01 899.48,-252.11"/>
</g>
<!-- SUBSn93912987n33514483 -->
<g id="node15" class="node">
<title>SUBSn93912987n33514483</title>
<text text-anchor="start" x="477.5" y="-230.3" font-family="Times,serif" font-size="14.00">{t5: T33, t4: T33}</text>
</g>
<!-- n93912987&#45;&gt;SUBSn93912987n33514483 -->
<g id="edge5" class="edge">
<title>n93912987&#45;&gt;SUBSn93912987n33514483</title>
<path fill="none" stroke="black" d="M682.61,-287.97C650.73,-277.08 609.53,-263.01 577.61,-252.11"/>
</g>
<!-- n93912987&#45;&gt;SUBSn93912987n91179235 -->
<g id="edge33" class="edge">
<title>n93912987&#45;&gt;SUBSn93912987n91179235</title>
<path fill="none" stroke="black" d="M750.05,-287.7C761.06,-276.85 775.18,-262.92 786.15,-252.1"/>
</g>
<!-- SUBSn33514483n93912987 -->
<g id="node20" class="node">
<title>SUBSn33514483n93912987</title>
<text text-anchor="start" x="611.5" y="-230.3" font-family="Times,serif" font-size="14.00">{t4: T34, t5: T34}</text>
</g>
<!-- n93912987&#45;&gt;SUBSn33514483n93912987 -->
<g id="edge10" class="edge">
<title>n93912987&#45;&gt;SUBSn33514483n93912987</title>
<path fill="none" stroke="black" d="M714.95,-287.7C703.94,-276.85 689.82,-262.92 678.85,-252.1"/>
</g>
<!-- n33514483 -->
<g id="node4" class="node">
<title>n33514483</title>
<polygon fill="none" stroke="black" stroke-width="2" points="482,-324 363,-324 363,-288 482,-288 482,-324"/>
<text text-anchor="start" x="371" y="-303.3" font-family="Times,serif" font-size="14.00">!Rain(</text>
<text text-anchor="start" x="406" y="-303.3" font-family="Times,serif" font-weight="bold" font-size="14.00">t4</text>
<text text-anchor="start" x="418" y="-303.3" font-family="Times,serif" font-size="14.00">), Wet(</text>
<text text-anchor="start" x="457" y="-303.3" font-family="Times,serif" font-weight="bold" font-size="14.00">t4</text>
<text text-anchor="start" x="469" y="-303.3" font-family="Times,serif" font-size="14.00">)</text>
</g>
<!-- SUBSn33514483n35735420 -->
<g id="node5" class="node">
<title>SUBSn33514483n35735420</title>
<text text-anchor="start" x="38.5" y="-86.3" font-family="Times,serif" font-size="14.00">{t4: D272, B785: D272}</text>
</g>
<!-- n33514483&#45;&gt;SUBSn33514483n35735420 -->
<g id="edge2" class="edge">
<title>n33514483&#45;&gt;SUBSn33514483n35735420</title>
<path fill="none" stroke="black" d="M366.86,-287.93C310.9,-268.64 224.53,-232.89 164.5,-180 141.25,-159.52 123.54,-127.59 114.11,-108.06"/>
</g>
<!-- n33514483&#45;&gt;SUBSn93912987n33514483 -->
<g id="edge38" class="edge">
<title>n33514483&#45;&gt;SUBSn93912987n33514483</title>
<path fill="none" stroke="black" d="M448.19,-287.88C464.46,-277.03 485.43,-263.05 501.72,-252.19"/>
</g>
<!-- SUBSn37557895n33514483 -->
<g id="node17" class="node">
<title>SUBSn37557895n33514483</title>
<text text-anchor="start" x="384" y="-86.3" font-family="Times,serif" font-size="14.00">{B784: W562, t4: W562}</text>
</g>
<!-- n33514483&#45;&gt;SUBSn37557895n33514483 -->
<g id="edge7" class="edge">
<title>n33514483&#45;&gt;SUBSn37557895n33514483</title>
<path fill="none" stroke="black" d="M419.52,-287.67C415.01,-257.72 408.4,-194.62 422.5,-144 426.13,-130.95 433.94,-117.91 440.94,-108.03"/>
</g>
<!-- n33514483&#45;&gt;SUBSn33514483n93912987 -->
<g id="edge18" class="edge">
<title>n33514483&#45;&gt;SUBSn33514483n93912987</title>
<path fill="none" stroke="black" d="M480.66,-287.97C517.97,-277.04 566.22,-262.91 603.49,-251.99"/>
</g>
<!-- SUBSn35735420n33514483 -->
<g id="node30" class="node">
<title>SUBSn35735420n33514483</title>
<text text-anchor="start" x="208.5" y="-86.3" font-family="Times,serif" font-size="14.00">{B785: D271, t4: D271}</text>
</g>
<!-- n33514483&#45;&gt;SUBSn35735420n33514483 -->
<g id="edge45" class="edge">
<title>n33514483&#45;&gt;SUBSn35735420n33514483</title>
<path fill="none" stroke="black" d="M417.49,-288C407.7,-256.9 383.71,-189.83 346.5,-144 335.07,-129.92 319.14,-117.47 305.36,-108.19"/>
</g>
<!-- SUBSn33514483n37557895 -->
<g id="node34" class="node">
<title>SUBSn33514483n37557895</title>
<text text-anchor="start" x="559" y="-86.3" font-family="Times,serif" font-size="14.00">{t4: W561, B784: W561}</text>
</g>
<!-- n33514483&#45;&gt;SUBSn33514483n37557895 -->
<g id="edge29" class="edge">
<title>n33514483&#45;&gt;SUBSn33514483n37557895</title>
<path fill="none" stroke="black" d="M425.13,-287.89C429.14,-267.7 438.77,-234.53 460.5,-216 510.7,-173.19 557.18,-225.97 604.5,-180 623.95,-161.1 628.62,-128.37 629.54,-108.3"/>
</g>
<!-- n10608353 -->
<g id="node38" class="node">
<title>n10608353</title>
<polygon fill="none" stroke="black" points="169,-36 0,-36 0,0 169,0 169,-36"/>
<text text-anchor="start" x="8" y="-15.3" font-family="Times,serif" font-size="14.00">!Clear(</text>
<text text-anchor="start" x="47" y="-15.3" font-family="Times,serif" font-weight="bold" font-size="14.00">D272</text>
<text text-anchor="start" x="78" y="-15.3" font-family="Times,serif" font-size="14.00">), !Rain(</text>
<text text-anchor="start" x="125" y="-15.3" font-family="Times,serif" font-weight="bold" font-size="14.00">D272</text>
<text text-anchor="start" x="156" y="-15.3" font-family="Times,serif" font-size="14.00">)</text>
</g>
<!-- SUBSn33514483n35735420&#45;&gt;n10608353 -->
<g id="edge44" class="edge">
<title>SUBSn33514483n35735420&#45;&gt;n10608353</title>
<path fill="none" stroke="black" d="M101.06,-71.7C98.61,-63.9 95.66,-54.51 92.93,-45.83"/>
<polygon fill="black" stroke="black" points="96.21,-44.59 89.88,-36.1 89.54,-46.69 96.21,-44.59"/>
</g>
<!-- n09060049 -->
<g id="node23" class="node">
<title>n09060049</title>
<polygon fill="none" stroke="black" points="1617.5,-180 1353.5,-180 1353.5,-144 1617.5,-144 1617.5,-180"/>
<text text-anchor="start" x="1361.5" y="-159.3" font-family="Times,serif" font-size="14.00">!Day(</text>
<text text-anchor="start" x="1393.5" y="-159.3" font-family="Times,serif" font-weight="bold" font-size="14.00">D614</text>
<text text-anchor="start" x="1424.5" y="-159.3" font-family="Times,serif" font-size="14.00">), !Clear(</text>
<text text-anchor="start" x="1475.5" y="-159.3" font-family="Times,serif" font-weight="bold" font-size="14.00">D614</text>
<text text-anchor="start" x="1506.5" y="-159.3" font-family="Times,serif" font-size="14.00">), Sprinkler(</text>
<text text-anchor="start" x="1573.5" y="-159.3" font-family="Times,serif" font-weight="bold" font-size="14.00">D614</text>
<text text-anchor="start" x="1604.5" y="-159.3" font-family="Times,serif" font-size="14.00">)</text>
</g>
<!-- SUBSn87152361n91179235&#45;&gt;n09060049 -->
<g id="edge26" class="edge">
<title>SUBSn87152361n91179235&#45;&gt;n09060049</title>
<path fill="none" stroke="black" d="M1460.66,-215.7C1464.41,-207.73 1468.95,-198.1 1473.12,-189.26"/>
<polygon fill="black" stroke="black" points="1476.34,-190.64 1477.44,-180.1 1470.01,-187.66 1476.34,-190.64"/>
</g>
<!-- n86433959 -->
<g id="node21" class="node">
<title>n86433959</title>
<polygon fill="none" stroke="black" points="1259,-36 1090,-36 1090,0 1259,0 1259,-36"/>
<text text-anchor="start" x="1098" y="-15.3" font-family="Times,serif" font-size="14.00">!Clear(</text>
<text text-anchor="start" x="1137" y="-15.3" font-family="Times,serif" font-weight="bold" font-size="14.00">C257</text>
<text text-anchor="start" x="1168" y="-15.3" font-family="Times,serif" font-size="14.00">), !Rain(</text>
<text text-anchor="start" x="1215" y="-15.3" font-family="Times,serif" font-weight="bold" font-size="14.00">C257</text>
<text text-anchor="start" x="1246" y="-15.3" font-family="Times,serif" font-size="14.00">)</text>
</g>
<!-- SUBSn03023091n91179235&#45;&gt;n86433959 -->
<g id="edge19" class="edge">
<title>SUBSn03023091n91179235&#45;&gt;n86433959</title>
<path fill="none" stroke="black" d="M1168.48,-71.7C1169.36,-63.98 1170.42,-54.71 1171.4,-46.11"/>
<polygon fill="black" stroke="black" points="1174.89,-46.44 1172.55,-36.1 1167.93,-45.64 1174.89,-46.44"/>
</g>
<!-- n73958907 -->
<g id="node8" class="node">
<title>n73958907</title>
<polygon fill="none" stroke="black" stroke-width="2" points="2050.5,-324 1866.5,-324 1866.5,-288 2050.5,-288 2050.5,-324"/>
<text text-anchor="start" x="1874.5" y="-303.3" font-family="Times,serif" font-size="14.00">!Day(</text>
<text text-anchor="start" x="1906.5" y="-303.3" font-family="Times,serif" font-weight="bold" font-size="14.00">t3</text>
<text text-anchor="start" x="1918.5" y="-303.3" font-family="Times,serif" font-size="14.00">), !Dry(</text>
<text text-anchor="start" x="1961.5" y="-303.3" font-family="Times,serif" font-weight="bold" font-size="14.00">t3</text>
<text text-anchor="start" x="1973.5" y="-303.3" font-family="Times,serif" font-size="14.00">), Bright(</text>
<text text-anchor="start" x="2025.5" y="-303.3" font-family="Times,serif" font-weight="bold" font-size="14.00">t3</text>
<text text-anchor="start" x="2037.5" y="-303.3" font-family="Times,serif" font-size="14.00">)</text>
</g>
<!-- n73958907&#45;&gt;SUBSn73958907n91179235 -->
<g id="edge3" class="edge">
<title>n73958907&#45;&gt;SUBSn73958907n91179235</title>
<path fill="none" stroke="black" d="M1941.69,-287.7C1931.15,-276.85 1917.62,-262.92 1907.12,-252.1"/>
</g>
<!-- n73958907&#45;&gt;SUBSn91179235n73958907 -->
<g id="edge43" class="edge">
<title>n73958907&#45;&gt;SUBSn91179235n73958907</title>
<path fill="none" stroke="black" d="M1975.56,-287.7C1986.25,-276.85 1999.98,-262.92 2010.64,-252.1"/>
</g>
<!-- n78149393 -->
<g id="node25" class="node">
<title>n78149393</title>
<polygon fill="none" stroke="black" points="2145.5,-180 1917.5,-180 1917.5,-144 2145.5,-144 2145.5,-180"/>
<text text-anchor="start" x="1925.5" y="-159.3" font-family="Times,serif" font-size="14.00">!Clear(</text>
<text text-anchor="start" x="1964.5" y="-159.3" font-family="Times,serif" font-weight="bold" font-size="14.00">V91</text>
<text text-anchor="start" x="1988.5" y="-159.3" font-family="Times,serif" font-size="14.00">), Bright(</text>
<text text-anchor="start" x="2040.5" y="-159.3" font-family="Times,serif" font-weight="bold" font-size="14.00">V91</text>
<text text-anchor="start" x="2064.5" y="-159.3" font-family="Times,serif" font-size="14.00">), !Day(</text>
<text text-anchor="start" x="2108.5" y="-159.3" font-family="Times,serif" font-weight="bold" font-size="14.00">V91</text>
<text text-anchor="start" x="2132.5" y="-159.3" font-family="Times,serif" font-size="14.00">)</text>
</g>
<!-- SUBSn73958907n91179235&#45;&gt;n78149393 -->
<g id="edge42" class="edge">
<title>SUBSn73958907n91179235&#45;&gt;n78149393</title>
<path fill="none" stroke="black" d="M1924.99,-215.88C1943.94,-206.47 1967.63,-194.71 1987.86,-184.67"/>
<polygon fill="black" stroke="black" points="1989.47,-187.77 1996.87,-180.19 1986.36,-181.5 1989.47,-187.77"/>
</g>
<!-- n05902724 -->
<g id="node28" class="node">
<title>n05902724</title>
<polygon fill="none" stroke="black" points="2391.5,-180 2163.5,-180 2163.5,-144 2391.5,-144 2391.5,-180"/>
<text text-anchor="start" x="2171.5" y="-159.3" font-family="Times,serif" font-size="14.00">Bright(</text>
<text text-anchor="start" x="2211.5" y="-159.3" font-family="Times,serif" font-weight="bold" font-size="14.00">V90</text>
<text text-anchor="start" x="2235.5" y="-159.3" font-family="Times,serif" font-size="14.00">), !Day(</text>
<text text-anchor="start" x="2279.5" y="-159.3" font-family="Times,serif" font-weight="bold" font-size="14.00">V90</text>
<text text-anchor="start" x="2303.5" y="-159.3" font-family="Times,serif" font-size="14.00">), !Clear(</text>
<text text-anchor="start" x="2354.5" y="-159.3" font-family="Times,serif" font-weight="bold" font-size="14.00">V90</text>
<text text-anchor="start" x="2378.5" y="-159.3" font-family="Times,serif" font-size="14.00">)</text>
</g>
<!-- SUBSn91179235n73958907&#45;&gt;n05902724 -->
<g id="edge20" class="edge">
<title>SUBSn91179235n73958907&#45;&gt;n05902724</title>
<path fill="none" stroke="black" d="M2087.06,-216.32C2122.99,-206.26 2168.96,-193.39 2206.74,-182.81"/>
<polygon fill="black" stroke="black" points="2207.97,-186.1 2216.66,-180.04 2206.08,-179.36 2207.97,-186.1"/>
</g>
<!-- n85634574 -->
<g id="node27" class="node">
<title>n85634574</title>
<polygon fill="none" stroke="black" points="1899.5,-180 1635.5,-180 1635.5,-144 1899.5,-144 1899.5,-180"/>
<text text-anchor="start" x="1643.5" y="-159.3" font-family="Times,serif" font-size="14.00">!Day(</text>
<text text-anchor="start" x="1675.5" y="-159.3" font-family="Times,serif" font-weight="bold" font-size="14.00">D613</text>
<text text-anchor="start" x="1706.5" y="-159.3" font-family="Times,serif" font-size="14.00">), !Clear(</text>
<text text-anchor="start" x="1757.5" y="-159.3" font-family="Times,serif" font-weight="bold" font-size="14.00">D613</text>
<text text-anchor="start" x="1788.5" y="-159.3" font-family="Times,serif" font-size="14.00">), Sprinkler(</text>
<text text-anchor="start" x="1855.5" y="-159.3" font-family="Times,serif" font-weight="bold" font-size="14.00">D613</text>
<text text-anchor="start" x="1886.5" y="-159.3" font-family="Times,serif" font-size="14.00">)</text>
</g>
<!-- SUBSn91179235n87152361&#45;&gt;n85634574 -->
<g id="edge15" class="edge">
<title>SUBSn91179235n87152361&#45;&gt;n85634574</title>
<path fill="none" stroke="black" d="M1644.37,-215.88C1666.66,-206.31 1694.62,-194.3 1718.26,-184.15"/>
<polygon fill="black" stroke="black" points="1719.95,-187.23 1727.76,-180.07 1717.19,-180.8 1719.95,-187.23"/>
</g>
<!-- n92248572 -->
<g id="node12" class="node">
<title>n92248572</title>
<polygon fill="none" stroke="black" points="1057,-180 912,-180 912,-144 1057,-144 1057,-180"/>
<text text-anchor="start" x="920" y="-159.3" font-family="Times,serif" font-size="14.00">!Dry(</text>
<text text-anchor="start" x="951" y="-159.3" font-family="Times,serif" font-weight="bold" font-size="14.00">T33</text>
<text text-anchor="start" x="974" y="-159.3" font-family="Times,serif" font-size="14.00">), !Rain(</text>
<text text-anchor="start" x="1021" y="-159.3" font-family="Times,serif" font-weight="bold" font-size="14.00">T33</text>
<text text-anchor="start" x="1044" y="-159.3" font-family="Times,serif" font-size="14.00">)</text>
</g>
<!-- n92248572&#45;&gt;SUBSn92248572n91179235 -->
<g id="edge35" class="edge">
<title>n92248572&#45;&gt;SUBSn92248572n91179235</title>
<path fill="none" stroke="black" d="M958.81,-143.88C942.54,-133.03 921.57,-119.05 905.28,-108.19"/>
</g>
<!-- n92248572&#45;&gt;SUBSn91179235n92248572 -->
<g id="edge16" class="edge">
<title>n92248572&#45;&gt;SUBSn91179235n92248572</title>
<path fill="none" stroke="black" d="M989.94,-143.7C993.35,-132.85 997.73,-118.92 1001.12,-108.1"/>
</g>
<!-- n03023091 -->
<g id="node13" class="node">
<title>n03023091</title>
<polygon fill="none" stroke="black" points="1297,-180 1152,-180 1152,-144 1297,-144 1297,-180"/>
<text text-anchor="start" x="1160" y="-159.3" font-family="Times,serif" font-size="14.00">!Dry(</text>
<text text-anchor="start" x="1191" y="-159.3" font-family="Times,serif" font-weight="bold" font-size="14.00">T34</text>
<text text-anchor="start" x="1214" y="-159.3" font-family="Times,serif" font-size="14.00">), !Rain(</text>
<text text-anchor="start" x="1261" y="-159.3" font-family="Times,serif" font-weight="bold" font-size="14.00">T34</text>
<text text-anchor="start" x="1284" y="-159.3" font-family="Times,serif" font-size="14.00">)</text>
</g>
<!-- n03023091&#45;&gt;SUBSn03023091n91179235 -->
<g id="edge11" class="edge">
<title>n03023091&#45;&gt;SUBSn03023091n91179235</title>
<path fill="none" stroke="black" d="M1210.16,-143.7C1201.17,-132.85 1189.63,-118.92 1180.67,-108.1"/>
</g>
<!-- n03023091&#45;&gt;SUBSn91179235n03023091 -->
<g id="edge17" class="edge">
<title>n03023091&#45;&gt;SUBSn91179235n03023091</title>
<path fill="none" stroke="black" d="M1249.7,-143.88C1265.66,-133.03 1286.23,-119.05 1302.21,-108.19"/>
</g>
<!-- n37557895 -->
<g id="node24" class="node">
<title>n37557895</title>
<polygon fill="none" stroke="black" points="595.5,-180 431.5,-180 431.5,-144 595.5,-144 595.5,-180"/>
<text text-anchor="start" x="439.5" y="-159.3" font-family="Times,serif" font-size="14.00">!Clear(</text>
<text text-anchor="start" x="478.5" y="-159.3" font-family="Times,serif" font-weight="bold" font-size="14.00">B784</text>
<text text-anchor="start" x="508.5" y="-159.3" font-family="Times,serif" font-size="14.00">), !Wet(</text>
<text text-anchor="start" x="552.5" y="-159.3" font-family="Times,serif" font-weight="bold" font-size="14.00">B784</text>
<text text-anchor="start" x="582.5" y="-159.3" font-family="Times,serif" font-size="14.00">)</text>
</g>
<!-- SUBSn91179235n93912987&#45;&gt;n37557895 -->
<g id="edge13" class="edge">
<title>SUBSn91179235n93912987&#45;&gt;n37557895</title>
<path fill="none" stroke="black" d="M887.31,-217.7C884.33,-217.11 881.39,-216.54 878.5,-216 786.2,-198.87 679.91,-183.97 605.93,-174.38"/>
<polygon fill="black" stroke="black" points="606.07,-170.87 595.71,-173.06 605.18,-177.81 606.07,-170.87"/>
</g>
<!-- SUBSn93912987n33514483&#45;&gt;n92248572 -->
<g id="edge41" class="edge">
<title>SUBSn93912987n33514483&#45;&gt;n92248572</title>
<path fill="none" stroke="black" d="M585.51,-217.85C588.55,-217.19 591.55,-216.57 594.5,-216 699.62,-195.59 822.19,-180.31 901.45,-171.52"/>
<polygon fill="black" stroke="black" points="902.3,-174.95 911.86,-170.38 901.54,-167.99 902.3,-174.95"/>
</g>
<!-- n65610775 -->
<g id="node22" class="node">
<title>n65610775</title>
<polygon fill="none" stroke="black" points="1072,-36 937,-36 937,0 1072,0 1072,-36"/>
<text text-anchor="start" x="945" y="-15.3" font-family="Times,serif" font-size="14.00">!Rain(</text>
<text text-anchor="start" x="980" y="-15.3" font-family="Times,serif" font-weight="bold" font-size="14.00">J7</text>
<text text-anchor="start" x="994" y="-15.3" font-family="Times,serif" font-size="14.00">), !Clear(</text>
<text text-anchor="start" x="1045" y="-15.3" font-family="Times,serif" font-weight="bold" font-size="14.00">J7</text>
<text text-anchor="start" x="1059" y="-15.3" font-family="Times,serif" font-size="14.00">)</text>
</g>
<!-- SUBSn91179235n92248572&#45;&gt;n65610775 -->
<g id="edge25" class="edge">
<title>SUBSn91179235n92248572&#45;&gt;n65610775</title>
<path fill="none" stroke="black" d="M1006.01,-71.7C1005.79,-63.98 1005.52,-54.71 1005.27,-46.11"/>
<polygon fill="black" stroke="black" points="1008.77,-46 1004.99,-36.1 1001.78,-46.2 1008.77,-46"/>
</g>
<!-- n35913221 -->
<g id="node37" class="node">
<title>n35913221</title>
<polygon fill="none" stroke="black" points="551,-36 374,-36 374,0 551,0 551,-36"/>
<text text-anchor="start" x="382" y="-15.3" font-family="Times,serif" font-size="14.00">!Rain(</text>
<text text-anchor="start" x="417" y="-15.3" font-family="Times,serif" font-weight="bold" font-size="14.00">W562</text>
<text text-anchor="start" x="452" y="-15.3" font-family="Times,serif" font-size="14.00">), !Clear(</text>
<text text-anchor="start" x="503" y="-15.3" font-family="Times,serif" font-weight="bold" font-size="14.00">W562</text>
<text text-anchor="start" x="538" y="-15.3" font-family="Times,serif" font-size="14.00">)</text>
</g>
<!-- SUBSn37557895n33514483&#45;&gt;n35913221 -->
<g id="edge36" class="edge">
<title>SUBSn37557895n33514483&#45;&gt;n35913221</title>
<path fill="none" stroke="black" d="M456.48,-71.7C457.36,-63.98 458.42,-54.71 459.4,-46.11"/>
<polygon fill="black" stroke="black" points="462.89,-46.44 460.55,-36.1 455.93,-45.64 462.89,-46.44"/>
</g>
<!-- n35735420 -->
<g id="node19" class="node">
<title>n35735420</title>
<polygon fill="none" stroke="black" points="337.5,-180 173.5,-180 173.5,-144 337.5,-144 337.5,-180"/>
<text text-anchor="start" x="181.5" y="-159.3" font-family="Times,serif" font-size="14.00">!Clear(</text>
<text text-anchor="start" x="220.5" y="-159.3" font-family="Times,serif" font-weight="bold" font-size="14.00">B785</text>
<text text-anchor="start" x="250.5" y="-159.3" font-family="Times,serif" font-size="14.00">), !Wet(</text>
<text text-anchor="start" x="294.5" y="-159.3" font-family="Times,serif" font-weight="bold" font-size="14.00">B785</text>
<text text-anchor="start" x="324.5" y="-159.3" font-family="Times,serif" font-size="14.00">)</text>
</g>
<!-- SUBSn93912987n91179235&#45;&gt;n35735420 -->
<g id="edge8" class="edge">
<title>SUBSn93912987n91179235&#45;&gt;n35735420</title>
<path fill="none" stroke="black" d="M737.33,-217.58C734.35,-217.02 731.4,-216.49 728.5,-216 691.98,-209.84 474.66,-186.31 347.66,-172.77"/>
<polygon fill="black" stroke="black" points="347.86,-169.27 337.55,-171.69 347.12,-176.23 347.86,-169.27"/>
</g>
<!-- n35735420&#45;&gt;SUBSn33514483n35735420 -->
<g id="edge23" class="edge">
<title>n35735420&#45;&gt;SUBSn33514483n35735420</title>
<path fill="none" stroke="black" d="M219.05,-143.88C195.87,-132.99 165.98,-118.95 142.83,-108.07"/>
</g>
<!-- n35735420&#45;&gt;SUBSn35735420n33514483 -->
<g id="edge46" class="edge">
<title>n35735420&#45;&gt;SUBSn35735420n33514483</title>
<path fill="none" stroke="black" d="M260.69,-143.7C263.95,-132.85 268.12,-118.92 271.37,-108.1"/>
</g>
<!-- SUBSn33514483n93912987&#45;&gt;n03023091 -->
<g id="edge30" class="edge">
<title>SUBSn33514483n93912987&#45;&gt;n03023091</title>
<path fill="none" stroke="black" d="M719.86,-217.67C722.77,-217.07 725.67,-216.51 728.5,-216 876.76,-189.41 915.72,-196.01 1065.5,-180 1090.25,-177.36 1117.16,-174.48 1141.69,-171.86"/>
<polygon fill="black" stroke="black" points="1142.11,-175.33 1151.68,-170.79 1141.36,-168.37 1142.11,-175.33"/>
</g>
<!-- n37557895&#45;&gt;SUBSn37557895n33514483 -->
<g id="edge31" class="edge">
<title>n37557895&#45;&gt;SUBSn37557895n33514483</title>
<path fill="none" stroke="black" d="M498.92,-143.7C489.77,-132.85 478.03,-118.92 468.92,-108.1"/>
</g>
<!-- n37557895&#45;&gt;SUBSn33514483n37557895 -->
<g id="edge39" class="edge">
<title>n37557895&#45;&gt;SUBSn33514483n37557895</title>
<path fill="none" stroke="black" d="M541.88,-143.88C559.85,-133.03 583.02,-119.05 601.01,-108.19"/>
</g>
<!-- n64637378 -->
<g id="node29" class="node">
<title>n64637378</title>
<polygon fill="none" stroke="black" points="1446,-36 1277,-36 1277,0 1446,0 1446,-36"/>
<text text-anchor="start" x="1285" y="-15.3" font-family="Times,serif" font-size="14.00">!Clear(</text>
<text text-anchor="start" x="1324" y="-15.3" font-family="Times,serif" font-weight="bold" font-size="14.00">C256</text>
<text text-anchor="start" x="1355" y="-15.3" font-family="Times,serif" font-size="14.00">), !Rain(</text>
<text text-anchor="start" x="1402" y="-15.3" font-family="Times,serif" font-weight="bold" font-size="14.00">C256</text>
<text text-anchor="start" x="1433" y="-15.3" font-family="Times,serif" font-size="14.00">)</text>
</g>
<!-- SUBSn91179235n03023091&#45;&gt;n64637378 -->
<g id="edge37" class="edge">
<title>SUBSn91179235n03023091&#45;&gt;n64637378</title>
<path fill="none" stroke="black" d="M1335.9,-71.7C1339.77,-63.73 1344.45,-54.1 1348.74,-45.26"/>
<polygon fill="black" stroke="black" points="1351.97,-46.63 1353.19,-36.1 1345.67,-43.57 1351.97,-46.63"/>
</g>
<!-- n19106385 -->
<g id="node33" class="node">
<title>n19106385</title>
<polygon fill="none" stroke="black" points="356,-36 187,-36 187,0 356,0 356,-36"/>
<text text-anchor="start" x="195" y="-15.3" font-family="Times,serif" font-size="14.00">!Clear(</text>
<text text-anchor="start" x="234" y="-15.3" font-family="Times,serif" font-weight="bold" font-size="14.00">D271</text>
<text text-anchor="start" x="265" y="-15.3" font-family="Times,serif" font-size="14.00">), !Rain(</text>
<text text-anchor="start" x="312" y="-15.3" font-family="Times,serif" font-weight="bold" font-size="14.00">D271</text>
<text text-anchor="start" x="343" y="-15.3" font-family="Times,serif" font-size="14.00">)</text>
</g>
<!-- SUBSn35735420n33514483&#45;&gt;n19106385 -->
<g id="edge32" class="edge">
<title>SUBSn35735420n33514483&#45;&gt;n19106385</title>
<path fill="none" stroke="black" d="M275.26,-71.7C274.71,-63.98 274.05,-54.71 273.44,-46.11"/>
<polygon fill="black" stroke="black" points="276.93,-45.83 272.72,-36.1 269.94,-46.33 276.93,-45.83"/>
</g>
<!-- n87152361 -->
<g id="node31" class="node">
<title>n87152361</title>
<polygon fill="none" stroke="black" stroke-width="2" points="1628,-324 1429,-324 1429,-288 1628,-288 1628,-324"/>
<text text-anchor="start" x="1437" y="-303.3" font-family="Times,serif" font-size="14.00">!Day(</text>
<text text-anchor="start" x="1469" y="-303.3" font-family="Times,serif" font-weight="bold" font-size="14.00">t2</text>
<text text-anchor="start" x="1481" y="-303.3" font-family="Times,serif" font-size="14.00">), !Dry(</text>
<text text-anchor="start" x="1524" y="-303.3" font-family="Times,serif" font-weight="bold" font-size="14.00">t2</text>
<text text-anchor="start" x="1536" y="-303.3" font-family="Times,serif" font-size="14.00">), Sprinkler(</text>
<text text-anchor="start" x="1603" y="-303.3" font-family="Times,serif" font-weight="bold" font-size="14.00">t2</text>
<text text-anchor="start" x="1615" y="-303.3" font-family="Times,serif" font-size="14.00">)</text>
</g>
<!-- n87152361&#45;&gt;SUBSn87152361n91179235 -->
<g id="edge21" class="edge">
<title>n87152361&#45;&gt;SUBSn87152361n91179235</title>
<path fill="none" stroke="black" d="M1509.71,-287.7C1497.93,-276.85 1482.81,-262.92 1471.07,-252.1"/>
</g>
<!-- n87152361&#45;&gt;SUBSn91179235n87152361 -->
<g id="edge40" class="edge">
<title>n87152361&#45;&gt;SUBSn91179235n87152361</title>
<path fill="none" stroke="black" d="M1547.29,-287.7C1559.07,-276.85 1574.19,-262.92 1585.93,-252.1"/>
</g>
<!-- n54837721 -->
<g id="node35" class="node">
<title>n54837721</title>
<polygon fill="none" stroke="black" points="746,-36 569,-36 569,0 746,0 746,-36"/>
<text text-anchor="start" x="577" y="-15.3" font-family="Times,serif" font-size="14.00">!Rain(</text>
<text text-anchor="start" x="612" y="-15.3" font-family="Times,serif" font-weight="bold" font-size="14.00">W561</text>
<text text-anchor="start" x="647" y="-15.3" font-family="Times,serif" font-size="14.00">), !Clear(</text>
<text text-anchor="start" x="698" y="-15.3" font-family="Times,serif" font-weight="bold" font-size="14.00">W561</text>
<text text-anchor="start" x="733" y="-15.3" font-family="Times,serif" font-size="14.00">)</text>
</g>
<!-- SUBSn33514483n37557895&#45;&gt;n54837721 -->
<g id="edge24" class="edge">
<title>SUBSn33514483n37557895&#45;&gt;n54837721</title>
<path fill="none" stroke="black" d="M636.42,-71.7C639.57,-63.81 643.38,-54.3 646.88,-45.55"/>
<polygon fill="black" stroke="black" points="650.19,-46.69 650.66,-36.1 643.69,-44.09 650.19,-46.69"/>
</g>
<!-- n34167899 -->
<g id="node36" class="node">
<title>n34167899</title>
<polygon fill="none" stroke="black" stroke-width="2" points="2198,-324 2069,-324 2069,-288 2198,-288 2198,-324"/>
<text text-anchor="start" x="2077" y="-303.3" font-family="Times,serif" font-size="14.00">!Day(</text>
<text text-anchor="start" x="2109" y="-303.3" font-family="Times,serif" font-weight="bold" font-size="14.00">t0</text>
<text text-anchor="start" x="2121" y="-303.3" font-family="Times,serif" font-size="14.00">), !Night(</text>
<text text-anchor="start" x="2173" y="-303.3" font-family="Times,serif" font-weight="bold" font-size="14.00">t0</text>
<text text-anchor="start" x="2185" y="-303.3" font-family="Times,serif" font-size="14.00">)</text>
</g>
</g>
</svg>
